<?xml version="1.0" encoding="UTF-8"?><svg id="Spil_baggrund" xmlns="http://www.w3.org/2000/svg" width="1920" height="1080" xmlns:xlink="http://www.w3.org/1999/xlink" viewBox="0 0 1920 1080"><defs><style>.cls-1{fill:#ffd992;filter:url(#drop-shadow-3);stroke:#ffd992;}.cls-1,.cls-2,.cls-3{stroke-miterlimit:10;}.cls-2{filter:url(#drop-shadow-7);}.cls-2,.cls-3{fill:#ff5e4b;stroke:#ff5e4b;}.cls-3{filter:url(#drop-shadow-5);}.cls-4{filter:url(#drop-shadow-6);}.cls-5{opacity:.2;}.cls-6{fill:#ffce71;filter:url(#drop-shadow-4);}.cls-6,.cls-7,.cls-8,.cls-9,.cls-10,.cls-11,.cls-12,.cls-13,.cls-14,.cls-15,.cls-16,.cls-17{stroke-width:0px;}.cls-7{fill:#ce703d;filter:url(#drop-shadow-8);}.cls-8{filter:url(#drop-shadow-1);}.cls-8,.cls-10{fill:#50cdd0;}.cls-9{filter:url(#drop-shadow-2);}.cls-9,.cls-14{fill:#40b1ae;}.cls-11{fill:#369a97;}.cls-12{fill:#2c99ac;}.cls-13{fill:#409794;}.cls-15{fill:#d5f4f7;}.cls-16{fill:#84eaef;}.cls-17{fill:#91d1d7;}</style><filter id="drop-shadow-1" filterUnits="userSpaceOnUse"><feOffset dx="0" dy="-3"/><feGaussianBlur result="blur" stdDeviation="1"/><feFlood flood-color="#000" flood-opacity=".2"/><feComposite in2="blur" operator="in"/><feComposite in="SourceGraphic"/></filter><filter id="drop-shadow-2" filterUnits="userSpaceOnUse"><feOffset dx="0" dy="-3"/><feGaussianBlur result="blur-2" stdDeviation="1"/><feFlood flood-color="#000" flood-opacity=".2"/><feComposite in2="blur-2" operator="in"/><feComposite in="SourceGraphic"/></filter><filter id="drop-shadow-3" filterUnits="userSpaceOnUse"><feOffset dx="0" dy="-3"/><feGaussianBlur result="blur-3" stdDeviation="1"/><feFlood flood-color="#000" flood-opacity=".2"/><feComposite in2="blur-3" operator="in"/><feComposite in="SourceGraphic"/></filter><filter id="drop-shadow-4" filterUnits="userSpaceOnUse"><feOffset dx="0" dy="-2"/><feGaussianBlur result="blur-4" stdDeviation="1"/><feFlood flood-color="#000" flood-opacity=".2"/><feComposite in2="blur-4" operator="in"/><feComposite in="SourceGraphic"/></filter><filter id="drop-shadow-5" filterUnits="userSpaceOnUse"><feOffset dx="-2" dy="2"/><feGaussianBlur result="blur-5" stdDeviation="0"/><feFlood flood-color="#000" flood-opacity=".5"/><feComposite in2="blur-5" operator="in"/><feComposite in="SourceGraphic"/></filter><filter id="drop-shadow-6" filterUnits="userSpaceOnUse"><feOffset dx="-2" dy="2"/><feGaussianBlur result="blur-6" stdDeviation="0"/><feFlood flood-color="#000" flood-opacity=".5"/><feComposite in2="blur-6" operator="in"/><feComposite in="SourceGraphic"/></filter><filter id="drop-shadow-7" filterUnits="userSpaceOnUse"><feOffset dx="-2" dy="2"/><feGaussianBlur result="blur-7" stdDeviation="0"/><feFlood flood-color="#000" flood-opacity=".5"/><feComposite in2="blur-7" operator="in"/><feComposite in="SourceGraphic"/></filter><filter id="drop-shadow-8" filterUnits="userSpaceOnUse"><feOffset dx="-2" dy="2"/><feGaussianBlur result="blur-8" stdDeviation="0"/><feFlood flood-color="#000" flood-opacity=".5"/><feComposite in2="blur-8" operator="in"/><feComposite in="SourceGraphic"/></filter></defs><polygon class="cls-16" points="0 494.48 .81 -.31 1920.81 -.31 1920.81 632.71 .81 573.73 0 494.48"/><g class="cls-5"><polygon class="cls-15" points="1011.14 0 1061.78 1056.44 802.89 1056.44 894.58 0 792.62 0 587.66 836.48 503.44 757.92 699.57 0 557.25 0 235.18 742.21 119.77 626.99 411.61 0 272.94 0 -5.01 480.35 -114.18 354.66 94.56 0 1011.14 0"/><polygon class="cls-15" points="908.86 0 858.22 1056.44 1117.11 1056.44 1025.42 0 1127.38 0 1332.34 836.48 1416.56 757.92 1220.43 0 1362.75 0 1684.82 742.21 1800.23 626.99 1508.39 0 1647.06 0 1925.01 480.35 2034.18 354.66 1825.44 0 908.86 0"/></g><path class="cls-8" d="m5.58,483.86s49.04-17.06,78.88-1.42c29.85,15.63,26.29,19.19,41.93,24.87,15.63,5.69,39.09-.71,41.22.71,2.13,1.42,2.84,5.69,8.53,14.21s22.03,12.79,22.03,12.79c0,0,4.26,27.01,18.48,27.01s60.41-39.09,60.41-39.09c0,0,42.64-9.24,67.51-5.69,24.87,3.55,78.17,1.42,78.17,1.42,0,0,1.42,7.82,12.08,7.82s24.87,9.95,24.87,9.95c0,0,6.4,14.21,17.77,12.79,11.37-1.42,25.58-3.55,15.63-17.77,0,0,.71-19.9,65.38,18.48,0,0,26.29,10.66,34.82,3.55s45.48-13.5,52.59-7.82c7.11,5.69,31.98-33.4,28.43-34.11s41.93-.71,53.3-26.29c11.37-25.58,220.31-5.69,220.31-5.69,0,0-.71,4.97,10.66,2.13,0,0,12.08,1.42,12.08,14.92s29.85,7.82,29.85,7.82c0,0,19.19-.71,17.06,11.37s25.58,5.69,25.58,5.69c0,0,25.58,41.22,40.51,39.09,14.92-2.13,51.88,9.95,76.04-12.08,24.16-22.03,98.78-4.97,98.78-4.97,0,0,25.58,73.91,155.64,22.03,0,0,83.86,2.84,139.29,34.82,0,0,113,28.43,185.48-76.04,0,0,34.2-36.99,112.97,40.5,1.89,1.86,4.16,3.29,6.65,4.21,4.07,1.51,10.69,3.13,18.88,2.2,2.58-.29,5.01-1.33,7.1-2.88,8.2-6.12,37.49-26.74,36.32-1.37-1.43,30.93,0,224.4,0,224.4L.81,818.11.02,484.52l5.57-.67Z"/><path class="cls-9" d="m5.05,632.69s40.34,18.76,37.53,65.68c-2.81,46.91,9.38-7.51,9.38-7.51,0,0,0-77.87-3.75-85.38-3.75-7.51,18.76-3.75,18.76-3.75,0,0-3.75,86.32,2.81,89.13,6.57,2.81,12.2-8.44,12.2-8.44,0,0-6.57-125.72-.94-125.72s18.76-13.14,24.39,0c5.63,13.14-12.2,136.98-5.63,138.86,6.57,1.88,10.32-12.2,10.32-19.7s5.63-82.56,12.2-82.56,17.83-13.14,25.33,2.81c0,0-31.9,45.97-17.83,59.11,14.07,13.14-4.69,36.59-4.69,36.59,0,0,7.51,14.07,13.14,1.88,5.63-12.2,22.52-56.29,15.01-62.86-7.51-6.57,16.89-9.38,16.89,0s.94,32.84-10.32,46.91-21.58,38.47-11.26,42.22c10.32,3.75,60.05,9.38,61.92,14.07,1.88,4.69,32.84,8.44,42.22,20.64s63.8,39.41,94.76,9.38c0,0,19.7-20.64,82.56-10.32,0,0,38.47-19.7,61.92-17.83,23.46,1.88,86.32,5.63,150.12-4.69,63.8-10.32,30.02,6.57,90.07,0,60.05-6.57,99.45-7.51,109.77,16.89,10.32,24.39,44.1,59.11,61.92,45.97,17.83-13.14,55.36-12.2,55.36-12.2,0,0,48.79,32.84,82.56,7.51,0,0,106.02-20.64,151.06-.94,45.04,19.7,212.04-4.69,212.04-4.69,0,0,99.45,19.7,166.07-43.16,0,0,90.07-35.65,126.66,38.47,0,0,34.71,29.09,124.78-14.07,90.07-43.16,98.4-34.53,98.4-34.53v172.83L.81,923.01v-280.19l4.25-10.13Z"/><path class="cls-10" d="m868.36,477.41s8.38-20.66,4.47-21.22c-2.93-.42-7.42,6.68-9.49,10.27-.53.92-1.87.89-2.36-.06-5.9-11.29-2.94-30.04-2.94-30.04h0c-1.04-10.15,8.58-17.14,9.9-18.05.1-.07.19-.16.27-.26,1.23-1.58,11.3-14.71,6.58-15.76-2.99-.66-6.17,3.7-8.26,7.35-.68,1.19-2.51.72-2.52-.66-.32-28.13,9.1-41.04,9.11-41.04,0,0,0,0,0,0,0,0,6.7-3.07,5.31-6.14-.99-2.18-5.06-.57-7.35.55-.83.41-1.68,0-1.89-.9-.42-1.78-1.35-4.32-3.33-4.68-2.67-.48-.91,7.66-.4,9.82l-.16.98c-7.37,12.35-7.29,48.12-7.26,51.98,0,.22-.05.44-.16.63-1.64,2.91-14.69,26.85-7.09,36.29,5.91,7.34,4.53,9.47,3.36,10.08-.42.22-.94.19-1.33-.08-14.04-9.64-19.19-46.81-20.04-53.82-.08-.65.32-1.25.94-1.45,14.13-4.33,16.52-18.69,16.52-18.69,0,0,2.51-13.68,6.98-29.32s16.46-15.64,16.48-15.64c0,0,0,0,0,0,.02,0,10.33,2.79,10.33,0,0-2.11-5.57-2.62-8.3-2.75-.79-.04-1.36-.71-1.27-1.5.3-2.65.57-7.97-2.16-7.76-2.69.21-2.31,4.87-1.94,7.27.11.72-.39,1.42-1.11,1.53-11.59,1.64-15.4,15.17-16.28,19.15-.15.7-.84,1.18-1.54,1.04-4.33-.86-3.06-8.34-2.5-10.85.1-.48.46-.85.93-.98,9.74-2.75,12.67-27.48,12.67-27.48h0c2.51-7.26,4.47-32.67,4.47-32.67,0,0,0,0,0,0,0,0,1.96-4.19,7.54-7.54,4.71-2.82,3.33-4.29,2.44-4.38l-.39-.05c-1.18-.06-4.55,1.14-6.51,3.59-1.36,1.7-2.72,1.64-3.58,1.33-.54-.2-.88-.74-.85-1.32.16-2.89.81-12.47,2.47-13.42s5.94-4.36,7.36-5.5c.3-.24.48-.6.49-.99.04-1.39-.14-4.71-2.55-5.8-2.51-1.14-4.64,4.04-5.34,5.99-.16.46-.56.78-1.04.87-1.37.23-2.47.64-3.11-.71-.89-1.87-5.81-7.88-6.98-8.94-.12-.08-.2-.32-.52-.37-1.72-.74-13.55-5.69-3.95,2.61,10.33,8.94,8.67,9.02,7.26,9.21-1.68.23,1.4,23.46-1.4,51.94-2.79,28.48-7.26,26.53-7.26,26.53,0,0-6.14,1.12-2.51-2.23,3.63-3.35,2.8-23.13,2.8-23.16,0,0,0-.07,0-.07.04,0-6.14-13.91-5.86,8.14,0,0,0,0,0,0,0,.02-7.11,28.15.99,40.3,6.58,9.87-5.07,28.25-10.04,35.26-.72,1.02-2.32.59-2.44-.65-.94-9.58-3.08-36.18,1.28-43.4.1-.16.33-.71.35-.9l.44-4.92c.02-.16.07-.6.14-.75,1.28-2.98,2.33-22.56,3.69-27.73,1.4-5.31,7.54-46.35,7.54-46.35,0,0,.84-5.31-3.63-7.26-3.99-1.75-7.98,37.72-8.79,46.17-.09.95-.89,1.46-1.79,1.13-2.28-.83-6.09-3.07-5.9-8.77.26-7.5-4.75-6.62-5.49-6.45-.06.01-.12.03-.18.06-.87.36-7.38,3.58,6.23,15.88,14.51,13.11,3.95,15.84,2.79,15.36h0c-26.43-5.08-20.02-30.75-18.65-35.32.13-.43.46-.77.9-.9,11.79-3.52,9.3-5.7,12.73-7.62,3.02-1.69,2.48-20.49,2.28-24.62-.02-.48.21-.94.62-1.2,2.27-1.45,9.53-6.35,7.16-8.24-2.79-2.23-9.21,4.75-10.89,4.75-1.56,0-5.78-7.99-6.36-9.09-.04-.09-.1-.17-.16-.24-5.46-6.39-5.12,1.32-3.86,2.94l.17.44c1.2,1.96,10.72,18.22,5.74,30.8-4.32,10.91-7.34,8.87-8.32,7.73l-.3-.95c2.53-34.03-14.23-27.54-15.08-27.18-.03.01-.05.02-.08.03-.98.32-18.48,6.1-1.91,5.01,17.03-1.12,11.45,25.97,11.45,25.97-6.27,35.39,14.3,40.77,18.52,41.5.47.08.86.41,1.02.86,7.65,21.18,5.68,28.99,4.37,31.47-.33.62-1.1.87-1.74.58-12.74-5.87-8.76-19.67-8.76-19.67,0,0,2.79-11.73-5.03-.84-7.06,9.83,9.31,24.66,12.57,27.46.35.3.51.75.45,1.2-7.58,57.22,18.03,84.71,19.32,86.06.04.04.07.08.1.12.84,1.13,12.02,16.32-.89,6.64-13.4-10.05-28.25-24.59-29.32-25.97-.66-.85-.04-2.5.52-3.6.19-.37.54-.63.95-.7,22.66-4.15,29.25-22.82,30.63-26.14,1.4-3.35-2.51-4.47-2.51-4.47,0,0-5.03-1.4-3.07,2.79,1.95,4.19-17.03,20.94-17.03,20.94,0,0,0,0,0,0,0,0-10.89,3.91-13.68.84s-4.19-14.24-2.51-15.08c1.63-.81,9.05-24.81,9.48-26.19.01-.04.02-.09.03-.13.12-.64.95-5.35-1.13-6.91-2.23-1.68-4.47,2.79-4.47,2.79,0,0,0,0,0,0,0,0-4.19,26.25-7.82,22.9-3.63-3.35-4.47-23.73-4.47-23.74h0c6.58-17.93-1.41-28.11-4.63-31.3-.61-.61-.56-1.52.13-2.04,12.78-9.57,3.14-24.64,4.22-29.77s-22.07-57.27-24.15-61.94l-.11-.69c.21-1.87,1.08-10.57-1.16-10.82-1.62-.18-2.43,3.72-2.8,6.51-.14,1.07-1.42,1.55-2.23.84-2.61-2.28-6.95-5.3-7.53-.64-.71,5.68,6.61,7.55,8.85,7.99.41.08.76.35.94.73,24.33,49.4,25.61,76.42,25.66,78.05,0,.06,0,.11,0,.17-.09.84-1.01,7.49-7.81,8.01-7.26.56-13.4-31.27-13.96-38.26-.44-5.49-4.5-15.29-6.22-19.23-.39-.9-.65-1.85-.88-2.81-1.41-5.89-14.94-13.64-17.99-15.32-.38-.21-.63-.58-.68-1.01-.29-2.55-1.45-11.36-3.84-11.6-2.12-.21-1.34,6.84-.84,10.23.14.96-.53,1.65-1.49,1.53-3.63-.45-11.4-1.1-9.67,1.92,2,3.49,13.8,5.2,16.29,5.53.3.04.58.18.79.4,3.01,3.16,25.59,27.28,16.99,30.93-8.68,3.68-39.39-23.83-42.95-27.06l-.41-.75c-.35-2.01-1.94-10.24-4.39-10.73-2.03-.41-.82,5.81,0,9.25.23.98-.65,1.86-1.64,1.62-3.32-.82-9.25-1.99-9.25.02,0,2.53,9.16,4.37,10.89,4.7l.51.22c3.29,2.4,38.57,28.25,42.77,27.2,2.68-.67,5.42-.71,6.59-.17l.61.61.49.98c.09.17.13.35.14.54.4,9.23,8.83,23.88,11.81,28.77.57.94.15,1.85-.94,2.02-14.39,2.22-18.58-7.46-18.95-8.39-.02-.04-.03-.08-.04-.13-.21-.76-2.67-9.43-6.41-9.16s.56,9.77.56,9.77c-.84,6.14-19.8-5.57-19.83-5.58,0,0,0,0,0,0-.01-.02-8.93-14.79-4.47-1.68,4.05,11.88,24.12,11.4,27.88,11.21.39-.02.76.14,1.03.42,8.63,9.05,20.59,9.3,24.98,8.2,3.86-.97,5.85,2.04,6.31,2.87.07.13.12.26.14.41.47,3,5.8,37.99-1.15,24.09-7.26-14.52-39.37-23.46-37.98-24.29s.56-6.42.56-6.42c0,0-1.68-13.4-6.98-19.27-4.71-5.21-18.22-12.61-21.2-14.21l-.67-.96c-.31-2.14-1.47-8.89-3.82-9.13-2.13-.21-2.47,6.08-2.52,9.07-.01.84-.7,1.42-1.53,1.3-3.27-.46-10.48-1.2-8.52,1.63,2.22,3.2,10.3,2.06,12.18,1.74l.76.1c24.91,11.41,24.34,14.28,25.52,19.48.33,1.47.81,3.12,2.03,5.2,5.58,9.49-2.51,7.54-2.51,7.54-1.79.51-21.12-12.08-24.39-14.21-.3-.19-.5-.49-.57-.84-.43-2.16-2.15-10.11-4.08-10.35-1.71-.21-2.44,5.95-2.69,8.86-.06.75-.72,1.28-1.47,1.21-3.78-.35-9.99,1.48-9.25,2.22.84.84,11.45,2.79,12.84,2.23s28.48,14.52,28.48,14.52l30.6,16.97.22.15c1.55,1.31,20.49,17.39,18.89,21.14-1.57,3.67,1.91,21.63,4.13,23.8.1.1.1.27.18.39,1.47,2.11,15.46,22.44,9.37,22.44s-11.54-7.74-12.44-9.03l-.18-.38c-.58-1.97-5.65-18.46-16.14-30.52-10.32-11.86-38.73-25.39-43.02-27.39-.34-.16-.6-.46-.71-.83-.77-2.66-4.12-13.48-6.82-10.04-2.21,2.81.06,7.93,1.5,10.58.51.93.08,1.82-.98,1.98-3.6.55-10.6,1.81-8.07,3.07,3.35,1.68,12.84.56,12.84.56,0,0,0,0,0,0,0,0,36.58,13.13,31.55,21.78-4.76,8.2-23.81-4.4-25.8-5.75-.11-.07-.2-.16-.28-.26-.71-.91-4.93-5.9-13.29-7.68-9.2-1.95-5.04,5.57-5.03,5.58,0,0,0,0,0,0,.02,0,7.55,2.24,20.11,9.49,11.98,6.92,23.97,3.69,25.05,3.37l.14-.05c.86-.35,11.16-4.39,12.23,3.37,1.12,8.09,4.18,12.84,4.19,12.84,0,0,0,0,0,0,.01.01,7.54,7.82,6.14,10.05-1.35,2.16-21.17-3.75-22.54-4.17-.05-.02-.1-.03-.16-.04-1.04-.16-11.47-1.66-2.71,3.92,8.15,5.18,25.02,4.91,28.83,4.78.46-.02.9.21,1.15.6,3.9,5.9,16.26,9.48,17.87,9.93.12.03.23.08.33.15,1.91,1.23,20.32,13.14,16.87,15.26-3.47,2.14-18.95-3.39-20.29-3.88-.07-.02-.13-.04-.2-.05-1.01-.17-9.11-1.5-9.11.86,0,2.51,7.54,5.58,11.45,6.7,3.91,1.12,18.71.28,21.22.28,2.29,0,15.04,7.2,17.26,8.47.22.12.46.18.72.18l16.09-.55"/><path class="cls-10" d="m876.21,476.84s-6.58-16.22-3.51-16.66c2.3-.33,5.83,5.25,7.45,8.07.42.72,1.47.7,1.86-.04,4.63-8.87,2.31-23.58,2.31-23.59h0c.82-7.97-6.74-13.46-7.78-14.17-.08-.06-.15-.12-.21-.2-.96-1.24-8.88-11.55-5.17-12.38,2.34-.52,4.84,2.9,6.49,5.77.54.94,1.97.56,1.98-.51.25-22.09-7.15-32.22-7.15-32.23,0,0,0,0,0,0,0,0-5.26-2.41-4.17-4.82.78-1.71,3.97-.45,5.77.44.65.32,1.32,0,1.48-.71.33-1.39,1.06-3.39,2.61-3.67,2.09-.38.72,6.02.32,7.71l.13.77c5.79,9.69,5.72,37.78,5.7,40.81,0,.18.04.34.13.49,1.28,2.29,11.54,21.09,5.57,28.49-4.64,5.76-3.56,7.43-2.63,7.92.33.17.74.15,1.05-.06,11.02-7.57,15.06-36.76,15.73-42.26.06-.51-.25-.99-.74-1.13-11.09-3.4-12.97-14.67-12.97-14.67,0,0-1.97-10.74-5.48-23.02-3.51-12.27-12.92-12.28-12.94-12.28,0,0,0,0,0,0-.01,0-8.11,2.19-8.11,0,0-1.65,4.37-2.06,6.51-2.16.62-.03,1.07-.56,1-1.18-.24-2.08-.45-6.26,1.69-6.09s1.82,3.83,1.52,5.71c-.09.57.3,1.12.87,1.2,9.1,1.29,12.09,11.91,12.78,15.04.12.55.66.92,1.21.81,3.4-.68,2.4-6.55,1.97-8.52-.08-.37-.36-.66-.73-.77-7.65-2.16-9.95-21.57-9.95-21.58h0c-1.97-5.7-3.51-25.65-3.51-25.65,0,0,0,0,0,0,0,0-1.54-3.29-5.92-5.92-3.69-2.22-2.62-3.37-1.91-3.44l.31-.04c.92-.04,3.57.9,5.11,2.82,1.07,1.33,2.14,1.29,2.81,1.05.43-.15.69-.58.67-1.03-.13-2.27-.64-9.79-1.94-10.54-1.27-.73-4.67-3.42-5.78-4.32-.24-.19-.38-.47-.39-.78-.03-1.09.11-3.7,2-4.56s3.64,3.18,4.19,4.7c.13.36.44.62.82.68,1.08.18,1.94.5,2.44-.56.7-1.47,4.56-6.18,5.48-7.02.1-.06.16-.25.41-.29,1.35-.58,10.64-4.47,3.1,2.05-8.11,7.02-6.81,7.09-5.7,7.24,1.32.18-1.1,18.42,1.1,40.78s5.7,20.83,5.7,20.83c0,0,4.82.88,1.97-1.75-2.85-2.63-2.2-18.16-2.2-18.18,0,0,0-.05,0-.05-.03,0,4.82-10.92,4.6,6.4,0,0,0,0,0,0,0,.01,5.58,22.1-.78,31.65-5.17,7.75,3.98,22.18,7.88,27.69.57.8,1.82.47,1.92-.51.74-7.52,2.42-28.41-1.01-34.08-.08-.13-.26-.56-.28-.71l-.35-3.87c-.02-.12-.06-.47-.11-.59-1.01-2.34-1.83-17.71-2.9-21.78-1.1-4.17-5.92-36.4-5.92-36.4,0,0-.66-4.17,2.85-5.7,3.13-1.37,6.27,29.62,6.9,36.25.07.74.7,1.14,1.41.89,1.79-.65,4.78-2.41,4.63-6.89-.2-5.89,3.73-5.2,4.31-5.06.05.01.1.03.14.05.68.28,5.79,2.81-4.9,12.47-11.39,10.3-3.1,12.44-2.19,12.06h0c20.75-3.99,15.72-24.14,14.64-27.74-.1-.34-.36-.6-.7-.7-9.26-2.77-7.3-4.48-9.99-5.98-2.37-1.33-1.95-16.09-1.79-19.33.02-.38-.16-.74-.48-.94-1.78-1.14-7.48-4.99-5.62-6.47,2.19-1.75,7.24,3.73,8.55,3.73,1.22,0,4.54-6.27,4.99-7.14.04-.07.08-.13.13-.19,4.29-5.01,4.02,1.04,3.03,2.31l-.13.34c-.94,1.54-8.42,14.31-4.51,24.18,3.39,8.56,5.76,6.97,6.53,6.07l.24-.74c-1.99-26.72,11.17-21.62,11.84-21.34.02,0,.04.01.06.02.77.25,14.51,4.79,1.5,3.94-13.37-.88-8.99,20.39-8.99,20.39,4.93,27.79-11.23,32.02-14.54,32.59-.37.06-.67.32-.8.67-6,16.63-4.46,22.76-3.43,24.71.26.49.87.68,1.37.45,10.01-4.61,6.88-15.45,6.88-15.45,0,0-2.19-9.21,3.95-.66,5.54,7.72-7.31,19.36-9.87,21.56-.27.23-.4.59-.36.94,5.95,44.93-14.15,66.51-15.17,67.57-.03.03-.05.06-.08.09-.66.89-9.44,12.81.7,5.21s22.18-19.31,23.02-20.39c.52-.67.03-1.96-.41-2.83-.15-.29-.43-.49-.75-.55-17.79-3.26-22.97-17.91-24.05-20.52-1.1-2.63,1.97-3.51,1.97-3.51,0,0,3.95-1.1,2.41,2.19-1.53,3.29,13.37,16.44,13.37,16.44,0,0,0,0,0,0,0,0,8.55,3.07,10.74.66s3.29-11.18,1.97-11.84c-1.28-.64-7.11-19.48-7.44-20.56-.01-.04-.02-.07-.03-.1-.1-.5-.75-4.2.89-5.42,1.75-1.32,3.51,2.19,3.51,2.19,0,0,0,0,0,0,0,0,3.29,20.61,6.14,17.98,2.85-2.63,3.51-18.63,3.51-18.64h0c-5.17-14.08,1.11-22.07,3.64-24.57.48-.48.44-1.19-.1-1.6-10.04-7.52-2.47-19.35-3.32-23.38s17.33-44.97,18.96-48.63l.08-.54c-.17-1.47-.85-8.3.91-8.49,1.28-.14,1.91,2.92,2.2,5.11.11.84,1.11,1.22,1.75.66,2.05-1.79,5.46-4.16,5.92-.51.56,4.46-5.19,5.93-6.95,6.27-.32.06-.6.28-.74.57-19.1,38.78-20.11,60-20.15,61.28,0,.05,0,.09,0,.13.07.66.79,5.88,6.13,6.29,5.7.44,10.52-24.56,10.96-30.04.34-4.31,3.54-12.01,4.88-15.1.31-.71.51-1.46.69-2.21,1.1-4.63,11.73-10.71,14.12-12.03.3-.16.49-.46.53-.8.23-2,1.14-8.92,3.01-9.11,1.67-.17,1.05,5.37.66,8.03-.11.75.42,1.29,1.17,1.2,2.85-.35,8.95-.86,7.59,1.51-1.57,2.74-10.84,4.09-12.79,4.34-.24.03-.45.14-.62.31-2.36,2.48-20.1,21.42-13.34,24.29,6.81,2.89,30.93-18.71,33.72-21.25l.32-.59c.28-1.58,1.53-8.04,3.45-8.42,1.59-.32.64,4.56,0,7.26-.18.77.51,1.46,1.28,1.27,2.61-.64,7.27-1.56,7.27.02,0,1.99-7.19,3.43-8.55,3.69l-.4.17c-2.58,1.88-30.29,22.18-33.58,21.35-2.1-.53-4.25-.56-5.17-.14l-.48.48-.39.77c-.07.13-.1.28-.11.43-.31,7.25-6.94,18.75-9.27,22.59-.45.74-.12,1.46.74,1.59,11.3,1.75,14.59-5.85,14.88-6.59.01-.03.02-.06.03-.1.16-.6,2.1-7.4,5.03-7.19,3.07.22-.44,7.67-.44,7.67.66,4.82,15.55-4.37,15.57-4.39,0,0,0,0,0,0,.01-.02,7.01-11.61,3.51-1.32-3.18,9.33-18.94,8.95-21.89,8.8-.31-.02-.6.11-.81.33-6.78,7.1-16.17,7.3-19.62,6.44-3.03-.76-4.59,1.6-4.96,2.25-.06.1-.09.21-.11.32-.37,2.36-4.56,29.83.9,18.92,5.7-11.4,30.91-18.42,29.82-19.08-1.1-.66-.44-5.04-.44-5.04,0,0,1.32-10.52,5.48-15.13,3.7-4.09,14.31-9.9,16.64-11.16l.53-.75c.24-1.68,1.16-6.98,3-7.17,1.67-.17,1.94,4.77,1.98,7.12,0,.66.55,1.12,1.2,1.02,2.57-.36,8.23-.94,6.69,1.28-1.74,2.51-8.09,1.62-9.56,1.37l-.6.08c-19.56,8.96-19.11,11.22-20.04,15.3-.26,1.15-.63,2.45-1.59,4.08-4.39,7.45,1.97,5.92,1.97,5.92,1.4.4,16.59-9.48,19.15-11.16.23-.15.39-.39.45-.66.34-1.69,1.69-7.94,3.21-8.13,1.34-.17,1.91,4.67,2.11,6.95.05.59.57,1,1.15.95,2.96-.27,7.84,1.16,7.26,1.74-.66.66-8.99,2.19-10.09,1.75s-22.36,11.4-22.36,11.4l-24.03,13.32-.17.12c-1.22,1.03-16.09,13.65-14.83,16.6,1.24,2.88-1.5,16.98-3.24,18.69-.08.08-.08.21-.14.3-1.15,1.66-12.14,17.62-7.36,17.62s9.06-6.08,9.77-7.09l.14-.3c.46-1.55,4.44-14.5,12.67-23.96,8.1-9.31,30.41-19.94,33.78-21.51.27-.13.47-.36.55-.65.6-2.09,3.23-10.58,5.35-7.88,1.73,2.21-.04,6.22-1.18,8.31-.4.73-.06,1.43.77,1.56,2.82.43,8.32,1.42,6.34,2.41-2.63,1.32-10.08.44-10.09.44,0,0,0,0,0,0,0,0-28.72,10.31-24.78,17.1,3.74,6.44,18.7-3.46,20.26-4.51.08-.06.15-.12.22-.2.56-.71,3.87-4.63,10.44-6.03,7.23-1.53,3.95,4.37,3.95,4.39,0,0,0,0,0,0-.01,0-5.93,1.76-15.79,7.45-9.41,5.44-18.82,2.9-19.67,2.65l-.11-.04c-.67-.27-8.76-3.44-9.6,2.65-.88,6.35-3.28,10.08-3.29,10.09,0,0,0,0,0,0,0,0-5.92,6.14-4.82,7.89s16.62-2.95,17.7-3.27c.04-.01.08-.02.12-.03.82-.13,9.01-1.3,2.13,3.08-6.4,4.07-19.65,3.86-22.63,3.75-.36-.01-.7.17-.91.47-3.06,4.63-12.77,7.45-14.03,7.8-.09.03-.18.06-.26.12-1.5.96-15.95,10.32-13.25,11.98,2.73,1.68,14.88-2.66,15.93-3.04.05-.02.1-.03.15-.04.79-.14,7.15-1.18,7.15.67,0,1.97-5.92,4.39-8.99,5.26s-14.69.22-16.66.22c-1.8,0-11.81,5.65-13.55,6.65-.17.1-.37.15-.56.14l-12.63-.43"/><path class="cls-10" d="m52.05,494.6s-21.97,12.51-34.14-5.41c0,0,1.69-20.62-1.01-25.35,0,0-12.9-1.89-18.67-10.22-.39-.57-1.02-.94-1.71-.97-4.07-.17-18.02-1.35-19.6-9.32,0,0,8.88,4.83,10.51-8,.05-.36.52-.44.68-.11.95,1.97,3.09,5.63,5.81,5.63,3.72,0,17.24.34,21.63,7.77,4.39,7.44,8.79-7.44,8.79-7.44,0,0-4.73-26.36-30.42-27.38-25.69-1.01-25.79-57.3-25.79-57.3,0,0,9.28,10.17,18.96-4.57,0,0,6.79,20.09,5.37,26.92-.12.6-.09,1.21.15,1.77,1.11,2.67,4.47,9.88,8.07,8.5,4.39-1.69-4.73-57.8-4.73-57.8,0,0-2.76-20.58,1.75-24.3,4.52-3.72,15.32,11.47,23.98,1.33,0,0,5.36,19.26-4.44,27.03,0,0-5.07,7.44-3.72,12.51,1.35,5.07-2.37,43.26-2.37,43.26,0,0,7.1,4.06,10.48-20.28,0,0-1.92-24.47,2.42-27.9,3.66-2.89,10.69,1.09,12.82,2.42.39.24.61.68.58,1.13-.39,5.54-3.09,41-8.38,45.98-5.75,5.41-6.76,10.14-6.76,10.14,0,0-.34,17.24,9.13,4.73,0,0,8.24-15.09,11.47-14.53,3.23.56,11.56,7.32,11.56,7.32,0,0,2.99,4.51-11.54,22.77,0,0-7.77,14.53,7.44,17.58,15.21,3.04,23.32-28.73,23.32-28.73,0,0,0-11.15-4.06-13.18s-30.73-17.34-24.16-47.19l18.8-3.85c.08-.02.15.05.15.13-.11,1.53-1.08,13.59-4.25,16.44-3.38,3.04,3.38,12.84,3.38,12.84,0,0,14.2,18.59,16.56-4.39,0,0,7.77-16.56.68-19.6s-18.89-28.87-12.18-46.78l15.94,2.28s-7.14,14.08-3.09,17.46c4.06,3.38,8.11,1.35,8.11,1.35,0,0,8.76-8.03,2.69-40.18l11.25-.73s10.64,31.46-.98,45.44c-.53.64-.88,1.42-1.04,2.24-.81,4.12-3.42,16.53-6.5,21.29-3.72,5.75-9.46,23.32-8.11,25.35,1.35,2.03,6.76-.68,6.76-.68,0,0,17.14-12.34,10.1-34.16l18.5-.59s2.83,15.49-9.67,24.27c-12.51,8.79-18.25,23.66-18.25,23.66,0,0-1.76,15.31,28.81-4.4l4.85,11.53s-4.58,9.43-26.22,7.4c0,0-11.83-2.7-11.83,11.15s-17.58,22.64-17.58,22.64c0,0-20.96,14.03-20.96,19.27,0,0-3.5,13.83,14.2,1.01,15.25-11.04,19.8-16.55,19.8-16.55l4.74,18.57s-15.62,8.33-30.28,7.79c-2.6-.1-4.98,1.45-5.99,3.85-1.67,3.95-3.38,10.53-1.78,19.13Z"/><ellipse class="cls-10" cx="9.45" cy="308.84" rx="12.29" ry="5.46"/><ellipse class="cls-10" cx="76.53" cy="307.48" rx="8.22" ry="4.68"/><ellipse class="cls-10" cx="97.97" cy="287.25" rx="5.72" ry="3.16"/><ellipse class="cls-10" cx="112.97" cy="345.87" rx="9.28" ry="3.36"/><ellipse class="cls-10" cx="54.91" cy="349.68" rx="9.87" ry="4.74" transform="translate(-99.06 30.95) rotate(-16.86)"/><ellipse class="cls-10" cx="30.47" cy="345.39" rx="7.11" ry="4.34"/><ellipse class="cls-10" cx="124.22" cy="395.81" rx="4.74" ry="7.11"/><ellipse class="cls-10" cx="46.91" cy="400.01" rx="6.97" ry="8.32" transform="translate(-269.11 150.33) rotate(-45)"/><ellipse class="cls-10" cx="88.1" cy="454.44" rx="4.93" ry="9.67" transform="translate(-76.44 21.77) rotate(-9.85)"/><path class="cls-10" d="m174.31,524.77c-.32,0-.62-.16-.84-.4-.77-.85-1.98-2.77-.5-5.36,1.58-2.76-2.65-5.52-4.63-6.62-.63-.35-1.08-.95-1.24-1.66-.63-2.85-1.96-10.26.28-14.11,1.98-3.41-.23-6.06-1.7-7.33-.73-.63-1.15-1.54-1.15-2.5-.02-3.94.64-13.49,7.4-14.82,0,0,1.4-.24-.73,3.28-1.72,2.84-1.99,7.83-2.03,9.7-.01.53.09,1.06.28,1.55.55,1.37,1.93,4.03,4.54,4.78,3.56,1.02.51,7.63.51,7.63,0,0-4.56,7.43-.63,11.59.19.2.41.36.65.49.93.47,3.84,2.44,3.15,8.66-.07.61.06,1.23.39,1.76,1.09,1.78,3.74,5.6,6.12,4.8,3.08-1.03-3.8-9.34-3.8-9.34,0,0-5.07-10.43-1.23-18.29.13-.27.22-.55.26-.85.27-2.36,1.27-13.05-2.93-14.32-4.72-1.44,2.57-14.58,2.57-14.58,0,0,3.91-4.96-1.15-15.03-.13-.25-.22-.53-.26-.81-.29-1.87-1.16-9.18,2.73-10.65.41-.15.77-.41,1.01-.77.76-1.15,2.03-3.92.75-8.52-1.75-6.26,1.44-1.33,1.44-1.33,0,0,5.43,6.14-1.13,15.43-.16.23-.3.48-.4.75-.54,1.47-1.66,6.23,3.74,11.32.39.37.7.82.85,1.34.51,1.73.66,5.95-4.19,14.69h0c-.3.45-.51.96-.62,1.49-.46,2.23-1.19,8.17,3.1,11.09.37.25.69.57.92.95,1,1.59,2.7,5.97-1.5,13.7-.18.33-.3.69-.35,1.07-.33,2.57-1.35,13.03,2.85,20.46,0,0,.72,2.87,1.44-1.75.72-4.62,2.26-6.67,2.26-6.67,0,0,5.95-3.18.82-10.27,0,0-3.18-4.21,2.36-6.57,5.43-2.31,7.61-19.58,1.91-26.18-.25-.29-.41-.64-.48-1.02h0s-4.62-11.09,0-16.84c0,0,10.75-7.73,5.14-19.22-.59-1.21-.99-2.51-1.23-3.84-.97-5.28-3.63-18.08-7.21-22.67-.37-.48-.62-1.03-.75-1.62-.79-3.64-1.27-16.03,10.09-20.03,0,0,2.28-.38-2.54,4.65,0,0-5.65,6.57.31,20.63,0,0,11.39,20.02,9.75,26.28-1.64,6.26,6.06,10.37-7.7,20.53,0,0-4.79,4.39,3.34,17.51.32.52.59,1.08.78,1.66,1.12,3.32,3.38,13.76-7.1,25.59,0,0-1.54,2.46.92,4.11,2.46,1.64,1.54,5.44,1.54,5.44,0,0-1.49,2.79-6.6,6.25-.57.39-1.05.9-1.39,1.51-.88,1.57-1.97,4.17,2.66,1.06,0,0,12.01-5.85,12.63-11.6.62-5.75.82-14.37-.21-18.27s7.48-17.43,8.83-17.86c0,0,6.86-4.51,6.67-6.78,0,0-.07-13.88-1.03-14.89-.78-.82,1.13-7.49,4-7.49,2.38,0,.89-4.29.31-5.77-.12-.31-.31-.6-.54-.85-1.7-1.83-9.36-10.5-8.06-16.96.04-.22.07-.45.06-.68-.08-2.33,0-14.13,4.33-16.6,0,0,3.23-1.11.68,15.3-.04.28-.06.57-.04.85.12,2.06.87,10.55,5.11,11.36,4.39.84,5.13,9.09,5.22,10.56,0,.13.03.26.06.39.22.81.89,4.46-3.93,8.02-.27.2-.5.43-.67.71-.75,1.18-2.27,4.55.24,9.89,3.18,6.78-4.52,13.86-4.52,13.86,0,0-8.04,5.87-10.59,14.7-2.24,7.73-.97,15.95-.61,17.89.06.32.08.64.05.96-.17,2.18-1.29,10.3-8.27,12.87-8.09,2.98-12.99,5.43-12.24,6.6s3.09.43,3.09.43c0,0,11.83-2.4,13.52-3.83,2.05-1.73,17.36-9.16,12.14-20.53-.07-.15-.13-.32-.17-.48-.47-1.93-3.32-14.32-.18-18.38.52-.68.66-1.58.43-2.4-.58-2.08-2.07-5.96-5.89-10.72-.23-.28-.41-.6-.54-.94-.59-1.64-1.47-6.38.44-9.42.14-.22.42-.29.64-.14.52.34,1.37,1.48,1.67,5.22.46,5.6,6.49,9.16,6.49,9.16,0,0,4.1-.19,1.33,8.66-.23.75-.37,1.52-.41,2.3-.18,3.43-.36,12.55,2.61,14.31,3.65,2.16.59,18.56-17.32,27.32-.26.13-.53.23-.81.3-2.36.63-13.9,3.7-16.47,3.7-2.38,0-10.4-.09-13.04-.13-.51,0-.96-.32-1.15-.79-.82-2.1-3.15-7.69-4.72-7.66Z"/><path class="cls-10" d="m1686.92,578.12c.28,0,.55-.14.74-.35.68-.75,1.74-2.44.44-4.71-1.39-2.43,2.33-4.85,4.07-5.82.56-.31.95-.84,1.09-1.46.55-2.5,1.72-9.02-.24-12.4-1.74-3,.2-5.33,1.5-6.44.64-.55,1.01-1.35,1.01-2.2.02-3.46-.56-11.86-6.51-13.03,0,0-1.23-.21.64,2.88,1.51,2.5,1.75,6.89,1.78,8.53.01.47-.08.93-.25,1.37-.48,1.2-1.7,3.54-3.99,4.2-3.13.89-.45,6.71-.45,6.71,0,0,4,6.53.55,10.19-.16.17-.36.32-.57.43-.81.41-3.38,2.15-2.77,7.61.06.54-.06,1.08-.34,1.55-.95,1.56-3.29,4.92-5.38,4.22-2.71-.9,3.34-8.21,3.34-8.21,0,0,4.45-9.17,1.08-16.08-.12-.24-.2-.49-.23-.75-.24-2.07-1.11-11.47,2.58-12.59,4.15-1.26-2.26-12.81-2.26-12.81,0,0-3.43-4.36,1.01-13.21.11-.22.19-.46.23-.71.26-1.64,1.02-8.07-2.4-9.36-.36-.13-.67-.36-.89-.68-.67-1.01-1.78-3.44-.66-7.49,1.53-5.5-1.26-1.17-1.26-1.17,0,0-4.78,5.4,1,13.56.14.2.26.42.35.66.47,1.29,1.46,5.47-3.29,9.95-.34.32-.61.72-.75,1.18-.45,1.52-.58,5.23,3.68,12.91h0c.26.4.45.84.54,1.31.4,1.96,1.04,7.18-2.72,9.75-.32.22-.6.5-.81.84-.88,1.4-2.38,5.24,1.31,12.04.16.29.26.61.31.94.29,2.25,1.19,11.46-2.51,17.98,0,0-.63,2.53-1.26-1.53s-1.98-5.86-1.98-5.86c0,0-5.23-2.8-.72-9.02,0,0,2.8-3.7-2.08-5.77-4.77-2.03-6.69-17.21-1.68-23.01.22-.26.36-.57.42-.9h0s4.06-9.74,0-14.8c0,0-9.45-6.79-4.52-16.89.52-1.07.87-2.21,1.08-3.37.86-4.64,3.19-15.89,6.34-19.92.33-.42.55-.91.66-1.42.7-3.2,1.12-14.09-8.87-17.6,0,0-2-.33,2.24,4.09,0,0,4.96,5.77-.27,18.13,0,0-10.01,17.59-8.57,23.1s-5.32,9.11,6.77,18.04c0,0,4.21,3.86-2.94,15.39-.28.46-.51.95-.69,1.46-.99,2.92-2.97,12.09,6.24,22.49,0,0,1.35,2.17-.81,3.61-2.17,1.44-1.35,4.78-1.35,4.78,0,0,1.31,2.46,5.8,5.5.5.34.92.79,1.22,1.33.78,1.38,1.73,3.67-2.33.94,0,0-10.56-5.14-11.1-10.2-.54-5.05-.72-12.63.18-16.06.9-3.43-6.58-15.32-7.76-15.7,0,0-6.03-3.97-5.86-5.95,0,0,.06-12.19.9-13.08.69-.72-.99-6.59-3.52-6.59-2.09,0-.78-3.77-.27-5.07.11-.28.27-.53.47-.74,1.5-1.61,8.22-9.23,7.09-14.91-.04-.2-.06-.4-.06-.6.07-2.05,0-12.42-3.8-14.59,0,0-2.84-.98-.6,13.45.04.25.05.5.04.75-.11,1.81-.77,9.27-4.49,9.98s-4.51,7.99-4.59,9.28c0,.11-.03.23-.06.34-.2.71-.78,3.92,3.46,7.05.23.17.44.38.59.63.66,1.04,1.99,4-.21,8.69-2.8,5.95,3.97,12.18,3.97,12.18,0,0,7.06,5.16,9.31,12.92,1.96,6.8.85,14.02.54,15.72-.05.28-.07.56-.04.85.15,1.91,1.13,9.05,7.27,11.31,7.11,2.62,11.41,4.77,10.76,5.8s-2.71.37-2.71.37c0,0-10.39-2.11-11.88-3.37-1.8-1.52-15.26-8.05-10.67-18.05.06-.14.11-.28.15-.42.41-1.7,2.91-12.58.16-16.15-.46-.6-.58-1.38-.38-2.11.51-1.83,1.82-5.24,5.18-9.42.2-.25.36-.53.47-.83.52-1.44,1.3-5.61-.39-8.28-.12-.19-.37-.25-.56-.13-.46.3-1.2,1.3-1.47,4.59-.4,4.92-5.71,8.05-5.71,8.05,0,0-3.6-.16-1.17,7.62.2.65.32,1.33.36,2.02.16,3.02.32,11.03-2.3,12.58-3.21,1.9-.52,16.31,15.22,24.02.23.11.47.2.71.27,2.07.56,12.22,3.25,14.47,3.25,2.09,0,9.14-.08,11.46-.11.45,0,.85-.28,1.01-.7.72-1.84,2.77-6.76,4.14-6.73Z"/><path class="cls-10" d="m602.66,549.61s10.89,6.2,16.92-2.68c0,0-.84-10.22.5-12.56,0,0,6.39-.94,9.25-5.06.2-.28.51-.46.85-.48,2.02-.09,8.93-.67,9.71-4.62,0,0-4.4,2.4-5.21-3.96-.02-.18-.26-.22-.34-.06-.47.98-1.53,2.79-2.88,2.79-1.84,0-8.54.17-10.72,3.85-2.18,3.68-4.35-3.68-4.35-3.68,0,0,2.34-13.06,15.07-13.57s12.78-28.39,12.78-28.39c0,0-4.6,5.04-9.4-2.26,0,0-3.36,9.96-2.66,13.34.06.3.04.6-.07.88-.55,1.32-2.22,4.9-4,4.21-2.18-.84,2.34-28.64,2.34-28.64,0,0,1.37-10.2-.87-12.04s-7.59,5.68-11.88.66c0,0-2.65,9.54,2.2,13.39,0,0,2.51,3.68,1.84,6.2s1.17,21.44,1.17,21.44c0,0-3.52,2.01-5.19-10.05,0,0,.95-12.12-1.2-13.83-1.81-1.43-5.3.54-6.35,1.2-.19.12-.3.34-.29.56.19,2.75,1.53,20.32,4.15,22.79,2.85,2.68,3.35,5.02,3.35,5.02,0,0,.17,8.54-4.52,2.34,0,0-4.08-7.48-5.68-7.2s-5.73,3.62-5.73,3.62c0,0-1.48,2.24,5.72,11.28,0,0,3.85,7.2-3.68,8.71-7.54,1.51-11.56-14.24-11.56-14.24,0,0,0-5.53,2.01-6.53s15.23-8.59,11.97-23.39l-9.32-1.91s-.07.02-.07.06c.06.76.54,6.74,2.11,8.15,1.67,1.51-1.67,6.36-1.67,6.36,0,0-7.03,9.21-8.21-2.18,0,0-3.85-8.21-.33-9.71,3.52-1.51,9.36-14.31,6.04-23.18l-7.9,1.13s3.54,6.98,1.53,8.65c-2.01,1.67-4.02.67-4.02.67,0,0-4.34-3.98-1.33-19.91l-5.57-.36s-5.27,15.59.49,22.52c.26.32.44.7.52,1.11.4,2.04,1.7,8.19,3.22,10.55,1.84,2.85,4.69,11.56,4.02,12.56s-3.35-.33-3.35-.33c0,0-8.49-6.11-5-16.93l-9.17-.29s-1.4,7.67,4.79,12.03c6.2,4.35,9.04,11.72,9.04,11.72,0,0,.87,7.59-14.27-2.18l-2.4,5.71s2.27,4.67,12.99,3.67c0,0,5.86-1.34,5.86,5.53s8.71,11.22,8.71,11.22c0,0,10.38,6.95,10.38,9.55,0,0,1.73,6.85-7.03.5-7.55-5.47-9.81-8.2-9.81-8.2l-2.35,9.2s7.74,4.13,15.01,3.86c1.29-.05,2.47.72,2.97,1.91.83,1.96,1.67,5.22.88,9.48Z"/><ellipse class="cls-10" cx="623.78" cy="457.56" rx="6.09" ry="2.7"/><ellipse class="cls-10" cx="590.54" cy="456.89" rx="4.07" ry="2.32"/><ellipse class="cls-10" cx="579.91" cy="446.86" rx="2.84" ry="1.57"/><ellipse class="cls-10" cx="572.48" cy="475.91" rx="4.6" ry="1.66"/><ellipse class="cls-10" cx="601.25" cy="477.8" rx="2.35" ry="4.89" transform="translate(-30.39 914.63) rotate(-73.14)"/><ellipse class="cls-10" cx="613.36" cy="475.67" rx="3.52" ry="2.15"/><ellipse class="cls-10" cx="639.54" cy="480.18" rx="3.04" ry="4.92" transform="translate(-33.65 911.92) rotate(-69.57)"/><ellipse class="cls-10" cx="566.9" cy="500.66" rx="2.35" ry="3.52"/><ellipse class="cls-10" cx="605.21" cy="502.74" rx="4.12" ry="3.45" transform="translate(-178.23 575.2) rotate(-45)"/><ellipse class="cls-10" cx="584.8" cy="529.71" rx="4.79" ry="2.45" transform="translate(-37.14 1015.28) rotate(-80.15)"/><ellipse class="cls-10" cx="637.13" cy="522.18" rx="2.54" ry="3.72" transform="translate(-179.92 417.16) rotate(-32.01)"/><path class="cls-10" d="m1390.97,579.41c1.21-3.75,11.47-36.65,1.61-43.86-.26-.19-.51-.39-.7-.64-.73-.93-3.19-3.49-7.94-3.17-.76.05-1.42.56-1.69,1.27-.88,2.28-3.1,6.59-4.85-2.05-1.99-9.78-4.56-.18-5.13,2.14-.09.37-.27.72-.54.99-1.01,1-3.54,2.39-5.05-6.75-.12-.71-.48-1.36-1.05-1.8-.87-.67-2.3-1.24-3.95.18-.34.29-.6.66-.77,1.07-.79,1.84-3.73,7.77-5.98.59-.17-.55-.16-1.15.06-1.68.41-1,.8-2.66-1.4-2.34-3.11.44-2.96,2.52-5.92,3.4s-2.56-2.51-2.56-2.51c0,0,1.68-3.04,4.63-4,0,0,3.62-1.69.3-3-.66-.26-1.43-.18-2,.24-.81.59-2.44,1.37-5.4,1.28-4.74-.15-3.7-2.37-3.7-2.37,0,0,1.51-3.11,6.95-3.55,0,0,2.82-1.22-.46-2.67-.68-.3-1.46-.26-2.15.04-1.93.86-5.75,1.03-7.46,1.45-2.78.68-2.36-1.94-2.36-1.94,0,0,.15-1.72,6.88-4.73.48-.22.91-.55,1.21-.99.61-.89,1.22-2.3-1.01-2.4-3.26-.15-10.06,2.66-9.77-.44.25-2.68,6.32-3.27,8-3.38.33-.02.65-.11.94-.26.83-.44,2.22-1.43.23-2.43-2.66-1.33-9.17-.74-9.03-2.66.12-1.5,5.42-1.11,7.77-.87.86.09,1.72-.34,2.07-1.13.3-.67.22-1.41-1.26-1.7-1.76-.35-3-1.7-3.71-2.74-.85-1.23.06-2.91,1.55-2.83,1.07.06,2.65.48,4.98,1.57,0,0,5.92,1.92,1.04-2.22s-3.22-5.65-3.22-5.65c0,0,1.51-2.67,3.77.18,2.44,3.07,3.02,3.23,3.95,1.98.94-1.26,1.59-1.43-2.56-8.45-.22-.38-.35-.82-.34-1.26.04-1.28.49-3.57,3.61-.72,2.74,2.5,3.82,4.6,4.24,5.74.23.63.91,1,1.56.85.92-.21,1.95-.86,1.75-2.82-.31-2.92-3.38-7.42-4.26-8.66-.17-.24-.3-.5-.37-.78-.39-1.39-1.09-5.27,4.45-1.52,0,0,5.24,5.44,6.11,9.88,0,0,1.43,4.76,3.69-.18.29-.64.21-1.4-.21-1.97-1.38-1.91-4.5-6.33-4.92-7.73-.54-1.8.18-5.39,3.23-3.23,3.05,2.16,4.53,5.34,6.11,5.75s4.31.54,3.95-2.52c-.36-3.05-2.03-7.79-.54-9.34.65-.68,3.41-2.16,7.9,5.93,4.49,8.08,3.95.18,3.95.18,0,0-.84-4.29.18-7.01s2.9-1.37,5.76,5.13c.21.48.36.99.45,1.51.26,1.51,1,4.73,2.41,2.34,1.8-3.05-2.16-9.52.54-9.52s5.07-.51,5.53,7.7c.03.54.2,1.06.51,1.5.78,1.12,2.71,3.03,3.12-.22,0,0-.36-11.68,2.16-8.8,1.91,2.18,1.85,6.75,1.71,8.82-.06.86.38,1.71,1.16,2.07.54.25,1.12.24,1.44-.65.72-1.98-1.62-9.7.36-10.06s2.87,1.08,2.87,1.08c0,0,1.97,3.34,1.46,7.22-.09.72-.05,1.64.54,2.06.44.32,1.16.63,1.73-.68.7-1.6,2.28-6.57,3.04-9.01.3-.97.99-1.77,1.91-2.22,1.62-.79,3.9-1.48,3.19,1.37l-1.88,7.52c-.2.79.04,1.63.64,2.17,1.15,1.03,3.22,1.98,5.37-1.61,3.23-5.39,6.11-4.85,6.11-4.85,0,0,3.95-.18,3.59,3.41-.25,2.53-1.49,4-2.2,4.64-.36.33-.62.74-.73,1.21-.31,1.39-.45,3.72,3.46.08,5.21-4.85,6.83-4.49,6.83-4.49,0,0,2.87-.9,2.16,1.8-.61,2.28-4.42,5.32-5.59,6.21-.24.18-.43.42-.55.7-.44,1.1-1.07,3.66,3.98,1.35,6.29-2.87,9.34-3.05,9.34-3.05,0,0,7.29-.49,3.72,3.62-.39.45-.9.79-1.46,1.02-1.82.73-6.32,2.49-8.67,2.97-.88.18-1.67.7-2.09,1.49-.48.91-.4,1.95,2.39,2.05,4.21.15,10.69-1.59,12.69-2.16.54-.15,1.08-.25,1.64-.27,1.4-.05,3.61.17,2.56,2.31-.48.97-1.39,1.64-2.43,1.93-3.1.85-10.62,2.33-11.94,2.86-.02,0-.03.01-.05.02-1.17.49-.79,2.27.48,2.32,3.72.16,12.73-.55,13.76-.55,2.4.01,8.98-.72,4.85,1.44-3.1,1.62-7,2.63-8.76,3.03-.73.17-1.92.3-2.38.89-.64.82-.55,1.54.42,2.15,1.5.95,10.37-1.4,10.37.58,0,1.6-6.1,2.49-8.44,2.77-.66.08-1.26.4-1.69.91-.92,1.07-1.69,2.63,3.62,1.01,1.87-.57,3.97-.12,5.3,1.31,3.22,3.48-5.96,4.33-8.48,3.7-1.29-.32-1.36.51-1.21,1.23.11.54.54.96,1.08,1.06,1.56.28,2.39.54,3.36,1.85,0,0,2.24,5.5-6.08,1.7-.43-.2-.89-.33-1.35-.36-1.31-.1-3.8-.02-3.71,2.17.02.56.41,1.04.94,1.21,2.3.7,6.34,2.36,7.86,4.99,0,0,2.96,5.23-9.3-1.65-.41-.23-.87-.35-1.34-.35-1.17,0-2.6.87-.89,2.32,2.34,1.98,8.48,4.18,6.32,5.79-1.62,1.21-5.66-1.72-7.58-3.26-.91-.73-2.26-.75-3.1.06-.47.45-.64,1.08.08,1.94,1.8,2.16,3.05,3.23,2.34,4.49-.72,1.26-3.77-.72-4.85-1.44s-3.61-.42-3.23,1.8c.44,2.56.72,12.22,7.37,20.48,6.65,8.26,13.83,16.89,12.22,32.34-1.55,14.79-63.61,3.22-68.94,2.2-.2-.04-.31-.22-.25-.42Z"/><path class="cls-10" d="m1510.83,580.43c-.29-1.89-2.69-18.41,2.58-21.11.14-.07.27-.15.39-.25.42-.39,1.79-1.43,4.04-.91.36.08.64.37.71.73.25,1.16.98,3.39,2.48-.61,1.7-4.53,2.2.26,2.29,1.42.01.18.07.36.18.51.41.55,1.51,1.41,2.93-2.85.11-.33.33-.62.64-.78.47-.26,1.2-.42,1.87.39.14.16.24.36.29.57.24.94,1.19,4,2.81.74.12-.25.16-.54.1-.81-.12-.51-.18-1.33.85-1.01,1.45.45,1.22,1.43,2.57,2.08s1.42-1.01,1.42-1.01c0,0-.57-1.58-1.91-2.27,0,0-1.6-1.08.09-1.46.34-.07.7.02.94.27.34.35,1.06.84,2.48,1.02,2.28.29,1.95-.85,1.95-.85,0,0-.48-1.6-3.06-2.23,0,0-1.25-.8.42-1.24.35-.09.72-.01,1.02.18.86.56,2.67.93,3.46,1.26,1.28.54,1.28-.75,1.28-.75,0,0,.06-.84-2.93-2.79-.22-.14-.39-.33-.51-.57-.22-.47-.41-1.19.66-1.07,1.57.18,4.61,2.04,4.71.53.08-1.3-2.78-2.05-3.57-2.23-.16-.04-.3-.1-.43-.2-.37-.27-.95-.85.07-1.18,1.38-.43,4.45.35,4.52-.59.06-.72-2.51-.95-3.65-1.01-.42-.02-.79-.29-.9-.7-.09-.34,0-.69.73-.72.87-.03,1.57-.59,1.99-1.03.5-.52.19-1.4-.52-1.47-.52-.05-1.31.03-2.5.37,0,0-2.98.47-.33-1.14,2.65-1.61,1.97-2.46,1.97-2.46,0,0-.52-1.39-1.82-.2-1.4,1.28-1.69,1.32-2.04.64s-.65-.8,1.87-3.85c.14-.16.23-.36.26-.58.08-.62.04-1.74-1.67-.62-1.5.99-2.18,1.91-2.47,2.42-.16.28-.51.41-.81.29-.42-.17-.87-.56-.62-1.48.37-1.37,2.18-3.29,2.7-3.82.1-.1.18-.21.24-.34.29-.64.92-2.44-2.01-1.07,0,0-2.92,2.2-3.68,4.26,0,0-1.05,2.17-1.75-.37-.09-.33,0-.68.25-.93.81-.81,2.64-2.69,2.94-3.32.39-.82.33-2.59-1.3-1.79-1.63.8-2.58,2.21-3.36,2.28s-2.1-.07-1.7-1.5,1.57-3.57.97-4.43c-.26-.37-1.47-1.29-4.23,2.23s-1.9-.22-1.9-.22c0,0,.73-1.99.45-3.37s-1.28-.88-3.15,2.01c-.14.21-.25.45-.33.69-.24.7-.84,2.19-1.33.94-.63-1.6,1.76-4.39.47-4.6-1.25-.2-2.39-.63-3.24,3.26-.06.25-.18.49-.36.68-.46.48-1.53,1.25-1.48-.34,0,0,1.06-5.56-.36-4.38-1.08.9-1.4,3.09-1.49,4.09-.04.42-.31.79-.71.9-.28.08-.55.03-.64-.42-.19-1,1.51-4.52.6-4.84s-1.46.3-1.46.3c0,0-1.2,1.45-1.25,3.34,0,.35-.1.79-.41.94-.24.12-.6.21-.78-.46-.21-.82-.59-3.32-.76-4.54-.07-.49-.34-.92-.74-1.21-.72-.5-1.75-1.01-1.63.41l.33,3.74c.03.39-.14.78-.47.99-.63.41-1.69.7-2.45-1.18-1.14-2.83-2.55-2.79-2.55-2.79,0,0-1.88-.39-1.98,1.36-.07,1.23.41,2.03.7,2.39.15.18.24.4.25.64.04.69-.07,1.81-1.66-.23-2.12-2.72-2.92-2.67-2.92-2.67,0,0-1.31-.65-1.17.7.12,1.14,1.71,2.88,2.2,3.4.1.11.17.24.21.38.13.56.23,1.83-2.01.34-2.79-1.85-4.24-2.17-4.24-2.17,0,0-3.45-.79-2.06,1.45.15.25.37.45.62.6.82.49,2.84,1.67,3.92,2.08.41.15.75.46.89.87.16.47.04.96-1.3.8-2.03-.25-5-1.58-5.91-2-.24-.11-.5-.2-.76-.26-.67-.13-1.74-.19-1.4.91.15.5.54.89,1.02,1.11,1.42.64,4.91,1.93,5.49,2.28,0,0,.01,0,.02.01.52.33.2,1.15-.41,1.07-1.79-.21-6.05-1.24-6.54-1.31-1.15-.18-4.24-1.03-2.43.32,1.36,1.01,3.15,1.79,3.96,2.12.34.14.9.29,1.07.61.24.44.14.78-.36,1-.79.34-4.85-1.46-5-.51-.12.76,2.73,1.66,3.83,1.97.31.09.57.29.74.56.36.58.61,1.39-1.81.21-.85-.42-1.89-.36-2.64.22-1.81,1.42,2.52,2.53,3.78,2.42.64-.06.61.35.48.68-.1.25-.33.42-.6.42-.77.02-1.19.08-1.75.63,0,0-1.49,2.46,2.78,1.28.22-.06.45-.09.68-.07.64.05,1.82.28,1.61,1.32-.05.27-.27.47-.54.51-1.15.16-3.21.65-4.14,1.79,0,0-1.82,2.28,4.58-.08.21-.08.44-.1.67-.07.56.09,1.18.62.25,1.18-1.27.77-4.37,1.35-3.47,2.29.68.7,2.84-.39,3.87-.98.49-.28,1.14-.19,1.48.26.19.25.22.57-.19.92-1.02.89-1.71,1.31-1.46,1.97s1.86-.06,2.43-.32,1.76.07,1.41,1.11c-.4,1.19-1.28,5.79-5.09,9.24s-7.91,7.02-8.31,14.54c-.39,7.19,30.19,6.39,32.82,6.31.1,0,.17-.08.15-.18Z"/><path class="cls-10" d="m383.25,522.44s76.03-13.6,83.44-33.38c0,0,1.85-11.74-14.83,1.24-16.69,12.98-50.07,17.31-50.07,17.31,0,0-4.94-4.94,3.71-6.18,8.65-1.24,82.82-27.2,80.97-74.17,0,0-6.18-4.33-11.74,6.8-5.56,11.13-53.77,57.48-81.59,64.28,0,0-9.89.62.62-6.18,10.51-6.8,90.86-58.1,63.66-107.55,0,0-16.07-5.56-17.31,12.36-1.24,17.92-11.74,51.92-63.66,93.95,0,0-11.13,6.8-3.71-4.94,0,0,69.23-80.97,51.92-97.04,0,0-8.04-6.18-17.31,11.74-9.27,17.92,1.85,6.18-45.12,89.62,0,0-9.27,4.94-3.71-4.33,5.56-9.27,21.05-36.43,23.26-60.76,2.21-24.33,6.32-76.15-8.53-72.67,0,0-9.16-1.58-8.22,16.43s-2.84,100.79-12.32,112.17c0,0-3.79,12.32-9.16,0,0,0-4.11-54.03-.63-58.14,0,0,13.59-15.48,0-20.54s-13.27,19.91-13.27,19.91c0,0-6.32,44.87,6,66.04,0,0,4.11,11.37-4.42,2.84-8.53-8.53-28.44-43.29-31.6-45.18,0,0-17.69-20.85-11.69,8.85,0,0,7.58,16.11,45.18,50.24,0,0,2.21,3.48-5.37,2.53,0,0-7.58-.32-34.44-30.65,0,0-15.17-13.59-8.53,8.22,0,0,14.85,21.8,32.23,28.75s66.24,8.44,66.24,8.44Z"/><path class="cls-10" d="m1813.83,503.5c6.3-.26,12.1-9.17,12.1-9.17,0,0,11.8-19.66,4.1,2.39-6.47,18.56-21.66,14.24-26.32,12.4-1.01-.4-2.15-.21-2.99.47-5,4.04-4.43,11.31-4.13,13.5.05.34-.22.63-.56.63l-7.02-.14c-.58-.01-1.04-.48-1.04-1.06v-5.63c0-6.67,7.49-11.11,9.06-12.82,1.81-1.97.41-6.51-.41-10.01-.42-1.82-.26-3.71.43-5.44,1.18-2.96,3.31-7.24,6.13-8.65,4.45-2.22,4.62-5.81,4.62-5.81,0,0-1.07-4.06-2.56-5.47-.9-.85-5.64-6.33-6.16-13.16-.26-3.45,1.31-3.55,2.93-2.8,1.91.88,3.24,2.66,3.77,4.69.66,2.51,1.89,6.09,3.56,5.98,2.56-.17,1.79-9.52,1.79-9.52-.21-3.15-14.28-7.49-14.28-7.49,0,0-7.95-4.6-6.46-14.44,1.01-6.71,3.48-4.36,4.94-2.18.69,1.02,1.09,2.21,1.26,3.43,1.38,10.28,16.19,12.06,16.19,12.06l.79-6.59s-9.02-.78-8.38-8.6c.46-5.7,2.7-3.28,3.87-1.55.43.63.67,1.36.8,2.12.65,3.82,5.22,3.05,5.22,3.05,0,0,3.13-13.22,1.54-15.3-1.18-1.53-11.1-6.19-11.1-6.19,0,0-7.31-4.83-8.1-13.42-.52-5.72,1.91-4.77,3.6-3.49.9.68,1.47,1.7,1.71,2.81,1.66,7.79,12.75,13.16,14.76,13.12,1.51-.03,1.15-3.48.81-5.5-.15-.87-.62-1.65-1.33-2.19-3.2-2.42-12.46-10.09-9.95-16.35,1.87-4.65,3.74-3.51,4.9-1.96.74.99,1.09,2.22,1.06,3.46-.13,5.49,3.14,8.43,5.3,9.77.81.5,1.85-.07,1.87-1.02.07-4.03.46-13.1,2.41-15.68,1.94-2.56,3.16-8.08,3.62-10.5.11-.55-.36-1.02-.92-.95-6.86.76-13.53-9.58-13.53-9.58-3.03-5.86.69-5.66,2.97-5.1.89.22,1.56.91,1.85,1.78,2.09,6.3,10.86,7.48,12.54,5.4,1.41-1.75,1.9-10.1,2.05-13.49.03-.82-.37-1.6-1.08-2.02-1.89-1.12-5.46-3.95-5.27-9.3.2-5.55,4.17-2.47,6.02-.72.56.53,1.01,1.16,1.33,1.87.88,1.98,2.96,6.08,3.29,1.34.42-6.02,5.23-8.18,7.82-6.95,2.03.96-.34,7.39-1.45,10.1-.3.73.04,1.57.77,1.88,1.68.71,4.7,1.41,7.28-1.17,1.9-1.9,3.32-1.73,4.27-1.08,1.07.73,1.51,2.07,1.31,3.35-1.3,8.32-13.39,7.32-17.78,6.67-.88-.13-1.7.48-1.84,1.36-.29,1.85-.74,4.81-.98,6.34-.09.61.18,1.23.71,1.55,3.17,1.94,3.82.24,3.91-1.04.06-.84.42-1.64,1.08-2.16,2-1.59,3.46-.83,4.26-.04.49.48.74,1.16.73,1.84-.22,11.29-10.56,5.72-12.35,5.81-1.35.06-1.45,3.39-1.4,5.15.01.61.47,1.13,1.07,1.22,10.78,1.52,13.1-2.13,13.57-3.42.14-.38.41-.7.74-.94,1.25-.91,3.89-2.18,2.88,4.27-1.26,8.04-19.35,4.77-21.06,5.97-1.14.79-2.61,13.07-2.99,17.07-.06.68.3,1.5.98,1.58,2.82.32.29-2.61,2.71-6.72,2.67-4.54,4.49.54,4.49.54,1.55,8.04-3.93,10.06-6.27,10.31-1.45.16-2.31,1.74-1.7,3.07.12.27.25.55.38.87.59,1.46,2.21,2.34,3.7,1.83,2.85-.96,5.92-5.12,8.75-8.51,3.9-4.69,4.19.5,4.19.5-1.53,10.82-11.53,14.39-16.34,15.49-1.59.36-2.82,1.63-3.13,3.23-2.21,11.48-.89,9.82-1.21,11.89-.33,2.17.32,4.9,2.9,3.69,2.57-1.21.84-4.45,2.66-6.97,1.82-2.51,2.35-1.84,3.7-.47,1.35,1.38-1.34,8.64-1.34,8.64-2.31,9.14-8.5,5.25-8.5,5.25-1.91,4.88-.06,6.55-.06,6.55,6.69,3.65,10.09-3.27,11.37-6.93.61-1.76,1.97-3.22,3.76-3.75,3.67-1.08,3.8,3,3.8,3-2.49,16.76-22.97,14.33-22.85,16.68.33,6.84,6.45,6.49,7.53,5.98.63-.3,1.08-.52,1.41-.69.9-.46,1.97-.54,2.9-.14.83.35,1.58,1.04,1.5,2.37-.11,1.92-5.24,1.38-8.7.79-.95-.16-1.33,1.21-.42,1.54,3.53,1.29,9.53,2.39,12.42,2.88,1,.17,2.02-.2,2.69-.96,2.19-2.5,6.86-7.11,3.93,2.77-3.76,12.65-23.94-2.39-25.82-2.22-1.29.12-1.54,3.31-1.56,5.29-.01.98.4,1.92,1.15,2.55,8.38,7.12,9.54.33,11.01-.49s2.56.68,2.91,2.39-3.08,5.98-3.08,5.98c-3.85,3.19-11.11-4.62-14.02-4.62-2.25,0-2.59,4.13-3.6,5.58-.85,1.23-.65,4.86-.28,5.31,1.29,1.59,7.34,1.38,11.92-1.32,4.82-2.84,7.82,3.51,2.81,3.19-.34-.02-10.61-.54-12.28,5.98,0,0-1.17,5.49,3.53,5.3Z"/><path class="cls-10" d="m1769.87,524.4s3.62-24.12-9.95-26.23c-13.57-2.11-22.01-14.47-22.01-14.47,0,0-7.24-16.88,5.73-9.04,0,0,12.06,15.68,14.47,14.17s-.3-6.03-.3-6.03c0,0-18.09-22.61-12.66-23.82,0,0,5.13-4.82,7.84.3,2.71,5.13,4.82,16.58,8.74,18.69,3.92,2.11-2.71-30.45-2.71-30.45,0,0-24.42-5.13-23.52-24.12,0,0,2.41-5.13,6.93,3.92,4.52,9.04,12.36,10.55,12.36,10.55,0,0,3.92-23.52-2.41-31.35-6.33-7.84-15.38-6.03-15.38-6.03,0,0-10.25-1.81-15.38-12.36,0,0-.6-6.33,8.14-.9,8.74,5.43,8.14,9.95,14.47,8.14,0,0,5.43-2.41-1.51-7.24s-10.85-7.54-9.35-9.95,11.15,5.43,11.15,5.43c0,0,6.63,1.51-3.32-13.57,0,0-17.79.6-24.72-12.36,0,0,.3-5.43,4.82-1.51,4.52,3.92,9.65,4.52,9.65,4.52,0,0,4.22-.9-.3-3.32s-12.06-11.76-8.14-12.36c0,0,1.51-6.93,14.47,13.87,0,0,3.01.9,2.41-3.01s-6.33-15.68-1.81-15.07c4.52.6,3.92,2.11,3.92,2.11,0,0,0,12.36,2.71,14.17,2.71,1.81,3.32-12.66,3.32-12.66,0,0,2.41-3.92,3.32.3s3.01,16.58-5.13,21.71c0,0,4.52,18.99,7.54,20.8s.9-15.07.9-15.07c0,0,2.41-9.35,4.52.3,2.11,9.65,1.21,16.28,1.21,16.28,0,0,2.11,6.63,5.13.6s.3-18.69.3-18.69c0,0,4.22-10.55,5.73-.6s4.52,25.63-8.44,32.56c0,0-3.32,11.76.3,20.2,3.62,8.44,5.13.9,5.13.9l3.01-9.65s-6.63-3.32-5.13-6.93,3.32-3.01,7.24,1.51c0,0,2.71,4.22,3.01.3s3.01-12.96,3.01-12.96c0,0,4.22-7.84,5.43-.6.88,5.3-10.85,27.86-17.19,39.55-.57,1.05.82,2.06,1.65,1.19,5.65-6,13.81-14.69,15.54-16.62,2.71-3.01,6.03-13.57,6.03-13.57,0,0,6.63-6.03,5.13,2.11s-11.76,24.42-11.76,24.42c0,0-11.46,12.06-15.38,13.26-3.92,1.21.6,31.05.6,31.05,0,0,5.13,4.22,4.22-2.11s-1.21-18.09-.3-18.39,3.01-5.73,5.43-.3c2.41,5.43.9,21.4,2.71,22.61s5.73,1.51,5.73-2.41-1.21-26.83,3.32-26.23c4.52.6,4.82,3.62,4.82,3.62,0,0,2.11,17.79,1.21,21.4s-11.15,25.93-16.28,26.83c0,0-1.81,18.09-.3,19.9s-9.95,2.71-9.95,2.71Z"/><path class="cls-10" d="m1114.15,551.25c4.16-.17,7.99-6.05,7.99-6.05,0,0,7.79-12.98,2.71,1.58-4.28,12.26-14.31,9.4-17.38,8.19-.67-.26-1.42-.14-1.98.31-3.3,2.67-2.93,7.47-2.73,8.92.03.22-.15.42-.37.41l-4.64-.09c-.38,0-.68-.32-.68-.7v-3.72c0-4.4,4.95-7.34,5.98-8.47,1.2-1.3.27-4.3-.27-6.61-.28-1.2-.17-2.45.29-3.6.78-1.95,2.19-4.78,4.05-5.71,2.94-1.47,3.05-3.84,3.05-3.84,0,0-.71-2.68-1.69-3.61-.6-.56-3.73-4.18-4.06-8.69-.17-2.28.87-2.34,1.93-1.85,1.26.58,2.14,1.76,2.49,3.1.44,1.66,1.25,4.02,2.35,3.95,1.69-.11,1.18-6.29,1.18-6.29-.14-2.08-9.43-4.94-9.43-4.94,0,0-5.25-3.04-4.27-9.54.67-4.43,2.3-2.88,3.26-1.44.46.68.72,1.46.83,2.27.91,6.79,10.69,7.97,10.69,7.97l.52-4.35s-5.95-.52-5.53-5.68c.31-3.77,1.78-2.16,2.56-1.02.28.42.45.9.53,1.4.43,2.52,3.44,2.01,3.44,2.01,0,0,2.07-8.73,1.01-10.11-.78-1.01-7.33-4.09-7.33-4.09,0,0-4.83-3.19-5.35-8.86-.35-3.78,1.26-3.15,2.38-2.3.6.45.97,1.12,1.13,1.85,1.1,5.15,8.42,8.69,9.75,8.66,1-.02.76-2.3.53-3.63-.1-.58-.41-1.09-.88-1.44-2.12-1.6-8.23-6.66-6.57-10.79,1.24-3.07,2.47-2.32,3.24-1.29.49.66.72,1.47.7,2.28-.09,3.63,2.07,5.57,3.5,6.45.53.33,1.22-.05,1.23-.67.05-2.66.3-8.65,1.59-10.35,1.28-1.69,2.09-5.33,2.39-6.93.07-.37-.24-.67-.61-.63-4.53.5-8.94-6.33-8.94-6.33-2-3.87.46-3.74,1.96-3.37.59.14,1.03.6,1.22,1.18,1.38,4.16,7.17,4.94,8.28,3.57.93-1.16,1.26-6.67,1.35-8.91.02-.54-.25-1.06-.72-1.33-1.25-.74-3.61-2.61-3.48-6.14.13-3.67,2.75-1.63,3.98-.48.37.35.67.77.88,1.23.58,1.3,1.95,4.01,2.17.89.28-3.98,3.46-5.4,5.16-4.59,1.34.63-.23,4.88-.96,6.67-.2.49.03,1.04.51,1.24,1.11.47,3.1.93,4.81-.77,1.25-1.25,2.19-1.14,2.82-.71.7.48.99,1.37.86,2.21-.86,5.49-8.84,4.83-11.74,4.4-.58-.09-1.12.31-1.21.9-.19,1.22-.49,3.18-.65,4.19-.06.4.12.81.47,1.02,2.09,1.28,2.52.16,2.58-.69.04-.55.28-1.08.71-1.43,1.32-1.05,2.28-.55,2.81-.03.33.32.49.76.48,1.22-.15,7.45-6.98,3.78-8.16,3.83-.89.04-.95,2.24-.93,3.4,0,.41.31.75.71.8,7.12,1.01,8.65-1.41,8.96-2.26.09-.25.27-.46.49-.62.83-.6,2.57-1.44,1.9,2.82-.83,5.31-12.78,3.15-13.91,3.94-.75.52-1.73,8.63-1.98,11.27-.04.45.2.99.65,1.04,1.86.21.19-1.72,1.79-4.44,1.76-3,2.97.36,2.97.36,1.02,5.31-2.6,6.64-4.14,6.81-.96.1-1.52,1.15-1.12,2.02.08.18.17.36.25.57.39.97,1.46,1.54,2.45,1.21,1.88-.63,3.91-3.38,5.78-5.62,2.58-3.1,2.77.33,2.77.33-1.01,7.14-7.61,9.5-10.79,10.23-1.05.24-1.86,1.08-2.07,2.14-1.46,7.58-.59,6.48-.8,7.85s.21,3.23,1.91,2.44.55-2.94,1.76-4.6c1.2-1.66,1.55-1.22,2.44-.31s-.89,5.71-.89,5.71c-1.53,6.03-5.61,3.47-5.61,3.47-1.26,3.22-.04,4.33-.04,4.33,4.42,2.41,6.66-2.16,7.51-4.57.41-1.16,1.3-2.13,2.48-2.48,2.42-.72,2.51,1.98,2.51,1.98-1.64,11.07-15.17,9.46-15.09,11.02.22,4.52,4.26,4.29,4.97,3.95.42-.2.71-.34.93-.46.6-.31,1.3-.35,1.92-.09.55.23,1.04.69.99,1.56-.07,1.27-3.46.91-5.74.52-.63-.11-.88.8-.28,1.02,2.33.85,6.29,1.58,8.2,1.9.66.11,1.33-.13,1.78-.64,1.45-1.65,4.53-4.7,2.59,1.83-2.48,8.36-15.81-1.58-17.05-1.47-.85.08-1.01,2.19-1.03,3.49,0,.65.27,1.27.76,1.69,5.53,4.7,6.3.22,7.27-.32,1.02-.56,1.69.45,1.92,1.58s-2.03,3.95-2.03,3.95c-2.54,2.11-7.34-3.05-9.26-3.05-1.48,0-1.71,2.73-2.38,3.69-.56.81-.43,3.21-.19,3.51.85,1.05,4.85.91,7.87-.87,3.18-1.87,5.16,2.32,1.86,2.11-.22-.01-7.01-.36-8.11,3.95,0,0-.77,3.63,2.33,3.5Z"/><path class="cls-10" d="m1085.12,565.06s2.39-15.93-6.57-17.32c-8.96-1.39-14.53-9.56-14.53-9.56,0,0-4.78-11.15,3.78-5.97,0,0,7.96,10.35,9.56,9.36s-.2-3.98-.2-3.98c0,0-11.95-14.93-8.36-15.73,0,0,3.38-3.19,5.18.2,1.79,3.38,3.19,10.95,5.77,12.34,2.59,1.39-1.79-20.11-1.79-20.11,0,0-16.13-3.38-15.53-15.93,0,0,1.59-3.38,4.58,2.59,2.99,5.97,8.16,6.97,8.16,6.97,0,0,2.59-15.53-1.59-20.71-4.18-5.18-10.15-3.98-10.15-3.98,0,0-6.77-1.19-10.15-8.16,0,0-.4-4.18,5.38-.6,5.77,3.58,5.38,6.57,9.56,5.38,0,0,3.58-1.59-1-4.78-4.58-3.19-7.17-4.98-6.17-6.57s7.37,3.58,7.37,3.58c0,0,4.38,1-2.19-8.96,0,0-11.75.4-16.33-8.16,0,0,.2-3.58,3.19-1,2.99,2.59,6.37,2.99,6.37,2.99,0,0,2.79-.6-.2-2.19-2.99-1.59-7.96-7.76-5.38-8.16,0,0,1-4.58,9.56,9.16,0,0,1.99.6,1.59-1.99-.4-2.59-4.18-10.35-1.19-9.95s2.59,1.39,2.59,1.39c0,0,0,8.16,1.79,9.36s2.19-8.36,2.19-8.36c0,0,1.59-2.59,2.19.2s1.99,10.95-3.38,14.34c0,0,2.99,12.54,4.98,13.74,1.99,1.19.6-9.95.6-9.95,0,0,1.59-6.17,2.99.2,1.39,6.37.8,10.75.8,10.75,0,0,1.39,4.38,3.38.4,1.99-3.98.2-12.34.2-12.34,0,0,2.79-6.97,3.78-.4s2.99,16.92-5.57,21.5c0,0-2.19,7.76.2,13.34,2.39,5.57,3.38.6,3.38.6l1.99-6.37s-4.38-2.19-3.38-4.58c1-2.39,2.19-1.99,4.78,1,0,0,1.79,2.79,1.99.2.2-2.59,1.99-8.56,1.99-8.56,0,0,2.79-5.18,3.58-.4.58,3.5-7.17,18.4-11.35,26.12-.38.7.54,1.36,1.09.78,3.73-3.96,9.12-9.7,10.26-10.97,1.79-1.99,3.98-8.96,3.98-8.96,0,0,4.38-3.98,3.38,1.39-1,5.38-7.76,16.13-7.76,16.13,0,0-7.57,7.96-10.15,8.76s.4,20.51.4,20.51c0,0,3.38,2.79,2.79-1.39s-.8-11.95-.2-12.14,1.99-3.78,3.58-.2.6,14.14,1.79,14.93,3.78,1,3.78-1.59-.8-17.72,2.19-17.32,3.19,2.39,3.19,2.39c0,0,1.39,11.75.8,14.14-.6,2.39-7.37,17.12-10.75,17.72,0,0-1.19,11.95-.2,13.14,1,1.19-6.57,1.79-6.57,1.79Z"/><path class="cls-10" d="m1219.13,538.99s-39.21-15.45-41.05-26.83c0,0,.27-6.48,7.8,2.26,7.53,8.74,24.92,14.64,24.92,14.64,0,0,3.18-2.11-1.32-3.71-4.5-1.59-41.38-23.46-35.34-48.39,0,0,3.77-1.65,5.55,4.9,1.78,6.55,22.58,36.53,36.73,43.16,0,0,5.22,1.39.33-3.37s-42.36-40.85-22.49-64.38c0,0,9.2-1.25,7.93,8.47-1.27,9.72.7,29.04,23.95,57.11,0,0,5.22,4.83,2.52-2.25,0,0-28.32-50.76-17.34-57.5,0,0,4.96-2.44,8,8.14,3.03,10.59-1.66,3.11,14.5,52.8,0,0,4.43,3.64,2.45-1.92-1.98-5.56-7.34-21.75-5.91-35,1.43-13.25,4.81-41.41,12.38-37.96,0,0,5.07.14,2.63,9.67-2.44,9.53-9.32,54.22-5.47,61.33,0,0,.7,7,4.9.99,0,0,8.01-28.46,6.59-31.03,0,0-5.6-9.74,2.21-10.99,7.81-1.24,4.96,12.08,4.96,12.08,0,0-1.45,24.68-10.31,34.68,0,0-3.42,5.64,2.06,2,5.48-3.65,19.87-20.1,21.76-20.77,0,0,11.71-9.25,5.3,5.99,0,0-5.79,7.8-29.57,22.02,0,0-1.56,1.62,2.6,1.93,0,0,4.09.65,21.72-12.69,0,0,9.57-5.64,3.68,5.31,0,0-10.29,10.07-20.33,11.91-10.04,1.85-36.34-2.61-36.34-2.61Z"/><path class="cls-14" d="m512.84,741.75c1.08-3.79,10.23-37.02.13-43.89-.26-.18-.52-.37-.72-.62-.76-.9-3.3-3.38-8.05-2.9-.76.08-1.4.6-1.65,1.32-.8,2.31-2.87,6.69-4.92-1.88-2.32-9.71-4.57-.03-5.05,2.31-.08.37-.25.73-.51,1.01-.97,1.03-3.46,2.51-5.27-6.58-.14-.71-.52-1.35-1.11-1.77-.9-.65-2.34-1.16-3.94.31-.33.3-.58.68-.74,1.09-.73,1.87-3.46,7.89-5.95.79-.19-.54-.2-1.14,0-1.68.38-1.01.71-2.68-1.48-2.3-3.09.55-2.87,2.61-5.8,3.6s-2.64-2.43-2.64-2.43c0,0,1.57-3.09,4.49-4.15,0,0,3.56-1.81.19-3-.67-.24-1.44-.13-1.99.31-.79.62-2.39,1.45-5.35,1.46-4.74.01-3.78-2.24-3.78-2.24,0,0,1.4-3.16,6.83-3.78,0,0,2.77-1.32-.55-2.65-.69-.28-1.47-.21-2.14.11-1.9.93-5.71,1.22-7.4,1.7-2.75.77-2.42-1.86-2.42-1.86,0,0,.09-1.73,6.72-4.96.48-.23.89-.58,1.18-1.03.58-.91,1.14-2.34-1.09-2.37-3.26-.04-9.97,3-9.78-.11.16-2.68,6.21-3.48,7.89-3.65.33-.03.64-.13.93-.29.82-.47,2.17-1.51.15-2.43-2.71-1.24-9.19-.43-9.11-2.36.06-1.5,5.38-1.29,7.74-1.13.86.06,1.7-.4,2.03-1.2.27-.68.17-1.41-1.31-1.66-1.77-.29-3.06-1.6-3.8-2.61-.89-1.2-.04-2.91,1.45-2.88,1.08.02,2.67.39,5.03,1.4,0,0,5.98,1.72.96-2.25-5.02-3.98-3.41-5.54-3.41-5.54,0,0,1.42-2.72,3.78.05,2.54,2.99,3.12,3.13,4.02,1.84.9-1.3,1.54-1.48-2.84-8.35-.24-.37-.38-.81-.38-1.25,0-1.28.37-3.58,3.59-.84,2.82,2.41,3.97,4.47,4.43,5.59.25.62.94.97,1.59.8.91-.24,1.92-.93,1.65-2.88-.41-2.91-3.63-7.31-4.55-8.51-.18-.23-.31-.49-.4-.76-.43-1.38-1.27-5.23,4.4-1.67,0,0,5.42,5.26,6.44,9.67,0,0,1.59,4.71,3.68-.31.27-.65.16-1.4-.27-1.97-1.44-1.87-4.71-6.18-5.17-7.55-.6-1.78,0-5.39,3.12-3.34s4.71,5.19,6.3,5.54c1.61.36,4.33.39,3.87-2.65-.46-3.04-2.29-7.71-.85-9.32.63-.7,3.34-2.27,8.1,5.66s3.96.05,3.96.05c0,0-.98-4.26-.06-7.01s2.85-1.46,5.93,4.93c.23.48.4.98.5,1.5.31,1.5,1.16,4.7,2.49,2.26,1.69-3.11-2.48-9.44.22-9.53,2.62-.09,5.05-.68,5.79,7.51.05.54.24,1.05.56,1.48.82,1.1,2.81,2.94,3.11-.33,0,0-.75-11.66,1.86-8.87,1.98,2.12,2.08,6.69,2.01,8.76-.03.86.43,1.69,1.23,2.03.55.23,1.12.2,1.42-.7.65-2-1.94-9.64.02-10.07s2.91.98,2.91.98c0,0,2.08,3.27,1.7,7.17-.07.72,0,1.64.61,2.04.45.3,1.18.59,1.71-.74.65-1.62,2.05-6.64,2.73-9.11.27-.98.93-1.8,1.83-2.28,1.59-.85,3.85-1.61,3.23,1.26l-1.62,7.57c-.17.79.1,1.63.72,2.15,1.18,1,3.28,1.87,5.31-1.79,3.05-5.5,5.94-5.05,5.94-5.05,0,0,3.94-.31,3.71,3.29-.17,2.54-1.35,4.04-2.04,4.71-.35.34-.59.76-.68,1.24-.26,1.4-.32,3.73,3.46-.04,5.04-5.02,6.67-4.72,6.67-4.72,0,0,2.84-.99,2.22,1.72-.53,2.3-4.24,5.47-5.38,6.4-.24.19-.42.44-.52.72-.41,1.11-.95,3.69,4.02,1.21,6.19-3.08,9.23-3.37,9.23-3.37,0,0,7.27-.73,3.84,3.49-.38.47-.87.82-1.42,1.06-1.8.79-6.24,2.7-8.56,3.26-.87.21-1.65.75-2.04,1.56-.45.92-.34,1.96,2.46,1.97,4.22,0,10.63-1.95,12.61-2.58.53-.17,1.07-.29,1.63-.33,1.4-.1,3.62.05,2.64,2.23-.44.98-1.34,1.69-2.37,2.01-3.06.96-10.54,2.69-11.84,3.26-.02,0-.03.01-.05.02-1.15.53-.71,2.3.56,2.31,3.73.03,12.7-.98,13.73-1.01,2.4-.07,8.95-1.02,4.9,1.27-3.04,1.72-6.91,2.86-8.66,3.32-.73.19-1.91.36-2.35.97-.61.84-.49,1.55.49,2.13,1.53.9,10.31-1.75,10.38.23.05,1.6-6.02,2.69-8.34,3.06-.66.1-1.25.44-1.66.96-.88,1.1-1.6,2.69,3.65.89,1.85-.64,3.97-.26,5.34,1.13,3.34,3.37-5.81,4.53-8.35,3.98-1.3-.28-1.34.55-1.16,1.27.13.53.57.94,1.12,1.02,1.57.23,2.41.46,3.42,1.73,0,0,2.42,5.42-6.02,1.91-.43-.18-.9-.3-1.37-.32-1.32-.06-3.8.11-3.63,2.29.04.56.44,1.03.98,1.17,2.32.62,6.42,2.15,8.03,4.72,0,0,3.14,5.12-9.35-1.34-.41-.21-.88-.32-1.35-.31-1.17.04-2.57.96-.81,2.34,2.4,1.9,8.61,3.89,6.51,5.58-1.57,1.27-5.71-1.52-7.68-3-.93-.7-2.29-.68-3.1.16-.45.46-.6,1.1.15,1.94,1.87,2.09,3.16,3.13,2.49,4.41-.68,1.28-3.79-.59-4.9-1.27s-3.62-.3-3.17,1.9c.52,2.55,1.13,12.18,8.05,20.22,6.92,8.04,14.39,16.41,13.3,31.91-1.05,14.83-63.47,5.36-68.83,4.52-.2-.03-.32-.21-.26-.41Z"/><path class="cls-14" d="m632.66,738.74c-.36-1.88-3.31-18.31,1.86-21.18.13-.07.27-.16.38-.27.41-.4,1.74-1.49,4.01-1.05.36.07.65.35.74.71.29,1.15,1.09,3.36,2.46-.69,1.54-4.58,2.21.19,2.34,1.34.02.18.09.36.2.51.42.54,1.56,1.36,2.83-2.94.1-.33.31-.63.61-.8.46-.27,1.18-.46,1.89.32.14.16.25.35.31.56.27.93,1.32,3.96,2.84.64.12-.25.15-.54.07-.81-.14-.5-.23-1.33.81-1.04,1.47.4,1.27,1.39,2.64,1.99s1.38-1.06,1.38-1.06c0,0-.62-1.56-1.99-2.2,0,0-1.64-1.03.04-1.46.33-.09.7,0,.95.24.35.33,1.09.8,2.52.94,2.29.21,1.92-.92,1.92-.92,0,0-.54-1.59-3.13-2.13,0,0-1.28-.76.38-1.26.35-.1.72-.04,1.03.15.88.53,2.7.84,3.5,1.14,1.29.49,1.25-.79,1.25-.79,0,0,.03-.84-3.03-2.69-.22-.13-.41-.32-.52-.55-.24-.46-.45-1.18.63-1.09,1.57.12,4.68,1.89,4.72.37.04-1.3-2.84-1.95-3.65-2.11-.16-.03-.3-.09-.43-.18-.37-.26-.98-.82.03-1.18,1.36-.48,4.46.2,4.5-.74.03-.73-2.54-.86-3.69-.88-.42,0-.8-.27-.93-.67-.1-.34-.02-.69.71-.74.87-.06,1.55-.64,1.95-1.09.48-.54.15-1.4-.57-1.45-.52-.04-1.3.07-2.49.46,0,0-2.96.57-.36-1.13,2.6-1.7,1.89-2.52,1.89-2.52,0,0-.57-1.37-1.82-.14-1.36,1.33-1.64,1.37-2.02.71s-.68-.78,1.74-3.91c.13-.17.22-.37.24-.58.06-.62-.02-1.75-1.69-.56-1.47,1.04-2.11,1.98-2.38,2.51-.15.29-.5.43-.8.32-.43-.15-.89-.53-.67-1.46.32-1.39,2.07-3.37,2.57-3.91.1-.1.17-.22.23-.35.27-.64.84-2.47-2.05-1,0,0-2.84,2.3-3.53,4.38,0,0-.97,2.2-1.76-.31-.1-.33-.02-.68.22-.94.78-.84,2.54-2.77,2.83-3.42.37-.83.24-2.6-1.36-1.75s-2.5,2.3-3.28,2.4-2.11,0-1.75-1.45,1.44-3.62.82-4.46c-.27-.36-1.51-1.24-4.16,2.37-2.65,3.62-1.91-.15-1.91-.15,0,0,.66-2.01.33-3.38-.32-1.34-1.31-.83-3.08,2.12-.13.22-.23.45-.31.7-.22.71-.77,2.21-1.3.98-.68-1.58,1.61-4.45.31-4.61-1.26-.16-2.41-.55-3.12,3.37-.05.26-.16.5-.34.69-.44.49-1.48,1.3-1.49-.29,0,0,.87-5.59-.51-4.36-1.05.94-1.3,3.14-1.35,4.14-.02.42-.28.8-.68.93-.27.09-.55.05-.65-.4-.23-.99,1.36-4.57.43-4.86s-1.45.35-1.45.35c0,0-1.15,1.48-1.13,3.38,0,.35-.07.79-.38.96-.23.13-.59.23-.79-.43-.24-.81-.7-3.3-.92-4.52-.09-.49-.37-.91-.78-1.18-.73-.48-1.79-.95-1.62.47l.45,3.73c.05.39-.12.78-.44,1.01-.61.43-1.67.76-2.48-1.09-1.23-2.79-2.64-2.7-2.64-2.7,0,0-1.89-.32-1.93,1.43-.03,1.23.48,2.01.78,2.36.15.18.25.39.28.63.07.69,0,1.81-1.67-.17-2.21-2.65-3.01-2.57-3.01-2.57,0,0-1.33-.6-1.14.73.16,1.13,1.8,2.82,2.31,3.32.11.1.18.23.22.37.15.55.3,1.82-1.99.41-2.85-1.76-4.31-2.03-4.31-2.03,0,0-3.47-.67-2.01,1.52.16.24.39.44.64.58.83.46,2.89,1.58,3.99,1.95.41.14.76.44.92.84.18.46.08.96-1.27.84-2.03-.18-5.05-1.41-5.97-1.8-.25-.11-.5-.19-.77-.23-.67-.11-1.75-.14-1.37.96.17.49.57.87,1.05,1.07,1.44.6,4.97,1.76,5.57,2.09,0,0,.01,0,.02.01.53.31.24,1.14-.37,1.09-1.8-.15-6.09-1.03-6.58-1.09-1.16-.14-4.28-.89-2.42.4,1.39.96,3.21,1.68,4.03,1.98.34.12.9.26,1.09.57.26.43.17.77-.33,1.01-.78.37-4.9-1.3-5.02-.35-.1.77,2.78,1.56,3.89,1.84.31.08.58.27.76.54.38.57.66,1.37-1.8.27-.87-.39-1.9-.3-2.63.31-1.76,1.48,2.6,2.44,3.86,2.29.64-.08.62.33.51.66-.09.25-.32.43-.58.44-.77.04-1.18.12-1.72.69,0,0-1.41,2.51,2.82,1.18.22-.07.45-.1.67-.09.64.03,1.83.22,1.65,1.26-.05.27-.26.48-.53.52-1.15.2-3.19.76-4.08,1.93,0,0-1.74,2.34,4.57-.23.21-.09.44-.12.66-.09.56.07,1.2.58.29,1.17-1.24.81-4.33,1.5-3.39,2.41.7.68,2.82-.49,3.84-1.11.48-.3,1.13-.23,1.49.21.2.24.24.56-.16.93-.99.93-1.66,1.37-1.39,2.02s1.86-.12,2.42-.4,1.76.01,1.45,1.06c-.36,1.21-1.08,5.83-4.77,9.4-3.69,3.57-7.67,7.29-7.82,14.81-.14,7.2,30.39,5.37,33.01,5.2.1,0,.16-.09.15-.19Z"/><path class="cls-14" d="m353.91,760.18c6.3-.26,12.1-9.17,12.1-9.17,0,0,11.8-19.66,4.1,2.39-6.47,18.56-21.66,14.24-26.32,12.4-1.01-.4-2.15-.21-2.99.47-5,4.04-4.43,11.31-4.13,13.5.05.34-.22.63-.56.63l-7.02-.14c-.58-.01-1.04-.48-1.04-1.06v-5.63c0-6.67,7.49-11.11,9.06-12.82,1.81-1.97.41-6.51-.41-10.01-.42-1.82-.26-3.71.43-5.44,1.18-2.96,3.31-7.24,6.13-8.65,4.45-2.22,4.62-5.81,4.62-5.81,0,0-1.07-4.06-2.56-5.47-.9-.85-5.64-6.33-6.16-13.16-.26-3.45,1.31-3.55,2.93-2.8,1.91.88,3.24,2.66,3.77,4.69.66,2.51,1.89,6.09,3.56,5.98,2.56-.17,1.79-9.52,1.79-9.52-.21-3.15-14.28-7.49-14.28-7.49,0,0-7.95-4.6-6.46-14.44,1.01-6.71,3.48-4.36,4.94-2.18.69,1.02,1.09,2.21,1.26,3.43,1.38,10.28,16.19,12.06,16.19,12.06l.79-6.59s-9.02-.78-8.38-8.6c.46-5.7,2.7-3.28,3.87-1.55.43.63.67,1.36.8,2.12.65,3.82,5.22,3.05,5.22,3.05,0,0,3.13-13.22,1.54-15.3-1.18-1.53-11.1-6.19-11.1-6.19,0,0-7.31-4.83-8.1-13.42-.52-5.72,1.91-4.77,3.6-3.49.9.68,1.47,1.7,1.71,2.81,1.66,7.79,12.75,13.16,14.76,13.12,1.51-.03,1.15-3.48.81-5.5-.15-.87-.62-1.65-1.33-2.19-3.2-2.42-12.46-10.09-9.95-16.35,1.87-4.65,3.74-3.51,4.9-1.96.74.99,1.09,2.22,1.06,3.46-.13,5.49,3.14,8.43,5.3,9.77.81.5,1.85-.07,1.87-1.02.07-4.03.46-13.1,2.41-15.68s3.16-8.08,3.62-10.5c.11-.55-.36-1.02-.92-.95-6.86.76-13.53-9.58-13.53-9.58-3.03-5.86.69-5.66,2.97-5.1.89.22,1.56.91,1.85,1.78,2.09,6.3,10.86,7.48,12.54,5.4,1.41-1.75,1.9-10.1,2.05-13.49.03-.82-.37-1.6-1.08-2.02-1.89-1.12-5.46-3.95-5.27-9.3.2-5.55,4.17-2.47,6.02-.72.56.53,1.01,1.16,1.33,1.87.88,1.98,2.96,6.08,3.29,1.34.42-6.02,5.23-8.18,7.82-6.95,2.03.96-.34,7.39-1.45,10.1-.3.73.04,1.57.77,1.88,1.68.71,4.7,1.41,7.28-1.17,1.9-1.9,3.32-1.73,4.27-1.08,1.07.73,1.51,2.07,1.31,3.35-1.3,8.32-13.39,7.32-17.78,6.67-.88-.13-1.7.48-1.84,1.36-.29,1.85-.74,4.81-.98,6.34-.09.61.18,1.23.71,1.55,3.17,1.94,3.82.24,3.91-1.04.06-.84.42-1.64,1.08-2.16,2-1.59,3.46-.83,4.26-.04.49.48.74,1.16.73,1.84-.22,11.29-10.56,5.72-12.35,5.81-1.35.06-1.45,3.39-1.4,5.15.01.61.47,1.13,1.07,1.22,10.78,1.52,13.1-2.13,13.57-3.42.14-.38.41-.7.74-.94,1.25-.91,3.89-2.18,2.88,4.27-1.26,8.04-19.35,4.77-21.06,5.97-1.14.79-2.61,13.07-2.99,17.07-.06.68.3,1.5.98,1.58,2.82.32.29-2.61,2.71-6.72,2.67-4.54,4.49.54,4.49.54,1.55,8.04-3.93,10.06-6.27,10.31-1.45.16-2.31,1.74-1.7,3.07.12.27.25.55.38.87.59,1.46,2.21,2.34,3.7,1.83,2.85-.96,5.92-5.12,8.75-8.51,3.9-4.69,4.19.5,4.19.5-1.53,10.82-11.53,14.39-16.34,15.49-1.59.36-2.82,1.63-3.13,3.23-2.21,11.48-.89,9.82-1.21,11.89-.33,2.17.32,4.9,2.9,3.69,2.57-1.21.84-4.45,2.66-6.97s2.35-1.84,3.7-.47c1.35,1.38-1.34,8.64-1.34,8.64-2.31,9.14-8.5,5.25-8.5,5.25-1.91,4.88-.06,6.55-.06,6.55,6.69,3.65,10.09-3.27,11.37-6.93.61-1.76,1.97-3.22,3.76-3.75,3.67-1.08,3.8,3,3.8,3-2.49,16.76-22.97,14.33-22.85,16.68.33,6.84,6.45,6.49,7.53,5.98.63-.3,1.08-.52,1.41-.69.9-.46,1.97-.54,2.9-.14.83.35,1.58,1.04,1.5,2.37-.11,1.92-5.24,1.38-8.7.79-.95-.16-1.33,1.21-.42,1.54,3.53,1.29,9.53,2.39,12.42,2.88,1,.17,2.02-.2,2.69-.96,2.19-2.5,6.86-7.11,3.93,2.77-3.76,12.65-23.94-2.39-25.82-2.22-1.29.12-1.54,3.31-1.56,5.29-.01.98.4,1.92,1.15,2.55,8.38,7.12,9.54.33,11.01-.49s2.56.68,2.91,2.39-3.08,5.98-3.08,5.98c-3.85,3.19-11.11-4.62-14.02-4.62-2.25,0-2.59,4.13-3.6,5.58-.85,1.23-.65,4.86-.28,5.31,1.29,1.59,7.34,1.38,11.92-1.32,4.82-2.84,7.82,3.51,2.81,3.19-.34-.02-10.61-.54-12.28,5.98,0,0-1.17,5.49,3.53,5.3Z"/><path class="cls-14" d="m309.95,781.08s3.62-24.12-9.95-26.23c-13.57-2.11-22.01-14.47-22.01-14.47,0,0-7.24-16.88,5.73-9.04,0,0,12.06,15.68,14.47,14.17,2.41-1.51-.3-6.03-.3-6.03,0,0-18.09-22.61-12.66-23.82,0,0,5.13-4.82,7.84.3s4.82,16.58,8.74,18.69c3.92,2.11-2.71-30.45-2.71-30.45,0,0-24.42-5.13-23.52-24.12,0,0,2.41-5.13,6.93,3.92,4.52,9.04,12.36,10.55,12.36,10.55,0,0,3.92-23.52-2.41-31.35-6.33-7.84-15.38-6.03-15.38-6.03,0,0-10.25-1.81-15.38-12.36,0,0-.6-6.33,8.14-.9,8.74,5.43,8.14,9.95,14.47,8.14,0,0,5.43-2.41-1.51-7.24-6.93-4.82-10.85-7.54-9.35-9.95,1.51-2.41,11.15,5.43,11.15,5.43,0,0,6.63,1.51-3.32-13.57,0,0-17.79.6-24.72-12.36,0,0,.3-5.43,4.82-1.51,4.52,3.92,9.65,4.52,9.65,4.52,0,0,4.22-.9-.3-3.32-4.52-2.41-12.06-11.76-8.14-12.36,0,0,1.51-6.93,14.47,13.87,0,0,3.01.9,2.41-3.01-.6-3.92-6.33-15.68-1.81-15.07s3.92,2.11,3.92,2.11c0,0,0,12.36,2.71,14.17s3.32-12.66,3.32-12.66c0,0,2.41-3.92,3.32.3s3.01,16.58-5.13,21.71c0,0,4.52,18.99,7.54,20.8,3.01,1.81.9-15.07.9-15.07,0,0,2.41-9.35,4.52.3,2.11,9.65,1.21,16.28,1.21,16.28,0,0,2.11,6.63,5.13.6s.3-18.69.3-18.69c0,0,4.22-10.55,5.73-.6,1.51,9.95,4.52,25.63-8.44,32.56,0,0-3.32,11.76.3,20.2,3.62,8.44,5.13.9,5.13.9l3.01-9.65s-6.63-3.32-5.13-6.93c1.51-3.62,3.32-3.01,7.24,1.51,0,0,2.71,4.22,3.01.3s3.01-12.96,3.01-12.96c0,0,4.22-7.84,5.43-.6.88,5.3-10.85,27.86-17.19,39.55-.57,1.05.82,2.06,1.65,1.19,5.65-6,13.81-14.69,15.54-16.62,2.71-3.01,6.03-13.57,6.03-13.57,0,0,6.63-6.03,5.13,2.11s-11.76,24.42-11.76,24.42c0,0-11.46,12.06-15.38,13.26-3.92,1.21.6,31.05.6,31.05,0,0,5.13,4.22,4.22-2.11s-1.21-18.09-.3-18.39,3.01-5.73,5.43-.3c2.41,5.43.9,21.4,2.71,22.61,1.81,1.21,5.73,1.51,5.73-2.41s-1.21-26.83,3.32-26.23c4.52.6,4.82,3.62,4.82,3.62,0,0,2.11,17.79,1.21,21.4s-11.15,25.93-16.28,26.83c0,0-1.81,18.09-.3,19.9,1.51,1.81-9.95,2.71-9.95,2.71Z"/><path class="cls-11" d="m798.74,862.67c7.4-.3,14.21-10.77,14.21-10.77,0,0,13.86-23.1,4.82,2.81-7.61,21.8-25.45,16.73-30.92,14.57-1.18-.47-2.53-.25-3.52.55-5.87,4.74-5.21,13.29-4.85,15.86.05.4-.26.74-.66.74l-8.25-.16c-.68-.01-1.22-.56-1.22-1.24v-6.62c0-7.83,8.8-13.05,10.65-15.07,2.13-2.32.48-7.65-.48-11.76-.5-2.14-.3-4.36.51-6.4,1.39-3.47,3.89-8.51,7.2-10.16,5.22-2.61,5.42-6.83,5.42-6.83,0,0-1.26-4.77-3.01-6.43-1.06-1-6.63-7.43-7.23-15.47-.3-4.05,1.54-4.17,3.44-3.29,2.24,1.04,3.8,3.12,4.43,5.51.77,2.95,2.22,7.15,4.18,7.02,3.01-.2,2.1-11.18,2.1-11.18-.24-3.7-16.78-8.8-16.78-8.8,0,0-9.34-5.4-7.59-16.97,1.19-7.88,4.08-5.12,5.81-2.56.81,1.2,1.28,2.59,1.47,4.03,1.63,12.08,19.02,14.17,19.02,14.17l.93-7.74s-10.59-.92-9.84-10.1c.55-6.7,3.17-3.85,4.55-1.82.51.74.79,1.6.94,2.49.76,4.48,6.13,3.58,6.13,3.58,0,0,3.68-15.54,1.8-17.98-1.38-1.8-13.04-7.28-13.04-7.28,0,0-8.59-5.67-9.52-15.77-.62-6.72,2.24-5.6,4.23-4.1,1.06.8,1.73,1.99,2.01,3.3,1.95,9.16,14.98,15.46,17.34,15.41,1.77-.04,1.35-4.09.95-6.46-.17-1.03-.73-1.94-1.56-2.57-3.76-2.84-14.64-11.85-11.69-19.2,2.2-5.47,4.4-4.12,5.76-2.3.87,1.17,1.28,2.61,1.24,4.06-.15,6.45,3.69,9.91,6.23,11.48.95.59,2.17-.08,2.2-1.2.09-4.73.54-15.39,2.83-18.42,2.28-3.01,3.71-9.49,4.26-12.34.12-.65-.43-1.19-1.09-1.12-8.06.9-15.9-11.26-15.9-11.26-3.56-6.89.81-6.65,3.49-5.99,1.05.26,1.83,1.07,2.17,2.09,2.46,7.4,12.76,8.79,14.73,6.35,1.66-2.06,2.24-11.87,2.41-15.85.04-.97-.44-1.88-1.27-2.37-2.22-1.31-6.42-4.64-6.19-10.93.24-6.52,4.9-2.91,7.07-.85.66.62,1.19,1.37,1.56,2.2,1.03,2.32,3.47,7.14,3.86,1.58.49-7.08,6.15-9.61,9.19-8.17,2.39,1.13-.4,8.68-1.71,11.87-.35.86.05,1.84.91,2.21,1.97.84,5.52,1.66,8.55-1.37,2.23-2.23,3.9-2.03,5.01-1.27,1.25.85,1.77,2.44,1.53,3.94-1.53,9.77-15.73,8.6-20.89,7.84-1.04-.15-2,.56-2.16,1.59-.34,2.18-.87,5.65-1.15,7.45-.11.72.22,1.44.84,1.82,3.72,2.28,4.49.28,4.6-1.22.07-.98.49-1.93,1.26-2.54,2.35-1.86,4.06-.97,5.01-.05.58.56.87,1.36.86,2.17-.26,13.26-12.41,6.73-14.51,6.82-1.58.07-1.7,3.99-1.65,6.05.02.72.55,1.33,1.26,1.43,12.67,1.79,15.39-2.5,15.95-4.02.16-.45.48-.82.86-1.1,1.47-1.07,4.57-2.56,3.38,5.01-1.48,9.44-22.73,5.61-24.75,7.01-1.34.93-3.07,15.36-3.52,20.06-.08.8.35,1.76,1.15,1.85,3.31.38.33-3.06,3.18-7.9,3.14-5.33,5.28.63,5.28.63,1.82,9.44-4.62,11.82-7.37,12.12-1.7.19-2.71,2.04-2,3.6.14.31.3.64.45,1.02.7,1.72,2.59,2.75,4.35,2.15,3.35-1.13,6.96-6.01,10.27-10,4.59-5.51,4.92.59,4.92.59-1.8,12.71-13.54,16.9-19.2,18.2-1.87.43-3.32,1.92-3.68,3.8-2.59,13.48-1.05,11.53-1.42,13.97-.39,2.55.38,5.75,3.4,4.33,3.02-1.42.99-5.23,3.12-8.19s2.76-2.17,4.35-.55c1.59,1.62-1.58,10.16-1.58,10.16-2.72,10.73-9.99,6.17-9.99,6.17-2.25,5.73-.08,7.69-.08,7.69,7.86,4.29,11.85-3.84,13.35-8.14.72-2.07,2.31-3.78,4.41-4.4,4.31-1.27,4.47,3.52,4.47,3.52-2.92,19.69-26.98,16.84-26.85,19.6.39,8.04,7.58,7.63,8.85,7.03.74-.35,1.27-.61,1.66-.81,1.06-.54,2.32-.63,3.41-.17.98.41,1.85,1.22,1.76,2.78-.13,2.26-6.16,1.62-10.22.92-1.12-.19-1.56,1.42-.49,1.81,4.14,1.51,11.19,2.8,14.59,3.38,1.18.2,2.37-.23,3.16-1.13,2.57-2.93,8.06-8.35,4.61,3.26-4.42,14.86-28.12-2.81-30.33-2.61-1.52.14-1.8,3.89-1.83,6.22-.01,1.15.48,2.25,1.35,3,9.84,8.36,11.2.39,12.94-.58,1.81-1,3.01.8,3.41,2.81.4,2.01-3.62,7.03-3.62,7.03-4.52,3.75-13.06-5.42-16.47-5.42-2.64,0-3.04,4.85-4.23,6.56-1,1.45-.76,5.71-.33,6.24,1.51,1.87,8.62,1.62,14-1.55,5.66-3.33,9.19,4.12,3.3,3.75-.4-.02-12.46-.64-14.43,7.02,0,0-1.38,6.45,4.14,6.22Z"/><path class="cls-11" d="m747.1,887.23s4.25-28.34-11.69-30.82c-15.94-2.48-25.86-17-25.86-17,0,0-8.5-19.84,6.73-10.63,0,0,14.17,18.42,17,16.65,2.83-1.77-.35-7.08-.35-7.08,0,0-21.25-26.56-14.88-27.98,0,0,6.02-5.67,9.21.35,3.19,6.02,5.67,19.48,10.27,21.96s-3.19-35.77-3.19-35.77c0,0-28.69-6.02-27.63-28.34,0,0,2.83-6.02,8.15,4.6,5.31,10.63,14.52,12.4,14.52,12.4,0,0,4.6-27.63-2.83-36.84-7.44-9.21-18.06-7.08-18.06-7.08,0,0-12.04-2.13-18.06-14.52,0,0-.71-7.44,9.56-1.06,10.27,6.38,9.56,11.69,17,9.56,0,0,6.38-2.83-1.77-8.5-8.15-5.67-12.75-8.85-10.98-11.69,1.77-2.83,13.11,6.38,13.11,6.38,0,0,7.79,1.77-3.9-15.94,0,0-20.9.71-29.04-14.52,0,0,.35-6.38,5.67-1.77s11.33,5.31,11.33,5.31c0,0,4.96-1.06-.35-3.9-5.31-2.83-14.17-13.81-9.56-14.52,0,0,1.77-8.15,17,16.29,0,0,3.54,1.06,2.83-3.54-.71-4.6-7.44-18.42-2.13-17.71,5.31.71,4.6,2.48,4.6,2.48,0,0,0,14.52,3.19,16.65,3.19,2.13,3.9-14.88,3.9-14.88,0,0,2.83-4.6,3.9.35,1.06,4.96,3.54,19.48-6.02,25.5,0,0,5.31,22.31,8.85,24.44,3.54,2.13,1.06-17.71,1.06-17.71,0,0,2.83-10.98,5.31.35,2.48,11.33,1.42,19.13,1.42,19.13,0,0,2.48,7.79,6.02.71,3.54-7.08.35-21.96.35-21.96,0,0,4.96-12.4,6.73-.71,1.77,11.69,5.31,30.11-9.92,38.25,0,0-3.9,13.81.35,23.73s6.02,1.06,6.02,1.06l3.54-11.33s-7.79-3.9-6.02-8.15c1.77-4.25,3.9-3.54,8.5,1.77,0,0,3.19,4.96,3.54.35s3.54-15.23,3.54-15.23c0,0,4.96-9.21,6.38-.71,1.04,6.23-12.75,32.73-20.19,46.47-.67,1.24.97,2.42,1.93,1.39,6.63-7.05,16.22-17.26,18.26-19.52,3.19-3.54,7.08-15.94,7.08-15.94,0,0,7.79-7.08,6.02,2.48-1.77,9.56-13.81,28.69-13.81,28.69,0,0-13.46,14.17-18.06,15.58-4.6,1.42.71,36.48.71,36.48,0,0,6.02,4.96,4.96-2.48-1.06-7.44-1.42-21.25-.35-21.61s3.54-6.73,6.38-.35c2.83,6.38,1.06,25.15,3.19,26.56,2.13,1.42,6.73,1.77,6.73-2.83s-1.42-31.52,3.9-30.82c5.31.71,5.67,4.25,5.67,4.25,0,0,2.48,20.9,1.42,25.15-1.06,4.25-13.11,30.46-19.13,31.52,0,0-2.13,21.25-.35,23.38,1.77,2.13-11.69,3.19-11.69,3.19Z"/><path class="cls-11" d="m936.46,844.04c-.99.02-1.92-.49-2.58-1.22-2.38-2.63-6.1-8.54-1.54-16.52,4.86-8.5-8.16-17.01-14.27-20.41-1.95-1.08-3.34-2.93-3.82-5.11-1.94-8.78-6.02-31.61.85-43.48,6.09-10.52-.72-18.69-5.25-22.58-2.25-1.93-3.54-4.74-3.56-7.71-.06-12.13,1.97-41.57,22.81-45.67,0,0,4.3-.73-2.24,10.1-5.29,8.76-6.13,24.14-6.25,29.89-.04,1.64.26,3.27.88,4.79,1.7,4.21,5.95,12.41,14,14.71,10.98,3.14,1.57,23.52,1.57,23.52,0,0-14.04,22.91-1.95,35.72.58.61,1.26,1.12,2.01,1.5,2.85,1.43,11.84,7.53,9.71,26.69-.21,1.89.2,3.8,1.19,5.42,3.34,5.49,11.52,17.25,18.85,14.81,9.49-3.16-11.7-28.79-11.7-28.79,0,0-15.61-32.13-3.78-56.36.4-.83.68-1.71.79-2.62.84-7.27,3.9-40.2-9.03-44.13-14.55-4.43,7.91-44.92,7.91-44.92,0,0,12.04-15.28-3.53-46.31-.39-.78-.67-1.62-.81-2.48-.9-5.76-3.58-28.3,8.42-32.82,1.26-.47,2.36-1.26,3.11-2.38,2.35-3.54,6.25-12.08,2.3-26.25-5.38-19.3,4.43-4.11,4.43-4.11,0,0,16.75,18.92-3.5,47.54-.5.71-.92,1.48-1.22,2.3-1.67,4.54-5.13,19.19,11.53,34.88,1.21,1.14,2.15,2.54,2.62,4.13,1.57,5.33,2.02,18.32-12.91,45.27h0c-.93,1.39-1.57,2.95-1.9,4.58-1.4,6.87-3.66,25.18,9.54,34.18,1.14.78,2.12,1.77,2.85,2.94,3.08,4.91,8.33,18.39-4.61,42.22-.55,1.02-.93,2.13-1.08,3.28-1.02,7.9-4.16,40.16,8.8,63.05,0,0,2.21,8.86,4.43-5.38,2.21-14.23,6.96-20.56,6.96-20.56,0,0,18.35-9.81,2.53-31.63,0,0-9.81-12.97,7.28-20.24,16.73-7.12,23.44-60.35,5.9-80.67-.77-.89-1.28-1.99-1.47-3.15h0s-14.23-34.16,0-51.88c0,0,33.12-23.82,15.83-59.22-1.83-3.74-3.04-7.74-3.8-11.83-3-16.26-11.19-55.7-22.22-69.85-1.14-1.47-1.92-3.18-2.32-5-2.45-11.2-3.93-49.41,31.1-61.71,0,0,7.03-1.17-7.84,14.33,0,0-17.4,20.24.95,63.58,0,0,35.11,61.68,30.05,80.98s18.66,31.95-23.72,63.26c0,0-14.76,13.53,10.3,53.95,1,1.61,1.8,3.32,2.41,5.11,3.46,10.23,10.4,42.4-21.89,78.86,0,0-4.74,7.59,2.85,12.65s4.74,16.76,4.74,16.76c0,0-4.59,8.61-20.34,19.27-1.77,1.2-3.24,2.79-4.29,4.65-2.72,4.85-6.06,12.85,8.18,3.28,0,0,37.01-18.03,38.91-35.74s2.53-44.28-.63-56.3c-3.16-12.02,23.06-53.72,27.2-55.04,0,0,21.14-13.9,20.56-20.88,0,0-.21-42.75-3.16-45.87-2.4-2.53,3.48-23.09,12.34-23.09,7.33,0,2.75-13.2.95-17.77-.38-.97-.94-1.85-1.65-2.61-5.25-5.65-28.83-32.35-24.84-52.27.14-.69.22-1.39.2-2.09-.26-7.18.02-43.54,13.33-51.16,0,0,9.96-3.42,2.09,47.14-.14.87-.18,1.75-.13,2.63.37,6.34,2.69,32.5,15.75,35,13.54,2.59,15.8,28.01,16.09,32.53.03.4.09.8.2,1.19.68,2.48,2.74,13.73-12.12,24.71-.82.6-1.53,1.33-2.08,2.19-2.31,3.64-6.98,14.01.75,30.48,9.81,20.88-13.92,42.7-13.92,42.7,0,0-24.77,18.08-32.64,45.3-6.89,23.82-2.98,49.15-1.89,55.11.18.98.23,1.98.15,2.97-.54,6.71-3.97,31.74-25.49,39.67-24.93,9.18-40.02,16.73-37.72,20.34s9.51,1.31,9.51,1.31c0,0,36.44-7.41,41.66-11.81,6.3-5.32,53.5-28.24,37.4-63.27-.22-.48-.4-.97-.52-1.48-1.45-5.96-10.22-44.11-.56-56.62,1.61-2.09,2.03-4.85,1.33-7.39-1.77-6.41-6.38-18.38-18.15-33.02-.7-.87-1.27-1.85-1.65-2.9-1.83-5.05-4.54-19.66,1.36-29.02.43-.68,1.3-.88,1.97-.44,1.62,1.06,4.21,4.56,5.15,16.08,1.42,17.26,20.01,28.24,20.01,28.24,0,0,12.62-.58,4.1,26.7-.72,2.3-1.14,4.67-1.26,7.08-.55,10.57-1.11,38.66,8.05,44.09,11.25,6.67,1.82,57.18-53.35,84.2-.8.39-1.64.7-2.51.93-7.27,1.95-42.84,11.4-50.75,11.4-7.33,0-32.06-.29-40.19-.39-1.57-.02-2.96-.98-3.53-2.44-2.52-6.46-9.7-23.69-14.53-23.61Z"/><path class="cls-11" d="m634.78,858.85s-39.21-15.45-41.05-26.83c0,0,.27-6.48,7.8,2.26,7.53,8.74,24.92,14.64,24.92,14.64,0,0,3.18-2.11-1.32-3.71-4.5-1.59-41.38-23.46-35.34-48.39,0,0,3.77-1.65,5.55,4.9s22.58,36.53,36.73,43.16c0,0,5.22,1.39.33-3.37s-42.36-40.85-22.49-64.38c0,0,9.2-1.25,7.93,8.47s.7,29.04,23.95,57.11c0,0,5.22,4.83,2.52-2.25,0,0-28.32-50.76-17.34-57.5,0,0,4.96-2.44,8,8.14,3.03,10.59-1.66,3.11,14.5,52.8,0,0,4.43,3.64,2.45-1.92-1.98-5.56-7.34-21.75-5.91-35s4.81-41.41,12.38-37.96c0,0,5.07.14,2.63,9.67-2.44,9.53-9.32,54.22-5.47,61.33,0,0,.7,7,4.9.99,0,0,8.01-28.46,6.59-31.03,0,0-5.6-9.74,2.21-10.99,7.81-1.24,4.96,12.08,4.96,12.08,0,0-1.45,24.68-10.31,34.68,0,0-3.42,5.64,2.06,2,5.48-3.65,19.87-20.1,21.76-20.77,0,0,11.71-9.25,5.3,5.99,0,0-5.79,7.8-29.57,22.02,0,0-1.56,1.62,2.6,1.93,0,0,4.09.65,21.72-12.69,0,0,9.57-5.64,3.68,5.31,0,0-10.29,10.07-20.33,11.91-10.04,1.85-36.34-2.61-36.34-2.61Z"/><path class="cls-14" d="m1450.14,797.1s3.93-9.69,2.1-9.96c-1.37-.2-3.48,3.13-4.45,4.82-.25.43-.88.42-1.11-.03-2.77-5.3-1.38-14.09-1.38-14.09h0c-.49-4.76,4.03-8.04,4.65-8.47.05-.03.09-.07.13-.12.58-.74,5.3-6.9,3.09-7.4-1.4-.31-2.89,1.74-3.88,3.45-.32.56-1.18.34-1.18-.31-.15-13.2,4.27-19.25,4.27-19.26,0,0,0,0,0,0,0,0,3.14-1.44,2.49-2.88-.46-1.02-2.37-.27-3.45.26-.39.19-.79,0-.89-.42-.2-.83-.64-2.03-1.56-2.2-1.25-.23-.43,3.6-.19,4.61l-.08.46c-3.46,5.79-3.42,22.58-3.4,24.39,0,.1-.02.2-.08.3-.77,1.37-6.89,12.6-3.33,17.03,2.77,3.44,2.13,4.44,1.57,4.73-.2.1-.44.09-.63-.04-6.59-4.53-9-21.96-9.4-25.25-.04-.3.15-.59.44-.68,6.63-2.03,7.75-8.77,7.75-8.77,0,0,1.18-6.42,3.28-13.76,2.09-7.33,7.72-7.34,7.73-7.34,0,0,0,0,0,0,0,0,4.85,1.31,4.85,0,0-.99-2.61-1.23-3.89-1.29-.37-.02-.64-.33-.6-.7.14-1.24.27-3.74-1.01-3.64s-1.08,2.29-.91,3.41c.05.34-.18.67-.52.72-5.44.77-7.23,7.12-7.64,8.98-.07.33-.39.55-.72.49-2.03-.41-1.43-3.91-1.18-5.09.05-.22.22-.4.44-.46,4.57-1.29,5.94-12.89,5.94-12.89h0c1.18-3.41,2.1-15.33,2.1-15.33,0,0,0,0,0,0,0,0,.92-1.97,3.54-3.54,2.21-1.32,1.56-2.01,1.14-2.06l-.18-.02c-.55-.03-2.14.54-3.05,1.68-.64.8-1.28.77-1.68.63-.26-.09-.41-.35-.4-.62.08-1.36.38-5.85,1.16-6.3s2.79-2.05,3.45-2.58c.14-.11.23-.28.23-.46.02-.65-.07-2.21-1.2-2.72s-2.18,1.9-2.51,2.81c-.08.21-.26.37-.49.41-.64.11-1.16.3-1.46-.33-.42-.88-2.73-3.7-3.27-4.2-.06-.04-.1-.15-.24-.17-.81-.35-6.36-2.67-1.85,1.23,4.85,4.19,4.07,4.23,3.41,4.32-.79.11.66,11-.66,24.37-1.31,13.36-3.41,12.45-3.41,12.45,0,0-2.88.52-1.18-1.05,1.7-1.57,1.31-10.85,1.31-10.86,0,0,0-.03,0-.03.02,0-2.88-6.53-2.75,3.82,0,0,0,0,0,0,0,0-3.34,13.21.47,18.91,3.09,4.63-2.38,13.26-4.71,16.54-.34.48-1.09.28-1.15-.3-.44-4.49-1.44-16.98.6-20.36.05-.08.15-.33.17-.42l.21-2.31c.01-.07.03-.28.06-.35.6-1.4,1.09-10.58,1.73-13.01.66-2.49,3.54-21.75,3.54-21.75,0,0,.39-2.49-1.7-3.41-1.87-.82-3.74,17.7-4.12,21.66-.04.45-.42.68-.84.53-1.07-.39-2.86-1.44-2.77-4.11.12-3.52-2.23-3.1-2.58-3.02-.03,0-.06.02-.09.03-.41.17-3.46,1.68,2.92,7.45,6.81,6.15,1.85,7.43,1.31,7.21h0c-12.4-2.38-9.39-14.43-8.75-16.57.06-.2.22-.36.42-.42,5.53-1.65,4.36-2.68,5.97-3.58,1.41-.79,1.16-9.62,1.07-11.55-.01-.23.1-.44.29-.56,1.07-.68,4.47-2.98,3.36-3.87-1.31-1.05-4.32,2.23-5.11,2.23-.73,0-2.71-3.75-2.98-4.26-.02-.04-.05-.08-.08-.11-2.56-3-2.4.62-1.81,1.38l.08.21c.56.92,5.03,8.55,2.69,14.45-2.03,5.12-3.44,4.16-3.9,3.63l-.14-.44c1.19-15.97-6.68-12.92-7.08-12.75-.01,0-.02,0-.04.01-.46.15-8.67,2.86-.9,2.35,7.99-.52,5.37,12.18,5.37,12.18-2.94,16.6,6.71,19.13,8.69,19.47.22.04.4.19.48.4,3.59,9.93,2.67,13.6,2.05,14.76-.15.29-.52.41-.82.27-5.98-2.75-4.11-9.23-4.11-9.23,0,0,1.31-5.5-2.36-.39-3.31,4.61,4.37,11.57,5.9,12.88.16.14.24.35.21.56-3.56,26.85,8.46,39.74,9.06,40.37.02.02.03.04.05.06.39.53,5.64,7.66-.42,3.11-6.29-4.72-13.25-11.54-13.76-12.18-.31-.4-.02-1.17.25-1.69.09-.17.26-.29.45-.33,10.63-1.95,13.72-10.7,14.37-12.26s-1.18-2.1-1.18-2.1c0,0-2.36-.66-1.44,1.31.92,1.96-7.99,9.82-7.99,9.83,0,0,0,0,0,0,0,0-5.11,1.83-6.42.39s-1.97-6.68-1.18-7.07,4.25-11.64,4.45-12.29c0-.02.01-.04.02-.06.06-.3.45-2.51-.53-3.24-1.05-.79-2.1,1.31-2.1,1.31,0,0,0,0,0,0,0,0-1.97,12.31-3.67,10.74-1.7-1.57-2.1-11.13-2.1-11.14h0c3.09-8.41-.66-13.19-2.17-14.68-.29-.28-.26-.71.06-.96,6-4.49,1.48-11.56,1.98-13.97.5-2.38-10.36-26.87-11.33-29.06l-.05-.32c.1-.88.51-4.96-.54-5.07-.76-.08-1.14,1.75-1.31,3.05-.07.5-.66.73-1.05.39-1.22-1.07-3.26-2.48-3.54-.3-.33,2.67,3.1,3.54,4.15,3.75.19.04.36.17.44.34,11.41,23.17,12.01,35.85,12.04,36.62,0,.03,0,.05,0,.08-.04.4-.47,3.51-3.66,3.76-3.41.26-6.29-14.67-6.55-17.95-.21-2.58-2.11-7.18-2.92-9.02-.18-.42-.3-.87-.41-1.32-.66-2.77-7.01-6.4-8.44-7.19-.18-.1-.3-.27-.32-.48-.13-1.2-.68-5.33-1.8-5.44-1-.1-.63,3.21-.4,4.8.07.45-.25.77-.7.72-1.7-.21-5.35-.51-4.54.9.94,1.64,6.48,2.44,7.64,2.59.14.02.27.08.37.19,1.41,1.48,12.01,12.8,7.97,14.51-4.07,1.73-18.48-11.18-20.15-12.7l-.19-.35c-.17-.94-.91-4.8-2.06-5.03-.95-.19-.38,2.73,0,4.34.11.46-.31.87-.77.76-1.56-.38-4.34-.93-4.34.01,0,1.19,4.3,2.05,5.11,2.2l.24.1c1.54,1.12,18.1,13.25,20.07,12.76,1.26-.31,2.54-.33,3.09-.08l.29.29.23.46c.04.08.06.17.07.26.19,4.33,4.14,11.2,5.54,13.5.27.44.07.87-.44.95-6.75,1.04-8.72-3.5-8.89-3.94,0-.02-.01-.04-.02-.06-.1-.36-1.25-4.42-3.01-4.3-1.83.13.26,4.59.26,4.59-.39,2.88-9.29-2.61-9.3-2.62,0,0,0,0,0,0,0-.01-4.19-6.94-2.1-.79,1.9,5.58,11.32,5.35,13.08,5.26.18,0,.36.06.48.2,4.05,4.24,9.66,4.36,11.72,3.85,1.81-.45,2.74.95,2.96,1.34.03.06.06.12.07.19.22,1.41,2.72,17.83-.54,11.3-3.41-6.81-18.47-11-17.82-11.4s.26-3.01.26-3.01c0,0-.79-6.29-3.28-9.04-2.21-2.44-8.55-5.92-9.94-6.67l-.32-.45c-.15-1.01-.69-4.17-1.79-4.28-1-.1-1.16,2.85-1.18,4.25,0,.39-.33.67-.72.61-1.53-.22-4.92-.56-4,.77,1.04,1.5,4.83.97,5.71.82l.36.05c11.69,5.35,11.42,6.7,11.97,9.14.16.69.38,1.46.95,2.44,2.62,4.45-1.18,3.54-1.18,3.54-.84.24-9.91-5.67-11.44-6.67-.14-.09-.23-.23-.27-.39-.2-1.01-1.01-4.74-1.92-4.86-.8-.1-1.14,2.79-1.26,4.16-.03.35-.34.6-.69.57-1.77-.16-4.69.69-4.34,1.04.39.39,5.37,1.31,6.03,1.05s13.36,6.81,13.36,6.81l14.36,7.96.1.07c.73.61,9.62,8.16,8.86,9.92-.74,1.72.89,10.15,1.94,11.17.05.05.05.13.09.18.69.99,7.25,10.53,4.4,10.53s-5.41-3.63-5.84-4.24l-.08-.18c-.27-.93-2.65-8.66-7.57-14.32-4.84-5.57-18.17-11.91-20.18-12.85-.16-.08-.28-.22-.33-.39-.36-1.25-1.93-6.32-3.2-4.71-1.04,1.32.03,3.72.71,4.97.24.44.04.85-.46.93-1.69.26-4.97.85-3.79,1.44,1.57.79,6.02.26,6.03.26,0,0,0,0,0,0,0,0,17.16,6.16,14.8,10.22-2.23,3.85-11.17-2.07-12.11-2.7-.05-.03-.09-.07-.13-.12-.33-.43-2.31-2.77-6.24-3.6-4.32-.92-2.36,2.61-2.36,2.62,0,0,0,0,0,0,0,0,3.54,1.05,9.43,4.45,5.62,3.25,11.25,1.73,11.75,1.58l.06-.02c.4-.16,5.24-2.06,5.74,1.58.52,3.8,1.96,6.02,1.97,6.03,0,0,0,0,0,0,0,0,3.54,3.67,2.88,4.72-.63,1.01-9.93-1.76-10.58-1.95-.03,0-.05-.01-.07-.02-.49-.07-5.38-.78-1.27,1.84,3.82,2.43,11.74,2.3,13.52,2.24.22,0,.42.1.54.28,1.83,2.77,7.63,4.45,8.39,4.66.06.02.11.04.16.07.9.57,9.53,6.16,7.92,7.16s-8.89-1.59-9.52-1.82c-.03-.01-.06-.02-.09-.02-.47-.08-4.28-.7-4.28.4,0,1.18,3.54,2.62,5.37,3.14,1.83.52,8.78.13,9.96.13,1.08,0,7.05,3.38,8.1,3.97.1.06.22.09.34.08l7.55-.26"/><path class="cls-14" d="m1453.82,796.83s-3.09-7.61-1.65-7.82c1.08-.15,2.73,2.46,3.5,3.78.2.34.69.33.87-.02,2.17-4.16,1.08-11.06,1.08-11.07h0c.38-3.74-3.16-6.31-3.65-6.65-.04-.03-.07-.06-.1-.09-.45-.58-4.16-5.42-2.42-5.81,1.1-.24,2.27,1.36,3.04,2.71.25.44.92.26.93-.24.12-10.36-3.35-15.12-3.35-15.12,0,0,0,0,0,0,0,0-2.47-1.13-1.95-2.26.36-.8,1.86-.21,2.71.2.31.15.62,0,.7-.33.15-.65.5-1.59,1.23-1.72.98-.18.34,2.82.15,3.62l.06.36c2.72,4.55,2.68,17.73,2.67,19.15,0,.08.02.16.06.23.6,1.07,5.41,9.89,2.61,13.37-2.18,2.7-1.67,3.49-1.24,3.71.16.08.35.07.49-.03,5.17-3.55,7.07-17.25,7.38-19.83.03-.24-.12-.46-.35-.53-5.2-1.59-6.09-6.88-6.09-6.88,0,0-.93-5.04-2.57-10.8-1.64-5.76-6.06-5.76-6.07-5.76,0,0,0,0,0,0,0,0-3.81,1.03-3.81,0,0-.78,2.05-.97,3.06-1.01.29-.01.5-.26.47-.55-.11-.98-.21-2.93.79-2.86s.85,1.79.71,2.68c-.04.27.14.52.41.56,4.27.6,5.67,5.59,6,7.05.06.26.31.43.57.38,1.59-.32,1.13-3.07.92-4-.04-.18-.17-.31-.34-.36-3.59-1.01-4.67-10.12-4.67-10.12h0c-.93-2.67-1.65-12.03-1.65-12.04,0,0,0,0,0,0,0,0-.72-1.54-2.78-2.78-1.73-1.04-1.23-1.58-.9-1.61l.15-.02c.43-.02,1.68.42,2.4,1.32.5.63,1,.6,1.32.49.2-.07.33-.27.31-.49-.06-1.06-.3-4.59-.91-4.94s-2.19-1.61-2.71-2.02c-.11-.09-.18-.22-.18-.36-.01-.51.05-1.73.94-2.14s1.71,1.49,1.97,2.21c.06.17.21.29.38.32.5.09.91.24,1.15-.26.33-.69,2.14-2.9,2.57-3.29.05-.03.07-.12.19-.14.63-.27,4.99-2.1,1.46.96-3.81,3.29-3.2,3.32-2.67,3.39.62.08-.51,8.64.51,19.13,1.03,10.49,2.67,9.77,2.67,9.77,0,0,2.26.41.93-.82-1.34-1.23-1.03-8.52-1.03-8.53,0,0,0-.02,0-.02-.01,0,2.26-5.12,2.16,3,0,0,0,0,0,0,0,0,2.62,10.37-.37,14.85-2.42,3.64,1.87,10.41,3.7,12.99.27.38.86.22.9-.24.35-3.53,1.13-13.33-.47-15.99-.04-.06-.12-.26-.13-.33l-.16-1.81c0-.06-.03-.22-.05-.28-.47-1.1-.86-8.31-1.36-10.22s-2.78-17.08-2.78-17.08c0,0-.31-1.95,1.34-2.67,1.47-.64,2.94,13.9,3.24,17.01.03.35.33.54.66.42.84-.3,2.24-1.13,2.17-3.23-.1-2.76,1.75-2.44,2.02-2.37.02,0,.04.01.07.02.32.13,2.72,1.32-2.3,5.85-5.34,4.83-1.45,5.84-1.03,5.66h0c9.74-1.87,7.37-11.33,6.87-13.01-.05-.16-.17-.28-.33-.33-4.34-1.3-3.43-2.1-4.69-2.81-1.11-.62-.91-7.55-.84-9.07,0-.18-.08-.35-.23-.44-.84-.54-3.51-2.34-2.64-3.04,1.03-.82,3.39,1.75,4.01,1.75.57,0,2.13-2.94,2.34-3.35.02-.03.04-.06.06-.09,2.01-2.35,1.89.49,1.42,1.08l-.06.16c-.44.72-3.95,6.71-2.12,11.35,1.59,4.02,2.7,3.27,3.06,2.85l.11-.35c-.93-12.54,5.24-10.14,5.56-10.01,0,0,.02,0,.03.01.36.12,6.81,2.25.7,1.85-6.27-.41-4.22,9.57-4.22,9.57,2.31,13.04-5.27,15.02-6.82,15.29-.17.03-.32.15-.37.32-2.82,7.8-2.09,10.68-1.61,11.59.12.23.41.32.64.21,4.69-2.16,3.23-7.25,3.23-7.25,0,0-1.03-4.32,1.85-.31,2.6,3.62-3.43,9.08-4.63,10.12-.13.11-.19.28-.17.44,2.79,21.08-6.64,31.21-7.12,31.7-.01.01-.03.03-.04.04-.31.42-4.43,6.01.33,2.44,4.94-3.7,10.41-9.06,10.8-9.57.24-.31.01-.92-.19-1.33-.07-.14-.2-.23-.35-.26-8.35-1.53-10.78-8.4-11.29-9.63s.93-1.65.93-1.65c0,0,1.85-.51,1.13,1.03-.72,1.54,6.27,7.71,6.27,7.71,0,0,0,0,0,0,0,0,4.01,1.44,5.04.31,1.03-1.13,1.54-5.25.93-5.55s-3.33-9.14-3.49-9.65c0-.02,0-.03-.01-.05-.05-.24-.35-1.97.42-2.55.82-.62,1.65,1.03,1.65,1.03,0,0,0,0,0,0,0,0,1.54,9.67,2.88,8.44,1.34-1.23,1.65-8.74,1.65-8.74h0c-2.42-6.61.52-10.36,1.71-11.53.23-.22.21-.56-.05-.75-4.71-3.53-1.16-9.08-1.56-10.97s8.13-21.1,8.89-22.82l.04-.25c-.08-.69-.4-3.89.43-3.98.6-.07.9,1.37,1.03,2.4.05.4.52.57.82.31.96-.84,2.56-1.95,2.78-.24.26,2.09-2.44,2.78-3.26,2.94-.15.03-.28.13-.35.27-8.96,18.2-9.43,28.15-9.45,28.75,0,.02,0,.04,0,.06.03.31.37,2.76,2.88,2.95,2.67.21,4.94-11.52,5.14-14.09.16-2.02,1.66-5.63,2.29-7.09.15-.33.24-.68.32-1.04.52-2.17,5.5-5.03,6.63-5.64.14-.08.23-.22.25-.37.11-.94.53-4.19,1.41-4.27.78-.08.49,2.52.31,3.77-.05.35.2.61.55.56,1.34-.17,4.2-.4,3.56.71-.74,1.29-5.08,1.92-6,2.04-.11.01-.21.07-.29.15-1.11,1.16-9.43,10.05-6.26,11.4,3.2,1.36,14.51-8.78,15.82-9.97l.15-.28c.13-.74.72-3.77,1.62-3.95.75-.15.3,2.14,0,3.41-.09.36.24.68.6.6,1.22-.3,3.41-.73,3.41,0,0,.93-3.38,1.61-4.01,1.73l-.19.08c-1.21.88-14.21,10.41-15.76,10.02-.99-.25-2-.26-2.43-.06l-.22.22-.18.36c-.03.06-.05.13-.05.2-.15,3.4-3.25,8.8-4.35,10.6-.21.35-.05.68.35.74,5.3.82,6.84-2.75,6.98-3.09,0-.02.01-.03.02-.05.08-.28.98-3.47,2.36-3.38s-.21,3.6-.21,3.6c.31,2.26,7.29-2.05,7.3-2.06,0,0,0,0,0,0,0,0,3.29-5.45,1.65-.62-1.49,4.38-8.89,4.2-10.27,4.13-.14,0-.28.05-.38.15-3.18,3.33-7.58,3.42-9.2,3.02-1.42-.36-2.15.75-2.33,1.06-.03.05-.04.1-.05.15-.17,1.11-2.14,14,.42,8.87,2.67-5.35,14.5-8.64,13.99-8.95s-.21-2.37-.21-2.37c0,0,.62-4.94,2.57-7.1,1.73-1.92,6.71-4.65,7.81-5.23l.25-.35c.11-.79.54-3.28,1.41-3.36.78-.08.91,2.24.93,3.34,0,.31.26.52.56.48,1.2-.17,3.86-.44,3.14.6-.82,1.18-3.8.76-4.49.64l-.28.04c-9.18,4.2-8.97,5.26-9.4,7.18-.12.54-.3,1.15-.75,1.92-2.06,3.5.93,2.78.93,2.78.66.19,7.78-4.45,8.98-5.24.11-.07.18-.18.21-.31.16-.8.79-3.73,1.5-3.81.63-.08.9,2.19.99,3.26.02.27.27.47.54.45,1.39-.13,3.68.54,3.41.82-.31.31-4.22,1.03-4.73.82s-10.49,5.35-10.49,5.35l-11.27,6.25-.08.05c-.57.48-7.55,6.41-6.96,7.79.58,1.35-.7,7.97-1.52,8.77-.04.04-.04.1-.07.14-.54.78-5.7,8.27-3.45,8.27s4.25-2.85,4.58-3.33l.07-.14c.21-.73,2.08-6.8,5.95-11.24,3.8-4.37,14.27-9.35,15.85-10.09.13-.06.22-.17.26-.3.28-.98,1.52-4.96,2.51-3.7.81,1.04-.02,2.92-.55,3.9-.19.34-.03.67.36.73,1.32.2,3.9.67,2.97,1.13-1.23.62-4.73.21-4.73.21,0,0,0,0,0,0,0,0-13.48,4.84-11.62,8.02,1.75,3.02,8.77-1.62,9.5-2.12.04-.03.07-.06.1-.1.26-.34,1.82-2.17,4.9-2.83,3.39-.72,1.86,2.05,1.85,2.06,0,0,0,0,0,0,0,0-2.78.83-7.41,3.5-4.41,2.55-8.83,1.36-9.23,1.24l-.05-.02c-.32-.13-4.11-1.62-4.51,1.24-.41,2.98-1.54,4.73-1.54,4.73,0,0,0,0,0,0,0,0-2.78,2.88-2.26,3.7s7.8-1.38,8.3-1.53c.02,0,.04,0,.06-.01.38-.06,4.23-.61,1,1.44-3,1.91-9.22,1.81-10.62,1.76-.17,0-.33.08-.42.22-1.44,2.17-5.99,3.49-6.58,3.66-.04.01-.08.03-.12.06-.7.45-7.48,4.84-6.22,5.62s6.98-1.25,7.47-1.43c.02,0,.05-.01.07-.02.37-.06,3.36-.55,3.36.32,0,.93-2.78,2.06-4.22,2.47s-6.89.1-7.82.1c-.84,0-5.54,2.65-6.36,3.12-.08.05-.17.07-.26.06l-5.93-.2"/><path class="cls-13" d="m792.83,552.94c-3.01-4.97-9.43-6.69-14.53-3.91-6.8,3.69-14.6,8.62-15.02,11.92-.74,5.9,8.86,10.33,18.45,12.55,4.2.97,4.44,2.08,3.38,3.02-2.89,2.58-2.91,7.17-.28,10,4.38,4.72,12.63,9.22,27.64,5.85,1.26-.28,2.58.18,3.4,1.19,1.45,1.79,3.16,5.12,2.03,10.21-1.87,8.4,74.33,6.69,76.54,4.47,2.07-2.07,5.56-14.03-15.71-31.48-2.52-2.07-4.2-5.01-4.62-8.24-.25-1.89-.72-4.55-1.59-8.3-3.18-13.77-29.61-8.86-33.3-2.96-3.22,5.15-8.05-7.66-9.24-11.02-.28-.79-.83-1.48-1.58-1.86-2.01-1.03-6.6-1.54-15.67,5.51-10.73,8.35-14.31,12.31-19.9,3.06Z"/><path class="cls-13" d="m1569.18,410.07c-1.6-2.65-5.03-3.57-7.75-2.09-3.63,1.97-7.79,4.6-8.01,6.36-.39,3.15,4.72,5.51,9.84,6.69,2.24.52,2.37,1.11,1.81,1.61-1.54,1.37-1.55,3.82-.15,5.34,2.34,2.52,6.74,4.92,14.74,3.12.67-.15,1.38.09,1.81.63.77.96,1.69,2.73,1.08,5.44-1,4.48,39.65,3.57,40.83,2.39,1.1-1.1,2.97-7.48-8.38-16.79-1.34-1.1-2.24-2.67-2.47-4.4-.13-1.01-.39-2.43-.85-4.43-1.7-7.34-15.79-4.73-17.76-1.58-1.72,2.75-4.3-4.09-4.93-5.88-.15-.42-.44-.79-.84-.99-1.07-.55-3.52-.82-8.36,2.94-5.72,4.45-7.63,6.56-10.61,1.63Z"/><path class="cls-13" d="m705.63,434.97c1.18-1.95,3.69-2.62,5.69-1.53,2.66,1.45,5.72,3.37,5.88,4.67.29,2.31-3.47,4.05-7.22,4.91-1.64.38-1.74.81-1.32,1.18,1.13,1.01,1.14,2.81.11,3.92-1.72,1.85-4.94,3.61-10.82,2.29-.5-.11-1.01.07-1.33.46-.57.7-1.24,2.01-.79,4,.73,3.29-29.1,2.62-29.96,1.75-.81-.81-2.18-5.49,6.15-12.32.99-.81,1.65-1.96,1.81-3.23.1-.74.28-1.78.62-3.25,1.24-5.39,11.59-3.47,13.04-1.16,1.26,2.02,3.15-3,3.62-4.32.11-.31.32-.58.62-.73.79-.41,2.59-.6,6.13,2.16,4.2,3.27,5.6,4.82,7.79,1.2Z"/><path class="cls-13" d="m256.64,317.95c2.87-1.17,6.16.14,7.47,2.95,1.73,3.74,3.51,8.34,2.64,9.88-1.56,2.76-7.08,1.61-11.89-.5-2.11-.92-2.56-.52-2.41.22.42,2.02-1.03,4-3.06,4.37-3.38.63-8.34-.07-13.69-6.29-.45-.52-1.16-.75-1.83-.57-1.19.31-2.98,1.19-4.12,3.72-1.87,4.19-33.95-20.79-34.19-22.44-.23-1.55,2.08-7.78,16.74-8.48,1.74-.08,3.39-.81,4.6-2.06.7-.73,1.76-1.72,3.32-3.05,5.74-4.88,15.5,5.63,15.2,9.33-.26,3.23,5.89-.72,7.46-1.78.37-.25.82-.37,1.27-.3,1.19.2,3.32,1.44,4.96,7.34,1.94,6.99,2.21,9.82,7.54,7.64Z"/><path class="cls-13" d="m1275.33,657.06c1.18-1.95,3.69-2.62,5.69-1.53,2.66,1.45,5.72,3.37,5.88,4.67.29,2.31-3.47,4.05-7.22,4.91-1.64.38-1.74.81-1.32,1.18,1.13,1.01,1.14,2.81.11,3.92-1.72,1.85-4.94,3.61-10.82,2.29-.5-.11-1.01.07-1.33.46-.57.7-1.24,2.01-.79,4,.73,3.29-29.1,2.62-29.96,1.75-.81-.81-2.18-5.49,6.15-12.32.99-.81,1.65-1.96,1.81-3.23.1-.74.28-1.78.62-3.25,1.24-5.39,11.59-3.47,13.04-1.16,1.26,2.02,3.15-3,3.62-4.32.11-.31.32-.58.62-.73.79-.41,2.59-.6,6.13,2.16,4.2,3.27,5.6,4.82,7.79,1.2Z"/><path class="cls-1" d="m1920.81,856.87s-31.94-25.76-63.19-5.22c-31.25,20.54-62.5,17.86-62.5,17.86,0,0-68.75-19.64-116.97-6.25-48.22,13.39-148.22-12.5-148.22-12.5,0,0-75-17.86-103.57-2.68-28.57,15.18-114.29-1.79-114.29-1.79,0,0-56.25-24.11-105.36,1.79-49.11,25.89-77.68,17.86-77.68,17.86,0,0-42.86-13.39-107.15.89-64.29,14.29-153.57,10.71-170.54,3.57-16.96-7.14-24.11,8.93-24.11,8.93-25,16.07-131.25-3.57-143.75-12.5-12.5-8.93-43.75-1.79-58.93-5.36-15.18-3.57-39.29,11.61-39.29,11.61,0,0-26.79,15.18-39.29,4.46s-70.54-8.04-88.39,0c-17.86,8.04-26.79,0-26.79,0,0,0-100.89-6.25-117.86,0s-33.04-7.14-33.04-7.14c0,0-56.25-26.79-87.5-1.79-31.25,25-60.72,5.36-60.72,5.36,0,0-15.18-27.68-42.86-10.71-27.68,16.96-88.02,2.05-88.02,2.05v214.39h1920v-222.83Z"/><path class="cls-6" d="m1920.81,998.73s-32.83-26.27-64.08-5.73c-31.25,20.54-62.5,17.86-62.5,17.86,0,0-68.75-19.64-116.97-6.25-48.22,13.39-148.22-12.5-148.22-12.5,0,0-75-17.86-103.57-2.68-28.57,15.18-114.29-1.79-114.29-1.79,0,0-56.25-24.11-105.36,1.79-49.11,25.89-77.68,17.86-77.68,17.86,0,0-42.86-13.39-107.15.89-64.29,14.29-153.57,10.71-170.54,3.57s-24.11,8.93-24.11,8.93c-25,16.07-131.25-3.57-143.75-12.5-12.5-8.93-43.75-1.79-58.93-5.36-15.18-3.57-39.29,11.61-39.29,11.61,0,0-26.79,15.18-39.29,4.46-12.5-10.71-70.54-8.04-88.39,0-17.86,8.04-26.79,0-26.79,0,0,0-100.89-6.25-117.86,0s-33.04-7.14-33.04-7.14c0,0-56.25-26.79-87.5-1.79-31.25,25-60.72,5.36-60.72,5.36,0,0-15.18-27.68-42.86-10.71-27.68,16.96-87.13,2.25-87.13,2.25v72.84h1920v-80.96Z"/><path class="cls-3" d="m798.51,1071.69s73.61-13.17,80.79-32.32c0,0,1.8-11.37-14.36,1.2-16.16,12.57-48.47,16.76-48.47,16.76,0,0-4.79-4.79,3.59-5.98,8.38-1.2,80.19-26.33,78.4-71.81,0,0-5.98-4.19-11.37,6.58-5.39,10.77-52.06,55.66-79,62.24,0,0-9.58.6.6-5.98,10.17-6.58,87.97-56.25,61.64-104.13,0,0-15.56-5.39-16.76,11.97s-11.37,50.27-61.64,90.96c0,0-10.77,6.58-3.59-4.79,0,0,67.03-78.4,50.27-93.96,0,0-7.78-5.98-16.76,11.37-8.98,17.35,1.8,5.98-43.69,86.77,0,0-8.98,4.79-3.59-4.19,5.39-8.98,20.38-35.27,22.52-58.83,2.14-23.56,6.12-73.73-8.26-70.36,0,0-8.87-1.53-7.95,15.91.92,17.44-2.75,97.59-11.93,108.6,0,0-3.67,11.93-8.87,0,0,0-3.98-52.31-.61-56.29,0,0,13.15-14.99,0-19.88-13.15-4.89-12.85,19.27-12.85,19.27,0,0-6.12,43.44,5.81,63.94,0,0,3.98,11.01-4.28,2.75-8.26-8.26-27.53-41.91-30.59-43.75,0,0-17.13-20.19-11.32,8.57,0,0,7.34,15.6,43.75,48.64,0,0,2.14,3.37-5.2,2.45,0,0-7.34-.31-33.35-29.67,0,0-14.68-13.15-8.26,7.95,0,0,14.38,21.11,31.2,27.84,16.83,6.73,64.13,8.17,64.13,8.17Z"/><g class="cls-4"><path class="cls-17" d="m1377.39,987s-19.49,11.09-30.28-4.8c0,0,1.5-18.29-.9-22.49,0,0-11.45-1.67-16.56-9.07-.35-.51-.9-.83-1.52-.86-3.61-.15-15.99-1.2-17.39-8.26,0,0,7.88,4.29,9.32-7.1.04-.32.46-.39.6-.1.85,1.75,2.74,4.99,5.15,4.99,3.3,0,15.29.3,19.19,6.9s7.8-6.6,7.8-6.6c0,0-4.2-23.39-26.99-24.29-22.79-.9-22.88-50.83-22.88-50.83,0,0,8.23,9.03,16.82-4.05,0,0,6.02,17.83,4.76,23.88-.11.53-.08,1.08.13,1.57.98,2.37,3.97,8.77,7.16,7.54,3.9-1.5-4.2-51.27-4.2-51.27,0,0-2.45-18.26,1.56-21.56,4.01-3.3,13.59,10.17,21.28,1.18,0,0,4.75,17.08-3.94,23.98,0,0-4.5,6.6-3.3,11.09,1.2,4.5-2.1,38.38-2.1,38.38,0,0,6.3,3.6,9.3-17.99,0,0-1.7-21.71,2.15-24.75,3.24-2.56,9.48.97,11.37,2.14.34.21.54.6.51,1-.35,4.92-2.74,36.37-7.43,40.79-5.1,4.8-6,9-6,9,0,0-.3,15.29,8.1,4.2,0,0,7.31-13.39,10.18-12.89,2.86.49,10.26,6.49,10.26,6.49,0,0,2.65,4-10.24,20.2,0,0-6.9,12.89,6.6,15.59,13.49,2.7,20.69-25.49,20.69-25.49,0,0,0-9.89-3.6-11.69-3.6-1.8-27.26-15.39-21.43-41.87l16.68-3.42c.07-.01.13.04.13.11-.1,1.35-.96,12.06-3.77,14.59-3,2.7,3,11.39,3,11.39,0,0,12.59,16.49,14.69-3.9,0,0,6.9-14.69.6-17.39-6.3-2.7-16.76-25.62-10.81-41.5l14.14,2.03s-6.34,12.49-2.74,15.49c3.6,3,7.2,1.2,7.2,1.2,0,0,7.77-7.13,2.38-35.65l9.98-.65s9.44,27.91-.87,40.31c-.47.57-.78,1.26-.92,1.99-.72,3.66-3.04,14.67-5.77,18.89-3.3,5.1-8.4,20.69-7.2,22.49,1.2,1.8,6-.6,6-.6,0,0,15.2-10.94,8.96-30.31l16.41-.52s2.51,13.74-8.58,21.53c-11.09,7.8-16.19,20.99-16.19,20.99,0,0-1.56,13.58,25.55-3.9l4.3,10.23s-4.07,8.37-23.26,6.57c0,0-10.49-2.4-10.49,9.89s-15.59,20.09-15.59,20.09c0,0-18.59,12.45-18.59,17.09,0,0-3.1,12.27,12.59.9,13.52-9.79,17.56-14.68,17.56-14.68l4.2,16.47s-13.86,7.39-26.87,6.91c-2.31-.09-4.42,1.29-5.32,3.41-1.48,3.5-3,9.34-1.58,16.97Z"/><ellipse class="cls-12" cx="1339.59" cy="822.2" rx="10.9" ry="4.84"/><ellipse class="cls-12" cx="1399.1" cy="821" rx="7.29" ry="4.15"/><ellipse class="cls-12" cx="1418.12" cy="803.05" rx="5.08" ry="2.8"/><ellipse class="cls-12" cx="1431.42" cy="855.06" rx="8.23" ry="2.98"/><ellipse class="cls-12" cx="1379.92" cy="858.44" rx="8.76" ry="4.2" transform="translate(-189.66 437.11) rotate(-16.86)"/><ellipse class="cls-12" cx="1358.23" cy="854.63" rx="6.3" ry="3.85"/><ellipse class="cls-12" cx="1311.37" cy="862.7" rx="8.81" ry="5.44" transform="translate(-218.63 511.91) rotate(-20.43)"/><ellipse class="cls-12" cx="1441.41" cy="899.36" rx="4.2" ry="6.3"/><ellipse class="cls-12" cx="1372.83" cy="903.09" rx="6.18" ry="7.38" transform="translate(-236.49 1235.24) rotate(-45)"/><ellipse class="cls-12" cx="1409.36" cy="951.37" rx="4.38" ry="8.58" transform="translate(-141.97 255.11) rotate(-9.85)"/><ellipse class="cls-12" cx="1315.68" cy="937.89" rx="6.65" ry="4.55" transform="translate(-177.04 1556.3) rotate(-57.99)"/></g><path class="cls-2" d="m621.64,997.67s-48.48-8.67-53.21-21.28c0,0-1.18-7.49,9.46.79,10.64,8.28,31.93,11.04,31.93,11.04,0,0,3.15-3.15-2.36-3.94s-52.81-17.34-51.63-47.3c0,0,3.94-2.76,7.49,4.34,3.55,7.09,34.29,36.66,52.03,40.99,0,0,6.31.39-.39-3.94-6.7-4.34-57.94-37.05-40.6-68.58,0,0,10.25-3.55,11.04,7.88.79,11.43,7.49,33.11,40.6,59.91,0,0,7.09,4.34,2.36-3.15,0,0-44.14-51.63-33.11-61.88,0,0,5.12-3.94,11.04,7.49,5.91,11.43-1.18,3.94,28.77,57.15,0,0,5.91,3.15,2.36-2.76-3.55-5.91-13.42-23.23-14.83-38.74-1.41-15.51-4.03-48.56,5.44-46.34,0,0,5.84-1.01,5.24,10.48s1.81,64.27,7.86,71.53c0,0,2.42,7.86,5.84,0,0,0,2.62-34.45.4-37.07,0,0-8.66-9.87,0-13.1,8.66-3.22,8.46,12.69,8.46,12.69,0,0,4.03,28.61-3.83,42.11,0,0-2.62,7.25,2.82,1.81s18.13-27.6,20.15-28.81c0,0,11.28-13.3,7.45,5.64,0,0-4.84,10.28-28.81,32.04,0,0-1.41,2.22,3.43,1.61,0,0,4.84-.2,21.96-19.54,0,0,9.67-8.66,5.44,5.24,0,0-9.47,13.9-20.55,18.33-11.08,4.43-42.24,5.38-42.24,5.38Z"/><path class="cls-7" d="m1928.3,1072.79s12.64-42.9,6.74-44.06c-4.42-.87-11.2,13.87-14.33,21.33-.8,1.91-2.82,1.84-3.57-.12-8.91-23.45-4.44-62.36-4.44-62.37h0c-1.57-21.06,12.95-35.59,14.95-37.48.16-.15.29-.32.41-.53,1.85-3.27,17.06-30.55,9.93-32.73-4.51-1.38-9.31,7.68-12.47,15.26-1.03,2.48-3.78,1.49-3.81-1.36-.48-58.41,13.74-85.2,13.75-85.21,0,0,0,0,0,0,0,0,10.12-6.38,8.01-12.75-1.49-4.52-7.64-1.18-11.1,1.15-1.25.84-2.53,0-2.85-1.87-.63-3.69-2.04-8.97-5.02-9.71-4.03-1.01-1.38,15.91-.61,20.38l-.24,2.03c-11.13,25.63-11,99.91-10.95,107.92,0,.46-.08.9-.24,1.31-2.47,6.05-22.18,55.76-10.71,75.34,8.92,15.24,6.84,19.66,5.06,20.94-.64.46-1.42.4-2.01-.16-21.19-20.03-28.96-97.2-30.25-111.75-.12-1.34.48-2.61,1.42-3,21.33-8.98,24.94-38.8,24.94-38.8,0,0,3.79-28.41,10.54-60.88,6.74-32.45,24.84-32.47,24.87-32.47,0,0,0,0,0,0,.02,0,15.6,5.79,15.6,0,0-4.38-8.4-5.45-12.52-5.71-1.2-.08-2.06-1.47-1.92-3.11.46-5.5.86-16.54-3.26-16.1s-3.49,10.12-2.92,15.09c.17,1.5-.59,2.95-1.68,3.17-17.5,3.4-23.25,31.49-24.57,39.76-.23,1.45-1.26,2.44-2.32,2.15-6.53-1.8-4.62-17.32-3.78-22.53.16-.99.7-1.76,1.41-2.03,14.7-5.71,19.12-57.05,19.12-57.06h0c3.79-15.07,6.74-67.82,6.74-67.83,0,0,0,0,0,0,0,0,2.95-8.7,11.38-15.65,7.1-5.86,5.03-8.9,3.68-9.09l-.59-.1c-1.78-.12-6.87,2.37-9.83,7.45-2.05,3.53-4.11,3.41-5.4,2.77-.82-.41-1.33-1.54-1.28-2.73.24-6,1.23-25.9,3.73-27.86,2.45-1.93,8.97-9.05,11.11-11.41.45-.5.73-1.25.75-2.05.05-2.88-.22-9.78-3.85-12.05-3.78-2.37-7.01,8.4-8.06,12.44-.25.95-.85,1.63-1.57,1.8-2.07.49-3.72,1.33-4.7-1.48-1.35-3.89-8.77-16.35-10.53-18.57-.19-.17-.31-.66-.78-.77-2.6-1.54-20.46-11.82-5.97,5.43,15.6,18.55,13.09,18.74,10.96,19.13-2.54.47,2.11,48.7-2.11,107.84-4.21,59.14-10.96,55.08-10.96,55.08,0,0-9.27,2.32-3.79-4.64,5.48-6.96,4.22-48.03,4.22-48.08,0-.02,0-.14,0-.14.06,0-9.27-28.88-8.85,16.91,0,0,0,0,0,0,0,.03-10.73,58.45,1.5,83.68,9.93,20.49-7.66,58.66-15.15,73.21-1.09,2.12-3.5,1.23-3.69-1.35-1.42-19.88-4.65-75.12,1.93-90.11.15-.34.5-1.48.54-1.87l.66-10.22c.03-.33.11-1.26.21-1.56,1.94-6.18,3.51-46.84,5.57-57.58,2.11-11.02,11.38-96.24,11.38-96.24,0,0,1.26-11.02-5.48-15.07-6.02-3.62-12.05,78.32-13.27,95.87-.14,1.97-1.35,3.02-2.7,2.35-3.44-1.72-9.2-6.37-8.9-18.21.39-15.57-7.17-13.74-8.29-13.38-.1.03-.18.07-.28.12-1.31.74-11.13,7.43,9.41,32.97,21.9,27.23,5.96,32.89,4.22,31.89h0c-39.89-10.55-30.22-63.84-28.15-73.34.19-.9.7-1.6,1.35-1.86,17.8-7.32,14.04-11.84,19.21-15.82,4.55-3.5,3.74-42.55,3.43-51.12-.04-1,.32-1.95.93-2.49,3.43-3.02,14.38-13.19,10.81-17.12-4.21-4.64-13.91,9.86-16.44,9.86-2.35,0-8.73-16.58-9.6-18.87-.07-.18-.15-.34-.24-.5-8.25-13.26-7.73,2.75-5.83,6.11l.26.91c1.81,4.08,16.18,37.84,8.67,63.95-6.52,22.64-11.08,18.42-12.55,16.06-.16-.68-.3-1.29-.46-1.97,3.82-70.66-21.48-57.17-22.77-56.44-.04.02-.07.04-.11.06-1.47.66-27.89,12.66-2.89,10.41,25.71-2.32,17.28,53.92,17.28,53.92-9.47,73.48,21.58,84.66,27.96,86.17.71.17,1.29.85,1.54,1.78,11.54,43.96,8.58,60.19,6.59,65.34-.5,1.29-1.67,1.81-2.63,1.19-19.24-12.18-13.23-40.84-13.23-40.84,0,0,4.21-24.35-7.59-1.74-10.65,20.4,14.05,51.19,18.98,57.01.52.62.78,1.56.69,2.49-11.44,118.8,27.21,175.88,29.16,178.67.05.08.1.16.15.25,1.27,2.35,18.15,33.88-1.34,13.78-20.23-20.87-42.64-51.06-44.26-53.92-1-1.76-.05-5.19.79-7.48.28-.77.82-1.3,1.44-1.45,34.2-8.61,44.15-47.37,46.24-54.26,2.11-6.96-3.79-9.28-3.79-9.28,0,0-7.59-2.9-4.64,5.8,2.95,8.7-25.71,43.48-25.71,43.48,0,0,0,0,0,0,0,0-16.44,8.12-20.65,1.74-4.21-6.38-6.32-29.57-3.79-31.31,2.46-1.69,13.66-51.51,14.3-54.37.02-.09.04-.18.05-.28.19-1.33,1.43-11.1-1.71-14.34-3.37-3.48-6.74,5.8-6.74,5.8,0,0,0,0,0,0,0,0-6.32,54.5-11.8,47.54-5.48-6.96-6.74-49.28-6.74-49.28h0c9.94-37.23-2.13-58.37-6.99-64.98-.93-1.26-.85-3.16.19-4.23,19.29-19.87,4.75-51.16,6.38-61.82,1.61-10.52-33.32-118.91-36.45-128.6l-.16-1.42c.32-3.89,1.63-21.94-1.75-22.46-2.45-.37-3.67,7.73-4.23,13.51-.21,2.23-2.14,3.23-3.37,1.75-3.93-4.74-10.5-11-11.37-1.34-1.07,11.8,9.98,15.68,13.36,16.58.62.17,1.15.73,1.43,1.51,36.72,102.56,38.65,158.66,38.74,162.05,0,.12,0,.23,0,.35-.14,1.75-1.53,15.55-11.79,16.63-10.96,1.16-20.23-64.93-21.07-79.43-.66-11.4-6.8-31.75-9.39-39.93-.59-1.88-.98-3.85-1.32-5.84-2.12-12.24-22.56-28.33-27.15-31.81-.57-.43-.95-1.21-1.02-2.1-.43-5.29-2.19-23.59-5.79-24.09-3.2-.44-2.02,14.2-1.27,21.24.21,1.99-.8,3.42-2.25,3.17-5.47-.93-17.2-2.28-14.6,3.99,3.01,7.25,20.83,10.8,24.59,11.48.46.08.87.37,1.19.83,4.54,6.56,38.63,56.64,25.64,64.23-13.1,7.64-59.46-49.49-64.82-56.18l-.62-1.55c-.53-4.18-2.93-21.26-6.63-22.27-3.06-.84-1.23,12.07,0,19.2.35,2.04-.99,3.86-2.47,3.36-5.02-1.69-13.97-4.13-13.97.05,0,5.25,13.83,9.08,16.44,9.75l.77.46c4.97,4.98,58.22,58.65,64.56,56.46,4.04-1.39,8.18-1.47,9.95-.36l.92,1.26.74,2.04c.13.35.2.74.21,1.13.6,19.16,13.33,49.57,17.82,59.74.86,1.96.22,3.85-1.42,4.2-21.72,4.62-28.04-15.48-28.6-17.42-.03-.09-.04-.17-.06-.26-.31-1.58-4.03-19.58-9.67-19.02s.84,20.29.84,20.29c-1.26,12.75-29.89-11.56-29.93-11.6,0,0,0,0,0,0-.02-.05-13.48-30.71-6.74-3.48,6.11,24.68,36.41,23.68,42.08,23.27.59-.04,1.15.29,1.56.87,13.02,18.78,31.08,19.3,37.71,17.02,5.83-2.01,8.83,4.23,9.53,5.95.11.27.18.55.21.85.7,6.23,8.76,78.88-1.73,50.02-10.96-30.15-59.43-48.7-57.32-50.44,2.11-1.74.84-13.33.84-13.33,0,0-2.53-27.83-10.54-40-7.11-10.81-27.5-26.18-31.99-29.5l-1.01-1.99c-.47-4.45-2.23-18.46-5.77-18.95-3.22-.44-3.73,12.61-3.8,18.83-.02,1.74-1.05,2.95-2.3,2.71-4.93-.96-15.83-2.49-12.87,3.39,3.35,6.65,15.55,4.27,18.38,3.62l1.15.21c37.6,23.7,36.74,29.66,38.52,40.45.5,3.04,1.22,6.47,3.06,10.8,8.43,19.71-3.79,15.65-3.79,15.65-2.7,1.06-31.89-25.08-36.81-29.51-.45-.4-.76-1.03-.86-1.75-.65-4.48-3.25-21-6.17-21.5-2.58-.44-3.68,12.36-4.05,18.39-.1,1.55-1.09,2.66-2.22,2.52-5.7-.72-15.08,3.07-13.96,4.6,1.26,1.74,17.28,5.8,19.39,4.64,2.11-1.16,42.99,30.15,42.99,30.15l46.19,35.23.32.31c2.34,2.71,30.94,36.1,28.51,43.89-2.38,7.63,2.88,44.91,6.23,49.42.16.21.15.56.28.81,2.22,4.38,23.34,46.59,14.14,46.59s-17.42-16.08-18.78-18.76l-.27-.78c-.88-4.1-8.53-38.33-24.36-63.37-15.57-24.63-58.46-52.72-64.93-56.87-.52-.33-.91-.96-1.07-1.72-1.16-5.51-6.22-27.98-10.29-20.84-3.33,5.83.09,16.46,2.27,21.98.77,1.94.12,3.78-1.47,4.11-5.43,1.13-15.99,3.75-12.18,6.38,5.06,3.48,19.38,1.16,19.39,1.16,0,0,0,0,0,0,.01,0,55.22,27.25,47.63,45.22-7.19,17.03-35.95-9.14-38.95-11.94-.16-.15-.3-.32-.42-.54-1.07-1.89-7.45-12.25-20.07-15.94-13.89-4.05-7.6,11.56-7.59,11.6,0,0,0,0,0,0,.03.01,11.4,4.66,30.35,19.71,18.09,14.38,36.18,7.66,37.82,7.01l.21-.1c1.29-.73,16.84-9.11,18.46,7.01,1.68,16.8,6.31,26.65,6.32,26.67,0,0,0,0,0,0,.02.02,11.38,16.24,9.27,20.87-2.03,4.48-31.95-7.79-34.03-8.65-.08-.03-.15-.06-.24-.07-1.57-.33-17.32-3.44-4.09,8.14,12.3,10.76,37.77,10.2,43.51,9.92.7-.03,1.35.44,1.74,1.25,5.89,12.24,24.54,19.69,26.98,20.62.18.07.35.17.5.31,2.89,2.54,30.67,27.28,25.47,31.68-5.24,4.44-28.6-7.04-30.63-8.05-.1-.05-.19-.08-.29-.11-1.52-.36-13.75-3.12-13.75,1.78,0,5.22,11.38,11.6,17.28,13.91,5.9,2.32,28.24.58,32.03.58,3.46,0,22.69,14.95,26.05,17.58.33.26.7.38,1.08.37l24.29-1.13"/></svg>