<?xml version="1.0" encoding="UTF-8"?><svg xmlns="http://www.w3.org/2000/svg" width="530" height="760" xmlns:xlink="http://www.w3.org/1999/xlink" viewBox="0 0 530 760"><defs><style>.cls-1{fill:#f60;filter:url(#drop-shadow-7);}.cls-1,.cls-2,.cls-3,.cls-4,.cls-5,.cls-6,.cls-7,.cls-8,.cls-9,.cls-10,.cls-11{stroke-miterlimit:10;}.cls-1,.cls-2,.cls-5,.cls-6,.cls-8,.cls-10{stroke:#000;}.cls-12{clip-path:url(#clippath);}.cls-13,.cls-3,.cls-4,.cls-10,.cls-11{fill:none;}.cls-13,.cls-14,.cls-15,.cls-16,.cls-17,.cls-18,.cls-19{stroke-width:0px;}.cls-3{stroke:#c16000;}.cls-3,.cls-4{stroke-linecap:round;}.cls-4,.cls-9{stroke:#572a00;}.cls-20{clip-path:url(#clippath-1);}.cls-21{clip-path:url(#clippath-2);}.cls-14{fill:#6d737e;opacity:.1;}.cls-5,.cls-16{fill:#ff8a00;}.cls-6{fill:#ff8802;}.cls-7{fill:#fff;stroke:#fff;}.cls-8,.cls-17{fill:#643701;}.cls-9{fill:#572a00;}.cls-11{stroke:#ff7400;}.cls-16{opacity:.3;}.cls-18{fill:#ff924b;}.cls-19{fill:#fff8f8;}</style><clipPath id="clippath"><path class="cls-10" d="m1021.89-154.16c58.66-24.48,72.95-92.95,72.95-92.95,28.95-119.54-22.64-189.1-35.43-204.06-1.67-1.95-4.1-3.06-6.66-3.06h-61.14c-2.01,0-3.92.86-5.26,2.36-11.92,13.37-66.95,83.24-37.52,204.77,0,0,14.22,63.29-75.32,38.61-.12-.03-.24-.07-.36-.12l-24.32-8.82c-.22-.08-.44-.18-.64-.29-3.56-1.97-37.06-20.08-7.91,13.42,30.99,35.63,40.64,40.56,72.3,50.14,32.23,9.75,63.04,9.73,109.32,0"/></clipPath><clipPath id="clippath-1"><ellipse class="cls-13" cx="362.87" cy="246.32" rx="110.26" ry="87.87"/></clipPath><clipPath id="clippath-2"><path class="cls-10" d="m362,724.09c58.66-24.48,72.95-92.95,72.95-92.95,28.95-119.54-22.64-189.1-35.43-204.06-1.67-1.95-4.1-3.06-6.66-3.06h-61.14c-2.01,0-3.92.86-5.26,2.36-11.92,13.37-66.95,83.24-37.52,204.77,0,0,14.22,63.29-75.32,38.61-.12-.03-.24-.07-.36-.12l-24.32-8.82c-.22-.08-.44-.18-.64-.29-3.56-1.97-37.06-20.08-7.91,13.42,30.99,35.63,40.64,40.56,72.3,50.14,32.23,9.75,63.04,9.73,109.32,0"/></clipPath><filter id="drop-shadow-7" filterUnits="userSpaceOnUse"><feOffset dx="-1" dy="1"/><feGaussianBlur result="blur" stdDeviation="3"/><feFlood flood-color="#000" flood-opacity=".75"/><feComposite in2="blur" operator="in"/><feComposite in="SourceGraphic"/></filter><clipPath id="clippath-3"><path class="cls-10" d="m1035.59,716.59c58.66-24.48,72.95-92.95,72.95-92.95,28.95-119.54-22.64-189.1-35.43-204.06-1.67-1.95-4.1-3.06-6.66-3.06h-61.14c-2.01,0-3.92.86-5.26,2.36-11.92,13.37-66.95,83.24-37.52,204.77,0,0,14.22,63.29-75.32,38.61-.12-.03-.24-.07-.36-.12l-24.32-8.82c-.22-.08-.44-.18-.64-.29-3.56-1.97-37.06-20.08-7.91,13.42,30.99,35.63,40.64,40.56,72.3,50.14,32.23,9.75,63.04,9.73,109.32,0"/></clipPath></defs><g id="Start_skærm"><g class="cls-12"><path class="cls-6" d="m272.07,129.46l-28.27-.27v13.25c-.06,7.73,6.15,14.06,13.88,14.13,7.73.07,14.06-6.13,14.13-13.87l.26-13.25Z"/><path class="cls-6" d="m385.42,129.46l-28.27-.27v13.25c-.06,7.73,6.15,14.06,13.88,14.13,7.73.07,14.06-6.13,14.13-13.87l.26-13.25Z"/><path class="cls-6" d="m328.74,129.46l-28.27-.27v13.25c-.06,7.73,6.15,14.06,13.88,14.13,7.73.07,14.06-6.13,14.13-13.87l.26-13.25Z"/><path class="cls-6" d="m300.47,129.46l-28.27-.27v13.25c-.06,7.73,6.15,14.06,13.88,14.13,7.73.07,14.06-6.13,14.13-13.87l.26-13.25Z"/><path class="cls-6" d="m356.89,129.46l-28.27-.27v13.25c-.06,7.73,6.15,14.06,13.88,14.13,7.73.07,14.06-6.13,14.13-13.87l.26-13.25Z"/><path class="cls-6" d="m441.96,129.46l-28.27-.27v13.25c-.06,7.73,6.15,14.06,13.88,14.13,7.73.07,14.06-6.13,14.13-13.87l.26-13.25Z"/><path class="cls-6" d="m413.69,129.46l-28.27-.27v13.25c-.06,7.73,6.15,14.06,13.88,14.13,7.73.07,14.06-6.13,14.13-13.87l.26-13.25Z"/><path class="cls-6" d="m470.11,129.46l-28.27-.27v13.25c-.06,7.73,6.15,14.06,13.88,14.13,7.73.07,14.06-6.13,14.13-13.87l.26-13.25Z"/><path class="cls-6" d="m497.01,129.46l-28.27-.27v13.25c-.06,7.73,6.15,14.06,13.88,14.13,7.73.07,14.06-6.13,14.13-13.87l.26-13.25Z"/><path class="cls-6" d="m372.08,114.58h-28.27l.14,13.25c0,7.73,6.27,14,14,14s14-6.27,14-14l.14-13.25Z"/><path class="cls-6" d="m315.4,114.58h-28.27l.14,13.25c0,7.73,6.27,14,14,14s14-6.27,14-14l.14-13.25Z"/><path class="cls-6" d="m287.13,114.58h-28.27l.14,13.25c0,7.73,6.27,14,14,14s14-6.27,14-14l.14-13.25Z"/><path class="cls-6" d="m525.4,129.46l-28.27-.27v13.25c-.06,7.73,6.15,14.06,13.88,14.13,7.73.07,14.06-6.13,14.13-13.87l.26-13.25Z"/><path class="cls-6" d="m343.55,114.58h-28.27l.14,13.25c0,7.73,6.27,14,14,14s14-6.27,14-14l.14-13.25Z"/><path class="cls-6" d="m428.62,114.58h-28.27l.14,13.25c0,7.73,6.27,14,14,14s14-6.27,14-14l.14-13.25Z"/><path class="cls-6" d="m400.35,114.58h-28.27l.14,13.25c0,7.73,6.27,14,14,14s14-6.27,14-14l.14-13.25Z"/><path class="cls-6" d="m456.77,114.58h-28.27l.14,13.25c0,7.73,6.27,14,14,14s14-6.27,14-14l.14-13.25Z"/><path class="cls-6" d="m483.68,114.58h-28.27l.14,13.25c0,7.73,6.27,14,14,14s14-6.27,14-14l.14-13.25Z"/><path class="cls-6" d="m511.07,114.58h-28.27l.14,13.25c0,7.73,6.27,14,14,14s14-6.27,14-14l.14-13.25Z"/><path class="cls-6" d="m539.6,114.58h-28.27l.14,13.25c0,7.73,6.27,14,14,14s14-6.27,14-14l.14-13.25Z"/><path class="cls-6" d="m357.96,98.21h-28.27l.14,13.25c0,7.73,6.27,14,14,14s14-6.27,14-14l.14-13.25Z"/><path class="cls-6" d="m301.28,98.21h-28.27l.14,13.25c0,7.73,6.27,14,14,14s14-6.27,14-14l.14-13.25Z"/><path class="cls-6" d="m273.01,98.21h-28.27l.14,13.25c0,7.73,6.27,14,14,14s14-6.27,14-14l.14-13.25Z"/><path class="cls-6" d="m329.43,98.21h-28.27l.14,13.25c0,7.73,6.27,14,14,14s14-6.27,14-14l.14-13.25Z"/><path class="cls-6" d="m414.5,98.21h-28.27l.14,13.25c0,7.73,6.27,14,14,14s14-6.27,14-14l.14-13.25Z"/><path class="cls-6" d="m386.23,98.21h-28.27l.14,13.25c0,7.73,6.27,14,14,14s14-6.27,14-14l.14-13.25Z"/><path class="cls-6" d="m442.65,98.21h-28.27l.14,13.25c0,7.73,6.27,14,14,14s14-6.27,14-14l.14-13.25Z"/><path class="cls-6" d="m469.55,98.21h-28.27l.14,13.25c0,7.73,6.27,14,14,14s14-6.27,14-14l.14-13.25Z"/><path class="cls-6" d="m496.95,98.21h-28.27l.14,13.25c0,7.73,6.27,14,14,14s14-6.27,14-14l.14-13.25Z"/><path class="cls-6" d="m525.35,98.21h-28.27l.14,13.25c0,7.73,6.27,14,14,14s14-6.27,14-14l.14-13.25Z"/><path class="cls-6" d="m369.71,81.95h28.27l-.14,13.25c0,7.73-6.27,14-14,14s-14-6.27-14-14l-.14-13.25Z"/><path class="cls-6" d="m426.39,81.95h28.27l-.14,13.25c0,7.73-6.27,14-14,14s-14-6.27-14-14l-.14-13.25Z"/><path class="cls-6" d="m454.66,81.95h28.27l-.14,13.25c0,7.73-6.27,14-14,14s-14-6.27-14-14l-.14-13.25Z"/><path class="cls-6" d="m483.06,81.95h28.27l-.14,13.25c0,7.73-6.27,14-14,14s-14-6.27-14-14l-.14-13.25Z"/><path class="cls-6" d="m398.24,81.95h28.27l-.14,13.25c0,7.73-6.27,14-14,14s-14-6.27-14-14l-.14-13.25Z"/><path class="cls-6" d="m313.17,81.95h28.27l-.14,13.25c0,7.73-6.27,14-14,14s-14-6.27-14-14l-.14-13.25Z"/><path class="cls-6" d="m341.44,81.95h28.27l-.14,13.25c0,7.73-6.27,14-14,14s-14-6.27-14-14l-.14-13.25Z"/><path class="cls-6" d="m285.02,81.95h28.27l-.14,13.25c0,7.73-6.27,14-14,14s-14-6.27-14-14l-.14-13.25Z"/><path class="cls-6" d="m258.11,81.95h28.27l-.14,13.25c0,7.73-6.27,14-14,14s-14-6.27-14-14l-.14-13.25Z"/><path class="cls-6" d="m511.33,81.95h28.27l-.14,13.25c0,7.73-6.27,14-14,14s-14-6.27-14-14l-.14-13.25Z"/><path class="cls-6" d="m383.36,65.59h28.27l-.14,13.25c0,7.73-6.27,14-14,14s-14-6.27-14-14l-.14-13.25Z"/><path class="cls-6" d="m440.04,65.59h28.27l-.14,13.25c0,7.73-6.27,14-14,14s-14-6.27-14-14l-.14-13.25Z"/><path class="cls-6" d="m468.31,65.59h28.27l-.14,13.25c0,7.73-6.27,14-14,14s-14-6.27-14-14l-.14-13.25Z"/><path class="cls-6" d="m496.71,65.59h28.27l-.14,13.25c0,7.73-6.27,14-14,14s-14-6.27-14-14l-.14-13.25Z"/><path class="cls-6" d="m411.89,65.59h28.27l-.14,13.25c0,7.73-6.27,14-14,14s-14-6.27-14-14l-.14-13.25Z"/><path class="cls-6" d="m326.82,65.59h28.27l-.14,13.25c0,7.73-6.27,14-14,14s-14-6.27-14-14l-.14-13.25Z"/><path class="cls-6" d="m355.09,65.59h28.27l-.14,13.25c0,7.73-6.27,14-14,14s-14-6.27-14-14l-.14-13.25Z"/><path class="cls-6" d="m298.67,65.59h28.27l-.14,13.25c0,7.73-6.27,14-14,14s-14-6.27-14-14l-.14-13.25Z"/><path class="cls-6" d="m271.76,65.59h28.27l-.14,13.25c0,7.73-6.27,14-14,14s-14-6.27-14-14l-.14-13.25Z"/><path class="cls-6" d="m540,51.01l-28.26-.86-.27,13.25c-.24,7.73,5.84,14.18,13.56,14.42,7.73.24,14.18-5.84,14.42-13.56l.54-13.24Z"/><path class="cls-6" d="m244.36,65.59h28.27l-.14,13.25c0,7.73-6.27,14-14,14s-14-6.27-14-14l-.14-13.25Z"/><path class="cls-6" d="m368.74,50.14h28.27l-.14,13.25c0,7.73-6.27,14-14,14s-14-6.27-14-14l-.14-13.25Z"/><path class="cls-6" d="m453.69,50.14h28.27l-.14,13.25c0,7.73-6.27,14-14,14s-14-6.27-14-14l-.14-13.25Z"/><path class="cls-6" d="m482.09,50.14h28.27l-.14,13.25c0,7.73-6.27,14-14,14s-14-6.27-14-14l-.14-13.25Z"/><path class="cls-6" d="m397.27,50.14h28.27l-.14,13.25c0,7.73-6.27,14-14,14s-14-6.27-14-14l-.14-13.25Z"/><path class="cls-6" d="m312.19,50.14h28.27l-.14,13.25c0,7.73-6.27,14-14,14s-14-6.27-14-14l-.14-13.25Z"/><path class="cls-6" d="m340.46,50.14h28.27l-.14,13.25c0,7.73-6.27,14-14,14s-14-6.27-14-14l-.14-13.25Z"/><path class="cls-6" d="m284.05,50.14h28.27l-.14,13.25c0,7.73-6.27,14-14,14s-14-6.27-14-14l-.14-13.25Z"/><path class="cls-6" d="m257.14,50.14h28.27l-.14,13.25c0,7.73-6.27,14-14,14s-14-6.27-14-14l-.14-13.25Z"/><path class="cls-6" d="m425.41,50.14h28.27l-.14,13.25c0,7.73-6.27,14-14,14s-14-6.27-14-14l-.14-13.25Z"/><path class="cls-6" d="m382.38,33.78h28.27l-.14,13.25c0,7.73-6.27,14-14,14s-14-6.27-14-14l-.14-13.25Z"/><path class="cls-6" d="m439.06,33.78h28.27l-.14,13.25c0,7.73-6.27,14-14,14s-14-6.27-14-14l-.14-13.25Z"/><path class="cls-6" d="m467.33,33.78h28.27l-.14,13.25c0,7.73-6.27,14-14,14s-14-6.27-14-14l-.14-13.25Z"/><path class="cls-6" d="m495.73,33.78h28.27l-.14,13.25c0,7.73-6.27,14-14,14s-14-6.27-14-14l-.14-13.25Z"/><path class="cls-6" d="m410.91,33.78h28.27l-.14,13.25c0,7.73-6.27,14-14,14s-14-6.27-14-14l-.14-13.25Z"/><path class="cls-6" d="m325.84,33.78h28.27l-.14,13.25c0,7.73-6.27,14-14,14s-14-6.27-14-14l-.14-13.25Z"/><path class="cls-6" d="m354.11,33.78h28.27l-.14,13.25c0,7.73-6.27,14-14,14s-14-6.27-14-14l-.14-13.25Z"/><path class="cls-6" d="m297.69,33.78h28.27l-.14,13.25c0,7.73-6.27,14-14,14s-14-6.27-14-14l-.14-13.25Z"/><path class="cls-6" d="m270.79,33.78h28.27l-.14,13.25c0,7.73-6.27,14-14,14s-14-6.27-14-14l-.14-13.25Z"/><path class="cls-6" d="m243.39,33.78h28.27l-.14,13.25c0,7.73-6.27,14-14,14s-14-6.27-14-14l-.14-13.25Z"/><path class="cls-6" d="m370.91,17.76h-28.27l.14,13.25c0,7.73,6.27,14,14,14s14-6.27,14-14l.14-13.25Z"/><path class="cls-6" d="m314.23,17.76h-28.27l.14,13.25c0,7.73,6.27,14,14,14s14-6.27,14-14l.14-13.25Z"/><path class="cls-6" d="m285.96,17.76h-28.27l.14,13.25c0,7.73,6.27,14,14,14s14-6.27,14-14l.14-13.25Z"/><path class="cls-6" d="m342.38,17.76h-28.27l.14,13.25c0,7.73,6.27,14,14,14s14-6.27,14-14l.14-13.25Z"/><path class="cls-6" d="m427.45,17.76h-28.27l.14,13.25c0,7.73,6.27,14,14,14s14-6.27,14-14l.14-13.25Z"/><path class="cls-6" d="m399.18,17.76h-28.27l.14,13.25c0,7.73,6.27,14,14,14s14-6.27,14-14l.14-13.25Z"/><path class="cls-6" d="m455.6,17.76h-28.27l.14,13.25c0,7.73,6.27,14,14,14s14-6.27,14-14l.14-13.25Z"/><path class="cls-6" d="m482.51,17.76h-28.27l.14,13.25c0,7.73,6.27,14,14,14s14-6.27,14-14l.14-13.25Z"/><path class="cls-6" d="m509.9,17.76h-28.27l.14,13.25c0,7.73,6.27,14,14,14s14-6.27,14-14l.14-13.25Z"/><path class="cls-6" d="m538.43,17.76h-28.27l.14,13.25c0,7.73,6.27,14,14,14s14-6.27,14-14l.14-13.25Z"/><path class="cls-6" d="m355.53,2.09h-28.27l.14,13.25c0,7.73,6.27,14,14,14s14-6.27,14-14l.14-13.25Z"/><path class="cls-6" d="m298.85,2.09h-28.27l.14,13.25c0,7.73,6.27,14,14,14s14-6.27,14-14l.14-13.25Z"/><path class="cls-6" d="m270.58,2.09h-28.27l.14,13.25c0,7.73,6.27,14,14,14s14-6.27,14-14l.14-13.25Z"/><path class="cls-6" d="m327,2.09h-28.27l.14,13.25c0,7.73,6.27,14,14,14s14-6.27,14-14l.14-13.25Z"/><path class="cls-6" d="m412.07,2.09h-28.27l.14,13.25c0,7.73,6.27,14,14,14s14-6.27,14-14l.14-13.25Z"/><path class="cls-6" d="m383.8,2.09h-28.27l.14,13.25c0,7.73,6.27,14,14,14s14-6.27,14-14l.14-13.25Z"/><path class="cls-6" d="m440.22,2.09h-28.27l.14,13.25c0,7.73,6.27,14,14,14s14-6.27,14-14l.14-13.25Z"/><path class="cls-6" d="m467.13,2.09h-28.27l.14,13.25c0,7.73,6.27,14,14,14s14-6.27,14-14l.14-13.25Z"/><path class="cls-6" d="m494.52,2.09h-28.27l.14,13.25c0,7.73,6.27,14,14,14s14-6.27,14-14l.14-13.25Z"/><path class="cls-6" d="m522.93,2.09h-28.27l.14,13.25c0,7.73,6.27,14,14,14s14-6.27,14-14l.14-13.25Z"/><path class="cls-6" d="m368.54-10.71h28.27l-.14,13.25c0,7.73-6.27,14-14,14s-14-6.27-14-14l-.14-13.25Z"/><path class="cls-6" d="m425.22-10.71h28.27l-.14,13.25c0,7.73-6.27,14-14,14s-14-6.27-14-14l-.14-13.25Z"/><path class="cls-6" d="m453.49-10.71h28.27l-.14,13.25c0,7.73-6.27,14-14,14s-14-6.27-14-14l-.14-13.25Z"/><path class="cls-6" d="m481.89-10.71h28.27l-.14,13.25c0,7.73-6.27,14-14,14s-14-6.27-14-14l-.14-13.25Z"/><path class="cls-6" d="m397.07-10.71h28.27l-.14,13.25c0,7.73-6.27,14-14,14s-14-6.27-14-14l-.14-13.25Z"/><path class="cls-6" d="m311.99-10.71h28.27l-.14,13.25c0,7.73-6.27,14-14,14s-14-6.27-14-14l-.14-13.25Z"/><path class="cls-6" d="m340.27-10.71h28.27l-.14,13.25c0,7.73-6.27,14-14,14s-14-6.27-14-14l-.14-13.25Z"/><path class="cls-6" d="m283.85-10.71h28.27l-.14,13.25c0,7.73-6.27,14-14,14s-14-6.27-14-14l-.14-13.25Z"/><path class="cls-6" d="m256.94-10.71h28.27l-.14,13.25c0,7.73-6.27,14-14,14s-14-6.27-14-14l-.14-13.25Z"/><path class="cls-6" d="m510.16-10.71h28.27l-.14,13.25c0,7.73-6.27,14-14,14s-14-6.27-14-14l-.14-13.25Z"/></g><path class="cls-10" d="m1021.89-154.16c58.66-24.48,72.95-92.95,72.95-92.95,28.95-119.54-22.64-189.1-35.43-204.06-1.67-1.95-4.1-3.06-6.66-3.06h-61.14c-2.01,0-3.92.86-5.26,2.36-11.92,13.37-66.95,83.24-37.52,204.77,0,0,14.22,63.29-75.32,38.61-.12-.03-.24-.07-.36-.12l-24.32-8.82c-.22-.08-.44-.18-.64-.29-3.56-1.97-37.06-20.08-7.91,13.42,30.99,35.63,40.64,40.56,72.3,50.14,32.23,9.75,63.04,9.73,109.32,0"/></g><g id="Coralina"><path class="cls-5" d="m172.87,659.24s-75.42-14.71-91.46-38.52c-16.04-23.81-12.02-42.35-12.02-42.35-14.96-17.15,31.5,6.75,52.13,23.22,1.61,1.28,2.54,1.84,2.94,1.58s.24-1.34-.33-3.31c-13.45-46.62-14.12-59.51-11.98-61.83,1.66-1.8,5.02,2.8,5.38,2.9.02,0,.04,0,.07.01.93.03,19.43.83,38.49,21.3,19.55,21.01,16.79,97,16.79,97"/><path class="cls-3" d="m168.81,656.23s-71.9-76.64-101.02-82.18"/><path class="cls-3" d="m71.51,580.98s-11.79,44.62,100.41,77.23"/><path class="cls-3" d="m67.79,574.06s21.54,45.78,103.4,83.22"/><path class="cls-3" d="m169.76,656.66s-58.5-87.31-56.68-116.9"/><path class="cls-3" d="m118.87,544.17s48.45-3.69,52.32,113.1"/><path class="cls-3" d="m113.08,539.75s41.03,28.95,57.09,117.52"/><path class="cls-18" d="m126.44,303.96s45.01.41,58.62-45.86c13.61-46.28,10.66-46.63,39.6-102.8,28.34-55,133.43-51.29,133.43-51.29,0,0,103.22-8.37,140.42,83.74,37.21,92.11-23.8,173.77-57.15,202.55-33.35,28.78-50.06,35.95-50.06,35.95h0l-119.79,67.15s-94.21,49.8-147.41,21.16c-1.65-.89-1.58-3.29.14-4.05,10.33-4.62,37.35-18.12,46.77-36.76.69-1.37-.5-2.95-2.01-2.65-17.19,3.35-94.14,15.94-149.56-13.98-1.92-1.03-1.41-3.91.74-4.24,17.38-2.66,62.97-14.42,74.92-65.12.35-1.5-1.36-2.62-2.58-1.68-11.39,8.77-48.53,30.84-89.8-14.73-1.12-1.23.04-3.17,1.65-2.75,9.81,2.56,30.16,4.92,42.52-14.4,0,0,26.96-52.69,79.55-50.22Z"/><path class="cls-10" d="m126.44,303.96s45.01.41,58.62-45.86c13.61-46.28,10.66-46.63,39.6-102.8,28.34-55,133.43-51.29,133.43-51.29,0,0,103.22-8.37,140.42,83.74,37.21,92.11-23.8,173.77-57.15,202.55-33.35,28.78-50.06,35.95-50.06,35.95h0l-119.79,67.15s-94.21,49.8-147.41,21.16c-1.65-.89-1.58-3.29.14-4.05,10.33-4.62,37.35-18.12,46.77-36.76.69-1.37-.5-2.95-2.01-2.65-17.19,3.35-94.14,15.94-149.56-13.98-1.92-1.03-1.41-3.91.74-4.24,17.38-2.66,62.97-14.42,74.92-65.12.35-1.5-1.36-2.62-2.58-1.68-11.39,8.77-48.53,30.84-89.8-14.73-1.12-1.23.04-3.17,1.65-2.75,9.81,2.56,30.16,4.92,42.52-14.4,0,0,26.96-52.69,79.55-50.22Z"/><path class="cls-11" d="m272.08,331.5s-23.78,30.35-44.29,47.3c-20.5,16.95-44.02,29.53-63.15,32.53"/><path class="cls-11" d="m216.58,492.77s29.07-8.49,48.36-22.53c0,0,9.4-9.27,13.4-12.03,0,0,13.12-10.9,16.68-9"/><path class="cls-11" d="m472.28,293.37s7.39,12.97-9.27,31.78c0,0-19.16,18.4-18.96,20.08,0,0-7.43,5.06-8.34,26.19"/><path class="cls-8" d="m277.18,464.69s-12.13,30.46-10.22,38.69c0,0,8.27,15.59,4.3,13.69-2.15-1.03-4.6-5.82-5.77-7.08-1.99-2.12-.98,4.73-.97,4.88.06,3.84-.04,7.67-.36,10.37-.38,3.22-3.05,5.49-2.6-9.61,0,0,.14-3.62-.99.1s.3,12.58-.2,13.25c-3.16,4.2-3.7-12.25-3.31-14.1.69-3.27-.56-1.35-.93-.51-.92,2.05-.67,11.71-1.3,12.43-3.04,3.53-1.88-14.25-1.88-14.25-.45-1.35-1.34-.23-1.34-.23l-1.49,6.72c-4.11,7.36-1.22-9.32-1.22-9.32.09-1.24,2.88-8.73,3.56-9.73,1.74-2.58,3-3.43,4.26-4.24,2.12-1.37,2.2-5.48,2.24-5.86,0-.02.31-8.24.31-8.25.19-4,1.52-8.13,3.21-19.99,2.92-20.54,7.44-30.56,7.44-30.56l4.83-14c15.3-44.07,18.59-44.61,24.14-55.13,4.84-9.17,11.88-9.35,11.88-9.35,0,0,34.6.19,40.44-2.41,4.7-2.09,1.84-9.62.54-12.49-.24-.52.15-1.11.73-1.11h19.92c.58,0-3.44,11.51,1.26,13.6,5.84,2.6,37.59,4.36,37.59,4.36,0,0,4.48.39,11.29,10.52,6.65,9.87,8.93,11.96,24.23,56.03,0,0,.11,6.29,17.79-5.83,7-4.8,32.4-19.39,33.75-23.03l3.02-5.05c.6-1.01,1.03-2.1,1.26-3.25.88-4.27,3.29-14.87,4.83-11.68,1.04,2.15-.03,7.42.1,9.13.23,2.9,3.71-3.09,3.8-3.21,2.35-3.04,4.81-5.98,6.74-7.89,2.31-2.28,5.81-2.39-3.96,9.13,0,0-2.37,2.75.84.54s7.6-10.02,8.42-10.23c5.09-1.31-4.74,11.88-6.2,13.08-2.58,2.13-.4,1.4.41.98,2-1.03,7.82-8.74,8.77-8.91,4.58-.87-7.41,12.31-7.41,12.31-.48,1.34.91,1.01.91,1.01l5.36-4.33c7.81-3.19-4.85,8.05-4.85,8.05,0,0-7.08,6.41-13.32,4.96-.13-.03-.26,0-.39.03-8.59,1.61-6.61,22.21-47.03,40.33-30.16,13.52-49.28-36.97-54.72-53.83-.27-.82-1.47-.67-1.53.19-.9,12.04-8.93,15.97-10.82,16.73-.25.1-.43.32-.48.58-2.64,13.92,2.42,23.06,3.76,25.17.13.2-.02.47-.26.47h-66.27c-.24,0-.39-.27-.26-.47,1.34-2.11,6.4-11.25,3.76-25.17-.05-.26-.23-.48-.48-.58-1.88-.76-9.91-4.69-10.82-16.73-.06-.86-1.27-1.01-1.53-.19-5.44,16.86-9.38,26.62-33.02,57.27l-9.75,23.98Z"/><ellipse class="cls-17" cx="362.78" cy="249.51" rx="110.26" ry="87.87"/><ellipse class="cls-10" cx="362.78" cy="249.51" rx="110.26" ry="87.87"/><ellipse class="cls-9" cx="366.78" cy="276.22" rx="3.19" ry=".88" transform="translate(-74.35 148.81) rotate(-20.87)"/><ellipse class="cls-9" cx="358.78" cy="276.22" rx=".88" ry="3.19" transform="translate(-27.15 513.04) rotate(-69.13)"/><g class="cls-20"><path class="cls-18" d="m292.05,215.2c7.15,1.95,22.44-7.98,30.55-16.81,15.95-17.36,30.08-9.05,30.08-9.05,9.21,9.87,42.93-16.41,42.93-16.41,0,0,6.42,6.94,7.05,18.87,0,0,1.49,15.69,19.73,12.71,0,0,8.52-1.64,15.71,4.57,11.74,7.69,35.23,23.06,35.23,23.06,0,0,76.14-84.89-102.24-99.97-179.91-15.21-119.32,107.77-119.32,107.77,0,0,25.03-28.9,40.28-24.74Z"/><path class="cls-10" d="m292.05,215.2c7.15,1.95,22.44-7.98,30.55-16.81,15.95-17.36,30.08-9.05,30.08-9.05,9.21,9.87,42.93-16.41,42.93-16.41,0,0,6.42,6.94,7.05,18.87,0,0,1.49,15.69,19.73,12.71,0,0,8.52-1.64,15.71,4.57,11.74,7.69,35.23,23.06,35.23,23.06,0,0,76.14-84.89-102.24-99.97-179.91-15.21-119.32,107.77-119.32,107.77,0,0,25.03-28.9,40.28-24.74Z"/></g><path class="cls-13" d="m428.67,219.95c0,.92,7.42,1.66,16.58,1.66"/><ellipse class="cls-16" cx="441.49" cy="270.47" rx="18.33" ry="7.5" transform="translate(-36.63 71.82) rotate(-8.93)"/><ellipse class="cls-16" cx="283.98" cy="270.47" rx="7.5" ry="18.33" transform="translate(-27.29 509.01) rotate(-81.07)"/><path class="cls-19" d="m330.74,301.33c4.3,7.4,14.33,15.5,32,15.5s27.64-8.13,32-15.5c6.45-10.92-15.2-10.24-32.87-10.24s-36.36,1.21-31.12,10.24Z"/><path class="cls-10" d="m330.74,301.33c4.3,7.4,14.33,15.5,32,15.5s27.64-8.13,32-15.5c6.45-10.92-15.2-10.24-32.87-10.24s-36.36,1.21-31.12,10.24Z"/><ellipse class="cls-2" cx="440.22" cy="221.62" rx="1.66" ry="8.29" transform="translate(150.03 620) rotate(-80.65)"/><ellipse class="cls-2" cx="437.73" cy="244" rx="12.43" ry="14.09"/><circle class="cls-7" cx="433.59" cy="236.54" r="3.32"/><path class="cls-15" d="m447.22,235.11c2.45,1.01,6.64,2.83,8.75.4-1.46,3.25-6.63,2.77-9.62,2.47-2.29-.43-1.27-3.78.87-2.87h0Z"/><path class="cls-15" d="m446.34,233.82c3.04.68,6.69-.69,7.71-3.86-.08,2.79-2.36,5.31-4.96,6.18-.93.34-1.81.57-2.88.68-2.31.15-2.17-3.34.13-3h0Z"/><path class="cls-15" d="m444.83,232.8c-.1-.09-.26-.19-.39-.18-.02.07.26.11.38.13,1.54.14,3.39-.31,4.34-1.64.38-.56.56-1.28.57-2.04.23.71.33,1.53.11,2.35-.63,2.11-2.75,3.43-4.8,3.95-.51.12-1.16.19-1.69-.02-1-.32-1.35-1.61-.65-2.39.54-.62,1.49-.69,2.12-.14h0Z"/><circle class="cls-7" cx="428.68" cy="242.92" r=".49"/><path class="cls-4" d="m362.36,380.52c0-7.04,3.62-12.74,8.09-12.74"/><path class="cls-4" d="m362.19,380.52c0-7.04-3.17-12.74-7.08-12.74"/><ellipse class="cls-2" cx="285.24" cy="221.62" rx="8.29" ry="1.66" transform="translate(-32.21 49.28) rotate(-9.35)"/><ellipse class="cls-2" cx="287.73" cy="244" rx="12.43" ry="14.09"/><path class="cls-15" d="m279.53,238.4c-2.99.3-8.16.78-9.62-2.47.49.69,1.26,1.01,2.01,1.12,2.3.27,4.69-.6,6.74-1.52.75-.37,1.66-.05,2.03.7.46.91-.16,2.05-1.16,2.17h0Z"/><path class="cls-15" d="m279.64,237.24c-3.72-.3-7.65-2.88-7.81-6.86.48,1.59,1.86,2.81,3.26,3.5,1.32.58,3.07.61,4.45.36.82-.16,1.62.37,1.79,1.2.22,1-.68,1.95-1.69,1.8h0Z"/><path class="cls-15" d="m283.03,235.49c-.61.48-1.5.49-2.2.3-2.78-.6-5.83-3.25-4.68-6.3-.02,1.48.77,2.72,2.1,3.25.87.36,2.38.7,3.19.31-.13,0-.29.09-.39.18,1.51-1.27,3.44.94,1.97,2.26h0Z"/><circle class="cls-7" cx="283.59" cy="236.54" r="3.32"/><circle class="cls-7" cx="278.68" cy="242.73" r=".49"/><path class="cls-11" d="m292.75,127.96s-51.94,13.4-63.7,75.73"/><path class="cls-11" d="m400.19,143.92s5.77,23.43,39.36,23.03c33.59-.4,38.09,54.12,38.09,54.12"/><path class="cls-11" d="m495.7,244s13.53,34.03-8.35,66.11"/><path class="cls-11" d="m167.48,327.18s-29.8-17.5-73.54,12.85c0,0-16.4,17.77-44.29,31.17"/><path class="cls-11" d="m142.89,374.96s18.83-2.79,39.2-28.41c20.37-25.62,42.44-27.59,42.44-27.59"/><path class="cls-11" d="m191.7,420.72s-2.15,15.44-38.89,18.52c0,0-39.45,1-40.65,2.47,0,0-13.5-1.25-32.9,14.77"/><path class="cls-11" d="m241.84,454.61s-22.14,21.05-31.99,23.78-17.22,2.46-42.37,28.98"/><path class="cls-5" d="m384.04,397.2s5.78-12.71,11.34-16.98c2-1.54,3.98-1.98,5.64-.33,1.64,1.63,1.26,3.59-.2,5.6-4.11,5.67-16.78,11.71-16.78,11.71Z"/><path class="cls-5" d="m383.37,396.84s.25-17.3,4.44-24.9c1.51-2.74,3.53-4.22,6.24-3.17,2.67,1.04,3.21,3.45,2.56,6.46-1.85,8.47-13.23,21.62-13.23,21.62Z"/><path class="cls-5" d="m381.9,397.2s-5.78-12.71-11.34-16.98c-2-1.54-3.98-1.98-5.64-.33-1.64,1.63-1.26,3.59.2,5.6,4.11,5.67,16.78,11.71,16.78,11.71Z"/><path class="cls-5" d="m382.58,396.84s-.25-17.3-4.44-24.9c-1.51-2.74-3.53-4.22-6.24-3.17-2.67,1.04-3.21,3.45-2.56,6.46,1.85,8.47,13.23,21.62,13.23,21.62Z"/><path class="cls-5" d="m383.03,396.84s6.42-17.67,5.11-27c-.47-3.37-1.96-5.65-5.11-5.63s-4.6,2.27-5.09,5.57c-1.39,9.32,5.09,27.06,5.09,27.06Z"/><path class="cls-5" d="m384.11,398.01s5.38-3.71,8.59-3.8c1.16-.03,2.04.4,2.28,1.66s-.39,1.97-1.46,2.39c-2.99,1.16-9.41-.24-9.41-.24Z"/><path class="cls-5" d="m383.2,398.01s-5.38-3.71-8.59-3.8c-1.16-.03-2.04.4-2.28,1.66s.39,1.97,1.46,2.39c2.99,1.16,9.41-.24,9.41-.24Z"/><path class="cls-5" d="m342.81,397.2s5.78-12.71,11.34-16.98c2-1.54,3.98-1.98,5.64-.33,1.64,1.63,1.26,3.59-.2,5.6-4.11,5.67-16.78,11.71-16.78,11.71Z"/><path class="cls-5" d="m342.13,396.84s.25-17.3,4.44-24.9c1.51-2.74,3.53-4.22,6.24-3.17,2.67,1.04,3.21,3.45,2.56,6.46-1.85,8.47-13.23,21.62-13.23,21.62Z"/><path class="cls-5" d="m340.67,397.2s-5.78-12.71-11.34-16.98c-2-1.54-3.98-1.98-5.64-.33-1.64,1.63-1.26,3.59.2,5.6,4.11,5.67,16.78,11.71,16.78,11.71Z"/><path class="cls-5" d="m341.34,396.84s-.25-17.3-4.44-24.9c-1.51-2.74-3.53-4.22-6.24-3.17-2.67,1.04-3.21,3.45-2.56,6.46,1.85,8.47,13.23,21.62,13.23,21.62Z"/><path class="cls-5" d="m341.8,396.84s6.42-17.67,5.11-27c-.47-3.37-1.96-5.65-5.11-5.63s-4.6,2.27-5.09,5.57c-1.39,9.32,5.09,27.06,5.09,27.06Z"/><path class="cls-5" d="m342.88,398.01s5.38-3.71,8.59-3.8c1.16-.03,2.04.4,2.28,1.66s-.39,1.97-1.46,2.39c-2.99,1.16-9.41-.24-9.41-.24Z"/><path class="cls-5" d="m341.97,398.01s-5.38-3.71-8.59-3.8c-1.16-.03-2.04.4-2.28,1.66s.39,1.97,1.46,2.39c2.99,1.16,9.41-.24,9.41-.24Z"/><path class="cls-4" d="m390.89,401.21c-2.32,1.42-12.77,2.2-18.95-1.7"/><path class="cls-4" d="m334.24,401.21c2.32,1.42,12.77,2.2,18.95-1.7"/><path class="cls-4" d="m413.48,360.9c-3.55-3.62-10.03-2.03-21.05-2.97"/><path class="cls-4" d="m306.8,359.41c3.55-3.62,10.03-2.03,21.05-2.97"/><path class="cls-4" d="m275.35,425.81c-1.35.92-5.25,6.85-5.19,15.49"/><g class="cls-21"><path class="cls-6" d="m299.02,760.16h-28.27l.14,13.25c0,7.73,6.27,14,14,14s14-6.27,14-14l.14-13.25Z"/><path class="cls-6" d="m242.34,760.16h-28.27l.14,13.25c0,7.73,6.27,14,14,14s14-6.27,14-14l.14-13.25Z"/><path class="cls-6" d="m214.07,760.16h-28.27l.14,13.25c0,7.73,6.27,14,14,14s14-6.27,14-14l.14-13.25Z"/><path class="cls-6" d="m270.49,760.16h-28.27l.14,13.25c0,7.73,6.27,14,14,14s14-6.27,14-14l.14-13.25Z"/><path class="cls-6" d="m355.56,760.16h-28.27l.14,13.25c0,7.73,6.27,14,14,14s14-6.27,14-14l.14-13.25Z"/><path class="cls-6" d="m327.29,760.16h-28.27l.14,13.25c0,7.73,6.27,14,14,14s14-6.27,14-14l.14-13.25Z"/><path class="cls-6" d="m383.71,760.16h-28.27l.14,13.25c0,7.73,6.27,14,14,14s14-6.27,14-14l.14-13.25Z"/><path class="cls-6" d="m410.61,760.16h-28.27l.14,13.25c0,7.73,6.27,14,14,14s14-6.27,14-14l.14-13.25Z"/><path class="cls-6" d="m438.01,760.16h-28.27l.14,13.25c0,7.73,6.27,14,14,14s14-6.27,14-14l.14-13.25Z"/><path class="cls-6" d="m466.53,760.16h-28.27l.14,13.25c0,7.73,6.27,14,14,14s14-6.27,14-14l.14-13.25Z"/><path class="cls-6" d="m283.63,744.49h-28.27l.14,13.25c0,7.73,6.27,14,14,14s14-6.27,14-14l.14-13.25Z"/><path class="cls-6" d="m226.95,744.49h-28.27l.14,13.25c0,7.73,6.27,14,14,14s14-6.27,14-14l.14-13.25Z"/><path class="cls-6" d="m198.68,744.49h-28.27l.14,13.25c0,7.73,6.27,14,14,14s14-6.27,14-14l.14-13.25Z"/><path class="cls-6" d="m255.1,744.49h-28.27l.14,13.25c0,7.73,6.27,14,14,14s14-6.27,14-14l.14-13.25Z"/><path class="cls-6" d="m340.18,744.49h-28.27l.14,13.25c0,7.73,6.27,14,14,14s14-6.27,14-14l.14-13.25Z"/><path class="cls-6" d="m311.9,744.49h-28.27l.14,13.25c0,7.73,6.27,14,14,14s14-6.27,14-14l.14-13.25Z"/><path class="cls-6" d="m368.32,744.49h-28.27l.14,13.25c0,7.73,6.27,14,14,14s14-6.27,14-14l.14-13.25Z"/><path class="cls-6" d="m395.23,744.49h-28.27l.14,13.25c0,7.73,6.27,14,14,14s14-6.27,14-14l.14-13.25Z"/><path class="cls-6" d="m422.63,744.49h-28.27l.14,13.25c0,7.73,6.27,14,14,14s14-6.27,14-14l.14-13.25Z"/><path class="cls-6" d="m451.03,744.49h-28.27l.14,13.25c0,7.73,6.27,14,14,14s14-6.27,14-14l.14-13.25Z"/><path class="cls-6" d="m296.64,731.69h28.27l-.14,13.25c0,7.73-6.27,14-14,14s-14-6.27-14-14l-.14-13.25Z"/><path class="cls-6" d="m353.32,731.69h28.27l-.14,13.25c0,7.73-6.27,14-14,14s-14-6.27-14-14l-.14-13.25Z"/><path class="cls-6" d="m381.59,731.69h28.27l-.14,13.25c0,7.73-6.27,14-14,14s-14-6.27-14-14l-.14-13.25Z"/><path class="cls-6" d="m409.99,731.69h28.27l-.14,13.25c0,7.73-6.27,14-14,14s-14-6.27-14-14l-.14-13.25Z"/><path class="cls-6" d="m325.17,731.69h28.27l-.14,13.25c0,7.73-6.27,14-14,14s-14-6.27-14-14l-.14-13.25Z"/><path class="cls-6" d="m240.1,731.69h28.27l-.14,13.25c0,7.73-6.27,14-14,14s-14-6.27-14-14l-.14-13.25Z"/><path class="cls-6" d="m268.37,731.69h28.27l-.14,13.25c0,7.73-6.27,14-14,14s-14-6.27-14-14l-.14-13.25Z"/><path class="cls-6" d="m211.95,731.69h28.27l-.14,13.25c0,7.73-6.27,14-14,14s-14-6.27-14-14l-.14-13.25Z"/><path class="cls-6" d="m185.04,731.69h28.27l-.14,13.25c0,7.73-6.27,14-14,14s-14-6.27-14-14l-.14-13.25Z"/><path class="cls-6" d="m438.26,731.69h28.27l-.14,13.25c0,7.73-6.27,14-14,14s-14-6.27-14-14l-.14-13.25Z"/><path class="cls-6" d="m310.49,713.94l-28.27-.27v13.25c-.06,7.73,6.15,14.06,13.88,14.13s14.06-6.13,14.13-13.87l.26-13.25Z"/><path class="cls-6" d="m253.81,713.94l-28.27-.27v13.25c-.06,7.73,6.15,14.06,13.88,14.13s14.06-6.13,14.13-13.87l.26-13.25Z"/><path class="cls-6" d="m225.54,713.94l-28.27-.27v13.25c-.06,7.73,6.15,14.06,13.88,14.13,7.73.07,14.06-6.13,14.13-13.87l.26-13.25Z"/><path class="cls-6" d="m197.14,713.94l-28.27-.27v13.25c-.06,7.73,6.15,14.06,13.88,14.13s14.06-6.13,14.13-13.87l.26-13.25Z"/><path class="cls-6" d="m281.96,713.94l-28.27-.27v13.25c-.06,7.73,6.15,14.06,13.88,14.13,7.73.07,14.06-6.13,14.13-13.87l.26-13.25Z"/><path class="cls-6" d="m367.03,713.94l-28.27-.27v13.25c-.06,7.73,6.15,14.06,13.88,14.13,7.73.07,14.06-6.13,14.13-13.87l.26-13.25Z"/><path class="cls-6" d="m338.76,713.94l-28.27-.27v13.25c-.06,7.73,6.15,14.06,13.88,14.13s14.06-6.13,14.13-13.87l.26-13.25Z"/><path class="cls-6" d="m395.18,713.94l-28.27-.27v13.25c-.06,7.73,6.15,14.06,13.88,14.13,7.73.07,14.06-6.13,14.13-13.87l.26-13.25Z"/><path class="cls-6" d="m422.08,713.94l-28.27-.27v13.25c-.06,7.73,6.15,14.06,13.88,14.13,7.73.07,14.06-6.13,14.13-13.87l.26-13.25Z"/><path class="cls-6" d="m297.15,699.06h-28.27l.14,13.25c0,7.73,6.27,14,14,14s14-6.27,14-14l.14-13.25Z"/><path class="cls-6" d="m240.47,699.06h-28.27l.14,13.25c0,7.73,6.27,14,14,14s14-6.27,14-14l.14-13.25Z"/><path class="cls-6" d="m212.2,699.06h-28.27l.14,13.25c0,7.73,6.27,14,14,14s14-6.27,14-14l.14-13.25Z"/><path class="cls-6" d="m450.47,713.94l-28.27-.27v13.25c-.06,7.73,6.15,14.06,13.88,14.13,7.73.07,14.06-6.13,14.13-13.87l.26-13.25Z"/><path class="cls-6" d="m268.62,699.06h-28.27l.14,13.25c0,7.73,6.27,14,14,14s14-6.27,14-14l.14-13.25Z"/><path class="cls-6" d="m353.69,699.06h-28.27l.14,13.25c0,7.73,6.27,14,14,14s14-6.27,14-14l.14-13.25Z"/><path class="cls-6" d="m325.42,699.06h-28.27l.14,13.25c0,7.73,6.27,14,14,14s14-6.27,14-14l.14-13.25Z"/><path class="cls-6" d="m381.84,699.06h-28.27l.14,13.25c0,7.73,6.27,14,14,14s14-6.27,14-14l.14-13.25Z"/><path class="cls-6" d="m408.75,699.06h-28.27l.14,13.25c0,7.73,6.27,14,14,14s14-6.27,14-14l.14-13.25Z"/><path class="cls-6" d="m436.15,699.06h-28.27l.14,13.25c0,7.73,6.27,14,14,14s14-6.27,14-14l.14-13.25Z"/><path class="cls-6" d="m464.67,699.06h-28.27l.14,13.25c0,7.73,6.27,14,14,14s14-6.27,14-14l.14-13.25Z"/><path class="cls-6" d="m283.03,682.69h-28.27l.14,13.25c0,7.73,6.27,14,14,14s14-6.27,14-14l.14-13.25Z"/><path class="cls-6" d="m226.35,682.69h-28.27l.14,13.25c0,7.73,6.27,14,14,14s14-6.27,14-14l.14-13.25Z"/><path class="cls-6" d="m198.08,682.69h-28.27l.14,13.25c0,7.73,6.27,14,14,14s14-6.27,14-14l.14-13.25Z"/><path class="cls-6" d="m254.5,682.69h-28.27l.14,13.25c0,7.73,6.27,14,14,14s14-6.27,14-14l.14-13.25Z"/><path class="cls-6" d="m339.57,682.69h-28.27l.14,13.25c0,7.73,6.27,14,14,14s14-6.27,14-14l.14-13.25Z"/><path class="cls-6" d="m311.3,682.69h-28.27l.14,13.25c0,7.73,6.27,14,14,14s14-6.27,14-14l.14-13.25Z"/><path class="cls-6" d="m367.72,682.69h-28.27l.14,13.25c0,7.73,6.27,14,14,14s14-6.27,14-14l.14-13.25Z"/><path class="cls-6" d="m394.63,682.69h-28.27l.14,13.25c0,7.73,6.27,14,14,14s14-6.27,14-14l.14-13.25Z"/><path class="cls-6" d="m422.02,682.69h-28.27l.14,13.25c0,7.73,6.27,14,14,14s14-6.27,14-14l.14-13.25Z"/><path class="cls-6" d="m450.43,682.69h-28.27l.14,13.25c0,7.73,6.27,14,14,14s14-6.27,14-14l.14-13.25Z"/><path class="cls-6" d="m294.78,666.43h28.27l-.14,13.25c0,7.73-6.27,14-14,14s-14-6.27-14-14l-.14-13.25Z"/><path class="cls-6" d="m351.46,666.43h28.27l-.14,13.25c0,7.73-6.27,14-14,14s-14-6.27-14-14l-.14-13.25Z"/><path class="cls-6" d="m379.73,666.43h28.27l-.14,13.25c0,7.73-6.27,14-14,14s-14-6.27-14-14l-.14-13.25Z"/><path class="cls-6" d="m408.13,666.43h28.27l-.14,13.25c0,7.73-6.27,14-14,14s-14-6.27-14-14l-.14-13.25Z"/><path class="cls-6" d="m323.31,666.43h28.27l-.14,13.25c0,7.73-6.27,14-14,14s-14-6.27-14-14l-.14-13.25Z"/><path class="cls-6" d="m238.24,666.43h28.27l-.14,13.25c0,7.73-6.27,14-14,14s-14-6.27-14-14l-.14-13.25Z"/><path class="cls-6" d="m266.51,666.43h28.27l-.14,13.25c0,7.73-6.27,14-14,14s-14-6.27-14-14l-.14-13.25Z"/><path class="cls-6" d="m210.09,666.43h28.27l-.14,13.25c0,7.73-6.27,14-14,14s-14-6.27-14-14l-.14-13.25Z"/><path class="cls-6" d="m183.18,666.43h28.27l-.14,13.25c0,7.73-6.27,14-14,14s-14-6.27-14-14l-.14-13.25Z"/><path class="cls-6" d="m436.4,666.43h28.27l-.14,13.25c0,7.73-6.27,14-14,14s-14-6.27-14-14l-.14-13.25Z"/><path class="cls-6" d="m308.43,650.07h28.27l-.14,13.25c0,7.73-6.27,14-14,14s-14-6.27-14-14l-.14-13.25Z"/><path class="cls-6" d="m365.11,650.07h28.27l-.14,13.25c0,7.73-6.27,14-14,14s-14-6.27-14-14l-.14-13.25Z"/><path class="cls-6" d="m393.38,650.07h28.27l-.14,13.25c0,7.73-6.27,14-14,14s-14-6.27-14-14l-.14-13.25Z"/><path class="cls-6" d="m421.78,650.07h28.27l-.14,13.25c0,7.73-6.27,14-14,14s-14-6.27-14-14l-.14-13.25Z"/><path class="cls-6" d="m336.96,650.07h28.27l-.14,13.25c0,7.73-6.27,14-14,14s-14-6.27-14-14l-.14-13.25Z"/><path class="cls-6" d="m251.89,650.07h28.27l-.14,13.25c0,7.73-6.27,14-14,14s-14-6.27-14-14l-.14-13.25Z"/><path class="cls-6" d="m280.16,650.07h28.27l-.14,13.25c0,7.73-6.27,14-14,14s-14-6.27-14-14l-.14-13.25Z"/><path class="cls-6" d="m223.74,650.07h28.27l-.14,13.25c0,7.73-6.27,14-14,14s-14-6.27-14-14l-.14-13.25Z"/><path class="cls-6" d="m196.83,650.07h28.27l-.14,13.25c0,7.73-6.27,14-14,14s-14-6.27-14-14l-.14-13.25Z"/><path class="cls-6" d="m465.08,635.49l-28.26-.86-.27,13.25c-.24,7.73,5.84,14.18,13.56,14.42,7.73.24,14.18-5.84,14.42-13.56l.54-13.24Z"/><path class="cls-6" d="m169.44,650.07h28.27l-.14,13.25c0,7.73-6.27,14-14,14s-14-6.27-14-14l-.14-13.25Z"/><path class="cls-6" d="m293.81,634.62h28.27l-.14,13.25c0,7.73-6.27,14-14,14s-14-6.27-14-14l-.14-13.25Z"/><path class="cls-6" d="m378.76,634.62h28.27l-.14,13.25c0,7.73-6.27,14-14,14s-14-6.27-14-14l-.14-13.25Z"/><path class="cls-6" d="m407.16,634.62h28.27l-.14,13.25c0,7.73-6.27,14-14,14s-14-6.27-14-14l-.14-13.25Z"/><path class="cls-6" d="m322.34,634.62h28.27l-.14,13.25c0,7.73-6.27,14-14,14s-14-6.27-14-14l-.14-13.25Z"/><path class="cls-6" d="m237.26,634.62h28.27l-.14,13.25c0,7.73-6.27,14-14,14s-14-6.27-14-14l-.14-13.25Z"/><path class="cls-6" d="m265.54,634.62h28.27l-.14,13.25c0,7.73-6.27,14-14,14s-14-6.27-14-14l-.14-13.25Z"/><path class="cls-6" d="m209.12,634.62h28.27l-.14,13.25c0,7.73-6.27,14-14,14s-14-6.27-14-14l-.14-13.25Z"/><path class="cls-6" d="m182.21,634.62h28.27l-.14,13.25c0,7.73-6.27,14-14,14s-14-6.27-14-14l-.14-13.25Z"/><path class="cls-6" d="m350.49,634.62h28.27l-.14,13.25c0,7.73-6.27,14-14,14s-14-6.27-14-14l-.14-13.25Z"/><path class="cls-6" d="m307.46,618.26h28.27l-.14,13.25c0,7.73-6.27,14-14,14s-14-6.27-14-14l-.14-13.25Z"/><path class="cls-6" d="m364.13,618.26h28.27l-.14,13.25c0,7.73-6.27,14-14,14s-14-6.27-14-14l-.14-13.25Z"/><path class="cls-6" d="m392.41,618.26h28.27l-.14,13.25c0,7.73-6.27,14-14,14s-14-6.27-14-14l-.14-13.25Z"/><path class="cls-6" d="m420.81,618.26h28.27l-.14,13.25c0,7.73-6.27,14-14,14s-14-6.27-14-14l-.14-13.25Z"/><path class="cls-6" d="m335.99,618.26h28.27l-.14,13.25c0,7.73-6.27,14-14,14s-14-6.27-14-14l-.14-13.25Z"/><path class="cls-6" d="m250.91,618.26h28.27l-.14,13.25c0,7.73-6.27,14-14,14s-14-6.27-14-14l-.14-13.25Z"/><path class="cls-6" d="m279.18,618.26h28.27l-.14,13.25c0,7.73-6.27,14-14,14s-14-6.27-14-14l-.14-13.25Z"/><path class="cls-6" d="m222.77,618.26h28.27l-.14,13.25c0,7.73-6.27,14-14,14s-14-6.27-14-14l-.14-13.25Z"/><path class="cls-6" d="m195.86,618.26h28.27l-.14,13.25c0,7.73-6.27,14-14,14s-14-6.27-14-14l-.14-13.25Z"/><path class="cls-6" d="m168.46,618.26h28.27l-.14,13.25c0,7.73-6.27,14-14,14s-14-6.27-14-14l-.14-13.25Z"/><path class="cls-6" d="m295.98,602.24h-28.27l.14,13.25c0,7.73,6.27,14,14,14s14-6.27,14-14l.14-13.25Z"/><path class="cls-6" d="m239.3,602.24h-28.27l.14,13.25c0,7.73,6.27,14,14,14s14-6.27,14-14l.14-13.25Z"/><path class="cls-6" d="m211.03,602.24h-28.27l.14,13.25c0,7.73,6.27,14,14,14s14-6.27,14-14l.14-13.25Z"/><path class="cls-6" d="m267.45,602.24h-28.27l.14,13.25c0,7.73,6.27,14,14,14s14-6.27,14-14l.14-13.25Z"/><path class="cls-6" d="m352.52,602.24h-28.27l.14,13.25c0,7.73,6.27,14,14,14s14-6.27,14-14l.14-13.25Z"/><path class="cls-6" d="m324.25,602.24h-28.27l.14,13.25c0,7.73,6.27,14,14,14s14-6.27,14-14l.14-13.25Z"/><path class="cls-6" d="m380.67,602.24h-28.27l.14,13.25c0,7.73,6.27,14,14,14s14-6.27,14-14l.14-13.25Z"/><path class="cls-6" d="m407.58,602.24h-28.27l.14,13.25c0,7.73,6.27,14,14,14s14-6.27,14-14l.14-13.25Z"/><path class="cls-6" d="m434.97,602.24h-28.27l.14,13.25c0,7.73,6.27,14,14,14s14-6.27,14-14l.14-13.25Z"/><path class="cls-6" d="m463.5,602.24h-28.27l.14,13.25c0,7.73,6.27,14,14,14s14-6.27,14-14l.14-13.25Z"/><path class="cls-6" d="m280.6,586.57h-28.27l.14,13.25c0,7.73,6.27,14,14,14s14-6.27,14-14l.14-13.25Z"/><path class="cls-6" d="m223.92,586.57h-28.27l.14,13.25c0,7.73,6.27,14,14,14s14-6.27,14-14l.14-13.25Z"/><path class="cls-6" d="m195.65,586.57h-28.27l.14,13.25c0,7.73,6.27,14,14,14s14-6.27,14-14l.14-13.25Z"/><path class="cls-6" d="m252.07,586.57h-28.27l.14,13.25c0,7.73,6.27,14,14,14s14-6.27,14-14l.14-13.25Z"/><path class="cls-6" d="m337.14,586.57h-28.27l.14,13.25c0,7.73,6.27,14,14,14s14-6.27,14-14l.14-13.25Z"/><path class="cls-6" d="m308.87,586.57h-28.27l.14,13.25c0,7.73,6.27,14,14,14s14-6.27,14-14l.14-13.25Z"/><path class="cls-6" d="m365.29,586.57h-28.27l.14,13.25c0,7.73,6.27,14,14,14s14-6.27,14-14l.14-13.25Z"/><path class="cls-6" d="m392.2,586.57h-28.27l.14,13.25c0,7.73,6.27,14,14,14s14-6.27,14-14l.14-13.25Z"/><path class="cls-6" d="m419.59,586.57h-28.27l.14,13.25c0,7.73,6.27,14,14,14s14-6.27,14-14l.14-13.25Z"/><path class="cls-6" d="m448,586.57h-28.27l.14,13.25c0,7.73,6.27,14,14,14s14-6.27,14-14l.14-13.25Z"/><path class="cls-6" d="m293.61,573.77h28.27l-.14,13.25c0,7.73-6.27,14-14,14s-14-6.27-14-14l-.14-13.25Z"/><path class="cls-6" d="m350.29,573.77h28.27l-.14,13.25c0,7.73-6.27,14-14,14s-14-6.27-14-14l-.14-13.25Z"/><path class="cls-6" d="m378.56,573.77h28.27l-.14,13.25c0,7.73-6.27,14-14,14s-14-6.27-14-14l-.14-13.25Z"/><path class="cls-6" d="m406.96,573.77h28.27l-.14,13.25c0,7.73-6.27,14-14,14s-14-6.27-14-14l-.14-13.25Z"/><path class="cls-6" d="m322.14,573.77h28.27l-.14,13.25c0,7.73-6.27,14-14,14s-14-6.27-14-14l-.14-13.25Z"/><path class="cls-6" d="m237.07,573.77h28.27l-.14,13.25c0,7.73-6.27,14-14,14s-14-6.27-14-14l-.14-13.25Z"/><path class="cls-6" d="m265.34,573.77h28.27l-.14,13.25c0,7.73-6.27,14-14,14s-14-6.27-14-14l-.14-13.25Z"/><path class="cls-6" d="m208.92,573.77h28.27l-.14,13.25c0,7.73-6.27,14-14,14s-14-6.27-14-14l-.14-13.25Z"/><path class="cls-6" d="m182.01,573.77h28.27l-.14,13.25c0,7.73-6.27,14-14,14s-14-6.27-14-14l-.14-13.25Z"/><path class="cls-6" d="m435.23,573.77h28.27l-.14,13.25c0,7.73-6.27,14-14,14s-14-6.27-14-14l-.14-13.25Z"/><path class="cls-6" d="m305.13,556.11l-28.27-.27v13.25c-.06,7.73,6.15,14.06,13.88,14.13s14.06-6.13,14.13-13.87l.26-13.25Z"/><path class="cls-6" d="m248.45,556.11l-28.27-.27v13.25c-.06,7.73,6.15,14.06,13.88,14.13s14.06-6.13,14.13-13.87l.26-13.25Z"/><path class="cls-6" d="m220.18,556.11l-28.27-.27v13.25c-.06,7.73,6.15,14.06,13.88,14.13,7.73.07,14.06-6.13,14.13-13.87l.26-13.25Z"/><path class="cls-6" d="m191.78,556.11l-28.27-.27v13.25c-.06,7.73,6.15,14.06,13.88,14.13s14.06-6.13,14.13-13.87l.26-13.25Z"/><path class="cls-6" d="m276.6,556.11l-28.27-.27v13.25c-.06,7.73,6.15,14.06,13.88,14.13,7.73.07,14.06-6.13,14.13-13.87l.26-13.25Z"/><path class="cls-6" d="m361.67,556.11l-28.27-.27v13.25c-.06,7.73,6.15,14.06,13.88,14.13,7.73.07,14.06-6.13,14.13-13.87l.26-13.25Z"/><path class="cls-6" d="m333.4,556.11l-28.27-.27v13.25c-.06,7.73,6.15,14.06,13.88,14.13s14.06-6.13,14.13-13.87l.26-13.25Z"/><path class="cls-6" d="m389.81,556.11l-28.27-.27v13.25c-.06,7.73,6.15,14.06,13.88,14.13,7.73.07,14.06-6.13,14.13-13.87l.26-13.25Z"/><path class="cls-6" d="m416.72,556.11l-28.27-.27v13.25c-.06,7.73,6.15,14.06,13.88,14.13,7.73.07,14.06-6.13,14.13-13.87l.26-13.25Z"/><path class="cls-6" d="m291.79,541.23h-28.27l.14,13.25c0,7.73,6.27,14,14,14s14-6.27,14-14l.14-13.25Z"/><path class="cls-6" d="m235.11,541.23h-28.27l.14,13.25c0,7.73,6.27,14,14,14s14-6.27,14-14l.14-13.25Z"/><path class="cls-6" d="m206.84,541.23h-28.27l.14,13.25c0,7.73,6.27,14,14,14s14-6.27,14-14l.14-13.25Z"/><path class="cls-6" d="m445.11,556.11l-28.27-.27v13.25c-.06,7.73,6.15,14.06,13.88,14.13,7.73.07,14.06-6.13,14.13-13.87l.26-13.25Z"/><path class="cls-6" d="m263.26,541.23h-28.27l.14,13.25c0,7.73,6.27,14,14,14s14-6.27,14-14l.14-13.25Z"/><path class="cls-6" d="m348.33,541.23h-28.27l.14,13.25c0,7.73,6.27,14,14,14s14-6.27,14-14l.14-13.25Z"/><path class="cls-6" d="m320.06,541.23h-28.27l.14,13.25c0,7.73,6.27,14,14,14s14-6.27,14-14l.14-13.25Z"/><path class="cls-6" d="m376.48,541.23h-28.27l.14,13.25c0,7.73,6.27,14,14,14s14-6.27,14-14l.14-13.25Z"/><path class="cls-6" d="m403.39,541.23h-28.27l.14,13.25c0,7.73,6.27,14,14,14s14-6.27,14-14l.14-13.25Z"/><path class="cls-6" d="m430.78,541.23h-28.27l.14,13.25c0,7.73,6.27,14,14,14s14-6.27,14-14l.14-13.25Z"/><path class="cls-6" d="m459.31,541.23h-28.27l.14,13.25c0,7.73,6.27,14,14,14s14-6.27,14-14l.14-13.25Z"/><path class="cls-6" d="m277.66,524.86h-28.27l.14,13.25c0,7.73,6.27,14,14,14s14-6.27,14-14l.14-13.25Z"/><path class="cls-6" d="m220.98,524.86h-28.27l.14,13.25c0,7.73,6.27,14,14,14s14-6.27,14-14l.14-13.25Z"/><path class="cls-6" d="m192.71,524.86h-28.27l.14,13.25c0,7.73,6.27,14,14,14s14-6.27,14-14l.14-13.25Z"/><path class="cls-6" d="m249.13,524.86h-28.27l.14,13.25c0,7.73,6.27,14,14,14s14-6.27,14-14l.14-13.25Z"/><path class="cls-6" d="m334.21,524.86h-28.27l.14,13.25c0,7.73,6.27,14,14,14s14-6.27,14-14l.14-13.25Z"/><path class="cls-6" d="m305.93,524.86h-28.27l.14,13.25c0,7.73,6.27,14,14,14s14-6.27,14-14l.14-13.25Z"/><path class="cls-6" d="m362.35,524.86h-28.27l.14,13.25c0,7.73,6.27,14,14,14s14-6.27,14-14l.14-13.25Z"/><path class="cls-6" d="m389.26,524.86h-28.27l.14,13.25c0,7.73,6.27,14,14,14s14-6.27,14-14l.14-13.25Z"/><path class="cls-6" d="m416.66,524.86h-28.27l.14,13.25c0,7.73,6.27,14,14,14s14-6.27,14-14l.14-13.25Z"/><path class="cls-6" d="m445.06,524.86h-28.27l.14,13.25c0,7.73,6.27,14,14,14s14-6.27,14-14l.14-13.25Z"/><path class="cls-6" d="m289.42,508.6h28.27l-.14,13.25c0,7.73-6.27,14-14,14s-14-6.27-14-14l-.14-13.25Z"/><path class="cls-6" d="m346.09,508.6h28.27l-.14,13.25c0,7.73-6.27,14-14,14s-14-6.27-14-14l-.14-13.25Z"/><path class="cls-6" d="m374.37,508.6h28.27l-.14,13.25c0,7.73-6.27,14-14,14s-14-6.27-14-14l-.14-13.25Z"/><path class="cls-6" d="m402.77,508.6h28.27l-.14,13.25c0,7.73-6.27,14-14,14s-14-6.27-14-14l-.14-13.25Z"/><path class="cls-6" d="m317.95,508.6h28.27l-.14,13.25c0,7.73-6.27,14-14,14s-14-6.27-14-14l-.14-13.25Z"/><path class="cls-6" d="m232.87,508.6h28.27l-.14,13.25c0,7.73-6.27,14-14,14s-14-6.27-14-14l-.14-13.25Z"/><path class="cls-6" d="m261.14,508.6h28.27l-.14,13.25c0,7.73-6.27,14-14,14s-14-6.27-14-14l-.14-13.25Z"/><path class="cls-6" d="m204.73,508.6h28.27l-.14,13.25c0,7.73-6.27,14-14,14s-14-6.27-14-14l-.14-13.25Z"/><path class="cls-6" d="m177.82,508.6h28.27l-.14,13.25c0,7.73-6.27,14-14,14s-14-6.27-14-14l-.14-13.25Z"/><path class="cls-6" d="m431.04,508.6h28.27l-.14,13.25c0,7.73-6.27,14-14,14s-14-6.27-14-14l-.14-13.25Z"/><path class="cls-6" d="m303.06,492.24h28.27l-.14,13.25c0,7.73-6.27,14-14,14s-14-6.27-14-14l-.14-13.25Z"/><path class="cls-6" d="m359.74,492.24h28.27l-.14,13.25c0,7.73-6.27,14-14,14s-14-6.27-14-14l-.14-13.25Z"/><path class="cls-6" d="m388.01,492.24h28.27l-.14,13.25c0,7.73-6.27,14-14,14s-14-6.27-14-14l-.14-13.25Z"/><path class="cls-6" d="m416.42,492.24h28.27l-.14,13.25c0,7.73-6.27,14-14,14s-14-6.27-14-14l-.14-13.25Z"/><path class="cls-6" d="m331.6,492.24h28.27l-.14,13.25c0,7.73-6.27,14-14,14s-14-6.27-14-14l-.14-13.25Z"/><path class="cls-6" d="m246.52,492.24h28.27l-.14,13.25c0,7.73-6.27,14-14,14s-14-6.27-14-14l-.14-13.25Z"/><path class="cls-6" d="m274.79,492.24h28.27l-.14,13.25c0,7.73-6.27,14-14,14s-14-6.27-14-14l-.14-13.25Z"/><path class="cls-6" d="m218.37,492.24h28.27l-.14,13.25c0,7.73-6.27,14-14,14s-14-6.27-14-14l-.14-13.25Z"/><path class="cls-6" d="m191.47,492.24h28.27l-.14,13.25c0,7.73-6.27,14-14,14s-14-6.27-14-14l-.14-13.25Z"/><path class="cls-6" d="m459.71,477.66l-28.26-.86-.27,13.25c-.24,7.73,5.84,14.18,13.56,14.42,7.73.24,14.18-5.84,14.42-13.56l.54-13.24Z"/><path class="cls-6" d="m164.07,492.24h28.27l-.14,13.25c0,7.73-6.27,14-14,14s-14-6.27-14-14l-.14-13.25Z"/><path class="cls-6" d="m288.44,476.79h28.27l-.14,13.25c0,7.73-6.27,14-14,14s-14-6.27-14-14l-.14-13.25Z"/><path class="cls-6" d="m373.39,476.79h28.27l-.14,13.25c0,7.73-6.27,14-14,14s-14-6.27-14-14l-.14-13.25Z"/><path class="cls-6" d="m401.79,476.79h28.27l-.14,13.25c0,7.73-6.27,14-14,14s-14-6.27-14-14l-.14-13.25Z"/><path class="cls-6" d="m316.97,476.79h28.27l-.14,13.25c0,7.73-6.27,14-14,14s-14-6.27-14-14l-.14-13.25Z"/><path class="cls-6" d="m231.9,476.79h28.27l-.14,13.25c0,7.73-6.27,14-14,14s-14-6.27-14-14l-.14-13.25Z"/><path class="cls-6" d="m260.17,476.79h28.27l-.14,13.25c0,7.73-6.27,14-14,14s-14-6.27-14-14l-.14-13.25Z"/><path class="cls-6" d="m203.75,476.79h28.27l-.14,13.25c0,7.73-6.27,14-14,14s-14-6.27-14-14l-.14-13.25Z"/><path class="cls-6" d="m176.84,476.79h28.27l-.14,13.25c0,7.73-6.27,14-14,14s-14-6.27-14-14l-.14-13.25Z"/><path class="cls-6" d="m345.12,476.79h28.27l-.14,13.25c0,7.73-6.27,14-14,14s-14-6.27-14-14l-.14-13.25Z"/><path class="cls-6" d="m302.09,460.43h28.27l-.14,13.25c0,7.73-6.27,14-14,14s-14-6.27-14-14l-.14-13.25Z"/><path class="cls-6" d="m358.77,460.43h28.27l-.14,13.25c0,7.73-6.27,14-14,14s-14-6.27-14-14l-.14-13.25Z"/><path class="cls-6" d="m387.04,460.43h28.27l-.14,13.25c0,7.73-6.27,14-14,14s-14-6.27-14-14l-.14-13.25Z"/><path class="cls-6" d="m415.44,460.43h28.27l-.14,13.25c0,7.73-6.27,14-14,14s-14-6.27-14-14l-.14-13.25Z"/><path class="cls-6" d="m330.62,460.43h28.27l-.14,13.25c0,7.73-6.27,14-14,14s-14-6.27-14-14l-.14-13.25Z"/><path class="cls-6" d="m245.55,460.43h28.27l-.14,13.25c0,7.73-6.27,14-14,14s-14-6.27-14-14l-.14-13.25Z"/><path class="cls-6" d="m273.82,460.43h28.27l-.14,13.25c0,7.73-6.27,14-14,14s-14-6.27-14-14l-.14-13.25Z"/><path class="cls-6" d="m217.4,460.43h28.27l-.14,13.25c0,7.73-6.27,14-14,14s-14-6.27-14-14l-.14-13.25Z"/><path class="cls-6" d="m190.49,460.43h28.27l-.14,13.25c0,7.73-6.27,14-14,14s-14-6.27-14-14l-.14-13.25Z"/><path class="cls-6" d="m290.62,444.41h-28.27l.14,13.25c0,7.73,6.27,14,14,14s14-6.27,14-14l.14-13.25Z"/><path class="cls-6" d="m233.94,444.41h-28.27l.14,13.25c0,7.73,6.27,14,14,14s14-6.27,14-14l.14-13.25Z"/><path class="cls-6" d="m205.67,444.41h-28.27l.14,13.25c0,7.73,6.27,14,14,14s14-6.27,14-14l.14-13.25Z"/><path class="cls-6" d="m262.09,444.41h-28.27l.14,13.25c0,7.73,6.27,14,14,14s14-6.27,14-14l.14-13.25Z"/><path class="cls-6" d="m347.16,444.41h-28.27l.14,13.25c0,7.73,6.27,14,14,14s14-6.27,14-14l.14-13.25Z"/><path class="cls-6" d="m318.89,444.41h-28.27l.14,13.25c0,7.73,6.27,14,14,14s14-6.27,14-14l.14-13.25Z"/><path class="cls-6" d="m375.31,444.41h-28.27l.14,13.25c0,7.73,6.27,14,14,14s14-6.27,14-14l.14-13.25Z"/><path class="cls-6" d="m402.22,444.41h-28.27l.14,13.25c0,7.73,6.27,14,14,14s14-6.27,14-14l.14-13.25Z"/><path class="cls-6" d="m429.61,444.41h-28.27l.14,13.25c0,7.73,6.27,14,14,14s14-6.27,14-14l.14-13.25Z"/><path class="cls-6" d="m458.14,444.41h-28.27l.14,13.25c0,7.73,6.27,14,14,14s14-6.27,14-14l.14-13.25Z"/><path class="cls-6" d="m275.23,428.74h-28.27l.14,13.25c0,7.73,6.27,14,14,14s14-6.27,14-14l.14-13.25Z"/><path class="cls-6" d="m218.56,428.74h-28.27l.14,13.25c0,7.73,6.27,14,14,14s14-6.27,14-14l.14-13.25Z"/><path class="cls-6" d="m246.7,428.74h-28.27l.14,13.25c0,7.73,6.27,14,14,14s14-6.27,14-14l.14-13.25Z"/><path class="cls-6" d="m331.78,428.74h-28.27l.14,13.25c0,7.73,6.27,14,14,14s14-6.27,14-14l.14-13.25Z"/><path class="cls-6" d="m303.51,428.74h-28.27l.14,13.25c0,7.73,6.27,14,14,14s14-6.27,14-14l.14-13.25Z"/><path class="cls-6" d="m359.92,428.74h-28.27l.14,13.25c0,7.73,6.27,14,14,14s14-6.27,14-14l.14-13.25Z"/><path class="cls-6" d="m386.83,428.74h-28.27l.14,13.25c0,7.73,6.27,14,14,14s14-6.27,14-14l.14-13.25Z"/><path class="cls-6" d="m414.23,428.74h-28.27l.14,13.25c0,7.73,6.27,14,14,14s14-6.27,14-14l.14-13.25Z"/><path class="cls-6" d="m442.63,428.74h-28.27l.14,13.25c0,7.73,6.27,14,14,14s14-6.27,14-14l.14-13.25Z"/><path class="cls-6" d="m288.24,415.94h28.27l-.14,13.25c0,7.73-6.27,14-14,14s-14-6.27-14-14l-.14-13.25Z"/><path class="cls-6" d="m344.92,415.94h28.27l-.14,13.25c0,7.73-6.27,14-14,14s-14-6.27-14-14l-.14-13.25Z"/><path class="cls-6" d="m373.19,415.94h28.27l-.14,13.25c0,7.73-6.27,14-14,14s-14-6.27-14-14l-.14-13.25Z"/><path class="cls-6" d="m401.59,415.94h28.27l-.14,13.25c0,7.73-6.27,14-14,14s-14-6.27-14-14l-.14-13.25Z"/><path class="cls-6" d="m316.77,415.94h28.27l-.14,13.25c0,7.73-6.27,14-14,14s-14-6.27-14-14l-.14-13.25Z"/><path class="cls-6" d="m231.7,415.94h28.27l-.14,13.25c0,7.73-6.27,14-14,14s-14-6.27-14-14l-.14-13.25Z"/><path class="cls-6" d="m259.97,415.94h28.27l-.14,13.25c0,7.73-6.27,14-14,14s-14-6.27-14-14l-.14-13.25Z"/><path class="cls-6" d="m203.55,415.94h28.27l-.14,13.25c0,7.73-6.27,14-14,14s-14-6.27-14-14l-.14-13.25Z"/><path class="cls-6" d="m176.65,415.94h28.27l-.14,13.25c0,7.73-6.27,14-14,14s-14-6.27-14-14l-.14-13.25Z"/><path class="cls-6" d="m429.87,415.94h28.27l-.14,13.25c0,7.73-6.27,14-14,14s-14-6.27-14-14l-.14-13.25Z"/></g><path class="cls-10" d="m362,724.09c58.66-24.48,72.95-92.95,72.95-92.95,28.95-119.54-22.64-189.1-35.43-204.06-1.67-1.95-4.1-3.06-6.66-3.06h-61.14c-2.01,0-3.92.86-5.26,2.36-11.92,13.37-66.95,83.24-37.52,204.77,0,0,14.22,63.29-75.32,38.61-.12-.03-.24-.07-.36-.12l-24.32-8.82c-.22-.08-.44-.18-.64-.29-3.56-1.97-37.06-20.08-7.91,13.42,30.99,35.63,40.64,40.56,72.3,50.14,32.23,9.75,63.04,9.73,109.32,0"/><path class="cls-11" d="m357.49,144.71s-9.02,26.25-44.56,33.08-79.56,35.27-95.69,71.9"/><path class="cls-1" d="m275.67,194.33s-4.5-3.41-4.54-9.61,6.49-3.57,6.49-3.57c0,0,6.24,3.56,9.7,1.48,3.51-2.1,6.56-2.09,6.56-2.09l10.91-1.5s5.95-3.81,4.34-3.97-5.71,1.33-5.71,1.33c0,0-3.96,1.58-4.89-2.24-.93-3.82.11-3.02.92-5.29.8-2.27,5.64-.81,5.64-.81l9.6-1.14s12.87-6.12,6.92-6.61c-5.94-.48-7.19.13-7.19.13,0,0-4.26-.73-11.89,3.54s-10.31,7.9-10.31,7.9c0,0-3.09,4.67-12.1,6.86s-11.04-.44-14.73-1.42-10.02-7.03-10.02-7.03c0,0-4.07-8.85-.88-10.12s8.17,7.69,18.22,9.31c10.04,1.62,5.84-1.81,5.84-1.81-10.08-7.82-5.87-11.09-5.87-11.09,0,0,1.82-2.06,11.11,2.43,9.29,4.49,7.91-1.09,7.91-1.09,0,0-3.32-12.81.88-13.98s5.69,10.21,5.69,10.21c2.87.85,2.94-1.86,6.16-3.94,3.22-2.08-.08-2.09-.08-2.09-17.93-9.44-18.5-17.19-18.5-17.19,0,0,.45-2.84-2.92-1.35s-13.23,1.96-13.23,1.96c-14.16-1.76-11.54-10.7-14.96-24.7s3.05-14.37,3.05-14.37c0,0,9.75.55,7,10.29-2.75,9.74,4.31,15.03,4.31,15.03,0,0,11.28,2.02,12.3-1.17s.13-11.11.13-11.11c0,0,7.67-18.67,9.05-.59,1.38,18.08,6.74,18.82,9.08,22.71s2.21.11,2.21.11c0,0-2.07-13.42,6.75-12.07s1.18,13.47,3.85,20.04c2.67,6.57,8.93,4.92,14.67,9.92s2.95-1.76,2.95-1.76c-2.28-20.41-16.34-27.88-21.35-31.44-5.01-3.56-25.77-19.06-25.77-19.06,0,0-9.58-8.87-5.48-11.22s14.41,8.14,14.41,8.14c0,0,16.52,11.66,11.37,4.21-5.15-7.45-5.6-17.21-5.6-17.21,0,0,.62-13.56,6.52-14.67,5.9-1.12,3.11,19.53,4.27,23.73,1.17,4.2,6.64,14.22,12.57,20.21,5.92,5.98,4.01-1.05,4.01-1.05-6.35-8.55-7.9-33.22-7.9-33.22,0,0,3.48-19.71,14.85-22.4,11.37-2.69-2.81,15.95-2.81,15.95,0,0-1.88,20.87,6.39,15.85s9.5-13.73,18.77-22.14,7.45,5.15,7.45,5.15c0,0-7.79,20.78-15.48,22.06-7.69,1.27-7.88,34.6-6.79,39.1,1.09,4.51,2.64.47,2.64.47-.95-2.82-1.04-11.91-1.04-11.91,2.06-10.78,9.33-14.62,9.33-14.62,0,0,10.18-2.59,3.96,8.66-6.22,11.25-3.1,11.47-4.55,16.6-1.45,5.13,1.74,2.75,1.74,2.75,0,0,2.9-11.46,10.41-13.61,7.51-2.16,3.61,11.59,3.61,11.59,0,0-3.15,6.28-8.4,9.14-5.25,2.86-1.9,4.57-1.9,4.57,18.12-4.38,17.04-1.89,23.01,1.19s4.52-.89,4.52-.89l-13.39-11.33s-5.85-5.09-2.08-7.82c3.76-2.73,9.13,1.5,12.79,4.48,3.66,2.98,4.79.98,4.79.98,4.53-4.2-4.6-11.5-4.6-11.5,0,0-5.04-3.86-8.69-2.14s-23.25-13.07-17.81-22.95c5.44-9.88,9.5-.03,9.5-.03,0,0,2.67,13.37,8.38,11.17,5.71-2.2,9.55,2.87,13.25,6.25,3.7,3.38,2.66-.43,2.66-.43,3.06-5.07-5.06-17.86-5.06-17.86-21.77-20.2-16.03-41.61-16.03-41.61,0,0,1.85-5.16,6.5-5.77,4.65-.61,3.88-2.54,3.88-2.54,4.83-19.13,3.12-12.37,6.99-15.01s3.53,19.8,2.86,23.56-5.26,5.06-5.95,6.32c-.69,1.26.08,5.49.37,11.17.3,5.68,3.65,2.88,3.65,2.88,0,0,1.69-7.05,8.11-11.36,6.43-4.31,7.37,4.26,7.8,8.02.43,3.76-9.04,13.29-9.04,13.29,0,0,1.63,18.66,4.24,16.43,2.61-2.23,3.88-5.94,3.88-5.94,0,0-.04-9.6,7.57-12.96,7.61-3.36,1.97,13.43,1.97,13.43-15.02,17.01-11.12,19.27-11.12,19.27,0,0,5.08,2.06,12.77-4.92,7.69-6.97,7.43-24.85,7.43-24.85,0,0,1.03-13.39,5.82-18.11,4.79-4.72,8.13,16.39,6.59,19.33s.75,4.14.68,3.32,4.67-6.17,4.67-6.17c0,0,4.9-.43,3.92,4.05s-8.41,7.32-15.41,18.35c-6.99,11.03,7.14,2.39,7.14,2.39,0,0,20.67-23.2,22.8-11.32s-8.39,13.9-11.44,16.63-29.96,5.63-29.96,5.63c0,0-12.49,4.66-11.15,10.57s7.47.72,7.47.72c0,0,13.17-15.69,15.3-5.18,2.13,10.51-17.26,14.13-17.26,14.13,0,0-6.69,1.96-5.21,9.51s16.93,18,12.79,8.21c-4.15-9.79.05-15.09.05-15.09,15.46-11.5,9.38.55,9.38.55,0,0-4.97-.39-3.47,7.43,1.51,7.82,5.95.85,5.95.85,0,0,9.23-24.95,16.09-18.69,6.86,6.26-1.75,5.09-2.79,12.04-1.04,6.95,4.11-.08,4.11-.08,0,0,18.52-23.56,22.31-11.27,3.79,12.29-16.58,14.07-16.58,14.07,0,0-5.53,2.68-2.98,3.55s14.88,10.22,8.65,17.35-11.83-.34-11.83-.34c0,0-9.36-12.9-12.51-8.23-3.16,4.66-6.63,5.79-6.63,5.79,0,0-4.9.43-9.8.86-4.9.43-5.31,5.13-4.2,5.26s11,1.72,11,1.72c0,0-2.37-.13,11.86.99,14.85,1.18,12.24,9.63,22.02-.83s12.96-5.52,12.96-5.52c5.76,9.37-7.69,12.47-7.69,12.47,0,0-8.5-.42-5.36,5.56,3.14,5.97-1.3,9.93-1.3,9.93,0,0-7.41,1.99-8.44-4.62,0,0-2.64-4.27-4.13-1.73-1.48,2.54-3.18-1.4-3.18-1.4-5.04-9.99-14.73-7.2-24.15-9.4-9.43-2.2-15.85-5.41-24.27-15.72-8.42-10.31-29.33-2.26-29.76,1.07s-9.43,6.17-21.34,7.09c-11.9.92-25.71,19.32-25.71,19.32-2.69,3.25-3.94,1.27-4.16.13-.24-1.24-2.33-.48-2.64-.36,0,0-26.86,15.99-31,11.51Z"/><path class="cls-4" d="m454.2,435.24s-8.82,4.06-20.73-5.73"/><ellipse class="cls-14" cx="300.17" cy="719.72" rx="167.39" ry="26.18"/><path class="cls-10" d="m1035.59,716.59c58.66-24.48,72.95-92.95,72.95-92.95,28.95-119.54-22.64-189.1-35.43-204.06-1.67-1.95-4.1-3.06-6.66-3.06h-61.14c-2.01,0-3.92.86-5.26,2.36-11.92,13.37-66.95,83.24-37.52,204.77,0,0,14.22,63.29-75.32,38.61-.12-.03-.24-.07-.36-.12l-24.32-8.82c-.22-.08-.44-.18-.64-.29-3.56-1.97-37.06-20.08-7.91,13.42,30.99,35.63,40.64,40.56,72.3,50.14,32.23,9.75,63.04,9.73,109.32,0"/></g></svg>