<?xml version="1.0" encoding="UTF-8"?><svg id="Start_skærm" xmlns="http://www.w3.org/2000/svg" width="670" height="760" xmlns:xlink="http://www.w3.org/1999/xlink" viewBox="0 0 670 760"><defs><style>.cls-1{fill:#f60;filter:url(#drop-shadow-1);}.cls-1,.cls-2,.cls-3,.cls-4,.cls-5,.cls-6,.cls-7,.cls-8,.cls-9,.cls-10,.cls-11,.cls-12,.cls-13,.cls-14{stroke-miterlimit:10;}.cls-1,.cls-2,.cls-6,.cls-7,.cls-8,.cls-9,.cls-11,.cls-13{stroke:#000;}.cls-15{clip-path:url(#clippath);}.cls-16,.cls-3,.cls-4,.cls-13,.cls-14{fill:none;}.cls-16,.cls-17,.cls-18,.cls-19,.cls-20,.cls-21,.cls-22{stroke-width:0px;}.cls-3{stroke:#c16000;}.cls-3,.cls-4{stroke-linecap:round;}.cls-4,.cls-12{stroke:#572a00;}.cls-23{clip-path:url(#clippath-1);}.cls-5,.cls-6{stroke-width:.5px;}.cls-5,.cls-10{fill:#fff;stroke:#fff;}.cls-24{filter:url(#drop-shadow-2);}.cls-17{fill:#6d737e;opacity:.1;}.cls-6{fill:#c7e2ec;}.cls-7{fill:#001cff;}.cls-8,.cls-19{fill:#ff8a00;}.cls-9{fill:#ff8802;}.cls-11,.cls-20{fill:#643701;}.cls-12{fill:#572a00;}.cls-14{stroke:#ff7400;}.cls-19{opacity:.3;}.cls-21{fill:#ff924b;}.cls-22{fill:#fff8f8;}</style><clipPath id="clippath"><ellipse class="cls-16" cx="363.05" cy="233.21" rx="110.26" ry="87.87"/></clipPath><clipPath id="clippath-1"><path class="cls-13" d="m362.18,710.98c58.66-24.48,72.95-92.95,72.95-92.95,28.95-119.54-22.64-189.1-35.43-204.06-1.67-1.95-4.1-3.06-6.66-3.06h-61.14c-2.01,0-3.92.86-5.26,2.36-11.92,13.37-66.95,83.24-37.52,204.77,0,0,14.22,63.29-75.32,38.61-.12-.03-.24-.07-.36-.12l-24.32-8.82c-.22-.08-.44-.18-.64-.29-3.56-1.97-37.06-20.08-7.91,13.42,30.99,35.63,40.64,40.56,72.3,50.14,32.23,9.75,63.04,9.73,109.32,0"/></clipPath><filter id="drop-shadow-1" filterUnits="userSpaceOnUse"><feOffset dx="-1" dy="1"/><feGaussianBlur result="blur" stdDeviation="3"/><feFlood flood-color="#000" flood-opacity=".75"/><feComposite in2="blur" operator="in"/><feComposite in="SourceGraphic"/></filter><filter id="drop-shadow-2" filterUnits="userSpaceOnUse"><feOffset dx="-2" dy="2"/><feGaussianBlur result="blur-2" stdDeviation="0"/><feFlood flood-color="#000" flood-opacity=".5"/><feComposite in2="blur-2" operator="in"/><feComposite in="SourceGraphic"/></filter></defs><path class="cls-8" d="m173.06,646.12s-75.42-14.71-91.46-38.52c-16.04-23.81-12.02-42.35-12.02-42.35-14.96-17.15,31.5,6.75,52.13,23.22,1.61,1.28,2.54,1.84,2.94,1.58s.24-1.34-.33-3.31c-13.45-46.62-14.12-59.51-11.98-61.83,1.66-1.8,5.02,2.8,5.38,2.9.02,0,.04,0,.07.01.93.03,19.43.83,38.49,21.3,19.55,21.01,16.79,97,16.79,97"/><path class="cls-3" d="m169,643.12s-71.9-76.64-101.02-82.18"/><path class="cls-3" d="m71.69,567.87s-11.79,44.62,100.41,77.23"/><path class="cls-3" d="m67.98,560.94s21.54,45.78,103.4,83.22"/><path class="cls-3" d="m169.95,643.54s-58.5-87.31-56.68-116.9"/><path class="cls-3" d="m119.06,531.06s48.45-3.69,52.32,113.1"/><path class="cls-3" d="m113.27,526.64s41.03,28.95,57.09,117.52"/><path class="cls-21" d="m126.63,290.85s45.01.41,58.62-45.86c13.61-46.28,10.66-46.63,39.6-102.8,28.34-55,133.43-51.29,133.43-51.29,0,0,103.22-8.37,140.42,83.74,37.21,92.11-23.8,173.77-57.15,202.55-33.35,28.78-50.06,35.95-50.06,35.95h0l-119.79,67.15s-94.21,49.8-147.41,21.16c-1.65-.89-1.58-3.29.14-4.05,10.33-4.62,37.35-18.12,46.77-36.76.69-1.37-.5-2.95-2.01-2.65-17.19,3.35-94.14,15.94-149.56-13.98-1.92-1.03-1.41-3.91.74-4.24,17.38-2.66,62.97-14.42,74.92-65.12.35-1.5-1.36-2.62-2.58-1.68-11.39,8.77-48.53,30.84-89.8-14.73-1.12-1.23.04-3.17,1.65-2.75,9.81,2.56,30.16,4.92,42.52-14.4,0,0,26.96-52.69,79.55-50.22Z"/><path class="cls-13" d="m126.63,290.85s45.01.41,58.62-45.86c13.61-46.28,10.66-46.63,39.6-102.8,28.34-55,133.43-51.29,133.43-51.29,0,0,103.22-8.37,140.42,83.74,37.21,92.11-23.8,173.77-57.15,202.55-33.35,28.78-50.06,35.95-50.06,35.95h0l-119.79,67.15s-94.21,49.8-147.41,21.16c-1.65-.89-1.58-3.29.14-4.05,10.33-4.62,37.35-18.12,46.77-36.76.69-1.37-.5-2.95-2.01-2.65-17.19,3.35-94.14,15.94-149.56-13.98-1.92-1.03-1.41-3.91.74-4.24,17.38-2.66,62.97-14.42,74.92-65.12.35-1.5-1.36-2.62-2.58-1.68-11.39,8.77-48.53,30.84-89.8-14.73-1.12-1.23.04-3.17,1.65-2.75,9.81,2.56,30.16,4.92,42.52-14.4,0,0,26.96-52.69,79.55-50.22Z"/><path class="cls-14" d="m272.27,318.39s-23.78,30.35-44.29,47.3c-20.5,16.95-44.02,29.53-63.15,32.53"/><path class="cls-14" d="m216.77,479.66s29.07-8.49,48.36-22.53c0,0,9.4-9.27,13.4-12.03,0,0,13.12-10.9,16.68-9"/><path class="cls-14" d="m472.46,280.26s7.39,12.97-9.27,31.78c0,0-19.16,18.4-18.96,20.08,0,0-7.43,5.06-8.34,26.19"/><path class="cls-11" d="m277.37,451.58s-12.13,30.46-10.22,38.69c0,0,8.27,15.59,4.3,13.69-2.15-1.03-4.6-5.82-5.77-7.08-1.99-2.12-.98,4.73-.97,4.88.06,3.84-.04,7.67-.36,10.37-.38,3.22-3.05,5.49-2.6-9.61,0,0,.14-3.62-.99.1s.3,12.58-.2,13.25c-3.16,4.2-3.7-12.25-3.31-14.1.69-3.27-.56-1.35-.93-.51-.92,2.05-.67,11.71-1.3,12.43-3.04,3.53-1.88-14.25-1.88-14.25-.45-1.35-1.34-.23-1.34-.23l-1.49,6.72c-4.11,7.36-1.22-9.32-1.22-9.32.09-1.24,2.88-8.73,3.56-9.73,1.74-2.58,3-3.43,4.26-4.24,2.12-1.37,2.2-5.48,2.24-5.86,0-.02.31-8.24.31-8.25.19-4,1.52-8.13,3.21-19.99,2.92-20.54,7.44-30.56,7.44-30.56l4.83-14c15.3-44.07,18.59-44.61,24.14-55.13,4.84-9.17,11.88-9.35,11.88-9.35,0,0,34.6.19,40.44-2.41,4.7-2.09,1.84-9.62.54-12.49-.24-.52.15-1.11.73-1.11h19.92c.58,0-3.44,11.51,1.26,13.6,5.84,2.6,37.59,4.36,37.59,4.36,0,0,4.48.39,11.29,10.52,6.65,9.87,8.93,11.96,24.23,56.03,0,0,.11,6.29,17.79-5.83,7-4.8,32.4-19.39,33.75-23.03l3.02-5.05c.6-1.01,1.03-2.1,1.26-3.25.88-4.27,3.29-14.87,4.83-11.68,1.04,2.15-.03,7.42.1,9.13.23,2.9,3.71-3.09,3.8-3.21,2.35-3.04,4.81-5.98,6.74-7.89,2.31-2.28,5.81-2.39-3.96,9.13,0,0-2.37,2.75.84.54s7.6-10.02,8.42-10.23c5.09-1.31-4.74,11.88-6.2,13.08-2.58,2.13-.4,1.4.41.98,2-1.03,7.82-8.74,8.77-8.91,4.58-.87-7.41,12.31-7.41,12.31-.48,1.34.91,1.01.91,1.01l5.36-4.33c7.81-3.19-4.85,8.05-4.85,8.05,0,0-7.08,6.41-13.32,4.96-.13-.03-.26,0-.39.03-8.59,1.61-6.61,22.21-47.03,40.33-30.16,13.52-49.28-36.97-54.72-53.83-.27-.82-1.47-.67-1.53.19-.9,12.04-8.93,15.97-10.82,16.73-.25.1-.43.32-.48.58-2.64,13.92,2.42,23.06,3.76,25.17.13.2-.02.47-.26.47h-66.27c-.24,0-.39-.27-.26-.47,1.34-2.11,6.4-11.25,3.76-25.17-.05-.26-.23-.48-.48-.58-1.88-.76-9.91-4.69-10.82-16.73-.06-.86-1.27-1.01-1.53-.19-5.44,16.86-9.38,26.62-33.02,57.27l-9.75,23.98Z"/><ellipse class="cls-20" cx="362.97" cy="236.4" rx="110.26" ry="87.87"/><ellipse class="cls-13" cx="362.97" cy="236.4" rx="110.26" ry="87.87"/><ellipse class="cls-12" cx="366.97" cy="263.11" rx="3.19" ry=".88" transform="translate(-69.66 148.02) rotate(-20.87)"/><ellipse class="cls-12" cx="358.97" cy="263.11" rx=".88" ry="3.19" transform="translate(-14.77 504.78) rotate(-69.13)"/><g class="cls-15"><path class="cls-21" d="m292.24,202.09c7.15,1.95,22.44-7.98,30.55-16.81,15.95-17.36,30.08-9.05,30.08-9.05,9.21,9.87,42.93-16.41,42.93-16.41,0,0,6.42,6.94,7.05,18.87,0,0,1.49,15.69,19.73,12.71,0,0,8.52-1.64,15.71,4.57,11.74,7.69,35.23,23.06,35.23,23.06,0,0,76.14-84.89-102.24-99.97-179.91-15.21-119.32,107.77-119.32,107.77,0,0,25.03-28.9,40.28-24.74Z"/><path class="cls-13" d="m292.24,202.09c7.15,1.95,22.44-7.98,30.55-16.81,15.95-17.36,30.08-9.05,30.08-9.05,9.21,9.87,42.93-16.41,42.93-16.41,0,0,6.42,6.94,7.05,18.87,0,0,1.49,15.69,19.73,12.71,0,0,8.52-1.64,15.71,4.57,11.74,7.69,35.23,23.06,35.23,23.06,0,0,76.14-84.89-102.24-99.97-179.91-15.21-119.32,107.77-119.32,107.77,0,0,25.03-28.9,40.28-24.74Z"/></g><path class="cls-16" d="m428.86,206.84c0,.92,7.42,1.66,16.58,1.66"/><ellipse class="cls-19" cx="441.68" cy="257.35" rx="18.33" ry="7.5" transform="translate(-34.6 71.69) rotate(-8.93)"/><ellipse class="cls-19" cx="284.16" cy="257.35" rx="7.5" ry="18.33" transform="translate(-14.18 498.12) rotate(-81.07)"/><path class="cls-22" d="m330.92,288.22c4.3,7.4,14.33,15.5,32,15.5s27.64-8.13,32-15.5c6.45-10.92-15.2-10.24-32.87-10.24s-36.36,1.21-31.12,10.24Z"/><path class="cls-13" d="m330.92,288.22c4.3,7.4,14.33,15.5,32,15.5s27.64-8.13,32-15.5c6.45-10.92-15.2-10.24-32.87-10.24s-36.36,1.21-31.12,10.24Z"/><ellipse class="cls-2" cx="440.41" cy="208.51" rx="1.66" ry="8.29" transform="translate(163.13 609.2) rotate(-80.65)"/><ellipse class="cls-2" cx="437.92" cy="230.89" rx="12.43" ry="14.09"/><circle class="cls-10" cx="433.78" cy="223.43" r="3.32"/><path class="cls-18" d="m447.41,222c2.42,1.01,6.68,2.83,8.75.4-1.46,3.25-6.63,2.77-9.62,2.47-2.29-.43-1.27-3.78.87-2.87h0Z"/><path class="cls-18" d="m446.53,220.71c3.04.68,6.69-.69,7.71-3.86-.08,2.79-2.36,5.31-4.96,6.18-.93.34-1.81.57-2.88.68-2.31.15-2.17-3.34.13-3h0Z"/><path class="cls-18" d="m445.01,219.69c-.1-.09-.27-.19-.39-.18.81.39,2.32.05,3.19-.31,1.33-.52,2.12-1.77,2.1-3.25,1.15,3.05-1.91,5.7-4.68,6.3-.51.12-1.16.19-1.69-.02-1-.32-1.35-1.61-.65-2.39.54-.62,1.49-.69,2.12-.14h0Z"/><circle class="cls-10" cx="428.87" cy="229.8" r=".49"/><path class="cls-4" d="m362.55,367.41c0-7.04,3.62-12.74,8.09-12.74"/><path class="cls-4" d="m362.38,367.41c0-7.04-3.17-12.74-7.08-12.74"/><ellipse class="cls-2" cx="285.43" cy="208.51" rx="8.29" ry="1.66" transform="translate(-30.08 49.14) rotate(-9.35)"/><ellipse class="cls-2" cx="287.92" cy="230.89" rx="12.43" ry="14.09"/><path class="cls-18" d="m279.72,225.29c-2.99.3-8.16.78-9.62-2.47.5.69,1.26,1.01,2.01,1.12,2.29.27,4.69-.6,6.74-1.52.75-.37,1.66-.05,2.03.7.46.9-.16,2.05-1.16,2.17h0Z"/><path class="cls-18" d="m279.83,224.13c-3.72-.3-7.65-2.88-7.81-6.86.48,1.59,1.86,2.81,3.26,3.5,1.32.58,3.07.61,4.45.36.82-.16,1.62.37,1.79,1.2.22,1-.68,1.95-1.69,1.8h0Z"/><path class="cls-18" d="m283.21,222.37c-.61.48-1.5.49-2.2.3-2.78-.6-5.83-3.25-4.68-6.3-.02,1.48.77,2.72,2.1,3.25.87.36,2.38.7,3.19.31-.13,0-.29.09-.39.18,1.51-1.27,3.44.94,1.97,2.26h0Z"/><circle class="cls-10" cx="283.77" cy="223.43" r="3.32"/><circle class="cls-10" cx="278.87" cy="229.62" r=".49"/><path class="cls-14" d="m292.94,114.85s-51.94,13.4-63.7,75.73"/><path class="cls-14" d="m400.37,130.81s5.77,23.43,39.36,23.03c33.59-.4,38.09,54.12,38.09,54.12"/><path class="cls-14" d="m495.88,230.89s13.53,34.03-8.35,66.11"/><path class="cls-14" d="m167.67,314.07s-29.8-17.5-73.54,12.85c0,0-16.4,17.77-44.29,31.17"/><path class="cls-14" d="m143.08,361.85s18.83-2.79,39.2-28.41c20.37-25.62,42.44-27.59,42.44-27.59"/><path class="cls-14" d="m191.89,407.61s-2.15,15.44-38.89,18.52c0,0-39.45,1-40.65,2.47,0,0-13.5-1.25-32.9,14.77"/><path class="cls-14" d="m242.03,441.49s-22.14,21.05-31.99,23.78-17.22,2.46-42.37,28.98"/><path class="cls-8" d="m384.23,384.09s5.78-12.71,11.34-16.98c2-1.54,3.98-1.98,5.64-.33,1.64,1.63,1.26,3.59-.2,5.6-4.11,5.67-16.78,11.71-16.78,11.71Z"/><path class="cls-8" d="m383.55,383.72s.25-17.3,4.44-24.9c1.51-2.74,3.53-4.22,6.24-3.17s3.21,3.45,2.56,6.46c-1.85,8.47-13.23,21.62-13.23,21.62Z"/><path class="cls-8" d="m382.09,384.09s-5.78-12.71-11.34-16.98c-2-1.54-3.98-1.98-5.64-.33s-1.26,3.59.2,5.6c4.11,5.67,16.78,11.71,16.78,11.71Z"/><path class="cls-8" d="m382.76,383.72s-.25-17.3-4.44-24.9c-1.51-2.74-3.53-4.22-6.24-3.17s-3.21,3.45-2.56,6.46c1.85,8.47,13.23,21.62,13.23,21.62Z"/><path class="cls-8" d="m383.22,383.72s6.42-17.67,5.11-27c-.47-3.37-1.96-5.65-5.11-5.63-3.11.02-4.6,2.27-5.09,5.57-1.39,9.32,5.09,27.06,5.09,27.06Z"/><path class="cls-8" d="m384.3,384.9s5.38-3.71,8.59-3.8c1.16-.03,2.04.4,2.28,1.66s-.39,1.97-1.46,2.39c-2.99,1.16-9.41-.24-9.41-.24Z"/><path class="cls-8" d="m383.39,384.9s-5.38-3.71-8.59-3.8c-1.16-.03-2.04.4-2.28,1.66s.39,1.97,1.46,2.39c2.99,1.16,9.41-.24,9.41-.24Z"/><path class="cls-8" d="m342.99,384.09s5.78-12.71,11.34-16.98c2-1.54,3.98-1.98,5.64-.33s1.26,3.59-.2,5.6c-4.11,5.67-16.78,11.71-16.78,11.71Z"/><path class="cls-8" d="m342.32,383.72s.25-17.3,4.44-24.9c1.51-2.74,3.53-4.22,6.24-3.17s3.21,3.45,2.56,6.46c-1.85,8.47-13.23,21.62-13.23,21.62Z"/><path class="cls-8" d="m340.86,384.09s-5.78-12.71-11.34-16.98c-2-1.54-3.98-1.98-5.64-.33s-1.26,3.59.2,5.6c4.11,5.67,16.78,11.71,16.78,11.71Z"/><path class="cls-8" d="m341.53,383.72s-.25-17.3-4.44-24.9c-1.51-2.74-3.53-4.22-6.24-3.17s-3.21,3.45-2.56,6.46c1.85,8.47,13.23,21.62,13.23,21.62Z"/><path class="cls-8" d="m341.99,383.72s6.42-17.67,5.11-27c-.47-3.37-1.96-5.65-5.11-5.63-3.11.02-4.6,2.27-5.09,5.57-1.39,9.32,5.09,27.06,5.09,27.06Z"/><path class="cls-8" d="m343.07,384.9s5.38-3.71,8.59-3.8c1.16-.03,2.04.4,2.28,1.66s-.39,1.97-1.46,2.39c-2.99,1.16-9.41-.24-9.41-.24Z"/><path class="cls-8" d="m342.16,384.9s-5.38-3.71-8.59-3.8c-1.16-.03-2.04.4-2.28,1.66s.39,1.97,1.46,2.39c2.99,1.16,9.41-.24,9.41-.24Z"/><path class="cls-4" d="m391.08,388.1c-2.32,1.42-12.77,2.2-18.95-1.7"/><path class="cls-4" d="m334.43,388.1c2.32,1.42,12.77,2.2,18.95-1.7"/><path class="cls-4" d="m413.67,347.78c-3.55-3.62-10.03-2.03-21.05-2.97"/><path class="cls-4" d="m306.99,346.3c3.55-3.62,10.03-2.03,21.05-2.97"/><path class="cls-4" d="m275.54,412.7c-1.35.92-5.25,6.85-5.19,15.49"/><g class="cls-23"><path class="cls-9" d="m299.2,747.05h-28.27l.14,13.25c0,7.73,6.27,14,14,14s14-6.27,14-14l.14-13.25Z"/><path class="cls-9" d="m242.52,747.05h-28.27l.14,13.25c0,7.73,6.27,14,14,14s14-6.27,14-14l.14-13.25Z"/><path class="cls-9" d="m214.25,747.05h-28.27l.14,13.25c0,7.73,6.27,14,14,14s14-6.27,14-14l.14-13.25Z"/><path class="cls-9" d="m270.67,747.05h-28.27l.14,13.25c0,7.73,6.27,14,14,14s14-6.27,14-14l.14-13.25Z"/><path class="cls-9" d="m355.75,747.05h-28.27l.14,13.25c0,7.73,6.27,14,14,14s14-6.27,14-14l.14-13.25Z"/><path class="cls-9" d="m327.47,747.05h-28.27l.14,13.25c0,7.73,6.27,14,14,14s14-6.27,14-14l.14-13.25Z"/><path class="cls-9" d="m383.89,747.05h-28.27l.14,13.25c0,7.73,6.27,14,14,14s14-6.27,14-14l.14-13.25Z"/><path class="cls-9" d="m410.8,747.05h-28.27l.14,13.25c0,7.73,6.27,14,14,14s14-6.27,14-14l.14-13.25Z"/><path class="cls-9" d="m438.2,747.05h-28.27l.14,13.25c0,7.73,6.27,14,14,14s14-6.27,14-14l.14-13.25Z"/><path class="cls-9" d="m466.72,747.05h-28.27l.14,13.25c0,7.73,6.27,14,14,14s14-6.27,14-14l.14-13.25Z"/><path class="cls-9" d="m283.82,731.37h-28.27l.14,13.25c0,7.73,6.27,14,14,14s14-6.27,14-14l.14-13.25Z"/><path class="cls-9" d="m227.14,731.37h-28.27l.14,13.25c0,7.73,6.27,14,14,14s14-6.27,14-14l.14-13.25Z"/><path class="cls-9" d="m198.87,731.37h-28.27l.14,13.25c0,7.73,6.27,14,14,14s14-6.27,14-14l.14-13.25Z"/><path class="cls-9" d="m255.29,731.37h-28.27l.14,13.25c0,7.73,6.27,14,14,14s14-6.27,14-14l.14-13.25Z"/><path class="cls-9" d="m340.36,731.37h-28.27l.14,13.25c0,7.73,6.27,14,14,14s14-6.27,14-14l.14-13.25Z"/><path class="cls-9" d="m312.09,731.37h-28.27l.14,13.25c0,7.73,6.27,14,14,14s14-6.27,14-14l.14-13.25Z"/><path class="cls-9" d="m368.51,731.37h-28.27l.14,13.25c0,7.73,6.27,14,14,14s14-6.27,14-14l.14-13.25Z"/><path class="cls-9" d="m395.42,731.37h-28.27l.14,13.25c0,7.73,6.27,14,14,14s14-6.27,14-14l.14-13.25Z"/><path class="cls-9" d="m422.81,731.37h-28.27l.14,13.25c0,7.73,6.27,14,14,14s14-6.27,14-14l.14-13.25Z"/><path class="cls-9" d="m451.22,731.37h-28.27l.14,13.25c0,7.73,6.27,14,14,14s14-6.27,14-14l.14-13.25Z"/><path class="cls-9" d="m296.83,718.58h28.27l-.14,13.25c0,7.73-6.27,14-14,14s-14-6.27-14-14l-.14-13.25Z"/><path class="cls-9" d="m353.51,718.58h28.27l-.14,13.25c0,7.73-6.27,14-14,14s-14-6.27-14-14l-.14-13.25Z"/><path class="cls-9" d="m381.78,718.58h28.27l-.14,13.25c0,7.73-6.27,14-14,14s-14-6.27-14-14l-.14-13.25Z"/><path class="cls-9" d="m410.18,718.58h28.27l-.14,13.25c0,7.73-6.27,14-14,14s-14-6.27-14-14l-.14-13.25Z"/><path class="cls-9" d="m325.36,718.58h28.27l-.14,13.25c0,7.73-6.27,14-14,14s-14-6.27-14-14l-.14-13.25Z"/><path class="cls-9" d="m240.29,718.58h28.27l-.14,13.25c0,7.73-6.27,14-14,14s-14-6.27-14-14l-.14-13.25Z"/><path class="cls-9" d="m268.56,718.58h28.27l-.14,13.25c0,7.73-6.27,14-14,14s-14-6.27-14-14l-.14-13.25Z"/><path class="cls-9" d="m212.14,718.58h28.27l-.14,13.25c0,7.73-6.27,14-14,14s-14-6.27-14-14l-.14-13.25Z"/><path class="cls-9" d="m185.23,718.58h28.27l-.14,13.25c0,7.73-6.27,14-14,14s-14-6.27-14-14l-.14-13.25Z"/><path class="cls-9" d="m438.45,718.58h28.27l-.14,13.25c0,7.73-6.27,14-14,14s-14-6.27-14-14l-.14-13.25Z"/><path class="cls-9" d="m310.68,700.83l-28.27-.27v13.25c-.06,7.73,6.15,14.06,13.88,14.13,7.73.07,14.06-6.13,14.13-13.87l.26-13.25Z"/><path class="cls-9" d="m254,700.83l-28.27-.27v13.25c-.06,7.73,6.15,14.06,13.88,14.13,7.73.07,14.06-6.13,14.13-13.87l.26-13.25Z"/><path class="cls-9" d="m225.73,700.83l-28.27-.27v13.25c-.06,7.73,6.15,14.06,13.88,14.13,7.73.07,14.06-6.13,14.13-13.87l.26-13.25Z"/><path class="cls-9" d="m197.33,700.83l-28.27-.27v13.25c-.06,7.73,6.15,14.06,13.88,14.13,7.73.07,14.06-6.13,14.13-13.87l.26-13.25Z"/><path class="cls-9" d="m282.15,700.83l-28.27-.27v13.25c-.06,7.73,6.15,14.06,13.88,14.13,7.73.07,14.06-6.13,14.13-13.87l.26-13.25Z"/><path class="cls-9" d="m367.22,700.83l-28.27-.27v13.25c-.06,7.73,6.15,14.06,13.88,14.13,7.73.07,14.06-6.13,14.13-13.87l.26-13.25Z"/><path class="cls-9" d="m338.95,700.83l-28.27-.27v13.25c-.06,7.73,6.15,14.06,13.88,14.13,7.73.07,14.06-6.13,14.13-13.87l.26-13.25Z"/><path class="cls-9" d="m395.36,700.83l-28.27-.27v13.25c-.06,7.73,6.15,14.06,13.88,14.13,7.73.07,14.06-6.13,14.13-13.87l.26-13.25Z"/><path class="cls-9" d="m422.27,700.83l-28.27-.27v13.25c-.06,7.73,6.15,14.06,13.88,14.13,7.73.07,14.06-6.13,14.13-13.87l.26-13.25Z"/><path class="cls-9" d="m297.34,685.95h-28.27l.14,13.25c0,7.73,6.27,14,14,14s14-6.27,14-14l.14-13.25Z"/><path class="cls-9" d="m240.66,685.95h-28.27l.14,13.25c0,7.73,6.27,14,14,14s14-6.27,14-14l.14-13.25Z"/><path class="cls-9" d="m212.39,685.95h-28.27l.14,13.25c0,7.73,6.27,14,14,14s14-6.27,14-14l.14-13.25Z"/><path class="cls-9" d="m450.66,700.83l-28.27-.27v13.25c-.06,7.73,6.15,14.06,13.88,14.13,7.73.07,14.06-6.13,14.13-13.87l.26-13.25Z"/><path class="cls-9" d="m268.81,685.95h-28.27l.14,13.25c0,7.73,6.27,14,14,14s14-6.27,14-14l.14-13.25Z"/><path class="cls-9" d="m353.88,685.95h-28.27l.14,13.25c0,7.73,6.27,14,14,14s14-6.27,14-14l.14-13.25Z"/><path class="cls-9" d="m325.61,685.95h-28.27l.14,13.25c0,7.73,6.27,14,14,14s14-6.27,14-14l.14-13.25Z"/><path class="cls-9" d="m382.03,685.95h-28.27l.14,13.25c0,7.73,6.27,14,14,14s14-6.27,14-14l.14-13.25Z"/><path class="cls-9" d="m408.94,685.95h-28.27l.14,13.25c0,7.73,6.27,14,14,14s14-6.27,14-14l.14-13.25Z"/><path class="cls-9" d="m436.33,685.95h-28.27l.14,13.25c0,7.73,6.27,14,14,14s14-6.27,14-14l.14-13.25Z"/><path class="cls-9" d="m464.86,685.95h-28.27l.14,13.25c0,7.73,6.27,14,14,14s14-6.27,14-14l.14-13.25Z"/><path class="cls-9" d="m283.21,669.58h-28.27l.14,13.25c0,7.73,6.27,14,14,14s14-6.27,14-14l.14-13.25Z"/><path class="cls-9" d="m226.54,669.58h-28.27l.14,13.25c0,7.73,6.27,14,14,14s14-6.27,14-14l.14-13.25Z"/><path class="cls-9" d="m198.27,669.58h-28.27l.14,13.25c0,7.73,6.27,14,14,14s14-6.27,14-14l.14-13.25Z"/><path class="cls-9" d="m254.68,669.58h-28.27l.14,13.25c0,7.73,6.27,14,14,14s14-6.27,14-14l.14-13.25Z"/><path class="cls-9" d="m339.76,669.58h-28.27l.14,13.25c0,7.73,6.27,14,14,14s14-6.27,14-14l.14-13.25Z"/><path class="cls-9" d="m311.49,669.58h-28.27l.14,13.25c0,7.73,6.27,14,14,14s14-6.27,14-14l.14-13.25Z"/><path class="cls-9" d="m367.9,669.58h-28.27l.14,13.25c0,7.73,6.27,14,14,14s14-6.27,14-14l.14-13.25Z"/><path class="cls-9" d="m394.81,669.58h-28.27l.14,13.25c0,7.73,6.27,14,14,14s14-6.27,14-14l.14-13.25Z"/><path class="cls-9" d="m422.21,669.58h-28.27l.14,13.25c0,7.73,6.27,14,14,14s14-6.27,14-14l.14-13.25Z"/><path class="cls-9" d="m450.61,669.58h-28.27l.14,13.25c0,7.73,6.27,14,14,14s14-6.27,14-14l.14-13.25Z"/><path class="cls-9" d="m294.97,653.32h28.27l-.14,13.25c0,7.73-6.27,14-14,14s-14-6.27-14-14l-.14-13.25Z"/><path class="cls-9" d="m351.65,653.32h28.27l-.14,13.25c0,7.73-6.27,14-14,14s-14-6.27-14-14l-.14-13.25Z"/><path class="cls-9" d="m379.92,653.32h28.27l-.14,13.25c0,7.73-6.27,14-14,14s-14-6.27-14-14l-.14-13.25Z"/><path class="cls-9" d="m408.32,653.32h28.27l-.14,13.25c0,7.73-6.27,14-14,14s-14-6.27-14-14l-.14-13.25Z"/><path class="cls-9" d="m323.5,653.32h28.27l-.14,13.25c0,7.73-6.27,14-14,14s-14-6.27-14-14l-.14-13.25Z"/><path class="cls-9" d="m238.43,653.32h28.27l-.14,13.25c0,7.73-6.27,14-14,14s-14-6.27-14-14l-.14-13.25Z"/><path class="cls-9" d="m266.7,653.32h28.27l-.14,13.25c0,7.73-6.27,14-14,14s-14-6.27-14-14l-.14-13.25Z"/><path class="cls-9" d="m210.28,653.32h28.27l-.14,13.25c0,7.73-6.27,14-14,14s-14-6.27-14-14l-.14-13.25Z"/><path class="cls-9" d="m183.37,653.32h28.27l-.14,13.25c0,7.73-6.27,14-14,14s-14-6.27-14-14l-.14-13.25Z"/><path class="cls-9" d="m436.59,653.32h28.27l-.14,13.25c0,7.73-6.27,14-14,14s-14-6.27-14-14l-.14-13.25Z"/><path class="cls-9" d="m308.62,636.95h28.27l-.14,13.25c0,7.73-6.27,14-14,14s-14-6.27-14-14l-.14-13.25Z"/><path class="cls-9" d="m365.3,636.95h28.27l-.14,13.25c0,7.73-6.27,14-14,14s-14-6.27-14-14l-.14-13.25Z"/><path class="cls-9" d="m393.57,636.95h28.27l-.14,13.25c0,7.73-6.27,14-14,14s-14-6.27-14-14l-.14-13.25Z"/><path class="cls-9" d="m421.97,636.95h28.27l-.14,13.25c0,7.73-6.27,14-14,14s-14-6.27-14-14l-.14-13.25Z"/><path class="cls-9" d="m337.15,636.95h28.27l-.14,13.25c0,7.73-6.27,14-14,14s-14-6.27-14-14l-.14-13.25Z"/><path class="cls-9" d="m252.07,636.95h28.27l-.14,13.25c0,7.73-6.27,14-14,14s-14-6.27-14-14l-.14-13.25Z"/><path class="cls-9" d="m280.35,636.95h28.27l-.14,13.25c0,7.73-6.27,14-14,14s-14-6.27-14-14l-.14-13.25Z"/><path class="cls-9" d="m223.93,636.95h28.27l-.14,13.25c0,7.73-6.27,14-14,14s-14-6.27-14-14l-.14-13.25Z"/><path class="cls-9" d="m197.02,636.95h28.27l-.14,13.25c0,7.73-6.27,14-14,14s-14-6.27-14-14l-.14-13.25Z"/><path class="cls-9" d="m465.26,622.38l-28.26-.86-.27,13.25c-.24,7.73,5.84,14.18,13.56,14.42,7.73.24,14.18-5.84,14.42-13.56l.54-13.24Z"/><path class="cls-9" d="m169.62,636.95h28.27l-.14,13.25c0,7.73-6.27,14-14,14s-14-6.27-14-14l-.14-13.25Z"/><path class="cls-9" d="m293.99,621.51h28.27l-.14,13.25c0,7.73-6.27,14-14,14s-14-6.27-14-14l-.14-13.25Z"/><path class="cls-9" d="m378.94,621.51h28.27l-.14,13.25c0,7.73-6.27,14-14,14s-14-6.27-14-14l-.14-13.25Z"/><path class="cls-9" d="m407.34,621.51h28.27l-.14,13.25c0,7.73-6.27,14-14,14s-14-6.27-14-14l-.14-13.25Z"/><path class="cls-9" d="m322.53,621.51h28.27l-.14,13.25c0,7.73-6.27,14-14,14s-14-6.27-14-14l-.14-13.25Z"/><path class="cls-9" d="m237.45,621.51h28.27l-.14,13.25c0,7.73-6.27,14-14,14s-14-6.27-14-14l-.14-13.25Z"/><path class="cls-9" d="m265.72,621.51h28.27l-.14,13.25c0,7.73-6.27,14-14,14s-14-6.27-14-14l-.14-13.25Z"/><path class="cls-9" d="m209.3,621.51h28.27l-.14,13.25c0,7.73-6.27,14-14,14s-14-6.27-14-14l-.14-13.25Z"/><path class="cls-9" d="m182.4,621.51h28.27l-.14,13.25c0,7.73-6.27,14-14,14s-14-6.27-14-14l-.14-13.25Z"/><path class="cls-9" d="m350.67,621.51h28.27l-.14,13.25c0,7.73-6.27,14-14,14s-14-6.27-14-14l-.14-13.25Z"/><path class="cls-9" d="m307.64,605.15h28.27l-.14,13.25c0,7.73-6.27,14-14,14s-14-6.27-14-14l-.14-13.25Z"/><path class="cls-9" d="m364.32,605.15h28.27l-.14,13.25c0,7.73-6.27,14-14,14s-14-6.27-14-14l-.14-13.25Z"/><path class="cls-9" d="m392.59,605.15h28.27l-.14,13.25c0,7.73-6.27,14-14,14s-14-6.27-14-14l-.14-13.25Z"/><path class="cls-9" d="m420.99,605.15h28.27l-.14,13.25c0,7.73-6.27,14-14,14s-14-6.27-14-14l-.14-13.25Z"/><path class="cls-9" d="m336.17,605.15h28.27l-.14,13.25c0,7.73-6.27,14-14,14s-14-6.27-14-14l-.14-13.25Z"/><path class="cls-9" d="m251.1,605.15h28.27l-.14,13.25c0,7.73-6.27,14-14,14s-14-6.27-14-14l-.14-13.25Z"/><path class="cls-9" d="m279.37,605.15h28.27l-.14,13.25c0,7.73-6.27,14-14,14s-14-6.27-14-14l-.14-13.25Z"/><path class="cls-9" d="m222.95,605.15h28.27l-.14,13.25c0,7.73-6.27,14-14,14s-14-6.27-14-14l-.14-13.25Z"/><path class="cls-9" d="m196.05,605.15h28.27l-.14,13.25c0,7.73-6.27,14-14,14s-14-6.27-14-14l-.14-13.25Z"/><path class="cls-9" d="m168.65,605.15h28.27l-.14,13.25c0,7.73-6.27,14-14,14s-14-6.27-14-14l-.14-13.25Z"/><path class="cls-9" d="m296.17,589.13h-28.27l.14,13.25c0,7.73,6.27,14,14,14s14-6.27,14-14l.14-13.25Z"/><path class="cls-9" d="m239.49,589.13h-28.27l.14,13.25c0,7.73,6.27,14,14,14s14-6.27,14-14l.14-13.25Z"/><path class="cls-9" d="m211.22,589.13h-28.27l.14,13.25c0,7.73,6.27,14,14,14s14-6.27,14-14l.14-13.25Z"/><path class="cls-9" d="m267.64,589.13h-28.27l.14,13.25c0,7.73,6.27,14,14,14s14-6.27,14-14l.14-13.25Z"/><path class="cls-9" d="m352.71,589.13h-28.27l.14,13.25c0,7.73,6.27,14,14,14s14-6.27,14-14l.14-13.25Z"/><path class="cls-9" d="m324.44,589.13h-28.27l.14,13.25c0,7.73,6.27,14,14,14s14-6.27,14-14l.14-13.25Z"/><path class="cls-9" d="m380.86,589.13h-28.27l.14,13.25c0,7.73,6.27,14,14,14s14-6.27,14-14l.14-13.25Z"/><path class="cls-9" d="m407.77,589.13h-28.27l.14,13.25c0,7.73,6.27,14,14,14s14-6.27,14-14l.14-13.25Z"/><path class="cls-9" d="m435.16,589.13h-28.27l.14,13.25c0,7.73,6.27,14,14,14s14-6.27,14-14l.14-13.25Z"/><path class="cls-9" d="m463.69,589.13h-28.27l.14,13.25c0,7.73,6.27,14,14,14s14-6.27,14-14l.14-13.25Z"/><path class="cls-9" d="m280.79,573.46h-28.27l.14,13.25c0,7.73,6.27,14,14,14s14-6.27,14-14l.14-13.25Z"/><path class="cls-9" d="m224.11,573.46h-28.27l.14,13.25c0,7.73,6.27,14,14,14s14-6.27,14-14l.14-13.25Z"/><path class="cls-9" d="m195.84,573.46h-28.27l.14,13.25c0,7.73,6.27,14,14,14s14-6.27,14-14l.14-13.25Z"/><path class="cls-9" d="m252.26,573.46h-28.27l.14,13.25c0,7.73,6.27,14,14,14s14-6.27,14-14l.14-13.25Z"/><path class="cls-9" d="m337.33,573.46h-28.27l.14,13.25c0,7.73,6.27,14,14,14s14-6.27,14-14l.14-13.25Z"/><path class="cls-9" d="m309.06,573.46h-28.27l.14,13.25c0,7.73,6.27,14,14,14s14-6.27,14-14l.14-13.25Z"/><path class="cls-9" d="m365.48,573.46h-28.27l.14,13.25c0,7.73,6.27,14,14,14s14-6.27,14-14l.14-13.25Z"/><path class="cls-9" d="m392.38,573.46h-28.27l.14,13.25c0,7.73,6.27,14,14,14s14-6.27,14-14l.14-13.25Z"/><path class="cls-9" d="m419.78,573.46h-28.27l.14,13.25c0,7.73,6.27,14,14,14s14-6.27,14-14l.14-13.25Z"/><path class="cls-9" d="m448.19,573.46h-28.27l.14,13.25c0,7.73,6.27,14,14,14s14-6.27,14-14l.14-13.25Z"/><path class="cls-9" d="m293.8,560.66h28.27l-.14,13.25c0,7.73-6.27,14-14,14s-14-6.27-14-14l-.14-13.25Z"/><path class="cls-9" d="m350.47,560.66h28.27l-.14,13.25c0,7.73-6.27,14-14,14s-14-6.27-14-14l-.14-13.25Z"/><path class="cls-9" d="m378.75,560.66h28.27l-.14,13.25c0,7.73-6.27,14-14,14s-14-6.27-14-14l-.14-13.25Z"/><path class="cls-9" d="m407.15,560.66h28.27l-.14,13.25c0,7.73-6.27,14-14,14s-14-6.27-14-14l-.14-13.25Z"/><path class="cls-9" d="m322.33,560.66h28.27l-.14,13.25c0,7.73-6.27,14-14,14s-14-6.27-14-14l-.14-13.25Z"/><path class="cls-9" d="m237.25,560.66h28.27l-.14,13.25c0,7.73-6.27,14-14,14s-14-6.27-14-14l-.14-13.25Z"/><path class="cls-9" d="m265.52,560.66h28.27l-.14,13.25c0,7.73-6.27,14-14,14s-14-6.27-14-14l-.14-13.25Z"/><path class="cls-9" d="m209.11,560.66h28.27l-.14,13.25c0,7.73-6.27,14-14,14s-14-6.27-14-14l-.14-13.25Z"/><path class="cls-9" d="m182.2,560.66h28.27l-.14,13.25c0,7.73-6.27,14-14,14s-14-6.27-14-14l-.14-13.25Z"/><path class="cls-9" d="m435.42,560.66h28.27l-.14,13.25c0,7.73-6.27,14-14,14s-14-6.27-14-14l-.14-13.25Z"/><path class="cls-9" d="m305.31,543l-28.27-.27v13.25c-.06,7.73,6.15,14.06,13.88,14.13,7.73.07,14.06-6.13,14.13-13.87l.26-13.25Z"/><path class="cls-9" d="m248.64,543l-28.27-.27v13.25c-.06,7.73,6.15,14.06,13.88,14.13,7.73.07,14.06-6.13,14.13-13.87l.26-13.25Z"/><path class="cls-9" d="m220.37,543l-28.27-.27v13.25c-.06,7.73,6.15,14.06,13.88,14.13,7.73.07,14.06-6.13,14.13-13.87l.26-13.25Z"/><path class="cls-9" d="m191.97,543l-28.27-.27v13.25c-.06,7.73,6.15,14.06,13.88,14.13,7.73.07,14.06-6.13,14.13-13.87l.26-13.25Z"/><path class="cls-9" d="m276.78,543l-28.27-.27v13.25c-.06,7.73,6.15,14.06,13.88,14.13,7.73.07,14.06-6.13,14.13-13.87l.26-13.25Z"/><path class="cls-9" d="m361.85,543l-28.27-.27v13.25c-.06,7.73,6.15,14.06,13.88,14.13,7.73.07,14.06-6.13,14.13-13.87l.26-13.25Z"/><path class="cls-9" d="m333.58,543l-28.27-.27v13.25c-.06,7.73,6.15,14.06,13.88,14.13,7.73.07,14.06-6.13,14.13-13.87l.26-13.25Z"/><path class="cls-9" d="m390,543l-28.27-.27v13.25c-.06,7.73,6.15,14.06,13.88,14.13,7.73.07,14.06-6.13,14.13-13.87l.26-13.25Z"/><path class="cls-9" d="m416.91,543l-28.27-.27v13.25c-.06,7.73,6.15,14.06,13.88,14.13,7.73.07,14.06-6.13,14.13-13.87l.26-13.25Z"/><path class="cls-9" d="m291.98,528.12h-28.27l.14,13.25c0,7.73,6.27,14,14,14s14-6.27,14-14l.14-13.25Z"/><path class="cls-9" d="m235.3,528.12h-28.27l.14,13.25c0,7.73,6.27,14,14,14s14-6.27,14-14l.14-13.25Z"/><path class="cls-9" d="m207.03,528.12h-28.27l.14,13.25c0,7.73,6.27,14,14,14s14-6.27,14-14l.14-13.25Z"/><path class="cls-9" d="m445.29,543l-28.27-.27v13.25c-.06,7.73,6.15,14.06,13.88,14.13,7.73.07,14.06-6.13,14.13-13.87l.26-13.25Z"/><path class="cls-9" d="m263.45,528.12h-28.27l.14,13.25c0,7.73,6.27,14,14,14s14-6.27,14-14l.14-13.25Z"/><path class="cls-9" d="m348.52,528.12h-28.27l.14,13.25c0,7.73,6.27,14,14,14s14-6.27,14-14l.14-13.25Z"/><path class="cls-9" d="m320.25,528.12h-28.27l.14,13.25c0,7.73,6.27,14,14,14s14-6.27,14-14l.14-13.25Z"/><path class="cls-9" d="m376.67,528.12h-28.27l.14,13.25c0,7.73,6.27,14,14,14s14-6.27,14-14l.14-13.25Z"/><path class="cls-9" d="m403.57,528.12h-28.27l.14,13.25c0,7.73,6.27,14,14,14s14-6.27,14-14l.14-13.25Z"/><path class="cls-9" d="m430.97,528.12h-28.27l.14,13.25c0,7.73,6.27,14,14,14s14-6.27,14-14l.14-13.25Z"/><path class="cls-9" d="m459.5,528.12h-28.27l.14,13.25c0,7.73,6.27,14,14,14s14-6.27,14-14l.14-13.25Z"/><path class="cls-9" d="m277.85,511.75h-28.27l.14,13.25c0,7.73,6.27,14,14,14s14-6.27,14-14l.14-13.25Z"/><path class="cls-9" d="m221.17,511.75h-28.27l.14,13.25c0,7.73,6.27,14,14,14s14-6.27,14-14l.14-13.25Z"/><path class="cls-9" d="m192.9,511.75h-28.27l.14,13.25c0,7.73,6.27,14,14,14s14-6.27,14-14l.14-13.25Z"/><path class="cls-9" d="m249.32,511.75h-28.27l.14,13.25c0,7.73,6.27,14,14,14s14-6.27,14-14l.14-13.25Z"/><path class="cls-9" d="m334.39,511.75h-28.27l.14,13.25c0,7.73,6.27,14,14,14s14-6.27,14-14l.14-13.25Z"/><path class="cls-9" d="m306.12,511.75h-28.27l.14,13.25c0,7.73,6.27,14,14,14s14-6.27,14-14l.14-13.25Z"/><path class="cls-9" d="m362.54,511.75h-28.27l.14,13.25c0,7.73,6.27,14,14,14s14-6.27,14-14l.14-13.25Z"/><path class="cls-9" d="m389.45,511.75h-28.27l.14,13.25c0,7.73,6.27,14,14,14s14-6.27,14-14l.14-13.25Z"/><path class="cls-9" d="m416.84,511.75h-28.27l.14,13.25c0,7.73,6.27,14,14,14s14-6.27,14-14l.14-13.25Z"/><path class="cls-9" d="m445.25,511.75h-28.27l.14,13.25c0,7.73,6.27,14,14,14s14-6.27,14-14l.14-13.25Z"/><path class="cls-9" d="m289.6,495.49h28.27l-.14,13.25c0,7.73-6.27,14-14,14s-14-6.27-14-14l-.14-13.25Z"/><path class="cls-9" d="m346.28,495.49h28.27l-.14,13.25c0,7.73-6.27,14-14,14s-14-6.27-14-14l-.14-13.25Z"/><path class="cls-9" d="m374.55,495.49h28.27l-.14,13.25c0,7.73-6.27,14-14,14s-14-6.27-14-14l-.14-13.25Z"/><path class="cls-9" d="m402.95,495.49h28.27l-.14,13.25c0,7.73-6.27,14-14,14s-14-6.27-14-14l-.14-13.25Z"/><path class="cls-9" d="m318.13,495.49h28.27l-.14,13.25c0,7.73-6.27,14-14,14s-14-6.27-14-14l-.14-13.25Z"/><path class="cls-9" d="m233.06,495.49h28.27l-.14,13.25c0,7.73-6.27,14-14,14s-14-6.27-14-14l-.14-13.25Z"/><path class="cls-9" d="m261.33,495.49h28.27l-.14,13.25c0,7.73-6.27,14-14,14s-14-6.27-14-14l-.14-13.25Z"/><path class="cls-9" d="m204.91,495.49h28.27l-.14,13.25c0,7.73-6.27,14-14,14s-14-6.27-14-14l-.14-13.25Z"/><path class="cls-9" d="m178.01,495.49h28.27l-.14,13.25c0,7.73-6.27,14-14,14s-14-6.27-14-14l-.14-13.25Z"/><path class="cls-9" d="m431.22,495.49h28.27l-.14,13.25c0,7.73-6.27,14-14,14s-14-6.27-14-14l-.14-13.25Z"/><path class="cls-9" d="m303.25,479.12h28.27l-.14,13.25c0,7.73-6.27,14-14,14s-14-6.27-14-14l-.14-13.25Z"/><path class="cls-9" d="m359.93,479.12h28.27l-.14,13.25c0,7.73-6.27,14-14,14s-14-6.27-14-14l-.14-13.25Z"/><path class="cls-9" d="m388.2,479.12h28.27l-.14,13.25c0,7.73-6.27,14-14,14s-14-6.27-14-14l-.14-13.25Z"/><path class="cls-9" d="m416.6,479.12h28.27l-.14,13.25c0,7.73-6.27,14-14,14s-14-6.27-14-14l-.14-13.25Z"/><path class="cls-9" d="m331.78,479.12h28.27l-.14,13.25c0,7.73-6.27,14-14,14s-14-6.27-14-14l-.14-13.25Z"/><path class="cls-9" d="m246.71,479.12h28.27l-.14,13.25c0,7.73-6.27,14-14,14s-14-6.27-14-14l-.14-13.25Z"/><path class="cls-9" d="m274.98,479.12h28.27l-.14,13.25c0,7.73-6.27,14-14,14s-14-6.27-14-14l-.14-13.25Z"/><path class="cls-9" d="m218.56,479.12h28.27l-.14,13.25c0,7.73-6.27,14-14,14s-14-6.27-14-14l-.14-13.25Z"/><path class="cls-9" d="m191.65,479.12h28.27l-.14,13.25c0,7.73-6.27,14-14,14s-14-6.27-14-14l-.14-13.25Z"/><path class="cls-9" d="m459.9,464.55l-28.26-.86-.27,13.25c-.24,7.73,5.84,14.18,13.56,14.42,7.73.24,14.18-5.84,14.42-13.56l.54-13.24Z"/><path class="cls-9" d="m164.26,479.12h28.27l-.14,13.25c0,7.73-6.27,14-14,14s-14-6.27-14-14l-.14-13.25Z"/><path class="cls-9" d="m288.63,463.68h28.27l-.14,13.25c0,7.73-6.27,14-14,14s-14-6.27-14-14l-.14-13.25Z"/><path class="cls-9" d="m373.58,463.68h28.27l-.14,13.25c0,7.73-6.27,14-14,14s-14-6.27-14-14l-.14-13.25Z"/><path class="cls-9" d="m401.98,463.68h28.27l-.14,13.25c0,7.73-6.27,14-14,14s-14-6.27-14-14l-.14-13.25Z"/><path class="cls-9" d="m317.16,463.68h28.27l-.14,13.25c0,7.73-6.27,14-14,14s-14-6.27-14-14l-.14-13.25Z"/><path class="cls-9" d="m232.09,463.68h28.27l-.14,13.25c0,7.73-6.27,14-14,14s-14-6.27-14-14l-.14-13.25Z"/><path class="cls-9" d="m260.36,463.68h28.27l-.14,13.25c0,7.73-6.27,14-14,14s-14-6.27-14-14l-.14-13.25Z"/><path class="cls-9" d="m203.94,463.68h28.27l-.14,13.25c0,7.73-6.27,14-14,14s-14-6.27-14-14l-.14-13.25Z"/><path class="cls-9" d="m177.03,463.68h28.27l-.14,13.25c0,7.73-6.27,14-14,14s-14-6.27-14-14l-.14-13.25Z"/><path class="cls-9" d="m345.31,463.68h28.27l-.14,13.25c0,7.73-6.27,14-14,14s-14-6.27-14-14l-.14-13.25Z"/><path class="cls-9" d="m302.28,447.32h28.27l-.14,13.25c0,7.73-6.27,14-14,14s-14-6.27-14-14l-.14-13.25Z"/><path class="cls-9" d="m358.96,447.32h28.27l-.14,13.25c0,7.73-6.27,14-14,14s-14-6.27-14-14l-.14-13.25Z"/><path class="cls-9" d="m387.23,447.32h28.27l-.14,13.25c0,7.73-6.27,14-14,14s-14-6.27-14-14l-.14-13.25Z"/><path class="cls-9" d="m415.63,447.32h28.27l-.14,13.25c0,7.73-6.27,14-14,14s-14-6.27-14-14l-.14-13.25Z"/><path class="cls-9" d="m330.81,447.32h28.27l-.14,13.25c0,7.73-6.27,14-14,14s-14-6.27-14-14l-.14-13.25Z"/><path class="cls-9" d="m245.74,447.32h28.27l-.14,13.25c0,7.73-6.27,14-14,14s-14-6.27-14-14l-.14-13.25Z"/><path class="cls-9" d="m274.01,447.32h28.27l-.14,13.25c0,7.73-6.27,14-14,14s-14-6.27-14-14l-.14-13.25Z"/><path class="cls-9" d="m217.59,447.32h28.27l-.14,13.25c0,7.73-6.27,14-14,14s-14-6.27-14-14l-.14-13.25Z"/><path class="cls-9" d="m190.68,447.32h28.27l-.14,13.25c0,7.73-6.27,14-14,14s-14-6.27-14-14l-.14-13.25Z"/><path class="cls-9" d="m290.8,431.3h-28.27l.14,13.25c0,7.73,6.27,14,14,14s14-6.27,14-14l.14-13.25Z"/><path class="cls-9" d="m234.13,431.3h-28.27l.14,13.25c0,7.73,6.27,14,14,14s14-6.27,14-14l.14-13.25Z"/><path class="cls-9" d="m205.85,431.3h-28.27l.14,13.25c0,7.73,6.27,14,14,14s14-6.27,14-14l.14-13.25Z"/><path class="cls-9" d="m262.27,431.3h-28.27l.14,13.25c0,7.73,6.27,14,14,14s14-6.27,14-14l.14-13.25Z"/><path class="cls-9" d="m347.35,431.3h-28.27l.14,13.25c0,7.73,6.27,14,14,14s14-6.27,14-14l.14-13.25Z"/><path class="cls-9" d="m319.08,431.3h-28.27l.14,13.25c0,7.73,6.27,14,14,14s14-6.27,14-14l.14-13.25Z"/><path class="cls-9" d="m375.49,431.3h-28.27l.14,13.25c0,7.73,6.27,14,14,14s14-6.27,14-14l.14-13.25Z"/><path class="cls-9" d="m402.4,431.3h-28.27l.14,13.25c0,7.73,6.27,14,14,14s14-6.27,14-14l.14-13.25Z"/><path class="cls-9" d="m429.8,431.3h-28.27l.14,13.25c0,7.73,6.27,14,14,14s14-6.27,14-14l.14-13.25Z"/><path class="cls-9" d="m458.32,431.3h-28.27l.14,13.25c0,7.73,6.27,14,14,14s14-6.27,14-14l.14-13.25Z"/><path class="cls-9" d="m275.42,415.63h-28.27l.14,13.25c0,7.73,6.27,14,14,14s14-6.27,14-14l.14-13.25Z"/><path class="cls-9" d="m218.74,415.63h-28.27l.14,13.25c0,7.73,6.27,14,14,14s14-6.27,14-14l.14-13.25Z"/><path class="cls-9" d="m246.89,415.63h-28.27l.14,13.25c0,7.73,6.27,14,14,14s14-6.27,14-14l.14-13.25Z"/><path class="cls-9" d="m331.96,415.63h-28.27l.14,13.25c0,7.73,6.27,14,14,14s14-6.27,14-14l.14-13.25Z"/><path class="cls-9" d="m303.69,415.63h-28.27l.14,13.25c0,7.73,6.27,14,14,14s14-6.27,14-14l.14-13.25Z"/><path class="cls-9" d="m360.11,415.63h-28.27l.14,13.25c0,7.73,6.27,14,14,14s14-6.27,14-14l.14-13.25Z"/><path class="cls-9" d="m387.02,415.63h-28.27l.14,13.25c0,7.73,6.27,14,14,14s14-6.27,14-14l.14-13.25Z"/><path class="cls-9" d="m414.42,415.63h-28.27l.14,13.25c0,7.73,6.27,14,14,14s14-6.27,14-14l.14-13.25Z"/><path class="cls-9" d="m442.82,415.63h-28.27l.14,13.25c0,7.73,6.27,14,14,14s14-6.27,14-14l.14-13.25Z"/><path class="cls-9" d="m288.43,402.83h28.27l-.14,13.25c0,7.73-6.27,14-14,14s-14-6.27-14-14l-.14-13.25Z"/><path class="cls-9" d="m345.11,402.83h28.27l-.14,13.25c0,7.73-6.27,14-14,14s-14-6.27-14-14l-.14-13.25Z"/><path class="cls-9" d="m373.38,402.83h28.27l-.14,13.25c0,7.73-6.27,14-14,14s-14-6.27-14-14l-.14-13.25Z"/><path class="cls-9" d="m401.78,402.83h28.27l-.14,13.25c0,7.73-6.27,14-14,14s-14-6.27-14-14l-.14-13.25Z"/><path class="cls-9" d="m316.96,402.83h28.27l-.14,13.25c0,7.73-6.27,14-14,14s-14-6.27-14-14l-.14-13.25Z"/><path class="cls-9" d="m231.89,402.83h28.27l-.14,13.25c0,7.73-6.27,14-14,14s-14-6.27-14-14l-.14-13.25Z"/><path class="cls-9" d="m260.16,402.83h28.27l-.14,13.25c0,7.73-6.27,14-14,14s-14-6.27-14-14l-.14-13.25Z"/><path class="cls-9" d="m203.74,402.83h28.27l-.14,13.25c0,7.73-6.27,14-14,14s-14-6.27-14-14l-.14-13.25Z"/><path class="cls-9" d="m176.83,402.83h28.27l-.14,13.25c0,7.73-6.27,14-14,14s-14-6.27-14-14l-.14-13.25Z"/><path class="cls-9" d="m430.05,402.83h28.27l-.14,13.25c0,7.73-6.27,14-14,14s-14-6.27-14-14l-.14-13.25Z"/></g><path class="cls-13" d="m362.18,710.98c58.66-24.48,72.95-92.95,72.95-92.95,28.95-119.54-22.64-189.1-35.43-204.06-1.67-1.95-4.1-3.06-6.66-3.06h-61.14c-2.01,0-3.92.86-5.26,2.36-11.92,13.37-66.95,83.24-37.52,204.77,0,0,14.22,63.29-75.32,38.61-.12-.03-.24-.07-.36-.12l-24.32-8.82c-.22-.08-.44-.18-.64-.29-3.56-1.97-37.06-20.08-7.91,13.42,30.99,35.63,40.64,40.56,72.3,50.14,32.23,9.75,63.04,9.73,109.32,0"/><path class="cls-14" d="m357.67,131.6s-9.02,26.25-44.56,33.08c-35.54,6.83-79.56,35.27-95.69,71.9"/><path class="cls-1" d="m275.86,181.21s-4.5-3.41-4.54-9.61,6.49-3.57,6.49-3.57c0,0,6.24,3.56,9.7,1.48s6.56-2.09,6.56-2.09l10.91-1.5s5.95-3.81,4.34-3.97-5.71,1.33-5.71,1.33c0,0-3.96,1.58-4.89-2.24-.93-3.82.11-3.02.92-5.29s5.64-.81,5.64-.81l9.6-1.14s12.87-6.12,6.92-6.61-7.19.13-7.19.13c0,0-4.26-.73-11.89,3.54-7.63,4.27-10.31,7.9-10.31,7.9,0,0-3.09,4.67-12.1,6.86s-11.04-.44-14.73-1.42-10.02-7.03-10.02-7.03c0,0-4.07-8.85-.88-10.12s8.17,7.69,18.22,9.31c10.04,1.62,5.84-1.81,5.84-1.81-10.08-7.82-5.87-11.09-5.87-11.09,0,0,1.82-2.06,11.11,2.43s7.91-1.09,7.91-1.09c0,0-3.32-12.81.88-13.98s5.69,10.21,5.69,10.21c2.87.85,2.94-1.86,6.16-3.94s-.08-2.09-.08-2.09c-17.93-9.44-18.5-17.19-18.5-17.19,0,0,.45-2.84-2.92-1.35-3.37,1.49-13.23,1.96-13.23,1.96-14.16-1.76-11.54-10.7-14.96-24.7s3.05-14.37,3.05-14.37c0,0,9.75.55,7,10.29-2.75,9.74,4.31,15.03,4.31,15.03,0,0,11.28,2.02,12.3-1.17s.13-11.11.13-11.11c0,0,7.67-18.67,9.05-.59s6.74,18.82,9.08,22.71,2.21.11,2.21.11c0,0-2.07-13.42,6.75-12.07s1.18,13.47,3.85,20.04,8.93,4.92,14.67,9.92,2.95-1.76,2.95-1.76c-2.28-20.41-16.34-27.88-21.35-31.44-5.01-3.56-25.77-19.06-25.77-19.06,0,0-9.58-8.87-5.48-11.22,4.1-2.36,14.41,8.14,14.41,8.14,0,0,16.52,11.66,11.37,4.21-5.15-7.45-5.6-17.21-5.6-17.21,0,0,.62-13.56,6.52-14.67s3.11,19.53,4.27,23.73c1.17,4.2,6.64,14.22,12.57,20.21,5.92,5.98,4.01-1.05,4.01-1.05-6.35-8.55-7.9-33.22-7.9-33.22,0,0,3.48-19.71,14.85-22.4,11.37-2.69-2.81,15.95-2.81,15.95,0,0-1.88,20.87,6.39,15.85,8.27-5.02,9.5-13.73,18.77-22.14s7.45,5.15,7.45,5.15c0,0-7.79,20.78-15.48,22.06s-7.88,34.6-6.79,39.1,2.64.47,2.64.47c-.95-2.82-1.04-11.91-1.04-11.91,2.06-10.78,9.33-14.62,9.33-14.62,0,0,10.18-2.59,3.96,8.66-6.22,11.25-3.1,11.47-4.55,16.6-1.45,5.13,1.74,2.75,1.74,2.75,0,0,2.9-11.46,10.41-13.61s3.61,11.59,3.61,11.59c0,0-3.15,6.28-8.4,9.14-5.25,2.86-1.9,4.57-1.9,4.57,18.12-4.38,17.04-1.89,23.01,1.19,5.97,3.08,4.52-.89,4.52-.89l-13.39-11.33s-5.85-5.09-2.08-7.82,9.13,1.5,12.79,4.48c3.66,2.98,4.79.98,4.79.98,4.53-4.2-4.6-11.5-4.6-11.5,0,0-5.04-3.86-8.69-2.14s-23.25-13.07-17.81-22.95c5.44-9.88,9.5-.03,9.5-.03,0,0,2.67,13.37,8.38,11.17s9.55,2.87,13.25,6.25c3.7,3.38,2.66-.43,2.66-.43,3.06-5.07-5.06-17.86-5.06-17.86-21.77-20.2-16.03-41.61-16.03-41.61,0,0,1.85-5.16,6.5-5.77,4.65-.61,3.88-2.54,3.88-2.54,4.83-19.13,3.12-12.37,6.99-15.01s3.53,19.8,2.86,23.56-5.26,5.06-5.95,6.32.08,5.49.37,11.17c.3,5.68,3.65,2.88,3.65,2.88,0,0,1.69-7.05,8.11-11.36,6.43-4.31,7.37,4.26,7.8,8.02.43,3.76-9.04,13.29-9.04,13.29,0,0,1.63,18.66,4.24,16.43s3.88-5.94,3.88-5.94c0,0-.04-9.6,7.57-12.96,7.61-3.36,1.97,13.43,1.97,13.43-15.02,17.01-11.12,19.27-11.12,19.27,0,0,5.08,2.06,12.77-4.92s7.43-24.85,7.43-24.85c0,0,1.03-13.39,5.82-18.11,4.79-4.72,8.13,16.39,6.59,19.33s.75,4.14.68,3.32,4.67-6.17,4.67-6.17c0,0,4.9-.43,3.92,4.05s-8.41,7.32-15.41,18.35c-6.99,11.03,7.14,2.39,7.14,2.39,0,0,20.67-23.2,22.8-11.32s-8.39,13.9-11.44,16.63-29.96,5.63-29.96,5.63c0,0-12.49,4.66-11.15,10.57s7.47.72,7.47.72c0,0,13.17-15.69,15.3-5.18,2.13,10.51-17.26,14.13-17.26,14.13,0,0-6.69,1.96-5.21,9.51s16.93,18,12.79,8.21.05-15.09.05-15.09c15.46-11.5,9.38.55,9.38.55,0,0-4.97-.39-3.47,7.43,1.51,7.82,5.95.85,5.95.85,0,0,9.23-24.95,16.09-18.69,6.86,6.26-1.75,5.09-2.79,12.04s4.11-.08,4.11-.08c0,0,18.52-23.56,22.31-11.27,3.79,12.29-16.58,14.07-16.58,14.07,0,0-5.53,2.68-2.98,3.55s14.88,10.22,8.65,17.35c-6.24,7.13-11.83-.34-11.83-.34,0,0-9.36-12.9-12.51-8.23s-6.63,5.79-6.63,5.79l-9.8.86c-4.9.43-5.31,5.13-4.2,5.26s11,1.72,11,1.72c0,0-2.37-.13,11.86.99,14.85,1.18,12.24,9.63,22.02-.83s12.96-5.52,12.96-5.52c5.76,9.37-7.69,12.47-7.69,12.47,0,0-8.5-.42-5.36,5.56,3.14,5.97-1.3,9.93-1.3,9.93,0,0-7.41,1.99-8.44-4.62,0,0-2.64-4.27-4.13-1.73s-3.18-1.4-3.18-1.4c-5.04-9.99-14.73-7.2-24.15-9.4s-15.85-5.41-24.27-15.72c-8.42-10.31-29.33-2.26-29.76,1.07s-9.43,6.17-21.34,7.09-25.71,19.32-25.71,19.32c-2.69,3.25-3.94,1.27-4.16.13-.24-1.24-2.33-.48-2.64-.36,0,0-26.86,15.99-31,11.51Z"/><path class="cls-4" d="m454.39,422.13s-8.82,4.06-20.73-5.73"/><ellipse class="cls-17" cx="300.35" cy="706.61" rx="167.39" ry="26.18"/><g class="cls-24"><path class="cls-7" d="m558.81,350.17s-10.63-23.36-20.84-31.21c-3.68-2.83-7.31-3.64-10.37-.61-3.02,3-2.31,6.6.37,10.3,7.56,10.42,30.84,21.51,30.84,21.51Z"/><path class="cls-7" d="m559.32,350.17s-.47-31.8-8.16-45.77c-2.78-5.04-6.49-7.76-11.46-5.83-4.91,1.9-5.91,6.35-4.7,11.87,3.4,15.57,24.32,39.73,24.32,39.73Z"/><path class="cls-7" d="m561.36,350.17s10.63-23.36,20.84-31.21c3.68-2.83,7.31-3.64,10.37-.61,3.02,3,2.31,6.6-.37,10.3-7.56,10.42-30.84,21.51-30.84,21.51Z"/><path class="cls-7" d="m560.77,350.17s.47-31.8,8.16-45.77c2.78-5.04,6.49-7.76,11.46-5.83,4.91,1.9,5.91,6.35,4.7,11.87-3.4,15.57-24.32,39.73-24.32,39.73Z"/><path class="cls-7" d="m559.93,350.17s-11.8-32.47-9.39-49.63c.87-6.19,3.59-10.39,9.39-10.35,5.72.04,8.45,4.17,9.36,10.24,2.56,17.13-9.36,49.74-9.36,49.74Z"/><path class="cls-7" d="m560.25,350.95s-9.89-6.82-15.79-6.99c-2.13-.06-3.74.74-4.18,3.05s.73,3.63,2.68,4.39c5.5,2.14,17.3-.44,17.3-.44Z"/><path class="cls-7" d="m559.61,350.95s9.89-6.82,15.79-6.99c2.13-.06,3.74.74,4.18,3.05s-.73,3.63-2.68,4.39c-5.5,2.14-17.3-.44-17.3-.44Z"/><path class="cls-7" d="m494.09,374.27s-11.42-11.76-19.24-14.28c-2.82-.91-5.18-.62-6.36,1.87-1.17,2.45.03,4.47,2.44,6.11,6.78,4.64,23.17,6.3,23.17,6.3Z"/><path class="cls-7" d="m494.39,374.16s-7.12-19.01-14.75-25.76c-2.75-2.43-5.57-3.27-8.15-1.04s-2.18,5.09-.27,8.15c5.4,8.63,23.17,18.65,23.17,18.65Z"/><path class="cls-7" d="m495.62,373.72s1.36-16.33,5.81-23.25c1.61-2.49,3.61-3.76,6.1-2.59,2.46,1.15,2.81,3.47,2,6.27-2.3,7.89-13.91,19.57-13.91,19.57Z"/><path class="cls-7" d="m495.27,373.85s-6.56-19.21-4.94-29.27c.58-3.63,2.23-6.06,5.64-5.97s4.92,2.55,5.38,6.13c1.3,10.1-6.07,29.12-6.07,29.12Z"/><path class="cls-7" d="m494.76,374.03s-14.08-16.98-16.32-27.82c-.81-3.91-.08-7.02,3.42-8.24s5.98.69,7.83,4.14c5.22,9.75,5.08,31.92,5.08,31.92Z"/><path class="cls-7" d="m495.12,374.43s-7.41-1.97-11-.8c-1.29.42-2.09,1.25-1.86,2.73s1.22,2.02,2.55,2.06c3.77.1,10.3-3.99,10.3-3.99Z"/><path class="cls-7" d="m494.74,374.56s4.48-6.23,7.99-7.6c1.27-.5,2.41-.36,3.17.93s.34,2.34-.67,3.21c-2.85,2.47-10.49,3.46-10.49,3.46Z"/><path class="cls-7" d="m627.51,374.13s11.42-11.76,19.24-14.28c2.82-.91,5.18-.62,6.36,1.87s-.03,4.47-2.44,6.11c-6.78,4.64-23.17,6.3-23.17,6.3Z"/><path class="cls-7" d="m627.21,374.02s7.12-19.01,14.75-25.76c2.75-2.43,5.57-3.27,8.15-1.04,2.54,2.2,2.18,5.09.27,8.15-5.4,8.63-23.17,18.65-23.17,18.65Z"/><path class="cls-7" d="m625.98,373.58s-1.36-16.33-5.81-23.25c-1.61-2.49-3.61-3.76-6.1-2.59-2.46,1.15-2.81,3.47-2,6.27,2.3,7.89,13.91,19.57,13.91,19.57Z"/><path class="cls-7" d="m626.33,373.71s6.56-19.21,4.94-29.27c-.58-3.63-2.23-6.06-5.64-5.97s-4.92,2.55-5.38,6.13c-1.3,10.1,6.07,29.12,6.07,29.12Z"/><path class="cls-7" d="m626.84,373.89s14.08-16.98,16.32-27.82c.81-3.91.08-7.02-3.42-8.24s-5.98.69-7.83,4.14c-5.22,9.75-5.08,31.92-5.08,31.92Z"/><path class="cls-7" d="m626.48,374.29s7.41-1.97,11-.8c1.29.42,2.09,1.25,1.86,2.73s-1.22,2.02-2.55,2.06c-3.77.1-10.3-3.99-10.3-3.99Z"/><path class="cls-7" d="m626.86,374.43s-4.48-6.23-7.99-7.6c-1.27-.5-2.41-.36-3.17.93s-.34,2.34.67,3.21c2.85,2.47,10.49,3.46,10.49,3.46Z"/><circle class="cls-6" cx="559.93" cy="279.92" r="10.27"/><circle class="cls-5" cx="564.15" cy="274.7" r="1.92"/><circle class="cls-6" cx="478.14" cy="328.06" r="10.27"/><circle class="cls-5" cx="481.38" cy="322.19" r="1.92"/><circle class="cls-6" cx="645.01" cy="328.06" r="10.27"/><circle class="cls-5" cx="650.74" cy="324.58" r="1.92"/><circle class="cls-6" cx="518.26" cy="339.75" r="15.83"/><circle class="cls-5" cx="523.26" cy="330.7" r="2.97"/><circle class="cls-6" cx="603.18" cy="338.6" r="15.83"/><circle class="cls-5" cx="612.39" cy="333.9" r="2.97"/><circle class="cls-6" cx="543.15" cy="359.7" r="7.46"/><circle class="cls-5" cx="545.53" cy="355.45" r="1.4"/><circle class="cls-6" cx="528.24" cy="363.09" r="7.46"/><circle class="cls-5" cx="530.34" cy="358.7" r="1.4"/><circle class="cls-6" cx="514.24" cy="369.03" r="7.46"/><circle class="cls-5" cx="516.35" cy="364.64" r="1.4"/><circle class="cls-6" cx="500.32" cy="375.07" r="7.46"/><circle class="cls-5" cx="502.42" cy="370.68" r="1.4"/><circle class="cls-6" cx="486.48" cy="381.41" r="7.46"/><circle class="cls-5" cx="488.58" cy="377.02" r="1.4"/><circle class="cls-6" cx="472.99" cy="388.66" r="7.46"/><circle class="cls-5" cx="475.1" cy="384.27" r="1.4"/><circle class="cls-6" cx="460.37" cy="396.93" r="7.46"/><circle class="cls-5" cx="462.48" cy="392.54" r="1.4"/><circle class="cls-6" cx="577.55" cy="357.88" r="7.46"/><circle class="cls-5" cx="580.79" cy="355.02" r="1.4"/><circle class="cls-6" cx="592.47" cy="361.26" r="7.46"/><circle class="cls-5" cx="596.03" cy="357.88" r="1.4"/><circle class="cls-6" cx="606.46" cy="367.21" r="7.46"/><circle class="cls-5" cx="610.36" cy="364.8" r="1.4"/><circle class="cls-6" cx="620.39" cy="373.24" r="7.46"/><circle class="cls-5" cx="624.57" cy="371.06" r="1.4"/><circle class="cls-6" cx="634.23" cy="379.58" r="7.46"/><circle class="cls-5" cx="637.65" cy="377.38" r="1.4"/><circle class="cls-6" cx="647.71" cy="386.83" r="7.46"/><circle class="cls-5" cx="651.4" cy="384.65" r="1.4"/><circle class="cls-6" cx="660.33" cy="395.11" r="7.46"/><circle class="cls-5" cx="664.61" cy="392.89" r="1.4"/><circle class="cls-6" cx="560.26" cy="354.52" r="10.27"/><circle class="cls-5" cx="564.47" cy="349.31" r="1.92"/></g></svg>