<?xml version="1.0" encoding="UTF-8"?><svg id="Gople" xmlns="http://www.w3.org/2000/svg" width="250" height="250" xmlns:xlink="http://www.w3.org/1999/xlink" viewBox="0 0 250 250"><defs><style>.cls-1,.cls-2{fill:none;stroke-linecap:round;stroke-linejoin:round;}.cls-1,.cls-3,.cls-4,.cls-5,.cls-6,.cls-7,.cls-8,.cls-9,.cls-10,.cls-11,.cls-12{stroke:#231f20;}.cls-13,.cls-2{stroke:#000;}.cls-13,.cls-14,.cls-3,.cls-4,.cls-5,.cls-6,.cls-7,.cls-8,.cls-9,.cls-10,.cls-11,.cls-12{stroke-miterlimit:10;}.cls-2{stroke-width:2px;}.cls-14{fill:#fff;stroke:#fff;}.cls-3{fill:#b1465f;}.cls-4,.cls-5,.cls-6,.cls-7,.cls-8,.cls-9,.cls-10,.cls-11,.cls-12{fill:#ca7280;}.cls-15{fill:#ff8a66;opacity:.5;stroke-width:0px;}.cls-5{filter:url(#drop-shadow-23);}.cls-6{filter:url(#drop-shadow-25);}.cls-7{filter:url(#drop-shadow-26);}.cls-8{filter:url(#drop-shadow-30);}.cls-9{filter:url(#drop-shadow-28);}.cls-10{filter:url(#drop-shadow-27);}.cls-11{filter:url(#drop-shadow-21);}.cls-12{filter:url(#drop-shadow-22);}.cls-16{filter:url(#drop-shadow-29);}.cls-17{filter:url(#drop-shadow-24);}</style><filter id="drop-shadow-21" filterUnits="userSpaceOnUse"><feOffset dx="-1" dy="2"/><feGaussianBlur result="blur" stdDeviation="0"/><feFlood flood-color="#000" flood-opacity=".75"/><feComposite in2="blur" operator="in"/><feComposite in="SourceGraphic"/></filter><filter id="drop-shadow-22" filterUnits="userSpaceOnUse"><feOffset dx="-1" dy="2"/><feGaussianBlur result="blur-2" stdDeviation="0"/><feFlood flood-color="#000" flood-opacity=".75"/><feComposite in2="blur-2" operator="in"/><feComposite in="SourceGraphic"/></filter><filter id="drop-shadow-23" filterUnits="userSpaceOnUse"><feOffset dx="-1" dy="2"/><feGaussianBlur result="blur-3" stdDeviation="0"/><feFlood flood-color="#000" flood-opacity=".75"/><feComposite in2="blur-3" operator="in"/><feComposite in="SourceGraphic"/></filter><filter id="drop-shadow-24" filterUnits="userSpaceOnUse"><feOffset dx="-1" dy="2"/><feGaussianBlur result="blur-4" stdDeviation="0"/><feFlood flood-color="#000" flood-opacity=".75"/><feComposite in2="blur-4" operator="in"/><feComposite in="SourceGraphic"/></filter><filter id="drop-shadow-25" filterUnits="userSpaceOnUse"><feOffset dx="-1" dy="2"/><feGaussianBlur result="blur-5" stdDeviation="0"/><feFlood flood-color="#000" flood-opacity=".75"/><feComposite in2="blur-5" operator="in"/><feComposite in="SourceGraphic"/></filter><filter id="drop-shadow-26" filterUnits="userSpaceOnUse"><feOffset dx="-1" dy="2"/><feGaussianBlur result="blur-6" stdDeviation="0"/><feFlood flood-color="#000" flood-opacity=".75"/><feComposite in2="blur-6" operator="in"/><feComposite in="SourceGraphic"/></filter><filter id="drop-shadow-27" filterUnits="userSpaceOnUse"><feOffset dx="-1" dy="2"/><feGaussianBlur result="blur-7" stdDeviation="0"/><feFlood flood-color="#000" flood-opacity=".75"/><feComposite in2="blur-7" operator="in"/><feComposite in="SourceGraphic"/></filter><filter id="drop-shadow-28" filterUnits="userSpaceOnUse"><feOffset dx="-1" dy="2"/><feGaussianBlur result="blur-8" stdDeviation="0"/><feFlood flood-color="#000" flood-opacity=".75"/><feComposite in2="blur-8" operator="in"/><feComposite in="SourceGraphic"/></filter><filter id="drop-shadow-29" filterUnits="userSpaceOnUse"><feOffset dx="-1" dy="2"/><feGaussianBlur result="blur-9" stdDeviation="0"/><feFlood flood-color="#000" flood-opacity=".75"/><feComposite in2="blur-9" operator="in"/><feComposite in="SourceGraphic"/></filter><filter id="drop-shadow-30" filterUnits="userSpaceOnUse"><feOffset dx="-1" dy="2"/><feGaussianBlur result="blur-10" stdDeviation="0"/><feFlood flood-color="#000" flood-opacity=".75"/><feComposite in2="blur-10" operator="in"/><feComposite in="SourceGraphic"/></filter></defs><path class="cls-11" d="m167.47,82.32s15.09,11.41,15.85,37.63c.76,26.21,6.74,30.5,19.43,30.92,0,0,13.11-1.46,11.9-7.75,0,0-1.25-4.08-4.63-.67s-6.39,2.15-6.39,2.15c0,0-4.59-1.87.27-7.68s13.29-2.56,13.29-2.56c0,0,11.66,5.19,1.79,16.93-9.87,11.74-28.95,5.21-28.95,5.21,0,0-14.38-6.42-13.71-19.14,0,0-1.78-11.14-1.27-12.8.51-1.66-1.75-17.67-3.18-19.33,0,0-3.48-12.33-13.73-20.23-10.25-7.9,2.43-6.95,2.43-6.95l6.91,4.26Z"/><path class="cls-12" d="m196.02,86.62s8.27,20.12-6.31,46.52c-14.58,26.39-11.16,34.14,1.15,41.97,0,0,13.83,6.22,16.31-.72,0,0,1.15-4.77-4.19-3.37-5.35,1.4-7.58-1.6-7.58-1.6,0,0-3.45-4.54,4.75-7.45,8.2-2.91,14.65,5.23,14.65,5.23,0,0,8.51,11.96-8.12,17.81-16.63,5.85-31.71-11.76-31.71-11.76,0,0-10.48-14.76-2.38-26.96,0,0,4.75-12.07,6.22-13.42,1.47-1.35,8.6-18.52,8.16-20.99,0,0,3.76-14.24-1.77-28.06-5.53-13.82,6.47-5.46,6.47-5.46l4.35,8.26Z"/><path class="cls-5" d="m165.21,121.61s14.97,15.79,10.89,45.66,1.9,35.86,16.21,38.73c0,0,15.14.82,14.95-6.55,0,0-.64-4.86-5.13-1.63s-7.65,1.24-7.65,1.24c0,0-4.85-2.99,1.75-8.66,6.6-5.67,15.56-.4,15.56-.4,0,0,12.25,8.09-1.16,19.54s-33.82.46-33.82.46c0,0-15.1-9.99-11.94-24.29,0,0,.08-12.97.97-14.76s1.34-20.37.04-22.52c0,0-1.62-14.64-11.76-25.54-10.14-10.89,4.06-7.42,4.06-7.42l7.03,6.14Z"/><g class="cls-17"><path class="cls-3" d="m139.08,109.12s15.22,6.19,17.23,9.74,2.11,5.56-2.74,4.67c-4.84-.89,6.81,13.47,6.81,13.47,0,0,3.12,3.39-4.47,3.11,0,0-3.89.55,4.99,9.89,0,0,3.59,4-2.92,3.35,0,0,.94,6.63,4.71,11.96,0,0,1.27,2.3-4.04,2.15-5.31-.15,4.84,11.49,4.84,11.49,0,0,2.23,2.39-3.76,1.43-5.99-.96,7.77,10.85,7.77,10.85,0,0,3.12,2.04-3.26,3.62-6.38,1.58,10.04,6.92,10.04,6.92,0,0,3.09,1.82-2.71,3.54-5.8,1.72,10.67.74,10.67.74,0,0,3.21,0-1.16,3.77,0,0,2.38.79,5.46,1.26,3.09.47-2.52,3.51-2.52,3.51,0,0-2.31,1-3.61,1.19,0,0,3.21,2.7-.89,3.06s-6.69.72-8.76-.56c0,0-.42,3.67-2.74,4.67,0,0-5.3-12.1-6.97-11.87s-5.48,3.93-3.83-3.07c0,0,.51-5.71-3.6-10.77,0,0-8.69,3.94-3.4-4.03,0,0,1.87-4.1-.39-9.42,0,0-7.71,1.54-3.46-4.47s.13-11.07.13-11.07c0,0-7.18,1.24-2.45-3.94s3.28-10.16,3.28-10.16c0,0-9.22,1.53-2.85-4.11,0,0,2.56-1.94,1.77-8.82,0,0-8.16,4.99-3.37-5.16,0,0,2.3-5.06-.76-9.36,0,0-5.23,7.06-4.32-2.54,0,0,.72-9.57-3.39-13.28-1.03-.93-1.25-1.5-1.01-1.84.73-1.02,5.66.05,5.66.05Z"/><path class="cls-1" d="m130.15,107.38s12.35,4.18,15.76,14.01c3.21,9.24,6.53,33.75,6.94,36.71.03.19.12,2.31.14,2.5.19,2.87-1.3,13.28,1.95,24.48,3.24,11.18,11.26,26.8,20.6,29.21"/></g><path class="cls-6" d="m135.97,111.54s12.03,22.5,2.73,60.22c-9.29,37.73-4.43,46.31,9.22,52.12,0,0,14.83,3.31,15.94-6.17,0,0,.22-6.33-4.78-2.86-5,3.47-7.78.44-7.78.44,0,0-4.27-4.56,3.25-10.85,7.52-6.29,15.46,1.81,15.46,1.81,0,0,10.69,12.21-4.58,24.9-15.27,12.69-33.53-4.46-33.53-4.46,0,0-13.18-15.07-7.54-32.95,0,0,2.36-16.64,3.55-18.8s4.91-25.95,4-28.89c0,0,.97-19.03-7.14-34.53-8.11-15.49,5.32-8.92,5.32-8.92l5.87,8.92Z"/><path class="cls-7" d="m83.53,82.78s-15.09,11.41-15.85,37.63c-.76,26.21-6.74,30.5-19.43,30.92,0,0-13.11-1.46-11.9-7.75,0,0,1.25-4.08,4.63-.67,3.39,3.41,6.39,2.15,6.39,2.15,0,0,4.59-1.87-.27-7.68s-13.29-2.56-13.29-2.56c0,0-11.66,5.19-1.79,16.93,9.87,11.74,28.95,5.21,28.95,5.21,0,0,14.38-6.42,13.71-19.14,0,0,1.78-11.14,1.27-12.8-.51-1.66,1.75-17.67,3.18-19.33,0,0,3.48-12.33,13.73-20.23,10.25-7.9-2.43-6.95-2.43-6.95l-6.91,4.26Z"/><path class="cls-10" d="m54.98,87.08s-8.27,20.12,6.31,46.52,11.16,34.14-1.15,41.97c0,0-13.83,6.22-16.31-.72,0,0-1.15-4.77,4.19-3.37,5.35,1.4,7.58-1.6,7.58-1.6,0,0,3.45-4.54-4.75-7.45-8.2-2.91-14.65,5.23-14.65,5.23,0,0-8.51,11.96,8.12,17.81,16.63,5.85,31.71-11.76,31.71-11.76,0,0,10.48-14.76,2.38-26.96,0,0-4.75-12.07-6.22-13.42-1.47-1.35-8.6-18.52-8.16-20.99,0,0-3.76-14.24,1.77-28.06,5.53-13.82-6.47-5.46-6.47-5.46l-4.35,8.26Z"/><path class="cls-9" d="m85.79,122.07s-14.97,15.79-10.89,45.66c4.08,29.87-1.9,35.86-16.21,38.73,0,0-15.14.82-14.95-6.55,0,0,.64-4.86,5.13-1.63,4.48,3.23,7.65,1.24,7.65,1.24,0,0,4.85-2.99-1.75-8.66-6.6-5.67-15.56-.4-15.56-.4,0,0-12.25,8.09,1.16,19.54,13.4,11.45,33.82.46,33.82.46,0,0,15.1-9.99,11.94-24.29,0,0-.08-12.97-.97-14.76-.89-1.79-1.34-20.37-.04-22.52,0,0,1.62-14.64,11.76-25.54,10.14-10.89-4.06-7.42-4.06-7.42l-7.03,6.14Z"/><g class="cls-16"><path class="cls-3" d="m111.92,109.58s-15.22,6.19-17.23,9.74-2.11,5.56,2.74,4.67-6.81,13.47-6.81,13.47c0,0-3.12,3.39,4.47,3.11,0,0,3.89.55-4.99,9.89,0,0-3.59,4,2.92,3.35,0,0-.94,6.63-4.71,11.96,0,0-1.27,2.3,4.04,2.15,5.31-.15-4.84,11.49-4.84,11.49,0,0-2.23,2.39,3.76,1.43,5.99-.96-7.77,10.85-7.77,10.85,0,0-3.12,2.04,3.26,3.62,6.38,1.58-10.04,6.92-10.04,6.92,0,0-3.09,1.82,2.71,3.54s-10.67.74-10.67.74c0,0-3.21,0,1.16,3.77,0,0-2.38.79-5.46,1.26-3.09.47,2.52,3.51,2.52,3.51,0,0,2.31,1,3.61,1.19,0,0-3.21,2.7.89,3.06,4.1.36,6.69.72,8.76-.56,0,0,.42,3.67,2.74,4.67,0,0,5.3-12.1,6.97-11.87,1.67.24,5.48,3.93,3.83-3.07,0,0-.51-5.71,3.6-10.77,0,0,8.69,3.94,3.4-4.03,0,0-1.87-4.1.39-9.42,0,0,7.71,1.54,3.46-4.47-4.24-6.01-.13-11.07-.13-11.07,0,0,7.18,1.24,2.45-3.94-4.74-5.18-3.28-10.16-3.28-10.16,0,0,9.22,1.53,2.85-4.11,0,0-2.56-1.94-1.77-8.82,0,0,8.16,4.99,3.37-5.16,0,0-2.3-5.06.76-9.36,0,0,5.23,7.06,4.32-2.54,0,0-.72-9.57,3.39-13.28,1.03-.93,1.25-1.5,1.01-1.84-.73-1.02-5.66.05-5.66.05Z"/><path class="cls-1" d="m120.85,107.84s-12.35,4.18-15.76,14.01c-3.21,9.24-6.53,33.75-6.94,36.71-.03.19-.12,2.31-.14,2.5-.19,2.87,1.3,13.28-1.95,24.48-3.24,11.18-11.26,26.8-20.6,29.21"/></g><path class="cls-8" d="m115.03,112s-12.03,22.5-2.73,60.22c9.29,37.73,4.43,46.31-9.22,52.12,0,0-14.83,3.31-15.94-6.17,0,0-.22-6.33,4.78-2.86,5,3.47,7.78.44,7.78.44,0,0,4.27-4.56-3.25-10.85-7.52-6.29-15.46,1.81-15.46,1.81,0,0-10.69,12.21,4.58,24.9,15.27,12.69,33.53-4.46,33.53-4.46,0,0,13.18-15.07,7.54-32.95,0,0-2.36-16.64-3.55-18.8-1.19-2.16-4.91-25.95-4-28.89,0,0-.97-19.03,7.14-34.53,8.11-15.49-5.32-8.92-5.32-8.92l-5.87,8.92Z"/><path class="cls-4" d="m80.39,118.69c-3.99,5.12-11.78,4.76-17.77,2.98-12.42-3.7-17.04-18.88-14.44-34.56.05-.33.17-.64.24-.97l.27-1.29c.19-5.4,5.89-17.26,5.89-17.26,15.48-30.73,34.75-55.56,70.87-55.82,0,0,2.63-.07,4.72-.07,33.18-.04,53.95,25.41,69.22,56.24,0,0,3.46,9.86,5.77,17.3l.9,3.09c3.32,16.25-4.09,29.87-16.64,33.61,0,0-9.74,4.26-16.48-3.16,0,0-.69-.83-1.32.22-3.13,5.26-8.65,7.34-14.55,8.06,0,0-8.06,2.26-15.67-4.88,0,0-.6-.5-1.08.02-3.79,4.06-9.03,6.13-14.48,6.13,0,0-8.47.8-14.36-6.12,0,0-.54-.38-1.02-.04-4.63,3.36-9.91,5.29-15.46,4.62,0,0-10.63-.75-13.44-8.16,0,0-.38-.91-1.14.07Z"/><path class="cls-2" d="m119.73,93.5c1.01-1.71,3.35-3.58,7.46-3.56,4.11.02,6.41,1.93,7.41,3.65"/><ellipse class="cls-13" cx="103.74" cy="58.75" rx=".59" ry="5.34" transform="translate(30.22 152.6) rotate(-81.45)"/><ellipse class="cls-15" cx="92.62" cy="89.14" rx="3.27" ry="7.99" transform="translate(-18.74 153.36) rotate(-73.88)"/><ellipse class="cls-13" cx="103.09" cy="75.44" rx="9.75" ry="11.05"/><circle class="cls-14" cx="106.34" cy="69.59" r="2.6"/><circle class="cls-14" cx="110.19" cy="74.59" r=".38"/><ellipse class="cls-13" cx="152.25" cy="74.06" rx="9.75" ry="11.05"/><circle class="cls-14" cx="155.5" cy="68.21" r="2.6"/><circle class="cls-14" cx="159.35" cy="73.06" r=".38"/><ellipse class="cls-13" cx="151.56" cy="57.28" rx="5.34" ry=".59" transform="translate(-6.83 23.16) rotate(-8.55)"/><ellipse class="cls-15" cx="162.68" cy="87.67" rx="7.99" ry="3.27" transform="translate(-17.95 48.63) rotate(-16.12)"/></svg>