<?xml version="1.0" encoding="UTF-8"?><svg id="Perlekrone" xmlns="http://www.w3.org/2000/svg" width="310" height="90" viewBox="0 0 310 90"><defs><style>.cls-1{fill:rgba(255,206,113,.95);stroke:#231f20;stroke-miterlimit:10;stroke-width:5px;}.cls-2{stroke-width:0px;}</style></defs><rect class="cls-1" x="4.05" y="4.02" width="301.9" height="81.95" rx="12" ry="12"/><path class="cls-2" d="m87.58,56.65c-1.45,0-2.79-.23-4.03-.68-1.24-.46-2.31-1.11-3.22-1.96s-1.62-1.88-2.13-3.09c-.51-1.21-.77-2.57-.77-4.07s.26-2.87.77-4.11c.51-1.24,1.22-2.31,2.13-3.22.91-.9,1.98-1.6,3.23-2.1,1.25-.5,2.61-.75,4.07-.75.28,0,.6.02.96.05.37.03.74.09,1.14.17s.78.19,1.16.32.72.3,1.02.5.54.44.73.71c.19.27.28.6.28.97,0,.3-.07.63-.21,1s-.32.71-.55,1.03c-.23.32-.5.58-.8.8s-.62.32-.95.32c-.13,0-.28-.04-.44-.12s-.35-.18-.55-.29c-.2-.11-.42-.2-.66-.29s-.5-.13-.79-.13c-.64,0-1.2.16-1.68.47s-.89.71-1.21,1.19c-.32.48-.56,1.01-.72,1.6-.16.59-.24,1.17-.24,1.72,0,.32.03.67.08,1.06.06.39.14.79.26,1.19.12.4.26.79.45,1.17.18.38.39.71.64,1.01.25.3.54.54.85.71s.68.26,1.07.26c.26,0,.5-.07.71-.21s.4-.32.55-.54.27-.46.35-.71.12-.5.12-.73c0-.3-.07-.58-.21-.84-.16-.29-.35-.48-.57-.59-.23-.1-.46-.17-.71-.2-.25-.03-.5-.06-.74-.07-.25-.01-.47-.07-.67-.17-.2-.1-.36-.28-.48-.53s-.19-.63-.19-1.13c0-.36.03-.69.1-.98.06-.29.17-.54.33-.75.15-.2.36-.36.62-.47.26-.11.59-.16.98-.16h1.12c.43,0,.88.01,1.33.04.45.03.88.08,1.29.15.41.07.75.19,1.02.33.29.16.54.4.73.71s.34.68.45,1.08.19.84.24,1.3c.04.46.08.92.09,1.37s.02.88,0,1.29c0,.41-.01.76-.01,1.06,0,.9-.18,1.69-.53,2.35s-.83,1.22-1.41,1.65c-.59.44-1.26.76-2.02.98-.76.21-1.55.32-2.36.32Z"/><path class="cls-2" d="m99.27,56.62c-.51,0-1.01-.06-1.5-.19-.49-.12-.92-.32-1.3-.59s-.68-.61-.91-1.03c-.23-.42-.35-.92-.35-1.49,0-.76.07-1.53.22-2.29.15-.76.31-1.53.48-2.31.18-.78.34-1.56.48-2.36.15-.8.22-1.61.22-2.44s-.08-1.54-.23-2.25-.39-1.42-.71-2.15c-.05-.13-.1-.26-.14-.4s-.06-.28-.06-.43c0-.4.13-.73.39-1,.26-.27.58-.47.96-.63.37-.15.77-.26,1.18-.32.41-.06.77-.09,1.07-.09.35,0,.73.03,1.15.1.42.07.8.18,1.17.35.37.17.67.4.92.68.24.29.37.66.37,1.1,0,.16-.02.34-.06.54-.04.2-.08.41-.14.63-.05.21-.11.42-.16.63-.05.2-.09.39-.12.56-.07.44-.12.87-.15,1.3s-.04.87-.04,1.3c0,1.54.13,3.05.39,4.54.26,1.49.62,2.97,1.09,4.42.05.14.08.28.11.42s.04.28.04.43c0,.53-.15.98-.45,1.35-.29.37-.66.68-1.11.91s-.92.41-1.44.52c-.51.11-.98.16-1.41.16Z"/><path class="cls-2" d="m112.13,56.68c-.19,0-.42,0-.71-.03s-.6-.05-.93-.1c-.33-.05-.66-.11-.99-.2-.33-.09-.63-.21-.89-.35-.26-.14-.48-.32-.64-.52s-.25-.44-.25-.72c0-.81-.07-1.64-.2-2.49-.13-.85-.31-1.7-.52-2.55-.21-.85-.46-1.69-.73-2.51-.28-.82-.56-1.61-.85-2.37-.06-.16-.16-.38-.29-.67-.13-.29-.27-.61-.43-.96-.16-.35-.32-.72-.49-1.1-.17-.38-.32-.74-.45-1.08-.13-.34-.25-.64-.33-.9-.09-.26-.13-.45-.13-.56,0-.47.14-.9.42-1.27s.62-.69,1.03-.94c.41-.25.86-.45,1.34-.58.48-.13.92-.2,1.33-.2.67,0,1.2.14,1.56.43.37.29.55.79.55,1.51,0,.83.03,1.65.1,2.47s.18,1.63.34,2.43c.16.8.38,1.59.65,2.36.27.77.62,1.52,1.03,2.25.02.04.04.08.08.14.03.06.07.11.11.17.04.06.09.1.14.14.05.04.1.06.16.06s.11-.02.16-.06c.05-.04.1-.08.14-.14.04-.06.08-.11.11-.17.03-.06.06-.1.08-.14.43-.74.77-1.51,1.04-2.29.27-.79.48-1.59.64-2.4.16-.81.27-1.64.33-2.48.06-.84.09-1.67.09-2.51,0-.33.06-.6.19-.82.12-.22.29-.41.49-.54.2-.14.44-.24.71-.3.27-.06.54-.09.82-.09.41,0,.85.07,1.33.2.48.13.93.32,1.34.58.41.26.76.57,1.03.94s.41.79.41,1.27c0,.11-.04.3-.13.55s-.2.55-.33.89c-.13.34-.28.7-.44,1.08-.16.38-.32.75-.47,1.1-.15.35-.29.68-.41.97-.12.29-.22.52-.29.68-.29.75-.56,1.53-.82,2.34s-.5,1.65-.7,2.5-.37,1.7-.49,2.55c-.12.85-.18,1.68-.18,2.48,0,.28-.09.52-.26.73-.18.2-.4.38-.69.53-.28.15-.6.27-.94.36-.35.09-.69.16-1.04.22-.35.06-.67.09-.97.11-.3.02-.54.03-.73.03Z"/><path class="cls-2" d="m141.31,56.65c-.43,0-.85-.06-1.24-.17s-.74-.29-1.03-.53c-.3-.24-.53-.53-.71-.89s-.26-.77-.26-1.24c0-.61.02-1.23.05-1.84.04-.61.06-1.23.06-1.84v-.52c0-.24,0-.5-.02-.8-.01-.3-.04-.6-.08-.91-.04-.31-.1-.59-.18-.85-.08-.26-.18-.47-.31-.63-.13-.16-.29-.24-.47-.24-.21,0-.37.08-.51.24-.13.16-.24.36-.31.59-.07.23-.12.46-.14.71-.03.24-.04.44-.04.59,0,.99.08,1.93.24,2.85.16.91.45,1.81.87,2.71.06.12.1.25.14.38.04.13.06.26.06.39,0,.29-.08.54-.24.75-.16.21-.36.39-.61.54-.25.15-.53.27-.85.36-.32.09-.64.17-.96.22s-.62.09-.92.11-.54.03-.74.03c-.28,0-.63-.02-1.06-.06s-.86-.11-1.29-.22c-.43-.1-.82-.25-1.17-.43-.35-.19-.6-.42-.73-.71-.11-.24-.19-.51-.23-.81-.04-.3-.06-.58-.06-.84,0-.78.08-1.57.23-2.37.15-.8.32-1.6.5-2.42.18-.82.34-1.65.49-2.48s.22-1.69.22-2.55-.09-1.72-.28-2.48-.5-1.52-.94-2.3c-.06-.1-.12-.21-.16-.33-.04-.12-.06-.24-.06-.37,0-.22.06-.42.19-.58s.3-.3.51-.42c.21-.12.44-.21.69-.29.25-.07.51-.13.77-.17.26-.04.51-.07.74-.08s.43-.02.59-.02c.17,0,.39,0,.64.03s.51.05.78.1c.27.05.54.11.81.19s.51.18.72.31c.21.13.38.28.51.46.13.18.19.39.19.64,0,.2-.02.39-.06.58-.04.19-.08.38-.13.58-.05.2-.1.39-.13.58-.04.19-.06.38-.06.58,0,.05,0,.11,0,.2,0,.08.02.17.04.25.02.08.05.15.09.2.04.06.1.08.17.08.2,0,.38-.12.56-.36s.37-.53.55-.89c.19-.35.39-.74.6-1.16.21-.42.44-.8.69-1.16s.53-.65.83-.89c.3-.24.64-.36,1.01-.36.35,0,.7.09,1.06.28.36.19.68.43.97.72s.53.62.71.98.27.71.27,1.07c0,.28-.06.52-.19.73-.13.21-.31.39-.55.54-.64.39-1.24.8-1.81,1.24s-1.12.9-1.66,1.42c.5.03,1.02.13,1.57.29.55.17,1.05.41,1.52.71.46.31.84.68,1.14,1.13.3.45.45.96.45,1.55,0,.53.03,1.06.1,1.58.06.53.17,1.04.31,1.56.05.21.14.49.25.84.11.34.22.7.34,1.07s.22.71.3,1.04c.09.33.13.57.13.74,0,.44-.11.81-.34,1.13s-.51.58-.86.78c-.35.21-.73.36-1.14.45-.41.1-.8.15-1.16.15Z"/><path class="cls-2" d="m159.5,56.66c-.68,0-1.25-.09-1.71-.27-.46-.18-.83-.42-1.11-.73-.28-.31-.5-.67-.65-1.07s-.27-.84-.36-1.3-.16-.93-.21-1.41-.12-.95-.2-1.4c-.08-.45-.2-.87-.35-1.26s-.37-.73-.66-1.01c-.1-.1-.22-.2-.35-.29-.13-.09-.28-.14-.44-.14-.11,0-.2.03-.26.08-.07.05-.11.12-.15.2s-.05.17-.07.26c-.02.09-.02.18-.02.27,0,.33.05.74.15,1.21s.23.95.38,1.45c.15.5.32.98.49,1.44.18.46.33.85.47,1.17.06.12.1.25.14.38.04.13.06.26.06.39,0,.29-.08.54-.24.75-.16.21-.36.39-.61.54-.25.15-.53.27-.85.36s-.63.17-.95.22-.63.09-.92.11-.54.03-.75.03c-.29,0-.64-.02-1.07-.06-.43-.04-.85-.11-1.28-.22-.43-.11-.82-.25-1.17-.44-.35-.19-.6-.42-.73-.71-.11-.23-.19-.5-.23-.8-.04-.3-.06-.58-.06-.83,0-.77.08-1.56.23-2.36s.32-1.61.5-2.43.35-1.65.5-2.5c.15-.85.23-1.7.23-2.57s-.09-1.7-.28-2.47c-.19-.77-.5-1.54-.94-2.29-.06-.1-.12-.21-.17-.33s-.07-.24-.07-.37c0-.22.06-.42.19-.58s.29-.3.5-.42c.2-.12.44-.21.69-.29.26-.07.52-.13.78-.17.26-.04.5-.07.73-.09.23-.02.43-.03.58-.03.41,0,.81.03,1.21.09.4.06.79.16,1.18.29.5-.11,1-.2,1.52-.27.51-.07,1.03-.11,1.54-.11.74,0,1.49.1,2.25.29.76.19,1.45.49,2.07.89.62.4,1.12.92,1.52,1.55s.59,1.37.59,2.24c0,.48-.07.94-.21,1.38-.14.44-.34.85-.59,1.23-.25.38-.54.74-.87,1.07-.33.33-.69.63-1.07.89.24.2.45.43.63.67.18.24.35.5.49.77.23.45.44.9.64,1.36.19.46.39.92.6,1.37.21.45.43.9.67,1.33.24.44.52.85.85,1.24.16.19.29.39.39.61.1.22.15.46.15.71,0,.42-.11.78-.33,1.08-.22.3-.49.55-.82.75-.33.2-.69.34-1.07.43-.39.09-.76.13-1.11.13Zm-6.03-12.61c.24,0,.52-.03.83-.1.31-.07.6-.17.88-.3s.51-.31.7-.53c.19-.22.28-.48.28-.79,0-.26-.1-.46-.29-.61s-.43-.25-.7-.32c-.27-.07-.55-.11-.83-.12-.28-.01-.51-.02-.69-.02-.44,0-.79.13-1.07.41-.28.27-.42.63-.42,1.07,0,.39.12.71.37.95.24.24.55.36.93.36Z"/><path class="cls-2" d="m170.65,56.66c-.92,0-1.75-.13-2.51-.39s-1.44-.62-2.04-1.09c-.6-.46-1.13-1.01-1.58-1.64-.45-.63-.83-1.31-1.13-2.05s-.52-1.52-.67-2.33c-.15-.81-.22-1.63-.22-2.46s.07-1.63.22-2.45c.15-.81.37-1.59.67-2.34.29-.74.67-1.44,1.12-2.08.45-.64.97-1.2,1.57-1.67.6-.47,1.28-.84,2.03-1.1.75-.26,1.59-.4,2.5-.4s1.77.13,2.54.4c.77.27,1.46.63,2.08,1.1.61.47,1.15,1.03,1.61,1.67.46.64.85,1.34,1.16,2.09.31.75.54,1.54.69,2.36s.23,1.65.23,2.49-.08,1.66-.23,2.48c-.15.81-.38,1.59-.69,2.32-.31.73-.69,1.41-1.15,2.04s-.99,1.16-1.61,1.61c-.62.45-1.3.8-2.07,1.06s-1.61.38-2.52.38Zm.3-6.78c.26,0,.48-.09.67-.27s.35-.42.49-.71c.14-.29.25-.61.34-.97.09-.36.16-.71.21-1.06.05-.35.09-.68.1-.98.02-.31.03-.55.03-.74,0-.21,0-.48-.03-.8-.02-.32-.05-.65-.11-1-.06-.35-.13-.7-.23-1.05-.1-.34-.22-.66-.38-.94-.16-.28-.34-.5-.56-.68-.22-.17-.48-.26-.78-.26-.27,0-.5.08-.71.24-.2.16-.37.37-.51.63s-.25.55-.34.87c-.09.33-.16.65-.21.97-.05.32-.08.63-.1.92-.02.29-.03.54-.03.73,0,.21.01.49.04.82.02.33.06.69.12,1.07.06.38.14.76.24,1.14.1.38.23.72.39,1.03.16.3.35.55.57.74.22.19.49.29.79.29Z"/><path class="cls-2" d="m193.32,56.66c-.36,0-.79-.03-1.28-.09-.49-.06-.96-.18-1.41-.35-.45-.17-.83-.41-1.14-.71-.31-.3-.47-.7-.47-1.18,0-.08,0-.17.01-.24,0-.08.02-.16.04-.24.13-.6.24-1.2.34-1.79.1-.59.14-1.19.14-1.81,0-1.04-.14-2.03-.44-2.95s-.76-1.8-1.41-2.62c-.05-.07-.13-.17-.24-.31-.12-.14-.24-.28-.37-.43-.13-.14-.26-.27-.39-.38-.13-.11-.25-.17-.34-.17-.05,0-.1.02-.14.06-.04.04-.06.09-.08.15-.01.06-.02.11-.03.17s0,.11,0,.16c0,.45.03.89.08,1.33.06.44.11.89.15,1.33.13,1.26.31,2.48.54,3.68s.59,2.39,1.08,3.56c.05.12.09.24.12.36s.06.25.06.38c0,.29-.08.54-.23.75-.15.21-.35.4-.59.54s-.52.27-.82.37c-.31.1-.62.17-.94.23s-.62.09-.91.11-.54.03-.74.03c-.28,0-.62-.02-1.04-.06s-.83-.11-1.24-.22c-.41-.11-.79-.25-1.12-.44-.34-.19-.57-.42-.7-.71-.1-.21-.17-.46-.2-.73-.03-.27-.05-.53-.05-.78,0-.8.08-1.61.25-2.44s.35-1.67.55-2.53c.2-.86.39-1.72.55-2.6s.25-1.77.25-2.67c0-.83-.09-1.6-.26-2.32-.17-.72-.45-1.44-.84-2.17-.05-.1-.1-.21-.15-.32-.04-.11-.06-.23-.06-.36,0-.23.07-.43.21-.6.14-.17.32-.31.55-.43s.48-.22.76-.29.55-.13.83-.18c.28-.05.54-.08.79-.09.25-.01.46-.02.62-.02.19,0,.44.01.77.04.33.02.66.07.99.15.33.07.63.18.89.33.26.14.41.34.44.58.04.33.13.63.25.89.12.26.29.52.5.79.09.12.25.3.46.55.22.25.45.49.71.73.25.24.5.45.75.63.24.18.44.27.59.27.07,0,.12-.03.15-.08.03-.06.04-.12.04-.18,0-.25-.04-.51-.12-.77-.08-.27-.18-.53-.29-.79-.11-.26-.2-.51-.28-.76-.08-.25-.12-.48-.12-.71,0-.34.13-.62.39-.83s.58-.37.95-.49.75-.2,1.13-.24c.38-.04.7-.06.95-.06s.57.02.96.06.78.12,1.16.24.71.28.98.5c.27.21.41.49.41.84,0,.11-.02.22-.05.32-.03.1-.07.21-.12.31-.3.63-.51,1.25-.65,1.86s-.21,1.26-.21,1.96c0,.57.04,1.13.11,1.7.07.56.17,1.12.29,1.67.12.55.25,1.11.4,1.65s.31,1.09.46,1.63c.11.36.22.74.33,1.12.11.38.21.76.3,1.14.09.38.16.77.22,1.16.06.39.09.78.09,1.16,0,.2-.01.4-.04.6-.02.2-.07.4-.14.59-.11.3-.33.54-.66.73-.33.19-.69.34-1.1.45-.4.11-.8.18-1.21.22-.4.04-.74.06-1.02.06Z"/><path class="cls-2" d="m205.42,56.68h-3.51c-.54-.01-1.01-.06-1.41-.16-.4-.1-.74-.26-1-.49s-.47-.53-.61-.91-.21-.86-.21-1.42c0-.77.07-1.56.21-2.36.14-.8.3-1.61.48-2.44s.34-1.66.48-2.5c.14-.85.21-1.7.21-2.57s-.1-1.73-.29-2.53-.5-1.57-.95-2.34c-.07-.12-.13-.24-.19-.37-.05-.13-.08-.26-.08-.4,0-.27.12-.5.36-.68.24-.18.54-.33.91-.45.37-.12.78-.2,1.23-.26s.89-.1,1.32-.12c.43-.02.81-.04,1.16-.04h3.1c.31,0,.68,0,1.09.01.41,0,.83.04,1.27.09.43.05.86.13,1.28.24s.79.26,1.12.46c.33.2.59.46.8.77.2.31.3.69.3,1.14,0,.22-.02.52-.05.88-.03.36-.1.72-.2,1.07s-.25.65-.44.9-.44.38-.76.38c-.16,0-.38-.07-.67-.21-.29-.14-.62-.29-.99-.47-.38-.17-.78-.33-1.21-.47s-.87-.21-1.31-.21c-.63,0-1.07.18-1.33.53s-.39.82-.39,1.41c0,.44.09.8.28,1.09.19.29.52.44,1,.44.3,0,.61-.05.92-.16.31-.11.6-.22.87-.35.27-.13.51-.24.73-.35.22-.11.38-.16.51-.16.24,0,.44.1.59.29.15.2.27.43.35.7.08.27.14.55.17.83.03.28.05.51.05.69s-.02.41-.05.69c-.03.28-.09.56-.17.82-.08.26-.2.5-.35.69-.15.2-.35.29-.59.29-.13,0-.3-.05-.51-.16-.21-.11-.45-.22-.71-.35-.26-.13-.53-.24-.82-.34-.29-.1-.57-.15-.86-.15-.25,0-.45.05-.6.15-.15.1-.26.24-.33.41-.07.17-.12.35-.14.56-.02.21-.03.41-.03.6,0,.75.21,1.32.62,1.69s.99.56,1.72.56c.45,0,.89-.06,1.33-.2.43-.13.84-.28,1.21-.44.37-.16.7-.31.99-.44.29-.13.5-.2.65-.2.32,0,.58.13.78.38.19.25.34.55.44.9.1.35.17.71.2,1.08.03.37.05.67.05.91,0,.52-.15.96-.44,1.31-.3.35-.68.64-1.15.87-.47.22-1.01.39-1.6.51s-1.19.2-1.79.25c-.6.05-1.17.08-1.71.08s-1.01,0-1.38,0Z"/><path class="cls-2" d="m228.15,56.66c-.36,0-.79-.03-1.28-.09s-.96-.18-1.41-.35c-.45-.17-.83-.41-1.14-.71-.31-.3-.47-.7-.47-1.18,0-.08,0-.17.01-.24s.02-.16.04-.24c.13-.6.24-1.2.34-1.79.1-.59.15-1.19.15-1.81,0-1.04-.15-2.03-.44-2.95s-.76-1.8-1.41-2.62c-.05-.07-.13-.17-.24-.31-.12-.14-.24-.28-.37-.43s-.26-.27-.39-.38c-.13-.11-.25-.17-.34-.17-.06,0-.1.02-.14.06-.04.04-.06.09-.08.15-.01.06-.02.11-.03.17,0,.06,0,.11,0,.16,0,.45.03.89.08,1.33.05.44.11.89.15,1.33.13,1.26.31,2.48.54,3.68.23,1.2.59,2.39,1.08,3.56.04.12.09.24.12.36s.05.25.05.38c0,.29-.08.54-.23.75s-.35.4-.59.54-.51.27-.82.37c-.31.1-.62.17-.94.23s-.62.09-.91.11-.54.03-.74.03c-.28,0-.62-.02-1.04-.06s-.83-.11-1.24-.22c-.41-.11-.79-.25-1.12-.44-.34-.19-.57-.42-.7-.71-.1-.21-.17-.46-.2-.73-.03-.27-.05-.53-.05-.78,0-.8.08-1.61.25-2.44s.35-1.67.55-2.53c.2-.86.39-1.72.55-2.6s.25-1.77.25-2.67c0-.83-.09-1.6-.26-2.32-.17-.72-.45-1.44-.84-2.17-.05-.1-.1-.21-.14-.32s-.06-.23-.06-.36c0-.23.07-.43.21-.6.14-.17.32-.31.55-.43s.48-.22.75-.29c.28-.07.55-.13.83-.18.28-.05.54-.08.79-.09.25-.01.46-.02.62-.02.19,0,.44.01.77.04.33.02.66.07.99.15.33.07.63.18.89.33.26.14.41.34.44.58.05.33.13.63.25.89.12.26.29.52.5.79.09.12.25.3.46.55.22.25.45.49.71.73.25.24.5.45.75.63.24.18.44.27.59.27.07,0,.12-.03.15-.08.03-.06.04-.12.04-.18,0-.25-.04-.51-.12-.77-.08-.27-.18-.53-.28-.79-.11-.26-.2-.51-.29-.76-.08-.25-.12-.48-.12-.71,0-.34.13-.62.4-.83.26-.21.58-.37.95-.49.37-.12.75-.2,1.13-.24s.7-.06.95-.06.57.02.96.06.78.12,1.16.24.7.28.98.5c.27.21.41.49.41.84,0,.11-.02.22-.05.32-.03.1-.07.21-.12.31-.29.63-.51,1.25-.65,1.86s-.21,1.26-.21,1.96c0,.57.04,1.13.11,1.7.07.56.17,1.12.28,1.67.12.55.25,1.11.4,1.65s.31,1.09.46,1.63c.11.36.22.74.33,1.12.11.38.21.76.3,1.14.09.38.16.77.22,1.16s.09.78.09,1.16c0,.2-.01.4-.03.6-.02.2-.07.4-.15.59-.11.3-.33.54-.66.73s-.69.34-1.09.45c-.4.11-.8.18-1.21.22s-.74.06-1.02.06Z"/></svg>