<?xml version="1.0" encoding="UTF-8"?><svg id="knapper" xmlns="http://www.w3.org/2000/svg" width="310" height="90" viewBox="0 0 310 90"><defs><style>.cls-1{fill:rgba(255,206,113,.95);stroke:#231f20;stroke-miterlimit:10;stroke-width:5px;}.cls-2{stroke-width:0px;}</style></defs><rect class="cls-1" x="4.05" y="4.02" width="301.9" height="81.95" rx="12" ry="12"/><path class="cls-2" d="m100.82,57.03c-.35,0-.8-.04-1.34-.11-.54-.07-1.12-.18-1.73-.32-.61-.14-1.22-.33-1.84-.54-.62-.22-1.17-.48-1.66-.78-.49-.3-.89-.65-1.2-1.03s-.46-.81-.46-1.28c0-.38.1-.78.29-1.2.19-.42.45-.8.76-1.15.31-.35.67-.64,1.05-.87s.78-.34,1.18-.34c.17,0,.34.05.53.16.19.11.4.24.62.4s.47.33.73.52c.26.19.55.37.87.52s.66.29,1.03.4c.38.11.78.16,1.21.16.07,0,.15,0,.24-.01.09,0,.17-.03.25-.06.08-.03.15-.07.2-.13.06-.06.08-.14.08-.23,0-.13-.04-.26-.12-.38-.08-.13-.18-.25-.29-.37s-.24-.23-.36-.33c-.12-.1-.23-.18-.33-.24-.45-.33-.98-.61-1.57-.87s-1.21-.5-1.84-.76c-.63-.26-1.25-.53-1.85-.81-.61-.28-1.15-.62-1.62-1.02-.48-.4-.86-.86-1.15-1.4s-.44-1.17-.44-1.92.11-1.4.33-2.02c.22-.62.52-1.18.91-1.68.38-.5.83-.95,1.35-1.34.52-.39,1.08-.72,1.68-.98.6-.26,1.23-.46,1.88-.59.66-.13,1.31-.2,1.95-.2.37,0,.83.04,1.37.12.54.08,1.12.2,1.73.36.6.16,1.21.36,1.8.6.6.24,1.13.52,1.62.84s.87.67,1.16,1.07c.29.4.44.84.44,1.33,0,.33-.08.7-.25,1.09-.17.39-.38.76-.65,1.1-.27.34-.57.63-.92.86-.35.23-.7.34-1.05.34-.16,0-.36-.11-.62-.33-.25-.22-.57-.47-.94-.73-.37-.26-.82-.51-1.33-.73-.51-.22-1.11-.33-1.78-.33-.07,0-.16,0-.26.01-.1,0-.2.03-.29.07-.09.04-.17.09-.24.15s-.1.15-.1.26c0,.15.04.28.12.41s.18.23.28.33c.38.42.85.78,1.41,1.08.56.3,1.16.59,1.79.86.63.27,1.26.55,1.88.84.63.29,1.19.64,1.7,1.05.5.41.91.9,1.23,1.48.31.58.47,1.28.47,2.11,0,.68-.11,1.31-.34,1.9-.23.59-.53,1.12-.92,1.61-.39.49-.84.92-1.37,1.3-.52.38-1.08.7-1.66.96-.59.26-1.19.46-1.82.6-.63.13-1.24.2-1.84.2Z"/><path class="cls-2" d="m114.69,56.62c-.29,0-.64-.02-1.07-.06s-.85-.11-1.28-.22c-.43-.1-.83-.25-1.19-.43-.36-.19-.61-.42-.75-.71-.13-.26-.22-.56-.26-.89-.05-.33-.07-.64-.07-.93,0-.74.07-1.5.19-2.26.13-.76.27-1.53.42-2.32.15-.78.29-1.57.42-2.37.12-.79.19-1.6.19-2.41,0-.95-.1-1.83-.31-2.64s-.55-1.62-1.02-2.44c-.06-.1-.12-.21-.17-.33-.05-.12-.07-.25-.07-.38,0-.22.06-.41.19-.57.12-.16.29-.29.49-.41.2-.12.43-.21.69-.29.26-.07.51-.13.77-.17s.5-.07.73-.08c.23-.01.42-.02.58-.02.39,0,.77.04,1.14.12.37.08.75.13,1.14.13.43,0,.86-.05,1.27-.14s.83-.14,1.27-.14c.53,0,1.07.04,1.63.13.56.09,1.11.22,1.64.4s1.04.41,1.52.7c.48.28.9.62,1.25,1.02s.64.85.85,1.35c.21.51.32,1.08.32,1.71,0,.88-.18,1.66-.53,2.37s-.83,1.3-1.42,1.79c-.59.49-1.27.87-2.03,1.13-.76.27-1.55.4-2.36.4-.55,0-.98.15-1.31.44-.33.29-.49.73-.49,1.3,0,.47.1.96.3,1.47.2.51.42,1,.65,1.47s.45.91.65,1.31c.2.4.3.73.3.98,0,.28-.08.52-.24.73-.16.21-.36.39-.6.53-.24.14-.52.26-.84.36-.31.09-.63.17-.95.22-.32.06-.62.09-.91.11s-.53.03-.73.03Zm2.73-12.77c.21,0,.47-.03.78-.08.31-.06.6-.14.87-.26.28-.12.51-.28.71-.47.2-.2.3-.43.3-.71,0-.24-.09-.44-.26-.59-.18-.15-.38-.26-.62-.33s-.49-.12-.75-.15-.47-.04-.64-.04c-.45,0-.84.13-1.15.38-.31.26-.47.63-.47,1.11,0,.38.12.67.35.86.24.19.53.29.88.29Z"/><path class="cls-2" d="m129.46,56.62c-.51,0-1.01-.06-1.5-.19-.49-.12-.92-.32-1.3-.59s-.68-.61-.91-1.03c-.23-.42-.35-.92-.35-1.49,0-.76.07-1.53.22-2.29.15-.76.31-1.53.49-2.31.17-.78.34-1.56.48-2.36.15-.8.22-1.61.22-2.44s-.08-1.54-.23-2.25-.39-1.42-.71-2.15c-.05-.13-.1-.26-.15-.4-.04-.13-.06-.28-.06-.43,0-.4.13-.73.39-1,.26-.27.58-.47.96-.63.37-.15.77-.26,1.18-.32s.77-.09,1.07-.09c.35,0,.73.03,1.15.1.42.07.81.18,1.17.35.37.17.67.4.92.68.25.29.37.66.37,1.1,0,.16-.02.34-.06.54-.04.2-.08.41-.14.63-.05.21-.11.42-.16.63-.05.2-.09.39-.12.56-.07.44-.12.87-.15,1.3-.02.43-.04.87-.04,1.3,0,1.54.13,3.05.39,4.54s.62,2.97,1.09,4.42c.05.14.08.28.11.42s.04.28.04.43c0,.53-.15.98-.44,1.35-.29.37-.67.68-1.11.91s-.92.41-1.43.52c-.51.11-.98.16-1.41.16Z"/><path class="cls-2" d="m141.34,56.75c-.39,0-.81-.02-1.27-.06-.46-.04-.93-.1-1.4-.2-.47-.09-.93-.23-1.37-.4-.44-.17-.83-.39-1.17-.66-.34-.27-.62-.59-.82-.97-.21-.38-.31-.83-.31-1.34,0-.77.07-1.55.21-2.34.14-.79.3-1.58.48-2.37.18-.79.33-1.6.48-2.41.14-.81.21-1.63.21-2.47s-.09-1.66-.28-2.38c-.19-.72-.49-1.46-.9-2.21-.06-.1-.12-.21-.16-.33-.04-.12-.06-.24-.06-.37,0-.33.14-.6.41-.81.27-.2.6-.36.98-.47.38-.11.76-.19,1.16-.22s.71-.06.95-.06c.17,0,.39,0,.64.03.25.02.51.05.78.1.27.05.54.11.81.19.27.08.51.18.72.31.21.13.38.28.51.46.13.18.19.39.19.64s-.03.49-.08.75c-.06.26-.11.51-.15.75-.19.98-.35,1.96-.5,2.94-.15.98-.22,1.97-.22,2.95,0,.31,0,.66,0,1.06,0,.4.03.81.08,1.22s.13.82.23,1.22c.1.4.25.76.44,1.07.19.31.44.56.73.75.3.19.67.29,1.11.29.29,0,.63-.07,1-.22.37-.14.75-.3,1.12-.47.37-.17.73-.33,1.08-.47.35-.14.64-.22.89-.22.31,0,.56.11.78.33s.39.49.52.8c.13.32.23.64.29.98.06.33.09.62.09.87,0,.36-.06.73-.17,1.1-.11.37-.32.67-.62.89-.28.21-.61.39-.98.56-.38.17-.79.31-1.23.44-.44.12-.89.23-1.36.33-.47.09-.93.17-1.39.23-.46.06-.9.1-1.32.13-.42.03-.81.04-1.15.04Z"/><path class="cls-2" d="m161.56,56.62c-.51,0-1.01-.06-1.5-.19-.49-.12-.92-.32-1.3-.59s-.68-.61-.91-1.03c-.23-.42-.35-.92-.35-1.49,0-.76.07-1.53.22-2.29.15-.76.31-1.53.49-2.31.17-.78.34-1.56.48-2.36.15-.8.22-1.61.22-2.44s-.08-1.54-.23-2.25-.39-1.42-.71-2.15c-.05-.13-.1-.26-.15-.4-.04-.13-.06-.28-.06-.43,0-.4.13-.73.39-1,.26-.27.58-.47.96-.63.37-.15.77-.26,1.18-.32s.77-.09,1.07-.09c.35,0,.73.03,1.15.1.42.07.81.18,1.17.35.37.17.67.4.92.68.25.29.37.66.37,1.1,0,.16-.02.34-.06.54-.04.2-.08.41-.14.63-.05.21-.11.42-.16.63-.05.2-.09.39-.12.56-.07.44-.12.87-.15,1.3-.02.43-.04.87-.04,1.3,0,1.54.13,3.05.39,4.54s.62,2.97,1.09,4.42c.05.14.08.28.11.42s.04.28.04.43c0,.53-.15.98-.44,1.35-.29.37-.67.68-1.11.91s-.92.41-1.43.52c-.51.11-.98.16-1.41.16Z"/><path class="cls-2" d="m176.6,56.65c-1.45,0-2.79-.23-4.03-.68-1.24-.46-2.31-1.11-3.22-1.96-.91-.85-1.62-1.88-2.13-3.09s-.77-2.57-.77-4.07.26-2.87.77-4.11c.51-1.24,1.22-2.31,2.13-3.22.91-.9,1.98-1.6,3.23-2.1,1.25-.5,2.61-.75,4.07-.75.28,0,.6.02.96.05.36.03.74.09,1.14.17s.78.19,1.16.32.72.3,1.02.5c.3.2.54.44.73.71s.28.6.28.97c0,.3-.07.63-.21,1s-.32.71-.55,1.03c-.23.32-.5.58-.8.8-.3.21-.62.32-.95.32-.13,0-.28-.04-.44-.12-.17-.08-.35-.18-.55-.29-.2-.11-.42-.2-.66-.29s-.5-.13-.79-.13c-.64,0-1.2.16-1.68.47-.49.31-.89.71-1.21,1.19-.32.48-.56,1.01-.72,1.6-.16.59-.24,1.17-.24,1.72,0,.32.03.67.08,1.06.06.39.14.79.26,1.19.12.4.26.79.44,1.17.18.38.39.71.64,1.01.25.3.53.54.85.71.32.18.68.26,1.07.26.26,0,.5-.07.71-.21.22-.14.4-.32.55-.54.15-.22.27-.46.35-.71.08-.26.12-.5.12-.73,0-.3-.07-.58-.21-.84-.16-.29-.35-.48-.58-.59-.23-.1-.46-.17-.71-.2-.25-.03-.5-.06-.74-.07s-.47-.07-.67-.17c-.2-.1-.36-.28-.49-.53-.12-.25-.19-.63-.19-1.13,0-.36.03-.69.1-.98.06-.29.17-.54.33-.75.15-.2.36-.36.62-.47.26-.11.59-.16.98-.16h1.12c.43,0,.88.01,1.33.04.45.03.88.08,1.29.15s.75.19,1.02.33c.3.16.54.4.73.71s.34.68.45,1.08c.11.4.19.84.24,1.3s.08.92.09,1.37.02.88,0,1.29c0,.41-.01.76-.01,1.06,0,.9-.18,1.69-.53,2.35-.36.67-.83,1.22-1.41,1.65s-1.26.76-2.02.98c-.76.21-1.55.32-2.36.32Z"/><path class="cls-2" d="m191.07,56.68h-3.51c-.54-.01-1-.06-1.41-.16-.4-.1-.74-.26-1-.49-.27-.23-.47-.53-.61-.91s-.21-.86-.21-1.42c0-.77.07-1.56.21-2.36s.3-1.61.48-2.44c.17-.82.33-1.66.48-2.5.14-.85.21-1.7.21-2.57s-.09-1.73-.28-2.53-.5-1.57-.95-2.34c-.07-.12-.14-.24-.19-.37-.05-.13-.08-.26-.08-.4,0-.27.12-.5.36-.68.24-.18.54-.33.91-.45.37-.12.78-.2,1.23-.26.45-.06.89-.1,1.32-.12.42-.02.81-.04,1.16-.04h3.1c.31,0,.68,0,1.09.01.41,0,.83.04,1.27.09s.86.13,1.28.24c.42.11.79.26,1.12.46.33.2.59.46.8.77.2.31.3.69.3,1.14,0,.22-.02.52-.05.88-.03.36-.1.72-.2,1.07s-.25.65-.44.9-.44.38-.76.38c-.16,0-.38-.07-.67-.21s-.62-.29-.99-.47c-.38-.17-.78-.33-1.21-.47s-.87-.21-1.31-.21c-.63,0-1.07.18-1.33.53-.26.35-.39.82-.39,1.41,0,.44.09.8.28,1.09s.52.44,1,.44c.3,0,.61-.05.92-.16.31-.11.6-.22.87-.35.27-.13.51-.24.73-.35.22-.11.39-.16.51-.16.24,0,.44.1.59.29.15.2.27.43.35.7.08.27.14.55.17.83.03.28.05.51.05.69s-.02.41-.05.69c-.03.28-.09.56-.17.82-.08.26-.2.5-.35.69-.15.2-.35.29-.59.29-.13,0-.3-.05-.51-.16-.21-.11-.45-.22-.71-.35-.26-.13-.53-.24-.82-.34-.29-.1-.57-.15-.86-.15-.25,0-.45.05-.6.15-.15.1-.26.24-.33.41-.07.17-.12.35-.14.56-.02.21-.03.41-.03.6,0,.75.21,1.32.62,1.69s.99.56,1.72.56c.45,0,.9-.06,1.33-.2.43-.13.84-.28,1.21-.44.37-.16.7-.31.99-.44.29-.13.5-.2.65-.2.32,0,.58.13.78.38s.34.55.44.9c.1.35.17.71.2,1.08s.05.67.05.91c0,.52-.15.96-.44,1.31-.3.35-.68.64-1.15.87-.47.22-1,.39-1.6.51-.6.12-1.19.2-1.79.25-.6.05-1.17.08-1.71.08s-1.01,0-1.39,0Z"/><path class="cls-2" d="m213.79,56.66c-.36,0-.79-.03-1.28-.09-.49-.06-.96-.18-1.41-.35s-.83-.41-1.14-.71c-.31-.3-.47-.7-.47-1.18,0-.08,0-.17.01-.24,0-.08.02-.16.04-.24.13-.6.24-1.2.34-1.79s.15-1.19.15-1.81c0-1.04-.15-2.03-.44-2.95s-.76-1.8-1.41-2.62c-.05-.07-.13-.17-.24-.31-.12-.14-.24-.28-.37-.43-.13-.14-.26-.27-.39-.38-.13-.11-.25-.17-.34-.17-.06,0-.1.02-.14.06-.04.04-.06.09-.08.15-.01.06-.02.11-.03.17,0,.06,0,.11,0,.16,0,.45.03.89.08,1.33.06.44.11.89.15,1.33.13,1.26.31,2.48.54,3.68.23,1.2.59,2.39,1.08,3.56.05.12.09.24.12.36s.06.25.06.38c0,.29-.08.54-.23.75-.15.21-.35.4-.59.54s-.51.27-.82.37c-.31.1-.62.17-.94.23s-.62.09-.91.11-.54.03-.74.03c-.28,0-.62-.02-1.04-.06s-.83-.11-1.24-.22c-.41-.11-.79-.25-1.12-.44-.34-.19-.57-.42-.7-.71-.1-.21-.17-.46-.2-.73s-.05-.53-.05-.78c0-.8.08-1.61.25-2.44s.35-1.67.55-2.53c.2-.86.39-1.72.55-2.6s.25-1.77.25-2.67c0-.83-.09-1.6-.26-2.32-.17-.72-.45-1.44-.84-2.17-.05-.1-.1-.21-.15-.32-.04-.11-.06-.23-.06-.36,0-.23.07-.43.21-.6.14-.17.32-.31.55-.43s.48-.22.75-.29c.28-.07.55-.13.83-.18.28-.05.54-.08.79-.09.25-.01.46-.02.62-.02.19,0,.44.01.77.04.33.02.66.07.99.15.33.07.63.18.89.33.26.14.41.34.44.58.05.33.13.63.25.89s.29.52.5.79c.09.12.25.3.46.55.22.25.45.49.71.73.25.24.5.45.75.63.24.18.44.27.59.27.07,0,.12-.03.15-.08.03-.06.04-.12.04-.18,0-.25-.04-.51-.12-.77-.08-.27-.18-.53-.28-.79-.11-.26-.2-.51-.28-.76-.08-.25-.12-.48-.12-.71,0-.34.13-.62.4-.83.26-.21.58-.37.95-.49.37-.12.75-.2,1.13-.24.38-.04.7-.06.95-.06s.57.02.96.06.78.12,1.16.24.7.28.98.5.41.49.41.84c0,.11-.02.22-.05.32s-.07.21-.12.31c-.3.63-.51,1.25-.65,1.86s-.21,1.26-.21,1.96c0,.57.04,1.13.11,1.7.07.56.17,1.12.28,1.67.12.55.25,1.11.4,1.65s.31,1.09.46,1.63c.11.36.22.74.33,1.12.11.38.21.76.3,1.14.09.38.16.77.22,1.16.06.39.09.78.09,1.16,0,.2-.01.4-.03.6-.02.2-.07.4-.15.59-.11.3-.33.54-.66.73-.33.19-.69.34-1.09.45-.4.11-.8.18-1.21.22-.4.04-.74.06-1.02.06Z"/></svg>