<?xml version="1.0" encoding="UTF-8"?><svg id="knapper" xmlns="http://www.w3.org/2000/svg" width="400" height="100" viewBox="0 0 400 100"><defs><style>.cls-1{fill:rgba(255,206,113,.95);stroke:#231f20;stroke-miterlimit:10;stroke-width:5px;}.cls-2{stroke-width:0px;}</style></defs><rect class="cls-1" x="5.61" y="3.26" width="388.77" height="93.49" rx="12" ry="12"/><path class="cls-2" d="m145.52,63.31c-1.05,0-1.93-.14-2.63-.42-.7-.28-1.27-.65-1.7-1.12-.43-.47-.77-1.01-1-1.64-.23-.62-.42-1.29-.55-1.98-.14-.7-.24-1.41-.32-2.15s-.18-1.45-.31-2.13-.31-1.32-.54-1.93-.57-1.12-1.01-1.54c-.16-.16-.34-.3-.54-.45-.21-.14-.43-.21-.67-.21-.17,0-.31.04-.4.12-.1.08-.17.18-.22.31-.05.13-.08.26-.11.4s-.03.28-.03.4c0,.51.08,1.13.23,1.84s.35,1.46.59,2.21.49,1.49.76,2.19.51,1.3.72,1.78c.09.18.16.38.21.58.06.2.09.4.09.6,0,.44-.12.82-.36,1.14s-.55.59-.94.82c-.38.23-.82.41-1.3.55-.48.14-.97.25-1.46.34-.49.09-.96.14-1.42.17s-.84.04-1.15.04c-.44,0-.99-.03-1.64-.09-.65-.06-1.31-.17-1.97-.33-.66-.16-1.26-.39-1.8-.67-.54-.28-.92-.65-1.13-1.09-.17-.35-.29-.76-.35-1.22-.06-.46-.1-.88-.1-1.27,0-1.18.12-2.38.35-3.6.23-1.22.49-2.46.77-3.71.28-1.25.53-2.52.77-3.81.23-1.29.35-2.6.35-3.92s-.14-2.59-.43-3.77c-.28-1.18-.77-2.34-1.45-3.49-.1-.16-.18-.32-.26-.5-.07-.18-.11-.37-.11-.56,0-.34.1-.63.3-.88.2-.25.45-.46.77-.64.31-.18.67-.32,1.06-.44.4-.11.79-.2,1.19-.27.4-.06.77-.11,1.13-.14.36-.03.65-.04.89-.04.62,0,1.24.05,1.85.14.61.09,1.21.24,1.81.44.77-.17,1.54-.31,2.33-.42s1.58-.16,2.38-.16c1.14,0,2.29.15,3.46.44,1.17.29,2.23.75,3.18,1.36s1.73,1.41,2.33,2.36c.6.96.91,2.1.91,3.42,0,.74-.11,1.44-.33,2.11-.22.67-.52,1.29-.91,1.87-.38.58-.83,1.12-1.34,1.63-.51.5-1.06.96-1.64,1.35.37.31.69.65.97,1.02.28.37.53.76.76,1.17.35.68.68,1.37.98,2.08.3.7.61,1.4.93,2.09s.66,1.37,1.03,2.03c.37.67.8,1.3,1.3,1.9.24.28.44.6.6.94s.23.7.23,1.09c0,.64-.17,1.19-.5,1.65-.33.46-.75.84-1.26,1.14-.5.3-1.05.51-1.65.65s-1.16.2-1.7.2Zm-9.26-19.25c.37,0,.79-.05,1.27-.15.47-.1.93-.25,1.35-.46.43-.21.78-.48,1.08-.81.29-.33.44-.73.44-1.2,0-.4-.15-.71-.45-.93-.3-.22-.66-.38-1.08-.49s-.84-.17-1.28-.19c-.43-.02-.79-.03-1.05-.03-.67,0-1.21.21-1.64.62-.43.41-.64.96-.64,1.64,0,.6.19,1.08.56,1.45s.86.55,1.44.55Z"/><path class="cls-2" d="m162.67,63.33l-5.39-.02c-.82,0-1.54-.07-2.16-.22-.62-.15-1.13-.4-1.54-.75s-.72-.81-.94-1.4c-.21-.58-.32-1.31-.32-2.17,0-1.18.11-2.38.33-3.6.22-1.22.46-2.46.73-3.72s.51-2.53.73-3.82c.22-1.29.33-2.6.33-3.92s-.15-2.65-.44-3.85c-.29-1.21-.78-2.4-1.46-3.58-.11-.18-.21-.37-.29-.56s-.12-.39-.12-.61c0-.41.18-.76.55-1.03.37-.28.84-.5,1.41-.68.57-.18,1.2-.31,1.89-.39.7-.08,1.37-.14,2.02-.18.65-.04,1.25-.05,1.79-.05h4.77c.48,0,1.04,0,1.67.02.63.01,1.28.06,1.95.14.67.08,1.32.2,1.97.36.65.16,1.22.4,1.72.7.5.3.91.7,1.22,1.17s.47,1.05.47,1.74c0,.34-.03.79-.08,1.34s-.15,1.1-.31,1.63c-.16.53-.38.99-.67,1.37-.29.38-.68.58-1.16.58-.24,0-.58-.11-1.02-.32-.44-.21-.95-.45-1.52-.71-.58-.26-1.19-.5-1.85-.71s-1.33-.32-2.01-.32c-.97,0-1.65.27-2.04.81-.4.54-.6,1.26-.6,2.15,0,.67.14,1.22.43,1.67.28.45.79.67,1.53.67.47,0,.94-.08,1.42-.25s.92-.34,1.33-.53c.41-.19.78-.37,1.12-.53.33-.16.59-.24.78-.24.37,0,.67.15.91.45.23.3.42.65.54,1.06.13.41.22.83.27,1.27.05.43.08.78.08,1.05s-.03.62-.08,1.05c-.05.43-.14.85-.27,1.26-.13.41-.31.76-.54,1.05-.23.3-.54.45-.91.45-.2,0-.46-.08-.79-.25-.33-.16-.69-.34-1.09-.53-.4-.19-.82-.37-1.26-.52-.44-.16-.88-.23-1.32-.23-.38,0-.69.08-.92.23-.23.16-.4.36-.51.62-.11.26-.18.54-.21.85-.03.31-.04.62-.04.92,0,1.15.32,2.01.96,2.58.64.57,1.52.85,2.64.85.7,0,1.38-.1,2.04-.3.67-.2,1.29-.42,1.86-.67.58-.25,1.08-.47,1.52-.67.44-.2.77-.3,1-.3.5,0,.89.19,1.19.58.3.38.53.84.68,1.37s.26,1.08.31,1.65c.05.57.07,1.03.07,1.38,0,.79-.23,1.46-.68,2-.45.54-1.04.98-1.77,1.32-.72.34-1.54.6-2.46.78-.92.18-1.83.3-2.75.38-.92.08-1.79.12-2.63.13-.84,0-1.55.01-2.13.01Z"/><path class="cls-2" d="m190.52,63.28c-2.23,0-4.29-.35-6.2-1.04-1.9-.7-3.55-1.69-4.95-2.99-1.4-1.3-2.49-2.87-3.28-4.72s-1.18-3.92-1.18-6.22.39-4.38,1.18-6.27,1.88-3.53,3.27-4.91c1.39-1.38,3.05-2.45,4.96-3.21,1.92-.76,4-1.14,6.26-1.14.43,0,.92.03,1.48.08.56.05,1.14.13,1.75.25.6.12,1.2.28,1.78.49s1.1.46,1.57.77c.46.31.83.67,1.12,1.09.28.42.43.91.43,1.48,0,.45-.11.96-.32,1.52-.21.56-.5,1.08-.85,1.57-.35.48-.76.89-1.22,1.21-.46.33-.95.49-1.46.49-.2,0-.43-.06-.68-.19-.26-.13-.54-.27-.84-.44-.3-.16-.64-.31-1.01-.44s-.77-.19-1.21-.19c-.98,0-1.84.24-2.59.71-.75.48-1.36,1.08-1.85,1.81-.49.73-.86,1.55-1.11,2.45-.25.9-.37,1.78-.37,2.63,0,.48.04,1.02.13,1.62.08.6.22,1.2.39,1.81.18.61.4,1.2.68,1.78.28.58.61,1.09.99,1.54.38.46.82.82,1.31,1.09.49.27,1.04.4,1.65.4.4,0,.76-.11,1.1-.32.33-.21.62-.49.85-.82.23-.33.42-.7.54-1.09s.19-.76.19-1.12c0-.45-.11-.88-.32-1.28-.24-.44-.54-.74-.88-.89s-.71-.26-1.1-.31c-.38-.05-.76-.09-1.14-.11-.38-.02-.72-.11-1.02-.27-.3-.16-.55-.43-.75-.81-.19-.38-.29-.96-.29-1.72,0-.55.05-1.05.15-1.5s.27-.83.5-1.14.55-.55.95-.71.9-.25,1.51-.25h1.72c.67,0,1.35.02,2.04.06.7.04,1.36.12,1.99.23.63.11,1.15.28,1.57.51.45.24.83.6,1.12,1.09.29.48.52,1.03.69,1.65.17.62.29,1.28.36,1.98.07.7.12,1.4.14,2.09s.02,1.34.01,1.97c-.01.62-.02,1.16-.02,1.62,0,1.38-.27,2.57-.82,3.59s-1.27,1.86-2.17,2.52c-.9.67-1.94,1.16-3.11,1.49-1.17.33-2.38.49-3.63.49Z"/><path class="cls-2" d="m212.07,63.43c-.6,0-1.25-.03-1.96-.08s-1.43-.16-2.15-.3c-.72-.14-1.42-.34-2.1-.61-.67-.26-1.27-.6-1.8-1-.53-.41-.95-.9-1.27-1.48s-.48-1.26-.48-2.04c0-1.18.11-2.37.33-3.57.22-1.2.46-2.41.74-3.62.27-1.21.51-2.44.73-3.67.22-1.24.33-2.49.33-3.77s-.14-2.53-.43-3.63c-.28-1.1-.75-2.23-1.38-3.38-.1-.16-.18-.32-.25-.5-.06-.18-.1-.37-.1-.56,0-.51.21-.92.63-1.23s.92-.55,1.5-.72c.58-.17,1.17-.28,1.78-.34s1.09-.08,1.46-.08c.27,0,.6.01.98.04.38.03.79.08,1.2.15.42.07.83.17,1.25.29.41.12.78.28,1.11.48.33.2.59.43.79.7s.3.6.3.98-.04.75-.13,1.15c-.09.4-.16.78-.23,1.15-.28,1.49-.54,2.99-.77,4.48-.23,1.5-.34,3-.34,4.5,0,.47,0,1.01.01,1.62,0,.61.05,1.23.13,1.86s.2,1.25.35,1.86.38,1.15.68,1.63c.3.48.67.86,1.13,1.15s1.02.44,1.7.44c.45,0,.97-.11,1.54-.33.57-.22,1.15-.46,1.72-.72s1.13-.5,1.66-.72c.53-.22.99-.33,1.37-.33.47,0,.87.17,1.19.5.33.33.59.74.8,1.22.21.48.35.98.45,1.49.09.51.14.95.14,1.32,0,.55-.08,1.12-.25,1.68-.17.57-.49,1.02-.96,1.36-.43.31-.93.6-1.51.85s-1.21.48-1.88.67c-.67.19-1.37.36-2.09.5-.72.14-1.43.26-2.13.35-.7.09-1.38.16-2.03.2-.65.04-1.24.06-1.77.06Z"/><path class="cls-2" d="m236.59,63.33l-5.39-.02c-.82,0-1.54-.07-2.16-.22-.62-.15-1.13-.4-1.54-.75s-.72-.81-.94-1.4c-.21-.58-.32-1.31-.32-2.17,0-1.18.11-2.38.33-3.6.22-1.22.46-2.46.73-3.72s.51-2.53.73-3.82c.22-1.29.33-2.6.33-3.92s-.15-2.65-.44-3.85c-.29-1.21-.78-2.4-1.46-3.58-.11-.18-.21-.37-.29-.56s-.12-.39-.12-.61c0-.41.18-.76.55-1.03.37-.28.84-.5,1.41-.68.57-.18,1.2-.31,1.89-.39.7-.08,1.37-.14,2.02-.18.65-.04,1.25-.05,1.79-.05h4.77c.48,0,1.04,0,1.67.02.63.01,1.28.06,1.95.14.67.08,1.32.2,1.97.36.65.16,1.22.4,1.72.7.5.3.91.7,1.22,1.17s.47,1.05.47,1.74c0,.34-.03.79-.08,1.34s-.15,1.1-.31,1.63c-.16.53-.38.99-.67,1.37-.29.38-.68.58-1.16.58-.24,0-.58-.11-1.02-.32-.44-.21-.95-.45-1.52-.71-.58-.26-1.19-.5-1.85-.71s-1.33-.32-2.01-.32c-.97,0-1.65.27-2.04.81-.4.54-.6,1.26-.6,2.15,0,.67.14,1.22.43,1.67.28.45.79.67,1.53.67.47,0,.94-.08,1.42-.25s.92-.34,1.33-.53c.41-.19.78-.37,1.12-.53.33-.16.59-.24.78-.24.37,0,.67.15.91.45.23.3.42.65.54,1.06.13.41.22.83.27,1.27.05.43.08.78.08,1.05s-.03.62-.08,1.05c-.05.43-.14.85-.27,1.26-.13.41-.31.76-.54,1.05-.23.3-.54.45-.91.45-.2,0-.46-.08-.79-.25-.33-.16-.69-.34-1.09-.53-.4-.19-.82-.37-1.26-.52-.44-.16-.88-.23-1.32-.23-.38,0-.69.08-.92.23-.23.16-.4.36-.51.62-.11.26-.18.54-.21.85-.03.31-.04.62-.04.92,0,1.15.32,2.01.96,2.58.64.57,1.52.85,2.64.85.7,0,1.38-.1,2.04-.3.67-.2,1.29-.42,1.86-.67.58-.25,1.08-.47,1.52-.67.44-.2.77-.3,1-.3.5,0,.89.19,1.19.58.3.38.53.84.68,1.37s.26,1.08.31,1.65c.05.57.07,1.03.07,1.38,0,.79-.23,1.46-.68,2-.45.54-1.04.98-1.77,1.32-.72.34-1.54.6-2.46.78-.92.18-1.83.3-2.75.38-.92.08-1.79.12-2.63.13-.84,0-1.55.01-2.13.01Z"/><path class="cls-2" d="m271.6,63.31c-1.05,0-1.93-.14-2.63-.42-.7-.28-1.27-.65-1.7-1.12-.43-.47-.77-1.01-1-1.64-.23-.62-.42-1.29-.55-1.98-.14-.7-.24-1.41-.32-2.15s-.18-1.45-.31-2.13-.31-1.32-.54-1.93-.57-1.12-1.01-1.54c-.16-.16-.34-.3-.54-.45-.21-.14-.43-.21-.67-.21-.17,0-.31.04-.4.12-.1.08-.17.18-.22.31-.05.13-.08.26-.11.4s-.03.28-.03.4c0,.51.08,1.13.23,1.84s.35,1.46.59,2.21.49,1.49.76,2.19.51,1.3.72,1.78c.09.18.16.38.21.58.06.2.09.4.09.6,0,.44-.12.82-.36,1.14s-.55.59-.94.82c-.38.23-.82.41-1.3.55-.48.14-.97.25-1.46.34-.49.09-.96.14-1.42.17s-.84.04-1.15.04c-.44,0-.99-.03-1.64-.09-.65-.06-1.31-.17-1.97-.33-.66-.16-1.26-.39-1.8-.67-.54-.28-.92-.65-1.13-1.09-.17-.35-.29-.76-.35-1.22-.06-.46-.1-.88-.1-1.27,0-1.18.12-2.38.35-3.6.23-1.22.49-2.46.77-3.71.28-1.25.53-2.52.77-3.81.23-1.29.35-2.6.35-3.92s-.14-2.59-.43-3.77c-.28-1.18-.77-2.34-1.45-3.49-.1-.16-.18-.32-.26-.5-.07-.18-.11-.37-.11-.56,0-.34.1-.63.3-.88.2-.25.45-.46.77-.64.31-.18.67-.32,1.06-.44.4-.11.79-.2,1.19-.27.4-.06.77-.11,1.13-.14.36-.03.65-.04.89-.04.62,0,1.24.05,1.85.14.61.09,1.21.24,1.81.44.77-.17,1.54-.31,2.33-.42s1.58-.16,2.38-.16c1.14,0,2.29.15,3.46.44,1.17.29,2.23.75,3.18,1.36s1.73,1.41,2.33,2.36c.6.96.91,2.1.91,3.42,0,.74-.11,1.44-.33,2.11-.22.67-.52,1.29-.91,1.87-.38.58-.83,1.12-1.34,1.63-.51.5-1.06.96-1.64,1.35.37.31.69.65.97,1.02.28.37.53.76.76,1.17.35.68.68,1.37.98,2.08.3.7.61,1.4.93,2.09s.66,1.37,1.03,2.03c.37.67.8,1.3,1.3,1.9.24.28.44.6.6.94s.23.7.23,1.09c0,.64-.17,1.19-.5,1.65-.33.46-.75.84-1.26,1.14-.5.3-1.05.51-1.65.65s-1.16.2-1.7.2Zm-9.26-19.25c.37,0,.79-.05,1.27-.15.47-.1.93-.25,1.35-.46.43-.21.78-.48,1.08-.81.29-.33.44-.73.44-1.2,0-.4-.15-.71-.45-.93-.3-.22-.66-.38-1.08-.49s-.84-.17-1.28-.19c-.43-.02-.79-.03-1.05-.03-.67,0-1.21.21-1.64.62-.43.41-.64.96-.64,1.64,0,.6.19,1.08.56,1.45s.86.55,1.44.55Z"/></svg>