<?xml version="1.0" encoding="UTF-8"?><svg xmlns="http://www.w3.org/2000/svg" width="320" height="90" xmlns:xlink="http://www.w3.org/1999/xlink" viewBox="0 0 320 90"><defs><style>.cls-1,.cls-2{fill:#001cff;}.cls-2,.cls-3,.cls-4,.cls-5{stroke-miterlimit:10;}.cls-2,.cls-3,.cls-5{stroke:#000;}.cls-3{fill:#7f8491;}.cls-4{fill:#369a97;stroke:#231f20;}.cls-5{fill:none;}.cls-6{filter:url(#drop-shadow-17);}.cls-7{filter:url(#drop-shadow-18);}.cls-8{filter:url(#drop-shadow-10);}</style><clipPath id="clippath"><path class="cls-2" d="m-639.37,90.41c-58.66-24.48-72.95-92.95-72.95-92.95-28.95-119.54,22.64-189.1,35.43-204.06,1.67-1.95,4.1-3.06,6.66-3.06h61.14c2.01,0,3.92.86,5.26,2.36,11.92,13.37,66.95,83.24,37.52,204.77,0,0-14.22,63.29,75.32,38.61.12-.03.24-.07.36-.12l24.32-8.82c.22-.08.44-.18.64-.29,3.56-1.97,37.06-20.08,7.91,13.42-30.99,35.63-40.64,40.56-72.3,50.14-32.23,9.75-63.04,9.73-109.32,0"/></clipPath><filter id="drop-shadow-10" filterUnits="userSpaceOnUse"><feOffset dx="-3" dy="3"/><feGaussianBlur result="blur" stdDeviation="0"/><feFlood flood-color="#000" flood-opacity=".5"/><feComposite in2="blur" operator="in"/><feComposite in="SourceGraphic"/></filter><filter id="drop-shadow-17" filterUnits="userSpaceOnUse"><feOffset dx="-3" dy="3"/><feGaussianBlur result="blur-2" stdDeviation="0"/><feFlood flood-color="#000" flood-opacity=".5"/><feComposite in2="blur-2" operator="in"/><feComposite in="SourceGraphic"/></filter><filter id="drop-shadow-18" filterUnits="userSpaceOnUse"><feOffset dx="-3" dy="3"/><feGaussianBlur result="blur-3" stdDeviation="0"/><feFlood flood-color="#000" flood-opacity=".5"/><feComposite in2="blur-3" operator="in"/><feComposite in="SourceGraphic"/></filter></defs><g id="Pearlina"><path class="cls-1" d="m-639.37,90.41c-58.66-24.48-72.95-92.95-72.95-92.95-28.95-119.54,22.64-189.1,35.43-204.06,1.67-1.95,4.1-3.06,6.66-3.06h61.14c2.01,0,3.92.86,5.26,2.36,11.92,13.37,66.95,83.24,37.52,204.77,0,0-14.22,63.29,75.32,38.61.12-.03.24-.07.36-.12l24.32-8.82c.22-.08.44-.18.64-.29,3.56-1.97,37.06-20.08,7.91,13.42-30.99,35.63-40.64,40.56-72.3,50.14-32.23,9.75-63.04,9.73-109.32,0"/><path class="cls-5" d="m-639.37,90.41c-58.66-24.48-72.95-92.95-72.95-92.95-28.95-119.54,22.64-189.1,35.43-204.06,1.67-1.95,4.1-3.06,6.66-3.06h61.14c2.01,0,3.92.86,5.26,2.36,11.92,13.37,66.95,83.24,37.52,204.77,0,0-14.22,63.29,75.32,38.61.12-.03.24-.07.36-.12l24.32-8.82c.22-.08.44-.18.64-.29,3.56-1.97,37.06-20.08,7.91,13.42-30.99,35.63-40.64,40.56-72.3,50.14-32.23,9.75-63.04,9.73-109.32,0"/></g><g id="Liv"><g class="cls-8"><path class="cls-3" d="m158.37,82.66s-13.58-29.85-26.63-39.87c-4.71-3.62-9.34-4.65-13.24-.77-3.85,3.83-2.96,8.44.47,13.16,9.65,13.31,39.4,27.49,39.4,27.49Z"/><path class="cls-3" d="m159.01,82.66s-.6-40.63-10.43-58.48c-3.55-6.44-8.29-9.92-14.65-7.45-6.27,2.43-7.54,8.11-6,15.17,4.35,19.9,31.08,50.76,31.08,50.76Z"/><path class="cls-3" d="m161.63,82.66s13.58-29.85,26.63-39.87c4.71-3.62,9.34-4.65,13.24-.77,3.85,3.83,2.96,8.44-.47,13.16-9.65,13.31-39.4,27.49-39.4,27.49Z"/><path class="cls-3" d="m160.87,82.66s.6-40.63,10.43-58.48c3.55-6.44,8.29-9.92,14.65-7.45,6.27,2.43,7.54,8.11,6,15.17-4.35,19.9-31.08,50.76-31.08,50.76Z"/><path class="cls-3" d="m159.8,82.66s-15.08-41.49-12-63.41c1.11-7.91,4.59-13.28,12-13.23,7.31.05,10.79,5.32,11.95,13.09,3.27,21.89-11.95,63.55-11.95,63.55Z"/><path class="cls-3" d="m160.2,83.65s-12.63-8.71-20.17-8.93c-2.72-.08-4.78.95-5.34,3.89-.56,2.9.93,4.63,3.42,5.6,7.03,2.74,22.1-.57,22.1-.57Z"/><path class="cls-3" d="m159.39,83.65s12.63-8.71,20.17-8.93c2.72-.08,4.78.95,5.34,3.89.56,2.9-.93,4.63-3.42,5.6-7.03,2.74-22.1-.57-22.1-.57Z"/></g><g class="cls-6"><path class="cls-3" d="m266.38,81.34s-13.58-29.85-26.63-39.87c-4.71-3.62-9.34-4.65-13.24-.77-3.85,3.83-2.96,8.44.47,13.16,9.65,13.31,39.4,27.49,39.4,27.49Z"/><path class="cls-3" d="m267.02,81.34s-.6-40.63-10.43-58.48c-3.55-6.44-8.29-9.92-14.65-7.45-6.27,2.43-7.54,8.11-6,15.17,4.35,19.9,31.08,50.76,31.08,50.76Z"/><path class="cls-3" d="m269.63,81.34s13.58-29.85,26.63-39.87c4.71-3.62,9.34-4.65,13.24-.77,3.85,3.83,2.96,8.44-.47,13.16-9.65,13.31-39.4,27.49-39.4,27.49Z"/><path class="cls-3" d="m268.88,81.34s.6-40.63,10.43-58.48c3.55-6.44,8.29-9.92,14.65-7.45,6.27,2.43,7.54,8.11,6,15.17-4.35,19.9-31.08,50.76-31.08,50.76Z"/><path class="cls-3" d="m267.81,81.34s-15.08-41.49-12-63.41c1.11-7.91,4.59-13.28,12-13.23,7.31.05,10.79,5.32,11.95,13.09,3.27,21.89-11.95,63.55-11.95,63.55Z"/><path class="cls-3" d="m268.21,82.33s-12.63-8.71-20.17-8.93c-2.72-.08-4.78.95-5.34,3.89-.56,2.9.93,4.63,3.42,5.6,7.03,2.74,22.1-.57,22.1-.57Z"/><path class="cls-3" d="m267.4,82.33s12.63-8.71,20.17-8.93c2.72-.08,4.78.95,5.34,3.89.56,2.9-.93,4.63-3.42,5.6-7.03,2.74-22.1-.57-22.1-.57Z"/></g><g class="cls-7"><path class="cls-4" d="m53.62,82.66s13.58-29.85,26.63-39.87c4.71-3.62,9.34-4.65,13.24-.77,3.85,3.83,2.96,8.44-.47,13.16-9.65,13.31-39.4,27.49-39.4,27.49Z"/><path class="cls-4" d="m52.98,82.66s.6-40.63,10.43-58.48c3.55-6.44,8.29-9.92,14.65-7.45,6.27,2.43,7.54,8.11,6,15.17-4.35,19.9-31.08,50.76-31.08,50.76Z"/><path class="cls-4" d="m50.37,82.66s-13.58-29.85-26.63-39.87c-4.71-3.62-9.34-4.65-13.24-.77-3.85,3.83-2.96,8.44.47,13.16,9.65,13.31,39.4,27.49,39.4,27.49Z"/><path class="cls-4" d="m51.12,82.66s-.6-40.63-10.43-58.48c-3.55-6.44-8.29-9.92-14.65-7.45s-7.54,8.11-6,15.17c4.35,19.9,31.08,50.76,31.08,50.76Z"/><path class="cls-4" d="m52.19,82.66s15.08-41.49,12-63.41c-1.11-7.91-4.59-13.28-12-13.23-7.31.05-10.79,5.32-11.95,13.09-3.27,21.89,11.95,63.55,11.95,63.55Z"/><path class="cls-4" d="m51.79,83.65s12.63-8.71,20.17-8.93c2.72-.08,4.78.95,5.34,3.89s-.93,4.63-3.42,5.6c-7.03,2.74-22.1-.57-22.1-.57Z"/><path class="cls-4" d="m52.6,83.65s-12.63-8.71-20.17-8.93c-2.72-.08-4.78.95-5.34,3.89-.56,2.9.93,4.63,3.42,5.6,7.03,2.74,22.1-.57,22.1-.57Z"/></g></g></svg>