<?xml version="1.0" encoding="UTF-8"?><svg id="Liv" xmlns="http://www.w3.org/2000/svg" width="320" height="90" xmlns:xlink="http://www.w3.org/1999/xlink" viewBox="0 0 320 90"><defs><style>.cls-1{fill:#369a97;stroke:#231f20;stroke-miterlimit:10;}.cls-2{filter:url(#drop-shadow-14);}.cls-3{filter:url(#drop-shadow-12);}.cls-4{filter:url(#drop-shadow-13);}</style><filter id="drop-shadow-12" filterUnits="userSpaceOnUse"><feOffset dx="-3" dy="3"/><feGaussianBlur result="blur" stdDeviation="0"/><feFlood flood-color="#000" flood-opacity=".5"/><feComposite in2="blur" operator="in"/><feComposite in="SourceGraphic"/></filter><filter id="drop-shadow-13" filterUnits="userSpaceOnUse"><feOffset dx="-3" dy="3"/><feGaussianBlur result="blur-2" stdDeviation="0"/><feFlood flood-color="#000" flood-opacity=".5"/><feComposite in2="blur-2" operator="in"/><feComposite in="SourceGraphic"/></filter><filter id="drop-shadow-14" filterUnits="userSpaceOnUse"><feOffset dx="-3" dy="3"/><feGaussianBlur result="blur-3" stdDeviation="0"/><feFlood flood-color="#000" flood-opacity=".5"/><feComposite in2="blur-3" operator="in"/><feComposite in="SourceGraphic"/></filter></defs><g class="cls-3"><path class="cls-1" d="m54.11,82.66s13.58-29.85,26.63-39.87c4.71-3.62,9.34-4.65,13.24-.77,3.85,3.83,2.96,8.44-.47,13.16-9.65,13.31-39.4,27.49-39.4,27.49Z"/><path class="cls-1" d="m53.47,82.66s.6-40.63,10.43-58.48c3.55-6.44,8.29-9.92,14.65-7.45,6.27,2.43,7.54,8.11,6,15.17-4.35,19.9-31.08,50.76-31.08,50.76Z"/><path class="cls-1" d="m50.86,82.66s-13.58-29.85-26.63-39.87c-4.71-3.62-9.34-4.65-13.24-.77-3.85,3.83-2.96,8.44.47,13.16,9.65,13.31,39.4,27.49,39.4,27.49Z"/><path class="cls-1" d="m51.62,82.66s-.6-40.63-10.43-58.48c-3.55-6.44-8.29-9.92-14.65-7.45s-7.54,8.11-6,15.17c4.35,19.9,31.08,50.76,31.08,50.76Z"/><path class="cls-1" d="m52.69,82.66s15.08-41.49,12-63.41c-1.11-7.91-4.59-13.28-12-13.23s-10.79,5.32-11.95,13.09c-3.27,21.89,11.95,63.55,11.95,63.55Z"/><path class="cls-1" d="m52.28,83.65s12.63-8.71,20.17-8.93c2.72-.08,4.78.95,5.34,3.89.56,2.9-.93,4.63-3.42,5.6-7.03,2.74-22.1-.57-22.1-.57Z"/><path class="cls-1" d="m53.09,83.65s-12.63-8.71-20.17-8.93c-2.72-.08-4.78.95-5.34,3.89-.56,2.9.93,4.63,3.42,5.6,7.03,2.74,22.1-.57,22.1-.57Z"/></g><g class="cls-4"><path class="cls-1" d="m161.63,82.66s13.58-29.85,26.63-39.87c4.71-3.62,9.34-4.65,13.24-.77,3.85,3.83,2.96,8.44-.47,13.16-9.65,13.31-39.4,27.49-39.4,27.49Z"/><path class="cls-1" d="m160.99,82.66s.6-40.63,10.43-58.48c3.55-6.44,8.29-9.92,14.65-7.45,6.27,2.43,7.54,8.11,6,15.17-4.35,19.9-31.08,50.76-31.08,50.76Z"/><path class="cls-1" d="m158.37,82.66s-13.58-29.85-26.63-39.87c-4.71-3.62-9.34-4.65-13.24-.77-3.85,3.83-2.96,8.44.47,13.16,9.65,13.31,39.4,27.49,39.4,27.49Z"/><path class="cls-1" d="m159.13,82.66s-.6-40.63-10.43-58.48c-3.55-6.44-8.29-9.92-14.65-7.45s-7.54,8.11-6,15.17c4.35,19.9,31.08,50.76,31.08,50.76Z"/><path class="cls-1" d="m160.2,82.66s15.08-41.49,12-63.41c-1.11-7.91-4.59-13.28-12-13.23s-10.79,5.32-11.95,13.09c-3.27,21.89,11.95,63.55,11.95,63.55Z"/><path class="cls-1" d="m159.8,83.65s12.63-8.71,20.17-8.93c2.72-.08,4.78.95,5.34,3.89.56,2.9-.93,4.63-3.42,5.6-7.03,2.74-22.1-.57-22.1-.57Z"/><path class="cls-1" d="m160.61,83.65s-12.63-8.71-20.17-8.93c-2.72-.08-4.78.95-5.34,3.89-.56,2.9.93,4.63,3.42,5.6,7.03,2.74,22.1-.57,22.1-.57Z"/></g><g class="cls-2"><path class="cls-1" d="m269.14,81.34s13.58-29.85,26.63-39.87c4.71-3.62,9.34-4.65,13.24-.77s2.96,8.44-.47,13.16c-9.65,13.31-39.4,27.49-39.4,27.49Z"/><path class="cls-1" d="m268.5,81.34s.6-40.63,10.43-58.48c3.55-6.44,8.29-9.92,14.65-7.45s7.54,8.11,6,15.17c-4.35,19.9-31.08,50.76-31.08,50.76Z"/><path class="cls-1" d="m265.89,81.34s-13.58-29.85-26.63-39.87c-4.71-3.62-9.34-4.65-13.24-.77-3.85,3.83-2.96,8.44.47,13.16,9.65,13.31,39.4,27.49,39.4,27.49Z"/><path class="cls-1" d="m266.64,81.34s-.6-40.63-10.43-58.48c-3.55-6.44-8.29-9.92-14.65-7.45s-7.54,8.11-6,15.17c4.35,19.9,31.08,50.76,31.08,50.76Z"/><path class="cls-1" d="m267.72,81.34s15.08-41.49,12-63.41c-1.11-7.91-4.59-13.28-12-13.23s-10.79,5.32-11.95,13.09c-3.27,21.89,11.95,63.55,11.95,63.55Z"/><path class="cls-1" d="m267.31,82.33s12.63-8.71,20.17-8.93c2.72-.08,4.78.95,5.34,3.89s-.93,4.63-3.42,5.6c-7.03,2.74-22.1-.57-22.1-.57Z"/><path class="cls-1" d="m268.12,82.33s-12.63-8.71-20.17-8.93c-2.72-.08-4.78.95-5.34,3.89-.56,2.9.93,4.63,3.42,5.6,7.03,2.74,22.1-.57,22.1-.57Z"/></g></svg>