<?xml version="1.0" encoding="UTF-8"?><svg id="Liv" xmlns="http://www.w3.org/2000/svg" width="100" height="90" xmlns:xlink="http://www.w3.org/1999/xlink" viewBox="0 0 100 90"><defs><style>.cls-1{fill:#7f8491;stroke:#000;stroke-miterlimit:10;}.cls-2{filter:url(#drop-shadow-20);}</style><filter id="drop-shadow-20" filterUnits="userSpaceOnUse"><feOffset dx="-3" dy="3"/><feGaussianBlur result="blur" stdDeviation="0"/><feFlood flood-color="#000" flood-opacity=".5"/><feComposite in2="blur" operator="in"/><feComposite in="SourceGraphic"/></filter></defs><g class="cls-2"><path class="cls-1" d="m48.37,82s-13.58-29.85-26.63-39.87c-4.71-3.62-9.34-4.65-13.24-.77-3.85,3.83-2.96,8.44.47,13.16,9.65,13.31,39.4,27.49,39.4,27.49Z"/><path class="cls-1" d="m49.01,82s-.6-40.63-10.43-58.48c-3.55-6.44-8.29-9.92-14.65-7.45-6.27,2.43-7.54,8.11-6,15.17,4.35,19.9,31.08,50.76,31.08,50.76Z"/><path class="cls-1" d="m51.63,82s13.58-29.85,26.63-39.87c4.71-3.62,9.34-4.65,13.24-.77,3.85,3.83,2.96,8.44-.47,13.16-9.65,13.31-39.4,27.49-39.4,27.49Z"/><path class="cls-1" d="m50.87,82s.6-40.63,10.43-58.48c3.55-6.44,8.29-9.92,14.65-7.45,6.27,2.43,7.54,8.11,6,15.17-4.35,19.9-31.08,50.76-31.08,50.76Z"/><path class="cls-1" d="m49.8,82s-15.08-41.49-12-63.41c1.11-7.91,4.59-13.28,12-13.23,7.31.05,10.79,5.32,11.95,13.09,3.27,21.89-11.95,63.55-11.95,63.55Z"/><path class="cls-1" d="m50.2,82.99s-12.63-8.71-20.17-8.93c-2.72-.08-4.78.95-5.34,3.89-.56,2.9.93,4.63,3.42,5.6,7.03,2.74,22.1-.57,22.1-.57Z"/><path class="cls-1" d="m49.39,82.99s12.63-8.71,20.17-8.93c2.72-.08,4.78.95,5.34,3.89.56,2.9-.93,4.63-3.42,5.6-7.03,2.74-22.1-.57-22.1-.57Z"/></g></svg>