<?xml version="1.0" encoding="UTF-8"?><svg xmlns="http://www.w3.org/2000/svg" width="520" height="700" xmlns:xlink="http://www.w3.org/1999/xlink" viewBox="0 0 520 700"><defs><style>.cls-1,.cls-2,.cls-3,.cls-4,.cls-5{fill:none;}.cls-1,.cls-6,.cls-7,.cls-8,.cls-9,.cls-10,.cls-11{stroke-width:0px;}.cls-12,.cls-2,.cls-3,.cls-13,.cls-14,.cls-15,.cls-16,.cls-17,.cls-4,.cls-5{stroke-miterlimit:10;}.cls-12,.cls-3,.cls-13,.cls-14,.cls-16,.cls-4{stroke:#000;}.cls-18,.cls-13{fill:#001cff;}.cls-2,.cls-3{stroke-linecap:round;}.cls-2,.cls-17{stroke:#e19b69;}.cls-19{clip-path:url(#clippath-1);}.cls-20{clip-path:url(#clippath-3);}.cls-21{clip-path:url(#clippath-2);}.cls-6{fill:#6d737e;opacity:.1;}.cls-14{fill:#ff8802;}.cls-15{fill:#fff;stroke:#fff;}.cls-16,.cls-11{fill:#ffbd7d;}.cls-17{fill:#e19b69;}.cls-7{fill:#ff8a66;opacity:.5;}.cls-5{stroke:#4d1900;}.cls-9{fill:#602a00;}.cls-10{fill:#fff8f8;}</style><clipPath id="clippath"><path class="cls-4" d="m357-142.4c58.66-24.48,72.95-92.95,72.95-92.95,28.95-119.54-22.64-189.1-35.43-204.06-1.67-1.95-4.1-3.06-6.66-3.06h-61.14c-2.01,0-3.92.86-5.26,2.36-11.92,13.37-66.95,83.24-37.52,204.77,0,0,14.22,63.29-75.32,38.61-.12-.03-.24-.07-.36-.12l-24.32-8.82c-.22-.08-.44-.18-.64-.29-3.56-1.97-37.06-20.08-7.91,13.42,30.99,35.63,40.64,40.56,72.3,50.14,32.23,9.75,63.04,9.73,109.32,0"/></clipPath><clipPath id="clippath-1"><path class="cls-4" d="m1030.59-149.9c58.66-24.48,72.95-92.95,72.95-92.95,28.95-119.54-22.64-189.1-35.43-204.06-1.67-1.95-4.1-3.06-6.66-3.06h-61.14c-2.01,0-3.92.86-5.26,2.36-11.92,13.37-66.95,83.24-37.52,204.77,0,0,14.22,63.29-75.32,38.61-.12-.03-.24-.07-.36-.12l-24.32-8.82c-.22-.08-.44-.18-.64-.29-3.56-1.97-37.06-20.08-7.91,13.42,30.99,35.63,40.64,40.56,72.3,50.14,32.23,9.75,63.04,9.73,109.32,0"/></clipPath><clipPath id="clippath-2"><ellipse class="cls-1" cx="167.81" cy="176.15" rx="110.26" ry="87.87"/></clipPath><clipPath id="clippath-3"><path class="cls-13" d="m168.68,653.92c-58.66-24.48-72.95-92.95-72.95-92.95-28.95-119.54,22.64-189.1,35.43-204.06,1.67-1.95,4.1-3.06,6.66-3.06h61.14c2.01,0,3.92.86,5.26,2.36,11.92,13.37,66.95,83.24,37.52,204.77,0,0-14.22,63.29,75.32,38.61.12-.03.24-.07.36-.12l24.32-8.82c.22-.08.44-.18.64-.29,3.56-1.97,37.06-20.08,7.91,13.42-30.99,35.63-40.64,40.56-72.3,50.14-32.23,9.75-63.04,9.73-109.32,0"/></clipPath></defs><g id="Coralina"><path class="cls-4" d="m357-142.4c58.66-24.48,72.95-92.95,72.95-92.95,28.95-119.54-22.64-189.1-35.43-204.06-1.67-1.95-4.1-3.06-6.66-3.06h-61.14c-2.01,0-3.92.86-5.26,2.36-11.92,13.37-66.95,83.24-37.52,204.77,0,0,14.22,63.29-75.32,38.61-.12-.03-.24-.07-.36-.12l-24.32-8.82c-.22-.08-.44-.18-.64-.29-3.56-1.97-37.06-20.08-7.91,13.42,30.99,35.63,40.64,40.56,72.3,50.14,32.23,9.75,63.04,9.73,109.32,0"/><g class="cls-19"><path class="cls-14" d="m280.78,133.72l-28.27-.27v13.25c-.06,7.73,6.15,14.06,13.88,14.13s14.06-6.13,14.13-13.87l.26-13.25Z"/><path class="cls-14" d="m394.12,133.72l-28.27-.27v13.25c-.06,7.73,6.15,14.06,13.88,14.13s14.06-6.13,14.13-13.87l.26-13.25Z"/><path class="cls-14" d="m337.45,133.72l-28.27-.27v13.25c-.06,7.73,6.15,14.06,13.88,14.13s14.06-6.13,14.13-13.87l.26-13.25Z"/><path class="cls-14" d="m309.18,133.72l-28.27-.27v13.25c-.06,7.73,6.15,14.06,13.88,14.13s14.06-6.13,14.13-13.87l.26-13.25Z"/><path class="cls-14" d="m365.59,133.72l-28.27-.27v13.25c-.06,7.73,6.15,14.06,13.88,14.13s14.06-6.13,14.13-13.87l.26-13.25Z"/><path class="cls-14" d="m450.66,133.72l-28.27-.27v13.25c-.06,7.73,6.15,14.06,13.88,14.13s14.06-6.13,14.13-13.87l.26-13.25Z"/><path class="cls-14" d="m422.39,133.72l-28.27-.27v13.25c-.06,7.73,6.15,14.06,13.88,14.13s14.06-6.13,14.13-13.87l.26-13.25Z"/><path class="cls-14" d="m478.81,133.72l-28.27-.27v13.25c-.06,7.73,6.15,14.06,13.88,14.13s14.06-6.13,14.13-13.87l.26-13.25Z"/><path class="cls-14" d="m505.72,133.72l-28.27-.27v13.25c-.06,7.73,6.15,14.06,13.88,14.13s14.06-6.13,14.13-13.87l.26-13.25Z"/><path class="cls-14" d="m380.79,118.84h-28.27l.14,13.25c0,7.73,6.27,14,14,14s14-6.27,14-14l.14-13.25Z"/><path class="cls-14" d="m324.11,118.84h-28.27l.14,13.25c0,7.73,6.27,14,14,14s14-6.27,14-14l.14-13.25Z"/><path class="cls-14" d="m295.84,118.84h-28.27l.14,13.25c0,7.73,6.27,14,14,14s14-6.27,14-14l.14-13.25Z"/><path class="cls-14" d="m534.1,133.72l-28.27-.27v13.25c-.06,7.73,6.15,14.06,13.88,14.13s14.06-6.13,14.13-13.87l.26-13.25Z"/><path class="cls-14" d="m352.25,118.84h-28.27l.14,13.25c0,7.73,6.27,14,14,14s14-6.27,14-14l.14-13.25Z"/><path class="cls-14" d="m437.33,118.84h-28.27l.14,13.25c0,7.73,6.27,14,14,14s14-6.27,14-14l.14-13.25Z"/><path class="cls-14" d="m409.06,118.84h-28.27l.14,13.25c0,7.73,6.27,14,14,14s14-6.27,14-14l.14-13.25Z"/><path class="cls-14" d="m465.48,118.84h-28.27l.14,13.25c0,7.73,6.27,14,14,14s14-6.27,14-14l.14-13.25Z"/><path class="cls-14" d="m492.38,118.84h-28.27l.14,13.25c0,7.73,6.27,14,14,14s14-6.27,14-14l.14-13.25Z"/><path class="cls-14" d="m519.78,118.84h-28.27l.14,13.25c0,7.73,6.27,14,14,14s14-6.27,14-14l.14-13.25Z"/><path class="cls-14" d="m548.3,118.84h-28.27l.14,13.25c0,7.73,6.27,14,14,14s14-6.27,14-14l.14-13.25Z"/><path class="cls-14" d="m366.66,102.47h-28.27l.14,13.25c0,7.73,6.27,14,14,14s14-6.27,14-14l.14-13.25Z"/><path class="cls-14" d="m309.98,102.47h-28.27l.14,13.25c0,7.73,6.27,14,14,14s14-6.27,14-14l.14-13.25Z"/><path class="cls-14" d="m281.71,102.47h-28.27l.14,13.25c0,7.73,6.27,14,14,14s14-6.27,14-14l.14-13.25Z"/><path class="cls-14" d="m338.13,102.47h-28.27l.14,13.25c0,7.73,6.27,14,14,14s14-6.27,14-14l.14-13.25Z"/><path class="cls-14" d="m423.2,102.47h-28.27l.14,13.25c0,7.73,6.27,14,14,14s14-6.27,14-14l.14-13.25Z"/><path class="cls-14" d="m394.93,102.47h-28.27l.14,13.25c0,7.73,6.27,14,14,14s14-6.27,14-14l.14-13.25Z"/><path class="cls-14" d="m451.35,102.47h-28.27l.14,13.25c0,7.73,6.27,14,14,14s14-6.27,14-14l.14-13.25Z"/><path class="cls-14" d="m478.26,102.47h-28.27l.14,13.25c0,7.73,6.27,14,14,14s14-6.27,14-14l.14-13.25Z"/><path class="cls-14" d="m505.65,102.47h-28.27l.14,13.25c0,7.73,6.27,14,14,14s14-6.27,14-14l.14-13.25Z"/><path class="cls-14" d="m534.06,102.47h-28.27l.14,13.25c0,7.73,6.27,14,14,14s14-6.27,14-14l.14-13.25Z"/><path class="cls-14" d="m378.41,86.21h28.27l-.14,13.25c0,7.73-6.27,14-14,14s-14-6.27-14-14l-.14-13.25Z"/><path class="cls-14" d="m435.09,86.21h28.27l-.14,13.25c0,7.73-6.27,14-14,14s-14-6.27-14-14l-.14-13.25Z"/><path class="cls-14" d="m463.36,86.21h28.27l-.14,13.25c0,7.73-6.27,14-14,14s-14-6.27-14-14l-.14-13.25Z"/><path class="cls-14" d="m491.76,86.21h28.27l-.14,13.25c0,7.73-6.27,14-14,14s-14-6.27-14-14l-.14-13.25Z"/><path class="cls-14" d="m406.94,86.21h28.27l-.14,13.25c0,7.73-6.27,14-14,14s-14-6.27-14-14l-.14-13.25Z"/><path class="cls-14" d="m321.87,86.21h28.27l-.14,13.25c0,7.73-6.27,14-14,14s-14-6.27-14-14l-.14-13.25Z"/><path class="cls-14" d="m350.14,86.21h28.27l-.14,13.25c0,7.73-6.27,14-14,14s-14-6.27-14-14l-.14-13.25Z"/><path class="cls-14" d="m293.72,86.21h28.27l-.14,13.25c0,7.73-6.27,14-14,14s-14-6.27-14-14l-.14-13.25Z"/><path class="cls-14" d="m266.81,86.21h28.27l-.14,13.25c0,7.73-6.27,14-14,14s-14-6.27-14-14l-.14-13.25Z"/><path class="cls-14" d="m520.03,86.21h28.27l-.14,13.25c0,7.73-6.27,14-14,14s-14-6.27-14-14l-.14-13.25Z"/><path class="cls-14" d="m392.06,69.84h28.27l-.14,13.25c0,7.73-6.27,14-14,14s-14-6.27-14-14l-.14-13.25Z"/><path class="cls-14" d="m448.74,69.84h28.27l-.14,13.25c0,7.73-6.27,14-14,14s-14-6.27-14-14l-.14-13.25Z"/><path class="cls-14" d="m477.01,69.84h28.27l-.14,13.25c0,7.73-6.27,14-14,14s-14-6.27-14-14l-.14-13.25Z"/><path class="cls-14" d="m505.41,69.84h28.27l-.14,13.25c0,7.73-6.27,14-14,14s-14-6.27-14-14l-.14-13.25Z"/><path class="cls-14" d="m420.59,69.84h28.27l-.14,13.25c0,7.73-6.27,14-14,14s-14-6.27-14-14l-.14-13.25Z"/><path class="cls-14" d="m335.52,69.84h28.27l-.14,13.25c0,7.73-6.27,14-14,14s-14-6.27-14-14l-.14-13.25Z"/><path class="cls-14" d="m363.79,69.84h28.27l-.14,13.25c0,7.73-6.27,14-14,14s-14-6.27-14-14l-.14-13.25Z"/><path class="cls-14" d="m307.37,69.84h28.27l-.14,13.25c0,7.73-6.27,14-14,14s-14-6.27-14-14l-.14-13.25Z"/><path class="cls-14" d="m280.46,69.84h28.27l-.14,13.25c0,7.73-6.27,14-14,14s-14-6.27-14-14l-.14-13.25Z"/><path class="cls-14" d="m548.71,55.27l-28.26-.86-.27,13.25c-.24,7.73,5.84,14.18,13.56,14.42s14.18-5.84,14.42-13.56l.54-13.24Z"/><path class="cls-14" d="m253.07,69.84h28.27l-.14,13.25c0,7.73-6.27,14-14,14s-14-6.27-14-14l-.14-13.25Z"/><path class="cls-14" d="m377.44,54.4h28.27l-.14,13.25c0,7.73-6.27,14-14,14s-14-6.27-14-14l-.14-13.25Z"/><path class="cls-14" d="m462.39,54.4h28.27l-.14,13.25c0,7.73-6.27,14-14,14s-14-6.27-14-14l-.14-13.25Z"/><path class="cls-14" d="m490.79,54.4h28.27l-.14,13.25c0,7.73-6.27,14-14,14s-14-6.27-14-14l-.14-13.25Z"/><path class="cls-14" d="m405.97,54.4h28.27l-.14,13.25c0,7.73-6.27,14-14,14s-14-6.27-14-14l-.14-13.25Z"/><path class="cls-14" d="m320.9,54.4h28.27l-.14,13.25c0,7.73-6.27,14-14,14s-14-6.27-14-14l-.14-13.25Z"/><path class="cls-14" d="m349.17,54.4h28.27l-.14,13.25c0,7.73-6.27,14-14,14s-14-6.27-14-14l-.14-13.25Z"/><path class="cls-14" d="m292.75,54.4h28.27l-.14,13.25c0,7.73-6.27,14-14,14s-14-6.27-14-14l-.14-13.25Z"/><path class="cls-14" d="m265.84,54.4h28.27l-.14,13.25c0,7.73-6.27,14-14,14s-14-6.27-14-14l-.14-13.25Z"/><path class="cls-14" d="m434.12,54.4h28.27l-.14,13.25c0,7.73-6.27,14-14,14s-14-6.27-14-14l-.14-13.25Z"/><path class="cls-14" d="m391.09,38.04h28.27l-.14,13.25c0,7.73-6.27,14-14,14s-14-6.27-14-14l-.14-13.25Z"/><path class="cls-14" d="m447.77,38.04h28.27l-.14,13.25c0,7.73-6.27,14-14,14s-14-6.27-14-14l-.14-13.25Z"/><path class="cls-14" d="m476.04,38.04h28.27l-.14,13.25c0,7.73-6.27,14-14,14s-14-6.27-14-14l-.14-13.25Z"/><path class="cls-14" d="m504.44,38.04h28.27l-.14,13.25c0,7.73-6.27,14-14,14s-14-6.27-14-14l-.14-13.25Z"/><path class="cls-14" d="m419.62,38.04h28.27l-.14,13.25c0,7.73-6.27,14-14,14s-14-6.27-14-14l-.14-13.25Z"/><path class="cls-14" d="m334.55,38.04h28.27l-.14,13.25c0,7.73-6.27,14-14,14s-14-6.27-14-14l-.14-13.25Z"/><path class="cls-14" d="m362.82,38.04h28.27l-.14,13.25c0,7.73-6.27,14-14,14s-14-6.27-14-14l-.14-13.25Z"/><path class="cls-14" d="m306.4,38.04h28.27l-.14,13.25c0,7.73-6.27,14-14,14s-14-6.27-14-14l-.14-13.25Z"/><path class="cls-14" d="m279.49,38.04h28.27l-.14,13.25c0,7.73-6.27,14-14,14s-14-6.27-14-14l-.14-13.25Z"/><path class="cls-14" d="m252.1,38.04h28.27l-.14,13.25c0,7.73-6.27,14-14,14s-14-6.27-14-14l-.14-13.25Z"/><path class="cls-14" d="m379.61,22.02h-28.27l.14,13.25c0,7.73,6.27,14,14,14s14-6.27,14-14l.14-13.25Z"/><path class="cls-14" d="m322.93,22.02h-28.27l.14,13.25c0,7.73,6.27,14,14,14s14-6.27,14-14l.14-13.25Z"/><path class="cls-14" d="m294.66,22.02h-28.27l.14,13.25c0,7.73,6.27,14,14,14s14-6.27,14-14l.14-13.25Z"/><path class="cls-14" d="m351.08,22.02h-28.27l.14,13.25c0,7.73,6.27,14,14,14s14-6.27,14-14l.14-13.25Z"/><path class="cls-14" d="m436.16,22.02h-28.27l.14,13.25c0,7.73,6.27,14,14,14s14-6.27,14-14l.14-13.25Z"/><path class="cls-14" d="m407.88,22.02h-28.27l.14,13.25c0,7.73,6.27,14,14,14s14-6.27,14-14l.14-13.25Z"/><path class="cls-14" d="m464.3,22.02h-28.27l.14,13.25c0,7.73,6.27,14,14,14s14-6.27,14-14l.14-13.25Z"/><path class="cls-14" d="m491.21,22.02h-28.27l.14,13.25c0,7.73,6.27,14,14,14s14-6.27,14-14l.14-13.25Z"/><path class="cls-14" d="m518.61,22.02h-28.27l.14,13.25c0,7.73,6.27,14,14,14s14-6.27,14-14l.14-13.25Z"/><path class="cls-14" d="m547.13,22.02h-28.27l.14,13.25c0,7.73,6.27,14,14,14s14-6.27,14-14l.14-13.25Z"/><path class="cls-14" d="m364.23,6.35h-28.27l.14,13.25c0,7.73,6.27,14,14,14s14-6.27,14-14l.14-13.25Z"/><path class="cls-14" d="m307.55,6.35h-28.27l.14,13.25c0,7.73,6.27,14,14,14s14-6.27,14-14l.14-13.25Z"/><path class="cls-14" d="m279.28,6.35h-28.27l.14,13.25c0,7.73,6.27,14,14,14s14-6.27,14-14l.14-13.25Z"/><path class="cls-14" d="m335.7,6.35h-28.27l.14,13.25c0,7.73,6.27,14,14,14s14-6.27,14-14l.14-13.25Z"/><path class="cls-14" d="m420.77,6.35h-28.27l.14,13.25c0,7.73,6.27,14,14,14s14-6.27,14-14l.14-13.25Z"/><path class="cls-14" d="m392.5,6.35h-28.27l.14,13.25c0,7.73,6.27,14,14,14s14-6.27,14-14l.14-13.25Z"/><path class="cls-14" d="m448.92,6.35h-28.27l.14,13.25c0,7.73,6.27,14,14,14s14-6.27,14-14l.14-13.25Z"/><path class="cls-14" d="m475.83,6.35h-28.27l.14,13.25c0,7.73,6.27,14,14,14s14-6.27,14-14l.14-13.25Z"/><path class="cls-14" d="m503.22,6.35h-28.27l.14,13.25c0,7.73,6.27,14,14,14s14-6.27,14-14l.14-13.25Z"/><path class="cls-14" d="m531.63,6.35h-28.27l.14,13.25c0,7.73,6.27,14,14,14s14-6.27,14-14l.14-13.25Z"/><path class="cls-14" d="m377.24-6.45h28.27l-.14,13.25c0,7.73-6.27,14-14,14s-14-6.27-14-14l-.14-13.25Z"/><path class="cls-14" d="m433.92-6.45h28.27l-.14,13.25c0,7.73-6.27,14-14,14s-14-6.27-14-14l-.14-13.25Z"/><path class="cls-14" d="m462.19-6.45h28.27l-.14,13.25c0,7.73-6.27,14-14,14s-14-6.27-14-14l-.14-13.25Z"/><path class="cls-14" d="m490.59-6.45h28.27l-.14,13.25c0,7.73-6.27,14-14,14s-14-6.27-14-14l-.14-13.25Z"/><path class="cls-14" d="m405.77-6.45h28.27l-.14,13.25c0,7.73-6.27,14-14,14s-14-6.27-14-14l-.14-13.25Z"/><path class="cls-14" d="m320.7-6.45h28.27l-.14,13.25c0,7.73-6.27,14-14,14s-14-6.27-14-14l-.14-13.25Z"/><path class="cls-14" d="m348.97-6.45h28.27l-.14,13.25c0,7.73-6.27,14-14,14s-14-6.27-14-14l-.14-13.25Z"/><path class="cls-14" d="m292.55-6.45h28.27l-.14,13.25c0,7.73-6.27,14-14,14s-14-6.27-14-14l-.14-13.25Z"/><path class="cls-14" d="m265.64-6.45h28.27l-.14,13.25c0,7.73-6.27,14-14,14s-14-6.27-14-14l-.14-13.25Z"/><path class="cls-14" d="m518.86-6.45h28.27l-.14,13.25c0,7.73-6.27,14-14,14s-14-6.27-14-14l-.14-13.25Z"/><path class="cls-14" d="m394.12-24.2l-28.27-.27v13.25c-.06,7.73,6.15,14.06,13.88,14.13s14.06-6.13,14.13-13.87l.26-13.25Z"/><path class="cls-14" d="m337.45-24.2l-28.27-.27v13.25c-.06,7.73,6.15,14.06,13.88,14.13s14.06-6.13,14.13-13.87l.26-13.25Z"/><path class="cls-14" d="m309.18-24.2l-28.27-.27v13.25c-.06,7.73,6.15,14.06,13.88,14.13s14.06-6.13,14.13-13.87l.26-13.25Z"/><path class="cls-14" d="m280.78-24.2l-28.27-.27v13.25c-.06,7.73,6.15,14.06,13.88,14.13s14.06-6.13,14.13-13.87l.26-13.25Z"/><path class="cls-14" d="m365.59-24.2l-28.27-.27v13.25c-.06,7.73,6.15,14.06,13.88,14.13s14.06-6.13,14.13-13.87l.26-13.25Z"/><path class="cls-14" d="m450.66-24.2l-28.27-.27v13.25c-.06,7.73,6.15,14.06,13.88,14.13s14.06-6.13,14.13-13.87l.26-13.25Z"/><path class="cls-14" d="m422.39-24.2l-28.27-.27v13.25c-.06,7.73,6.15,14.06,13.88,14.13s14.06-6.13,14.13-13.87l.26-13.25Z"/><path class="cls-14" d="m478.81-24.2l-28.27-.27v13.25c-.06,7.73,6.15,14.06,13.88,14.13s14.06-6.13,14.13-13.87l.26-13.25Z"/><path class="cls-14" d="m505.72-24.2l-28.27-.27v13.25c-.06,7.73,6.15,14.06,13.88,14.13s14.06-6.13,14.13-13.87l.26-13.25Z"/><path class="cls-14" d="m534.1-24.2l-28.27-.27v13.25c-.06,7.73,6.15,14.06,13.88,14.13s14.06-6.13,14.13-13.87l.26-13.25Z"/></g><path class="cls-4" d="m1030.59-149.9c58.66-24.48,72.95-92.95,72.95-92.95,28.95-119.54-22.64-189.1-35.43-204.06-1.67-1.95-4.1-3.06-6.66-3.06h-61.14c-2.01,0-3.92.86-5.26,2.36-11.92,13.37-66.95,83.24-37.52,204.77,0,0,14.22,63.29-75.32,38.61-.12-.03-.24-.07-.36-.12l-24.32-8.82c-.22-.08-.44-.18-.64-.29-3.56-1.97-37.06-20.08-7.91,13.42,30.99,35.63,40.64,40.56,72.3,50.14,32.23,9.75,63.04,9.73,109.32,0"/></g><g id="Pearlina"><path class="cls-13" d="m357.8,589.06s75.42-14.71,91.46-38.52c16.04-23.81,12.02-42.35,12.02-42.35,14.96-17.15-31.5,6.75-52.13,23.22-1.61,1.28-2.54,1.84-2.94,1.58s-.24-1.34.33-3.31c13.45-46.62,14.12-59.51,11.98-61.83-1.66-1.8-5.02,2.8-5.38,2.9-.02,0-.04,0-.07.01-.93.03-19.43.83-38.49,21.3-19.55,21.01-16.79,97-16.79,97"/><path class="cls-3" d="m361.86,586.06s71.9-76.64,101.02-82.18"/><path class="cls-3" d="m459.17,510.81s11.79,44.62-100.41,77.23"/><path class="cls-3" d="m462.88,503.88s-21.54,45.78-103.4,83.22"/><path class="cls-3" d="m360.92,586.48s58.5-87.31,56.68-116.9"/><path class="cls-3" d="m411.8,474s-48.45-3.69-52.32,113.1"/><path class="cls-3" d="m417.59,469.58s-41.03,28.95-57.09,117.52"/><path class="cls-9" d="m392.58,225.65s-45.01.41-58.62-45.86c-13.61-46.28-10.66-46.63-39.6-102.8-28.34-55-133.43-51.29-133.43-51.29,0,0-103.22-8.37-140.42,83.74-37.21,92.11,23.8,173.77,57.15,202.55,33.35,28.78,50.06,35.95,50.06,35.95h0l119.79,67.15s94.21,49.8,147.41,21.16c1.65-.89,1.58-3.29-.14-4.05-10.33-4.62-37.35-18.12-46.77-36.76-.69-1.37.5-2.95,2.01-2.65,17.19,3.35,94.14,15.94,149.56-13.98,1.92-1.03,1.41-3.91-.74-4.24-17.38-2.66-62.97-14.42-74.92-65.12-.35-1.5,1.36-2.62,2.58-1.68,11.39,8.77,48.53,30.84,89.8-14.73,1.12-1.23-.04-3.17-1.65-2.75-9.81,2.56-30.16,4.92-42.52-14.4,0,0-26.96-52.69-79.55-50.22Z"/><path class="cls-4" d="m392.58,225.65s-45.01.41-58.62-45.86c-13.61-46.28-10.66-46.63-39.6-102.8-28.34-55-133.43-51.29-133.43-51.29,0,0-103.22-8.37-140.42,83.74-37.21,92.11,23.8,173.77,57.15,202.55,33.35,28.78,50.06,35.95,50.06,35.95h0l119.79,67.15s94.21,49.8,147.41,21.16c1.65-.89,1.58-3.29-.14-4.05-10.33-4.62-37.35-18.12-46.77-36.76-.69-1.37.5-2.95,2.01-2.65,17.19,3.35,94.14,15.94,149.56-13.98,1.92-1.03,1.41-3.91-.74-4.24-17.38-2.66-62.97-14.42-74.92-65.12-.35-1.5,1.36-2.62,2.58-1.68,11.39,8.77,48.53,30.84,89.8-14.73,1.12-1.23-.04-3.17-1.65-2.75-9.81,2.56-30.16,4.92-42.52-14.4,0,0-26.96-52.69-79.55-50.22Z"/><path class="cls-5" d="m302.44,414.47s-29.07-8.49-48.36-22.53c0,0-9.4-9.27-13.4-12.03,0,0-13.12-10.9-16.68-9"/><path class="cls-5" d="m246.94,253.2s23.78,30.35,44.29,47.3c20.5,16.95,44.02,29.53,63.15,32.53"/><path class="cls-5" d="m46.74,215.06s-7.39,12.97,9.27,31.78c0,0,19.16,18.4,18.96,20.08,0,0,7.43,5.06,8.34,26.19"/><path class="cls-16" d="m253.8,395.54s12.13,30.46,10.22,38.69c0,0-8.27,15.59-4.3,13.69,2.15-1.03,4.6-5.82,5.77-7.08,1.99-2.12.98,4.73.97,4.88-.06,3.84.04,7.67.36,10.37.38,3.22,3.05,5.49,2.6-9.61,0,0-.14-3.62.99.1,1.18,3.9-.3,12.58.2,13.25,3.16,4.2,3.7-12.25,3.31-14.1-.69-3.27.56-1.35.93-.51.92,2.05.67,11.71,1.3,12.43,3.04,3.53,1.88-14.25,1.88-14.25.45-1.35,1.34-.23,1.34-.23l1.49,6.72c4.11,7.36,1.22-9.32,1.22-9.32-.09-1.24-2.88-8.73-3.56-9.73-1.74-2.58-3-3.43-4.26-4.24-2.12-1.37-2.2-5.48-2.24-5.86,0-.02-.31-8.24-.31-8.25-.19-4-1.52-8.13-3.21-19.99-2.92-20.54-7.44-30.56-7.44-30.56l-4.83-14c-15.3-44.07-18.59-44.61-24.14-55.13-4.84-9.17-11.88-9.35-11.88-9.35,0,0-34.6.19-40.44-2.41-4.7-2.09-1.84-9.62-.54-12.49.24-.52-.15-1.11-.73-1.11h-19.92c-.58,0,3.44,11.51-1.26,13.6-5.84,2.6-37.59,4.36-37.59,4.36,0,0-4.48.39-11.29,10.52-6.65,9.87-8.93,11.96-24.23,56.03,0,0-.11,6.29-17.79-5.83-7-4.8-32.4-19.39-33.75-23.03l-3.02-5.05c-.6-1.01-1.03-2.1-1.26-3.25-.88-4.27-3.29-14.87-4.83-11.68-1.04,2.15.03,7.42-.1,9.13-.23,2.9-3.71-3.09-3.8-3.21-2.35-3.04-4.81-5.98-6.74-7.89-2.31-2.28-5.81-2.39,3.96,9.13,0,0,2.37,2.75-.84.54-3.36-2.31-7.6-10.02-8.42-10.23-5.09-1.31,4.74,11.88,6.2,13.08,2.58,2.13.4,1.4-.41.98-2-1.03-7.82-8.74-8.77-8.91-4.58-.87,7.41,12.31,7.41,12.31.48,1.34-.91,1.01-.91,1.01l-5.36-4.33c-7.81-3.19,4.85,8.05,4.85,8.05,0,0,7.08,6.41,13.32,4.96.13-.03.26,0,.39.03,8.59,1.61,6.61,22.21,47.03,40.33,30.16,13.52,49.28-36.97,54.72-53.83.27-.82,1.47-.67,1.53.19.9,12.04,8.93,15.97,10.82,16.73.25.1.43.32.48.58,2.64,13.92-2.42,23.06-3.76,25.17-.13.2.02.47.26.47h66.27c.24,0,.39-.27.26-.47-1.34-2.11-6.4-11.25-3.76-25.17.05-.26.23-.48.48-.58,1.88-.76,9.91-4.69,10.82-16.73.06-.86,1.27-1.01,1.53-.19,5.44,16.86,9.38,26.62,33.02,57.27l9.75,23.98Z"/><path class="cls-2" d="m168.62,311.37c0-7.04-3.62-12.74-8.09-12.74"/><path class="cls-2" d="m168.79,311.37c0-7.04,3.17-12.74,7.08-12.74"/><path class="cls-2" d="m140.09,332.06c2.32,1.42,12.77,2.2,18.95-1.7"/><path class="cls-2" d="m196.74,332.06c-2.32,1.42-12.77,2.2-18.95-1.7"/><path class="cls-2" d="m117.5,291.74c3.55-3.62,10.03-2.03,21.05-2.97"/><path class="cls-2" d="m224.18,290.26c-3.55-3.62-10.03-2.03-21.05-2.97"/><path class="cls-2" d="m255.63,356.66c1.35.92,5.25,6.85,5.19,15.49"/><ellipse class="cls-11" cx="167.89" cy="179.34" rx="110.26" ry="87.87"/><ellipse class="cls-4" cx="167.89" cy="179.34" rx="110.26" ry="87.87"/><ellipse class="cls-17" cx="164.3" cy="206.05" rx=".88" ry="3.19" transform="translate(-86.77 286.15) rotate(-69.13)"/><ellipse class="cls-17" cx="172.3" cy="206.05" rx="3.19" ry=".88" transform="translate(-62.11 74.91) rotate(-20.87)"/><g class="cls-21"><path class="cls-9" d="m238.62,145.03c-7.15,1.95-22.44-7.98-30.55-16.81-15.95-17.36-30.08-9.05-30.08-9.05-9.21,9.87-42.93-16.41-42.93-16.41,0,0-6.42,6.94-7.05,18.87,0,0-1.49,15.69-19.73,12.71,0,0-8.52-1.64-15.71,4.57-11.74,7.69-35.23,23.06-35.23,23.06,0,0-76.14-84.89,102.24-99.97,179.91-15.21,119.32,107.77,119.32,107.77,0,0-25.03-28.9-40.28-24.74Z"/><path class="cls-4" d="m238.62,145.03c-7.15,1.95-22.44-7.98-30.55-16.81-15.95-17.36-30.08-9.05-30.08-9.05-9.21,9.87-42.93-16.41-42.93-16.41,0,0-6.42,6.94-7.05,18.87,0,0-1.49,15.69-19.73,12.71,0,0-8.52-1.64-15.71,4.57-11.74,7.69-35.23,23.06-35.23,23.06,0,0-76.14-84.89,102.24-99.97,179.91-15.21,119.32,107.77,119.32,107.77,0,0-25.03-28.9-40.28-24.74Z"/></g><path class="cls-1" d="m102,149.78c0,.92-7.42,1.66-16.58,1.66"/><ellipse class="cls-7" cx="89.19" cy="200.29" rx="7.5" ry="18.33" transform="translate(-122.52 257.3) rotate(-81.07)"/><ellipse class="cls-7" cx="246.7" cy="200.29" rx="18.33" ry="7.5" transform="translate(-28.1 40.73) rotate(-8.93)"/><path class="cls-10" d="m200.43,233.45c-4.3,7.4-14.33,15.5-32,15.5s-27.64-8.13-32-15.5c-6.45-10.92,15.2-10.24,32.87-10.24s36.36,1.21,31.12,10.24Z"/><path class="cls-4" d="m200.43,233.45c-4.3,7.4-14.33,15.5-32,15.5s-27.64-8.13-32-15.5c-6.45-10.92,15.2-10.24,32.87-10.24s36.36,1.21,31.12,10.24Z"/><ellipse class="cls-12" cx="90.45" cy="151.45" rx="8.29" ry="1.66" transform="translate(-23.4 16.7) rotate(-9.35)"/><ellipse class="cls-12" cx="92.94" cy="173.83" rx="12.43" ry="14.09"/><circle class="cls-15" cx="97.08" cy="166.37" r="3.32"/><path class="cls-8" d="m84.32,167.81c-2.99.3-8.16.78-9.62-2.47.5.69,1.26,1.01,2.01,1.12,2.3.27,4.69-.6,6.74-1.52.75-.37,1.66-.05,2.03.7.46.91-.16,2.05-1.16,2.17h0Z"/><path class="cls-8" d="m84.43,166.64c-3.72-.3-7.65-2.88-7.81-6.86.48,1.59,1.86,2.81,3.26,3.5,1.32.58,3.07.61,4.45.36.82-.16,1.62.37,1.79,1.2.22,1-.68,1.95-1.69,1.8h0Z"/><path class="cls-8" d="m87.82,164.89c-.61.48-1.5.49-2.2.3-2.78-.6-5.83-3.25-4.68-6.3-.02,1.48.77,2.72,2.1,3.25.87.36,2.38.7,3.19.31-.13,0-.29.09-.39.18,1.51-1.27,3.44.94,1.97,2.26h0Z"/><circle class="cls-15" cx="101.99" cy="172.74" r=".49"/><ellipse class="cls-12" cx="245.43" cy="151.45" rx="1.66" ry="8.29" transform="translate(56.13 369.02) rotate(-80.65)"/><ellipse class="cls-12" cx="242.94" cy="173.83" rx="12.43" ry="14.09"/><path class="cls-8" d="m252.01,165.36c2.42,1.01,6.68,2.83,8.75.4-1.46,3.25-6.63,2.77-9.62,2.47-2.29-.43-1.27-3.78.87-2.87h0Z"/><path class="cls-8" d="m251.13,164.07c3.04.68,6.69-.69,7.71-3.86-.08,2.79-2.36,5.31-4.96,6.18-.93.34-1.81.57-2.88.68-2.31.15-2.17-3.34.13-3h0Z"/><path class="cls-8" d="m249.62,163.05c-.1-.09-.27-.19-.39-.18-.02.07.26.11.38.13,1.54.14,3.39-.31,4.34-1.64.38-.56.56-1.28.57-2.04.23.71.33,1.53.11,2.35-.63,2.11-2.75,3.43-4.8,3.95-.51.12-1.16.19-1.69-.02-1-.32-1.35-1.61-.65-2.39.54-.62,1.49-.69,2.12-.14h0Z"/><circle class="cls-15" cx="247.09" cy="166.37" r="3.32"/><circle class="cls-15" cx="251.99" cy="172.55" r=".49"/><path class="cls-5" d="m226.27,49.65s51.94,13.4,63.7,75.73"/><path class="cls-5" d="m109.12,60.76s-5.77,23.43-39.36,23.03-38.09,54.12-38.09,54.12"/><path class="cls-5" d="m351.54,248.87s29.8-17.5,73.54,12.85c0,0,16.4,17.77,44.29,31.17"/><path class="cls-5" d="m376.13,296.66s-18.83-2.79-39.2-28.41c-20.37-25.62-42.44-27.59-42.44-27.59"/><path class="cls-5" d="m327.32,342.41s2.15,15.44,38.89,18.52c0,0,39.45,1,40.65,2.47,0,0,13.5-1.25,32.9,14.77"/><path class="cls-5" d="m277.18,376.3s22.14,21.05,31.99,23.78c9.84,2.73,17.22,2.46,42.37,28.98"/><path class="cls-13" d="m146.63,327.02s-5.78-12.71-11.34-16.98c-2-1.54-3.98-1.98-5.64-.33s-1.26,3.59.2,5.6c4.11,5.67,16.78,11.71,16.78,11.71Z"/><path class="cls-13" d="m147.31,326.66s-.25-17.3-4.44-24.9c-1.51-2.74-3.53-4.22-6.24-3.17-2.67,1.04-3.21,3.45-2.56,6.46,1.85,8.47,13.23,21.62,13.23,21.62Z"/><path class="cls-13" d="m148.77,327.02s5.78-12.71,11.34-16.98c2-1.54,3.98-1.98,5.64-.33s1.26,3.59-.2,5.6c-4.11,5.67-16.78,11.71-16.78,11.71Z"/><path class="cls-13" d="m148.1,326.66s.25-17.3,4.44-24.9c1.51-2.74,3.53-4.22,6.24-3.17,2.67,1.04,3.21,3.45,2.56,6.46-1.85,8.47-13.23,21.62-13.23,21.62Z"/><path class="cls-13" d="m147.64,326.66s-6.42-17.67-5.11-27c.47-3.37,1.96-5.65,5.11-5.63s4.6,2.27,5.09,5.57c1.39,9.32-5.09,27.06-5.09,27.06Z"/><path class="cls-13" d="m146.56,327.84s-5.38-3.71-8.59-3.8c-1.16-.03-2.04.4-2.28,1.66s.39,1.97,1.46,2.39c2.99,1.16,9.41-.24,9.41-.24Z"/><path class="cls-13" d="m147.47,327.84s5.38-3.71,8.59-3.8c1.16-.03,2.04.4,2.28,1.66s-.39,1.97-1.46,2.39c-2.99,1.16-9.41-.24-9.41-.24Z"/><path class="cls-13" d="m187.87,327.02s-5.78-12.71-11.34-16.98c-2-1.54-3.98-1.98-5.64-.33s-1.26,3.59.2,5.6c4.11,5.67,16.78,11.71,16.78,11.71Z"/><path class="cls-13" d="m188.54,326.66s-.25-17.3-4.44-24.9c-1.51-2.74-3.53-4.22-6.24-3.17-2.67,1.04-3.21,3.45-2.56,6.46,1.85,8.47,13.23,21.62,13.23,21.62Z"/><path class="cls-13" d="m190.01,327.02s5.78-12.71,11.34-16.98c2-1.54,3.98-1.98,5.64-.33s1.26,3.59-.2,5.6c-4.11,5.67-16.78,11.71-16.78,11.71Z"/><path class="cls-13" d="m189.33,326.66s.25-17.3,4.44-24.9c1.51-2.74,3.53-4.22,6.24-3.17,2.67,1.04,3.21,3.45,2.56,6.46-1.85,8.47-13.23,21.62-13.23,21.62Z"/><path class="cls-13" d="m188.88,326.66s-6.42-17.67-5.11-27c.47-3.37,1.96-5.65,5.11-5.63s4.6,2.27,5.09,5.57c1.39,9.32-5.09,27.06-5.09,27.06Z"/><path class="cls-13" d="m187.79,327.84s-5.38-3.71-8.59-3.8c-1.16-.03-2.04.4-2.28,1.66s.39,1.97,1.46,2.39c2.99,1.16,9.41-.24,9.41-.24Z"/><path class="cls-13" d="m188.7,327.84s5.38-3.71,8.59-3.8c1.16-.03,2.04.4,2.28,1.66s-.39,1.97-1.46,2.39c-2.99,1.16-9.41-.24-9.41-.24Z"/><path class="cls-18" d="m168.68,653.92c-58.66-24.48-72.95-92.95-72.95-92.95-28.95-119.54,22.64-189.1,35.43-204.06,1.67-1.95,4.1-3.06,6.66-3.06h61.14c2.01,0,3.92.86,5.26,2.36,11.92,13.37,66.95,83.24,37.52,204.77,0,0-14.22,63.29,75.32,38.61.12-.03.24-.07.36-.12l24.32-8.82c.22-.08.44-.18.64-.29,3.56-1.97,37.06-20.08,7.91,13.42-30.99,35.63-40.64,40.56-72.3,50.14-32.23,9.75-63.04,9.73-109.32,0"/><g class="cls-20"><path class="cls-13" d="m231.66,689.99h28.27l-.14,13.25c0,7.73-6.27,14-14,14s-14-6.27-14-14l-.14-13.25Z"/><path class="cls-13" d="m288.34,689.99h28.27l-.14,13.25c0,7.73-6.27,14-14,14s-14-6.27-14-14l-.14-13.25Z"/><path class="cls-13" d="m316.61,689.99h28.27l-.14,13.25c0,7.73-6.27,14-14,14s-14-6.27-14-14l-.14-13.25Z"/><path class="cls-13" d="m260.19,689.99h28.27l-.14,13.25c0,7.73-6.27,14-14,14s-14-6.27-14-14l-.14-13.25Z"/><path class="cls-13" d="m175.12,689.99h28.27l-.14,13.25c0,7.73-6.27,14-14,14s-14-6.27-14-14l-.14-13.25Z"/><path class="cls-13" d="m203.39,689.99h28.27l-.14,13.25c0,7.73-6.27,14-14,14s-14-6.27-14-14l-.14-13.25Z"/><path class="cls-13" d="m146.97,689.99h28.27l-.14,13.25c0,7.73-6.27,14-14,14s-14-6.27-14-14l-.14-13.25Z"/><path class="cls-13" d="m120.06,689.99h28.27l-.14,13.25c0,7.73-6.27,14-14,14s-14-6.27-14-14l-.14-13.25Z"/><path class="cls-13" d="m92.67,689.99h28.27l-.14,13.25c0,7.73-6.27,14-14,14s-14-6.27-14-14l-.14-13.25Z"/><path class="cls-13" d="m64.14,689.99h28.27l-.14,13.25c0,7.73-6.27,14-14,14s-14-6.27-14-14l-.14-13.25Z"/><path class="cls-13" d="m247.04,674.31h28.27l-.14,13.25c0,7.73-6.27,14-14,14s-14-6.27-14-14l-.14-13.25Z"/><path class="cls-13" d="m303.72,674.31h28.27l-.14,13.25c0,7.73-6.27,14-14,14s-14-6.27-14-14l-.14-13.25Z"/><path class="cls-13" d="m331.99,674.31h28.27l-.14,13.25c0,7.73-6.27,14-14,14s-14-6.27-14-14l-.14-13.25Z"/><path class="cls-13" d="m275.57,674.31h28.27l-.14,13.25c0,7.73-6.27,14-14,14s-14-6.27-14-14l-.14-13.25Z"/><path class="cls-13" d="m190.5,674.31h28.27l-.14,13.25c0,7.73-6.27,14-14,14s-14-6.27-14-14l-.14-13.25Z"/><path class="cls-13" d="m218.77,674.31h28.27l-.14,13.25c0,7.73-6.27,14-14,14s-14-6.27-14-14l-.14-13.25Z"/><path class="cls-13" d="m162.35,674.31h28.27l-.14,13.25c0,7.73-6.27,14-14,14s-14-6.27-14-14l-.14-13.25Z"/><path class="cls-13" d="m135.44,674.31h28.27l-.14,13.25c0,7.73-6.27,14-14,14s-14-6.27-14-14l-.14-13.25Z"/><path class="cls-13" d="m108.05,674.31h28.27l-.14,13.25c0,7.73-6.27,14-14,14s-14-6.27-14-14l-.14-13.25Z"/><path class="cls-13" d="m79.64,674.31h28.27l-.14,13.25c0,7.73-6.27,14-14,14s-14-6.27-14-14l-.14-13.25Z"/><path class="cls-13" d="m234.03,661.52h-28.27l.14,13.25c0,7.73,6.27,14,14,14s14-6.27,14-14l.14-13.25Z"/><path class="cls-13" d="m177.35,661.52h-28.27l.14,13.25c0,7.73,6.27,14,14,14s14-6.27,14-14l.14-13.25Z"/><path class="cls-13" d="m149.08,661.52h-28.27l.14,13.25c0,7.73,6.27,14,14,14s14-6.27,14-14l.14-13.25Z"/><path class="cls-13" d="m120.68,661.52h-28.27l.14,13.25c0,7.73,6.27,14,14,14s14-6.27,14-14l.14-13.25Z"/><path class="cls-13" d="m205.5,661.52h-28.27l.14,13.25c0,7.73,6.27,14,14,14s14-6.27,14-14l.14-13.25Z"/><path class="cls-13" d="m290.57,661.52h-28.27l.14,13.25c0,7.73,6.27,14,14,14s14-6.27,14-14l.14-13.25Z"/><path class="cls-13" d="m262.3,661.52h-28.27l.14,13.25c0,7.73,6.27,14,14,14s14-6.27,14-14l.14-13.25Z"/><path class="cls-13" d="m318.72,661.52h-28.27l.14,13.25c0,7.73,6.27,14,14,14s14-6.27,14-14l.14-13.25Z"/><path class="cls-13" d="m345.63,661.52h-28.27l.14,13.25c0,7.73,6.27,14,14,14s14-6.27,14-14l.14-13.25Z"/><path class="cls-13" d="m92.41,661.52h-28.27l.14,13.25c0,7.73,6.27,14,14,14s14-6.27,14-14l.14-13.25Z"/><path class="cls-13" d="m220.18,643.77l28.27-.27v13.25c.06,7.73-6.15,14.06-13.88,14.13s-14.06-6.13-14.13-13.87l-.26-13.25Z"/><path class="cls-13" d="m276.86,643.77l28.27-.27v13.25c.06,7.73-6.15,14.06-13.88,14.13s-14.06-6.13-14.13-13.87l-.26-13.25Z"/><path class="cls-13" d="m305.13,643.77l28.27-.27v13.25c.06,7.73-6.15,14.06-13.88,14.13s-14.06-6.13-14.13-13.87l-.26-13.25Z"/><path class="cls-13" d="m333.53,643.77l28.27-.27v13.25c.06,7.73-6.15,14.06-13.88,14.13s-14.06-6.13-14.13-13.87l-.26-13.25Z"/><path class="cls-13" d="m248.71,643.77l28.27-.27v13.25c.06,7.73-6.15,14.06-13.88,14.13s-14.06-6.13-14.13-13.87l-.26-13.25Z"/><path class="cls-13" d="m163.64,643.77l28.27-.27v13.25c.06,7.73-6.15,14.06-13.88,14.13s-14.06-6.13-14.13-13.87l-.26-13.25Z"/><path class="cls-13" d="m191.91,643.77l28.27-.27v13.25c.06,7.73-6.15,14.06-13.88,14.13s-14.06-6.13-14.13-13.87l-.26-13.25Z"/><path class="cls-13" d="m135.5,643.77l28.27-.27v13.25c.06,7.73-6.15,14.06-13.88,14.13s-14.06-6.13-14.13-13.87l-.26-13.25Z"/><path class="cls-13" d="m108.59,643.77l28.27-.27v13.25c.06,7.73-6.15,14.06-13.88,14.13s-14.06-6.13-14.13-13.87l-.26-13.25Z"/><path class="cls-13" d="m233.52,628.89h28.27l-.14,13.25c0,7.73-6.27,14-14,14s-14-6.27-14-14l-.14-13.25Z"/><path class="cls-13" d="m290.2,628.89h28.27l-.14,13.25c0,7.73-6.27,14-14,14s-14-6.27-14-14l-.14-13.25Z"/><path class="cls-13" d="m318.47,628.89h28.27l-.14,13.25c0,7.73-6.27,14-14,14s-14-6.27-14-14l-.14-13.25Z"/><path class="cls-13" d="m80.2,643.77l28.27-.27v13.25c.06,7.73-6.15,14.06-13.88,14.13s-14.06-6.13-14.13-13.87l-.26-13.25Z"/><path class="cls-13" d="m262.05,628.89h28.27l-.14,13.25c0,7.73-6.27,14-14,14s-14-6.27-14-14l-.14-13.25Z"/><path class="cls-13" d="m176.98,628.89h28.27l-.14,13.25c0,7.73-6.27,14-14,14s-14-6.27-14-14l-.14-13.25Z"/><path class="cls-13" d="m205.25,628.89h28.27l-.14,13.25c0,7.73-6.27,14-14,14s-14-6.27-14-14l-.14-13.25Z"/><path class="cls-13" d="m148.83,628.89h28.27l-.14,13.25c0,7.73-6.27,14-14,14s-14-6.27-14-14l-.14-13.25Z"/><path class="cls-13" d="m121.92,628.89h28.27l-.14,13.25c0,7.73-6.27,14-14,14s-14-6.27-14-14l-.14-13.25Z"/><path class="cls-13" d="m94.53,628.89h28.27l-.14,13.25c0,7.73-6.27,14-14,14s-14-6.27-14-14l-.14-13.25Z"/><path class="cls-13" d="m66,628.89h28.27l-.14,13.25c0,7.73-6.27,14-14,14s-14-6.27-14-14l-.14-13.25Z"/><path class="cls-13" d="m247.65,612.52h28.27l-.14,13.25c0,7.73-6.27,14-14,14s-14-6.27-14-14l-.14-13.25Z"/><path class="cls-13" d="m304.33,612.52h28.27l-.14,13.25c0,7.73-6.27,14-14,14s-14-6.27-14-14l-.14-13.25Z"/><path class="cls-13" d="m332.6,612.52h28.27l-.14,13.25c0,7.73-6.27,14-14,14s-14-6.27-14-14l-.14-13.25Z"/><path class="cls-13" d="m276.18,612.52h28.27l-.14,13.25c0,7.73-6.27,14-14,14s-14-6.27-14-14l-.14-13.25Z"/><path class="cls-13" d="m191.1,612.52h28.27l-.14,13.25c0,7.73-6.27,14-14,14s-14-6.27-14-14l-.14-13.25Z"/><path class="cls-13" d="m219.38,612.52h28.27l-.14,13.25c0,7.73-6.27,14-14,14s-14-6.27-14-14l-.14-13.25Z"/><path class="cls-13" d="m162.96,612.52h28.27l-.14,13.25c0,7.73-6.27,14-14,14s-14-6.27-14-14l-.14-13.25Z"/><path class="cls-13" d="m136.05,612.52h28.27l-.14,13.25c0,7.73-6.27,14-14,14s-14-6.27-14-14l-.14-13.25Z"/><path class="cls-13" d="m108.65,612.52h28.27l-.14,13.25c0,7.73-6.27,14-14,14s-14-6.27-14-14l-.14-13.25Z"/><path class="cls-13" d="m80.25,612.52h28.27l-.14,13.25c0,7.73-6.27,14-14,14s-14-6.27-14-14l-.14-13.25Z"/><path class="cls-13" d="m235.89,596.26h-28.27l.14,13.25c0,7.73,6.27,14,14,14s14-6.27,14-14l.14-13.25Z"/><path class="cls-13" d="m179.22,596.26h-28.27l.14,13.25c0,7.73,6.27,14,14,14s14-6.27,14-14l.14-13.25Z"/><path class="cls-13" d="m150.94,596.26h-28.27l.14,13.25c0,7.73,6.27,14,14,14s14-6.27,14-14l.14-13.25Z"/><path class="cls-13" d="m122.54,596.26h-28.27l.14,13.25c0,7.73,6.27,14,14,14s14-6.27,14-14l.14-13.25Z"/><path class="cls-13" d="m207.36,596.26h-28.27l.14,13.25c0,7.73,6.27,14,14,14s14-6.27,14-14l.14-13.25Z"/><path class="cls-13" d="m292.44,596.26h-28.27l.14,13.25c0,7.73,6.27,14,14,14s14-6.27,14-14l.14-13.25Z"/><path class="cls-13" d="m264.16,596.26h-28.27l.14,13.25c0,7.73,6.27,14,14,14s14-6.27,14-14l.14-13.25Z"/><path class="cls-13" d="m320.58,596.26h-28.27l.14,13.25c0,7.73,6.27,14,14,14s14-6.27,14-14l.14-13.25Z"/><path class="cls-13" d="m347.49,596.26h-28.27l.14,13.25c0,7.73,6.27,14,14,14s14-6.27,14-14l.14-13.25Z"/><path class="cls-13" d="m94.27,596.26h-28.27l.14,13.25c0,7.73,6.27,14,14,14s14-6.27,14-14l.14-13.25Z"/><path class="cls-13" d="m222.25,579.89h-28.27l.14,13.25c0,7.73,6.27,14,14,14s14-6.27,14-14l.14-13.25Z"/><path class="cls-13" d="m165.57,579.89h-28.27l.14,13.25c0,7.73,6.27,14,14,14s14-6.27,14-14l.14-13.25Z"/><path class="cls-13" d="m137.3,579.89h-28.27l.14,13.25c0,7.73,6.27,14,14,14s14-6.27,14-14l.14-13.25Z"/><path class="cls-13" d="m108.89,579.89h-28.27l.14,13.25c0,7.73,6.27,14,14,14s14-6.27,14-14l.14-13.25Z"/><path class="cls-13" d="m193.71,579.89h-28.27l.14,13.25c0,7.73,6.27,14,14,14s14-6.27,14-14l.14-13.25Z"/><path class="cls-13" d="m278.79,579.89h-28.27l.14,13.25c0,7.73,6.27,14,14,14s14-6.27,14-14l.14-13.25Z"/><path class="cls-13" d="m250.52,579.89h-28.27l.14,13.25c0,7.73,6.27,14,14,14s14-6.27,14-14l.14-13.25Z"/><path class="cls-13" d="m306.94,579.89h-28.27l.14,13.25c0,7.73,6.27,14,14,14s14-6.27,14-14l.14-13.25Z"/><path class="cls-13" d="m333.84,579.89h-28.27l.14,13.25c0,7.73,6.27,14,14,14s14-6.27,14-14l.14-13.25Z"/><path class="cls-13" d="m65.6,565.31l28.26-.86.27,13.25c.24,7.73-5.84,14.18-13.56,14.42s-14.18-5.84-14.42-13.56l-.54-13.24Z"/><path class="cls-13" d="m361.24,579.89h-28.27l.14,13.25c0,7.73,6.27,14,14,14s14-6.27,14-14l.14-13.25Z"/><path class="cls-13" d="m236.87,564.45h-28.27l.14,13.25c0,7.73,6.27,14,14,14s14-6.27,14-14l.14-13.25Z"/><path class="cls-13" d="m151.92,564.45h-28.27l.14,13.25c0,7.73,6.27,14,14,14s14-6.27,14-14l.14-13.25Z"/><path class="cls-13" d="m123.52,564.45h-28.27l.14,13.25c0,7.73,6.27,14,14,14s14-6.27,14-14l.14-13.25Z"/><path class="cls-13" d="m208.34,564.45h-28.27l.14,13.25c0,7.73,6.27,14,14,14s14-6.27,14-14l.14-13.25Z"/><path class="cls-13" d="m293.41,564.45h-28.27l.14,13.25c0,7.73,6.27,14,14,14s14-6.27,14-14l.14-13.25Z"/><path class="cls-13" d="m265.14,564.45h-28.27l.14,13.25c0,7.73,6.27,14,14,14s14-6.27,14-14l.14-13.25Z"/><path class="cls-13" d="m321.56,564.45h-28.27l.14,13.25c0,7.73,6.27,14,14,14s14-6.27,14-14l.14-13.25Z"/><path class="cls-13" d="m348.47,564.45h-28.27l.14,13.25c0,7.73,6.27,14,14,14s14-6.27,14-14l.14-13.25Z"/><path class="cls-13" d="m180.19,564.45h-28.27l.14,13.25c0,7.73,6.27,14,14,14s14-6.27,14-14l.14-13.25Z"/><path class="cls-13" d="m223.22,548.09h-28.27l.14,13.25c0,7.73,6.27,14,14,14s14-6.27,14-14l.14-13.25Z"/><path class="cls-13" d="m166.54,548.09h-28.27l.14,13.25c0,7.73,6.27,14,14,14s14-6.27,14-14l.14-13.25Z"/><path class="cls-13" d="m138.27,548.09h-28.27l.14,13.25c0,7.73,6.27,14,14,14s14-6.27,14-14l.14-13.25Z"/><path class="cls-13" d="m109.87,548.09h-28.27l.14,13.25c0,7.73,6.27,14,14,14s14-6.27,14-14l.14-13.25Z"/><path class="cls-13" d="m194.69,548.09h-28.27l.14,13.25c0,7.73,6.27,14,14,14s14-6.27,14-14l.14-13.25Z"/><path class="cls-13" d="m279.76,548.09h-28.27l.14,13.25c0,7.73,6.27,14,14,14s14-6.27,14-14l.14-13.25Z"/><path class="cls-13" d="m251.49,548.09h-28.27l.14,13.25c0,7.73,6.27,14,14,14s14-6.27,14-14l.14-13.25Z"/><path class="cls-13" d="m307.91,548.09h-28.27l.14,13.25c0,7.73,6.27,14,14,14s14-6.27,14-14l.14-13.25Z"/><path class="cls-13" d="m334.82,548.09h-28.27l.14,13.25c0,7.73,6.27,14,14,14s14-6.27,14-14l.14-13.25Z"/><path class="cls-13" d="m362.21,548.09h-28.27l.14,13.25c0,7.73,6.27,14,14,14s14-6.27,14-14l.14-13.25Z"/><path class="cls-13" d="m234.69,532.07h28.27l-.14,13.25c0,7.73-6.27,14-14,14s-14-6.27-14-14l-.14-13.25Z"/><path class="cls-13" d="m291.37,532.07h28.27l-.14,13.25c0,7.73-6.27,14-14,14s-14-6.27-14-14l-.14-13.25Z"/><path class="cls-13" d="m319.64,532.07h28.27l-.14,13.25c0,7.73-6.27,14-14,14s-14-6.27-14-14l-.14-13.25Z"/><path class="cls-13" d="m263.22,532.07h28.27l-.14,13.25c0,7.73-6.27,14-14,14s-14-6.27-14-14l-.14-13.25Z"/><path class="cls-13" d="m178.15,532.07h28.27l-.14,13.25c0,7.73-6.27,14-14,14s-14-6.27-14-14l-.14-13.25Z"/><path class="cls-13" d="m206.42,532.07h28.27l-.14,13.25c0,7.73-6.27,14-14,14s-14-6.27-14-14l-.14-13.25Z"/><path class="cls-13" d="m150,532.07h28.27l-.14,13.25c0,7.73-6.27,14-14,14s-14-6.27-14-14l-.14-13.25Z"/><path class="cls-13" d="m123.09,532.07h28.27l-.14,13.25c0,7.73-6.27,14-14,14s-14-6.27-14-14l-.14-13.25Z"/><path class="cls-13" d="m95.7,532.07h28.27l-.14,13.25c0,7.73-6.27,14-14,14s-14-6.27-14-14l-.14-13.25Z"/><path class="cls-13" d="m67.17,532.07h28.27l-.14,13.25c0,7.73-6.27,14-14,14s-14-6.27-14-14l-.14-13.25Z"/><path class="cls-13" d="m250.07,516.39h28.27l-.14,13.25c0,7.73-6.27,14-14,14s-14-6.27-14-14l-.14-13.25Z"/><path class="cls-13" d="m306.75,516.39h28.27l-.14,13.25c0,7.73-6.27,14-14,14s-14-6.27-14-14l-.14-13.25Z"/><path class="cls-13" d="m335.02,516.39h28.27l-.14,13.25c0,7.73-6.27,14-14,14s-14-6.27-14-14l-.14-13.25Z"/><path class="cls-13" d="m278.61,516.39h28.27l-.14,13.25c0,7.73-6.27,14-14,14s-14-6.27-14-14l-.14-13.25Z"/><path class="cls-13" d="m193.53,516.39h28.27l-.14,13.25c0,7.73-6.27,14-14,14s-14-6.27-14-14l-.14-13.25Z"/><path class="cls-13" d="m221.8,516.39h28.27l-.14,13.25c0,7.73-6.27,14-14,14s-14-6.27-14-14l-.14-13.25Z"/><path class="cls-13" d="m165.38,516.39h28.27l-.14,13.25c0,7.73-6.27,14-14,14s-14-6.27-14-14l-.14-13.25Z"/><path class="cls-13" d="m138.48,516.39h28.27l-.14,13.25c0,7.73-6.27,14-14,14s-14-6.27-14-14l-.14-13.25Z"/><path class="cls-13" d="m111.08,516.39h28.27l-.14,13.25c0,7.73-6.27,14-14,14s-14-6.27-14-14l-.14-13.25Z"/><path class="cls-13" d="m82.68,516.39h28.27l-.14,13.25c0,7.73-6.27,14-14,14s-14-6.27-14-14l-.14-13.25Z"/><path class="cls-13" d="m237.07,503.6h-28.27l.14,13.25c0,7.73,6.27,14,14,14s14-6.27,14-14l.14-13.25Z"/><path class="cls-13" d="m180.39,503.6h-28.27l.14,13.25c0,7.73,6.27,14,14,14s14-6.27,14-14l.14-13.25Z"/><path class="cls-13" d="m152.12,503.6h-28.27l.14,13.25c0,7.73,6.27,14,14,14s14-6.27,14-14l.14-13.25Z"/><path class="cls-13" d="m123.72,503.6h-28.27l.14,13.25c0,7.73,6.27,14,14,14s14-6.27,14-14l.14-13.25Z"/><path class="cls-13" d="m208.54,503.6h-28.27l.14,13.25c0,7.73,6.27,14,14,14s14-6.27,14-14l.14-13.25Z"/><path class="cls-13" d="m293.61,503.6h-28.27l.14,13.25c0,7.73,6.27,14,14,14s14-6.27,14-14l.14-13.25Z"/><path class="cls-13" d="m265.34,503.6h-28.27l.14,13.25c0,7.73,6.27,14,14,14s14-6.27,14-14l.14-13.25Z"/><path class="cls-13" d="m321.76,503.6h-28.27l.14,13.25c0,7.73,6.27,14,14,14s14-6.27,14-14l.14-13.25Z"/><path class="cls-13" d="m348.66,503.6h-28.27l.14,13.25c0,7.73,6.27,14,14,14s14-6.27,14-14l.14-13.25Z"/><path class="cls-13" d="m95.44,503.6h-28.27l.14,13.25c0,7.73,6.27,14,14,14s14-6.27,14-14l.14-13.25Z"/><path class="cls-13" d="m225.55,485.94l28.27-.27v13.25c.06,7.73-6.15,14.06-13.88,14.13s-14.06-6.13-14.13-13.87l-.26-13.25Z"/><path class="cls-13" d="m282.22,485.94l28.27-.27v13.25c.06,7.73-6.15,14.06-13.88,14.13s-14.06-6.13-14.13-13.87l-.26-13.25Z"/><path class="cls-13" d="m310.49,485.94l28.27-.27v13.25c.06,7.73-6.15,14.06-13.88,14.13s-14.06-6.13-14.13-13.87l-.26-13.25Z"/><path class="cls-13" d="m338.89,485.94l28.27-.27v13.25c.06,7.73-6.15,14.06-13.88,14.13s-14.06-6.13-14.13-13.87l-.26-13.25Z"/><path class="cls-13" d="m254.08,485.94l28.27-.27v13.25c.06,7.73-6.15,14.06-13.88,14.13s-14.06-6.13-14.13-13.87l-.26-13.25Z"/><path class="cls-13" d="m169.01,485.94l28.27-.27v13.25c.06,7.73-6.15,14.06-13.88,14.13s-14.06-6.13-14.13-13.87l-.26-13.25Z"/><path class="cls-13" d="m197.28,485.94l28.27-.27v13.25c.06,7.73-6.15,14.06-13.88,14.13s-14.06-6.13-14.13-13.87l-.26-13.25Z"/><path class="cls-13" d="m140.86,485.94l28.27-.27v13.25c.06,7.73-6.15,14.06-13.88,14.13s-14.06-6.13-14.13-13.87l-.26-13.25Z"/><path class="cls-13" d="m113.95,485.94l28.27-.27v13.25c.06,7.73-6.15,14.06-13.88,14.13s-14.06-6.13-14.13-13.87l-.26-13.25Z"/><path class="cls-13" d="m238.88,471.06h28.27l-.14,13.25c0,7.73-6.27,14-14,14s-14-6.27-14-14l-.14-13.25Z"/><path class="cls-13" d="m295.56,471.06h28.27l-.14,13.25c0,7.73-6.27,14-14,14s-14-6.27-14-14l-.14-13.25Z"/><path class="cls-13" d="m323.83,471.06h28.27l-.14,13.25c0,7.73-6.27,14-14,14s-14-6.27-14-14l-.14-13.25Z"/><path class="cls-13" d="m85.57,485.94l28.27-.27v13.25c.06,7.73-6.15,14.06-13.88,14.13s-14.06-6.13-14.13-13.87l-.26-13.25Z"/><path class="cls-13" d="m267.42,471.06h28.27l-.14,13.25c0,7.73-6.27,14-14,14s-14-6.27-14-14l-.14-13.25Z"/><path class="cls-13" d="m182.34,471.06h28.27l-.14,13.25c0,7.73-6.27,14-14,14s-14-6.27-14-14l-.14-13.25Z"/><path class="cls-13" d="m210.61,471.06h28.27l-.14,13.25c0,7.73-6.27,14-14,14s-14-6.27-14-14l-.14-13.25Z"/><path class="cls-13" d="m154.19,471.06h28.27l-.14,13.25c0,7.73-6.27,14-14,14s-14-6.27-14-14l-.14-13.25Z"/><path class="cls-13" d="m127.29,471.06h28.27l-.14,13.25c0,7.73-6.27,14-14,14s-14-6.27-14-14l-.14-13.25Z"/><path class="cls-13" d="m99.89,471.06h28.27l-.14,13.25c0,7.73-6.27,14-14,14s-14-6.27-14-14l-.14-13.25Z"/><path class="cls-13" d="m71.37,471.06h28.27l-.14,13.25c0,7.73-6.27,14-14,14s-14-6.27-14-14l-.14-13.25Z"/><path class="cls-13" d="m253.01,454.69h28.27l-.14,13.25c0,7.73-6.27,14-14,14s-14-6.27-14-14l-.14-13.25Z"/><path class="cls-13" d="m309.69,454.69h28.27l-.14,13.25c0,7.73-6.27,14-14,14s-14-6.27-14-14l-.14-13.25Z"/><path class="cls-13" d="m337.96,454.69h28.27l-.14,13.25c0,7.73-6.27,14-14,14s-14-6.27-14-14l-.14-13.25Z"/><path class="cls-13" d="m281.54,454.69h28.27l-.14,13.25c0,7.73-6.27,14-14,14s-14-6.27-14-14l-.14-13.25Z"/><path class="cls-13" d="m196.47,454.69h28.27l-.14,13.25c0,7.73-6.27,14-14,14s-14-6.27-14-14l-.14-13.25Z"/><path class="cls-13" d="m224.74,454.69h28.27l-.14,13.25c0,7.73-6.27,14-14,14s-14-6.27-14-14l-.14-13.25Z"/><path class="cls-13" d="m168.32,454.69h28.27l-.14,13.25c0,7.73-6.27,14-14,14s-14-6.27-14-14l-.14-13.25Z"/><path class="cls-13" d="m141.41,454.69h28.27l-.14,13.25c0,7.73-6.27,14-14,14s-14-6.27-14-14l-.14-13.25Z"/><path class="cls-13" d="m114.02,454.69h28.27l-.14,13.25c0,7.73-6.27,14-14,14s-14-6.27-14-14l-.14-13.25Z"/><path class="cls-13" d="m85.61,454.69h28.27l-.14,13.25c0,7.73-6.27,14-14,14s-14-6.27-14-14l-.14-13.25Z"/><path class="cls-13" d="m241.26,438.43h-28.27l.14,13.25c0,7.73,6.27,14,14,14s14-6.27,14-14l.14-13.25Z"/><path class="cls-13" d="m184.58,438.43h-28.27l.14,13.25c0,7.73,6.27,14,14,14s14-6.27,14-14l.14-13.25Z"/><path class="cls-13" d="m156.31,438.43h-28.27l.14,13.25c0,7.73,6.27,14,14,14s14-6.27,14-14l.14-13.25Z"/><path class="cls-13" d="m127.91,438.43h-28.27l.14,13.25c0,7.73,6.27,14,14,14s14-6.27,14-14l.14-13.25Z"/><path class="cls-13" d="m212.73,438.43h-28.27l.14,13.25c0,7.73,6.27,14,14,14s14-6.27,14-14l.14-13.25Z"/><path class="cls-13" d="m297.8,438.43h-28.27l.14,13.25c0,7.73,6.27,14,14,14s14-6.27,14-14l.14-13.25Z"/><path class="cls-13" d="m269.53,438.43h-28.27l.14,13.25c0,7.73,6.27,14,14,14s14-6.27,14-14l.14-13.25Z"/><path class="cls-13" d="m325.95,438.43h-28.27l.14,13.25c0,7.73,6.27,14,14,14s14-6.27,14-14l.14-13.25Z"/><path class="cls-13" d="m352.86,438.43h-28.27l.14,13.25c0,7.73,6.27,14,14,14s14-6.27,14-14l.14-13.25Z"/><path class="cls-13" d="m99.64,438.43h-28.27l.14,13.25c0,7.73,6.27,14,14,14s14-6.27,14-14l.14-13.25Z"/><path class="cls-13" d="m227.61,422.06h-28.27l.14,13.25c0,7.73,6.27,14,14,14s14-6.27,14-14l.14-13.25Z"/><path class="cls-13" d="m170.93,422.06h-28.27l.14,13.25c0,7.73,6.27,14,14,14s14-6.27,14-14l.14-13.25Z"/><path class="cls-13" d="m142.66,422.06h-28.27l.14,13.25c0,7.73,6.27,14,14,14s14-6.27,14-14l.14-13.25Z"/><path class="cls-13" d="m114.26,422.06h-28.27l.14,13.25c0,7.73,6.27,14,14,14s14-6.27,14-14l.14-13.25Z"/><path class="cls-13" d="m199.08,422.06h-28.27l.14,13.25c0,7.73,6.27,14,14,14s14-6.27,14-14l.14-13.25Z"/><path class="cls-13" d="m284.15,422.06h-28.27l.14,13.25c0,7.73,6.27,14,14,14s14-6.27,14-14l.14-13.25Z"/><path class="cls-13" d="m255.88,422.06h-28.27l.14,13.25c0,7.73,6.27,14,14,14s14-6.27,14-14l.14-13.25Z"/><path class="cls-13" d="m312.3,422.06h-28.27l.14,13.25c0,7.73,6.27,14,14,14s14-6.27,14-14l.14-13.25Z"/><path class="cls-13" d="m339.21,422.06h-28.27l.14,13.25c0,7.73,6.27,14,14,14s14-6.27,14-14l.14-13.25Z"/><path class="cls-13" d="m70.96,407.48l28.26-.86.27,13.25c.24,7.73-5.84,14.18-13.56,14.42s-14.18-5.84-14.42-13.56l-.54-13.24Z"/><path class="cls-13" d="m366.6,422.06h-28.27l.14,13.25c0,7.73,6.27,14,14,14s14-6.27,14-14l.14-13.25Z"/><path class="cls-13" d="m242.23,406.62h-28.27l.14,13.25c0,7.73,6.27,14,14,14s14-6.27,14-14l.14-13.25Z"/><path class="cls-13" d="m157.28,406.62h-28.27l.14,13.25c0,7.73,6.27,14,14,14s14-6.27,14-14l.14-13.25Z"/><path class="cls-13" d="m128.88,406.62h-28.27l.14,13.25c0,7.73,6.27,14,14,14s14-6.27,14-14l.14-13.25Z"/><path class="cls-13" d="m213.7,406.62h-28.27l.14,13.25c0,7.73,6.27,14,14,14s14-6.27,14-14l.14-13.25Z"/><path class="cls-13" d="m298.77,406.62h-28.27l.14,13.25c0,7.73,6.27,14,14,14s14-6.27,14-14l.14-13.25Z"/><path class="cls-13" d="m270.5,406.62h-28.27l.14,13.25c0,7.73,6.27,14,14,14s14-6.27,14-14l.14-13.25Z"/><path class="cls-13" d="m326.92,406.62h-28.27l.14,13.25c0,7.73,6.27,14,14,14s14-6.27,14-14l.14-13.25Z"/><path class="cls-13" d="m353.83,406.62h-28.27l.14,13.25c0,7.73,6.27,14,14,14s14-6.27,14-14l.14-13.25Z"/><path class="cls-13" d="m185.55,406.62h-28.27l.14,13.25c0,7.73,6.27,14,14,14s14-6.27,14-14l.14-13.25Z"/><path class="cls-13" d="m228.58,390.26h-28.27l.14,13.25c0,7.73,6.27,14,14,14s14-6.27,14-14l.14-13.25Z"/><path class="cls-13" d="m171.9,390.26h-28.27l.14,13.25c0,7.73,6.27,14,14,14s14-6.27,14-14l.14-13.25Z"/><path class="cls-13" d="m143.63,390.26h-28.27l.14,13.25c0,7.73,6.27,14,14,14s14-6.27,14-14l.14-13.25Z"/><path class="cls-13" d="m115.23,390.26h-28.27l.14,13.25c0,7.73,6.27,14,14,14s14-6.27,14-14l.14-13.25Z"/><path class="cls-13" d="m200.05,390.26h-28.27l.14,13.25c0,7.73,6.27,14,14,14s14-6.27,14-14l.14-13.25Z"/><path class="cls-13" d="m285.12,390.26h-28.27l.14,13.25c0,7.73,6.27,14,14,14s14-6.27,14-14l.14-13.25Z"/><path class="cls-13" d="m256.85,390.26h-28.27l.14,13.25c0,7.73,6.27,14,14,14s14-6.27,14-14l.14-13.25Z"/><path class="cls-13" d="m313.27,390.26h-28.27l.14,13.25c0,7.73,6.27,14,14,14s14-6.27,14-14l.14-13.25Z"/><path class="cls-13" d="m340.18,390.26h-28.27l.14,13.25c0,7.73,6.27,14,14,14s14-6.27,14-14l.14-13.25Z"/><path class="cls-13" d="m240.06,374.24h28.27l-.14,13.25c0,7.73-6.27,14-14,14s-14-6.27-14-14l-.14-13.25Z"/><path class="cls-13" d="m296.74,374.24h28.27l-.14,13.25c0,7.73-6.27,14-14,14s-14-6.27-14-14l-.14-13.25Z"/><path class="cls-13" d="m325.01,374.24h28.27l-.14,13.25c0,7.73-6.27,14-14,14s-14-6.27-14-14l-.14-13.25Z"/><path class="cls-13" d="m268.59,374.24h28.27l-.14,13.25c0,7.73-6.27,14-14,14s-14-6.27-14-14l-.14-13.25Z"/><path class="cls-13" d="m183.51,374.24h28.27l-.14,13.25c0,7.73-6.27,14-14,14s-14-6.27-14-14l-.14-13.25Z"/><path class="cls-13" d="m211.79,374.24h28.27l-.14,13.25c0,7.73-6.27,14-14,14s-14-6.27-14-14l-.14-13.25Z"/><path class="cls-13" d="m155.37,374.24h28.27l-.14,13.25c0,7.73-6.27,14-14,14s-14-6.27-14-14l-.14-13.25Z"/><path class="cls-13" d="m128.46,374.24h28.27l-.14,13.25c0,7.73-6.27,14-14,14s-14-6.27-14-14l-.14-13.25Z"/><path class="cls-13" d="m101.06,374.24h28.27l-.14,13.25c0,7.73-6.27,14-14,14s-14-6.27-14-14l-.14-13.25Z"/><path class="cls-13" d="m72.54,374.24h28.27l-.14,13.25c0,7.73-6.27,14-14,14s-14-6.27-14-14l-.14-13.25Z"/><path class="cls-13" d="m255.44,358.56h28.27l-.14,13.25c0,7.73-6.27,14-14,14s-14-6.27-14-14l-.14-13.25Z"/><path class="cls-13" d="m312.12,358.56h28.27l-.14,13.25c0,7.73-6.27,14-14,14s-14-6.27-14-14l-.14-13.25Z"/><path class="cls-13" d="m283.97,358.56h28.27l-.14,13.25c0,7.73-6.27,14-14,14s-14-6.27-14-14l-.14-13.25Z"/><path class="cls-13" d="m198.9,358.56h28.27l-.14,13.25c0,7.73-6.27,14-14,14s-14-6.27-14-14l-.14-13.25Z"/><path class="cls-13" d="m227.17,358.56h28.27l-.14,13.25c0,7.73-6.27,14-14,14s-14-6.27-14-14l-.14-13.25Z"/><path class="cls-13" d="m170.75,358.56h28.27l-.14,13.25c0,7.73-6.27,14-14,14s-14-6.27-14-14l-.14-13.25Z"/><path class="cls-13" d="m143.84,358.56h28.27l-.14,13.25c0,7.73-6.27,14-14,14s-14-6.27-14-14l-.14-13.25Z"/><path class="cls-13" d="m116.45,358.56h28.27l-.14,13.25c0,7.73-6.27,14-14,14s-14-6.27-14-14l-.14-13.25Z"/><path class="cls-13" d="m88.04,358.56h28.27l-.14,13.25c0,7.73-6.27,14-14,14s-14-6.27-14-14l-.14-13.25Z"/><path class="cls-13" d="m242.43,345.77h-28.27l.14,13.25c0,7.73,6.27,14,14,14s14-6.27,14-14l.14-13.25Z"/><path class="cls-13" d="m185.75,345.77h-28.27l.14,13.25c0,7.73,6.27,14,14,14s14-6.27,14-14l.14-13.25Z"/><path class="cls-13" d="m157.48,345.77h-28.27l.14,13.25c0,7.73,6.27,14,14,14s14-6.27,14-14l.14-13.25Z"/><path class="cls-13" d="m129.08,345.77h-28.27l.14,13.25c0,7.73,6.27,14,14,14s14-6.27,14-14l.14-13.25Z"/><path class="cls-13" d="m213.9,345.77h-28.27l.14,13.25c0,7.73,6.27,14,14,14s14-6.27,14-14l.14-13.25Z"/><path class="cls-13" d="m298.97,345.77h-28.27l.14,13.25c0,7.73,6.27,14,14,14s14-6.27,14-14l.14-13.25Z"/><path class="cls-13" d="m270.7,345.77h-28.27l.14,13.25c0,7.73,6.27,14,14,14s14-6.27,14-14l.14-13.25Z"/><path class="cls-13" d="m327.12,345.77h-28.27l.14,13.25c0,7.73,6.27,14,14,14s14-6.27,14-14l.14-13.25Z"/><path class="cls-13" d="m354.03,345.77h-28.27l.14,13.25c0,7.73,6.27,14,14,14s14-6.27,14-14l.14-13.25Z"/><path class="cls-13" d="m100.81,345.77h-28.27l.14,13.25c0,7.73,6.27,14,14,14s14-6.27,14-14l.14-13.25Z"/></g><path class="cls-4" d="m168.68,653.92c-58.66-24.48-72.95-92.95-72.95-92.95-28.95-119.54,22.64-189.1,35.43-204.06,1.67-1.95,4.1-3.06,6.66-3.06h61.14c2.01,0,3.92.86,5.26,2.36,11.92,13.37,66.95,83.24,37.52,204.77,0,0-14.22,63.29,75.32,38.61.12-.03.24-.07.36-.12l24.32-8.82c.22-.08.44-.18.64-.29,3.56-1.97,37.06-20.08,7.91,13.42-30.99,35.63-40.64,40.56-72.3,50.14-32.23,9.75-63.04,9.73-109.32,0"/><path class="cls-2" d="m75.96,366.26s8.82,4.06,20.73-5.73"/><ellipse class="cls-6" cx="209.91" cy="648.82" rx="167.39" ry="26.18"/><path class="cls-5" d="m174.53,82.52s9.02,26.25,44.56,33.08c35.54,6.83,79.56,35.27,95.69,71.9"/></g></svg>