<?xml version="1.0" encoding="UTF-8"?><svg id="Titel" xmlns="http://www.w3.org/2000/svg" width="800" height="850" viewBox="0 0 800 850"><defs><style>.cls-1{fill:#50cdd0;}.cls-1,.cls-2,.cls-3,.cls-4,.cls-5,.cls-6,.cls-7,.cls-8,.cls-9,.cls-10{stroke:#231f20;}.cls-1,.cls-2,.cls-3,.cls-8{stroke-linecap:round;stroke-linejoin:round;}.cls-2,.cls-6{fill:#40b1ae;}.cls-3,.cls-5{fill:#369a97;}.cls-4{fill:#84eaef;}.cls-4,.cls-5,.cls-6,.cls-7,.cls-9,.cls-10{stroke-miterlimit:10;}.cls-7{fill:#231f20;}.cls-8,.cls-9,.cls-10{fill:none;}.cls-8,.cls-10{stroke-width:.5px;}.cls-11{fill:#409794;stroke-width:0px;}</style></defs><path class="cls-11" d="m148.45,376.41c1.18-1.95,3.69-2.62,5.69-1.53,2.66,1.45,5.72,3.37,5.88,4.67.29,2.31-3.47,4.05-7.22,4.91-1.64.38-1.74.81-1.32,1.18,1.13,1.01,1.14,2.81.11,3.92-1.72,1.85-4.94,3.61-10.82,2.29-.5-.11-1.01.07-1.33.46-.57.7-1.24,2.01-.79,4,.73,3.29-29.1,2.62-29.96,1.75-.81-.81-2.18-5.49,6.15-12.32.99-.81,1.65-1.96,1.81-3.23.1-.74.28-1.78.62-3.25,1.24-5.39,11.59-3.47,13.04-1.16,1.26,2.02,3.15-3,3.62-4.32.11-.31.32-.58.62-.73.79-.41,2.59-.6,6.13,2.16,4.2,3.27,5.6,4.82,7.79,1.2Z"/><rect class="cls-1" x="447.41" y="261.72" width="166.75" height="372.73" rx="3.73" ry="3.73" transform="translate(1061.56 896.16) rotate(180)"/><path class="cls-4" d="m565.94,542.77c2.85,0,5.16-1.94,5.16-4.34v-62.93c.01-57.34-17.64-58.76-40.22-58.69h-.21c-22.64-.07-39.35.88-40.22,58.69v62.93c0,2.4,2.31,4.34,5.16,4.34h70.34Z"/><line class="cls-10" x1="530.77" y1="542.54" x2="530.77" y2="416.81"/><line class="cls-8" x1="491.51" y1="454.61" x2="570.02" y2="454.63"/><line class="cls-8" x1="490.17" y1="484.86" x2="570.26" y2="484.86"/><line class="cls-8" x1="491.3" y1="517.51" x2="571.39" y2="517.51"/><rect class="cls-1" x="185.84" y="261.19" width="166.75" height="372.73" rx="3.73" ry="3.73"/><rect class="cls-3" x="171.08" y="236.61" width="196.28" height="24.32" rx="4.37" ry="4.37"/><rect class="cls-2" x="168.47" y="223.43" width="201.49" height="13.03" rx="3.93" ry="3.93"/><path class="cls-4" d="m257.82,61.63c5.07-8.78,17.74-8.78,22.8,0l37.49,64.94,37.49,64.94c5.07,8.78-1.27,19.75-11.4,19.75h-149.97c-10.13,0-16.47-10.97-11.4-19.75l37.49-64.94,37.49-64.94Z"/><path class="cls-4" d="m365.1,185.85c2.7,0,4.88,2.19,4.88,4.88v27.58c0,2.7-2.19,4.88-4.88,4.88h-191.72c-2.7,0-4.88-2.19-4.88-4.88v-27.58s-.66-4.79,4.02-4.79c3.53,0,16.24.08,22.32,0,1.77-.02,3.21,1.36,3.34,3.12.92,11.85,6.96,21,14.27,21s13.36-9.17,14.28-21.04c.13-1.75,1.55-3.12,3.31-3.12h21.7c1.76,0,3.18,1.37,3.31,3.12.91,11.93,6.93,21.48,14.25,21.48s13.36-9.17,14.28-21.04c.13-1.75,1.55-3.12,3.31-3.12h22.55c1.75,0,3.18,1.37,3.31,3.12.91,11.87,6.96,21.04,14.28,21.04s13.35-9.43,14.25-21.36c.13-1.74,1.54-3.1,3.28-3.12l20.55-.19Z"/><circle class="cls-5" cx="269.22" cy="39.02" r="15.42"/><rect class="cls-1" x="45.59" y="402.12" width="107.76" height="237.64" rx="3.73" ry="3.73"/><rect class="cls-3" x="22.16" y="382.64" width="154.62" height="19.16" rx="4.37" ry="4.37"/><rect class="cls-2" x="20.1" y="368.27" width="158.73" height="13.96" rx="3.93" ry="3.93"/><path class="cls-4" d="m173.56,336.49c2.08,0,3.77,1.86,3.77,4.15v23.45c0,2.29-1.69,4.15-3.77,4.15H25.4c-2.08,0-3.77-1.86-3.77-4.15v-23.45s-.51-4.07,3.11-4.07c2.73,0,12.55.06,17.25,0,1.37-.02,2.48,1.15,2.58,2.65.71,10.08,5.38,17.86,11.03,17.86s10.33-7.8,11.03-17.89c.1-1.49,1.2-2.65,2.56-2.65h16.77c1.36,0,2.46,1.16,2.56,2.65.7,10.15,5.35,18.26,11.01,18.26s10.33-7.8,11.03-17.89c.1-1.49,1.2-2.65,2.56-2.65h17.43c1.36,0,2.45,1.16,2.56,2.65.7,10.09,5.38,17.89,11.03,17.89s10.32-8.02,11.02-18.16c.1-1.48,1.19-2.64,2.53-2.65l15.88-.16Z"/><rect class="cls-2" x="30.45" y="663.28" width="220.84" height="163.08" rx="3.73" ry="3.73"/><rect class="cls-3" x="30.06" y="649.63" width="221.62" height="12.68" rx="4.37" ry="4.37"/><path class="cls-4" d="m246.16,599.49c2.96,0,5.36,2.94,5.36,6.58v37.14c0,3.63-2.4,6.58-5.36,6.58H35.63c-2.96,0-5.36-2.94-5.36-6.58v-37.14s-.72-6.45,4.41-6.45c3.88,0,17.83.1,24.51.01,1.94-.03,3.52,1.82,3.67,4.2,1.01,15.96,7.64,28.28,15.67,28.28s14.68-12.35,15.68-28.33c.15-2.36,1.71-4.2,3.63-4.2h23.83c1.93,0,3.49,1.84,3.63,4.2,1,16.07,7.61,28.92,15.65,28.92s14.68-12.35,15.68-28.33c.15-2.36,1.71-4.2,3.63-4.2h24.76c1.93,0,3.49,1.84,3.63,4.2,1,15.98,7.64,28.33,15.68,28.33s14.66-12.7,15.65-28.76c.14-2.34,1.69-4.18,3.6-4.2l22.56-.25Z"/><rect class="cls-3" x="432.64" y="237.14" width="196.28" height="24.32" rx="4.37" ry="4.37" transform="translate(1061.56 498.59) rotate(180)"/><rect class="cls-2" x="430.04" y="223.95" width="201.49" height="13.03" rx="3.93" ry="3.93" transform="translate(1061.56 460.94) rotate(180)"/><path class="cls-4" d="m542.18,62.16c-5.07-8.78-17.74-8.78-22.8,0l-37.49,64.94-37.49,64.94c-5.07,8.78,1.27,19.75,11.4,19.75h149.97c10.13,0,16.47-10.97,11.4-19.75l-37.49-64.94-37.49-64.94Z"/><path class="cls-4" d="m434.9,186.38c-2.7,0-4.88,2.19-4.88,4.88v27.58c0,2.7,2.19,4.88,4.88,4.88h191.72c2.7,0,4.88-2.19,4.88-4.88v-27.58s.66-4.79-4.02-4.79c-3.53,0-16.24.08-22.32,0-1.77-.02-3.21,1.36-3.34,3.12-.92,11.85-6.96,21-14.27,21s-13.36-9.17-14.28-21.04c-.13-1.75-1.55-3.12-3.31-3.12h-21.7c-1.76,0-3.18,1.37-3.31,3.12-.91,11.93-6.93,21.48-14.25,21.48s-13.36-9.17-14.28-21.04c-.13-1.75-1.55-3.12-3.31-3.12h-22.55c-1.75,0-3.18,1.37-3.31,3.12-.91,11.87-6.96,21.04-14.28,21.04s-13.35-9.43-14.25-21.36c-.13-1.74-1.54-3.1-3.28-3.12l-20.55-.19Z"/><circle class="cls-5" cx="530.78" cy="39.55" r="15.42"/><rect class="cls-1" x="646.66" y="402.65" width="107.76" height="237.64" rx="3.73" ry="3.73" transform="translate(1401.07 1042.94) rotate(180)"/><rect class="cls-3" x="623.22" y="383.17" width="154.62" height="19.16" rx="4.37" ry="4.37" transform="translate(1401.07 785.49) rotate(180)"/><rect class="cls-2" x="621.17" y="368.79" width="158.73" height="13.96" rx="3.93" ry="3.93" transform="translate(1401.07 751.54) rotate(180)"/><path class="cls-4" d="m565.94,403.03c2.85,0,5.16-1.94,5.16-4.34v-62.93c.01-57.34-17.64-58.76-40.22-58.69h-.21c-22.64-.07-39.35.88-40.22,58.69v62.93c0,2.4,2.31,4.34,5.16,4.34h70.34Z"/><line class="cls-10" x1="530.77" y1="402.8" x2="530.77" y2="277.07"/><line class="cls-8" x1="491.51" y1="314.87" x2="570.02" y2="314.89"/><line class="cls-8" x1="490.17" y1="345.12" x2="570.26" y2="345.12"/><line class="cls-8" x1="491.3" y1="377.77" x2="571.39" y2="377.77"/><path class="cls-4" d="m626.44,337.02c-2.08,0-3.77,1.86-3.77,4.15v23.45c0,2.29,1.69,4.15,3.77,4.15h148.17c2.08,0,3.77-1.86,3.77-4.15v-23.45s.51-4.07-3.11-4.07c-2.73,0-12.55.06-17.25,0-1.37-.02-2.48,1.15-2.58,2.65-.71,10.08-5.38,17.86-11.03,17.86s-10.33-7.8-11.03-17.89c-.1-1.49-1.2-2.65-2.56-2.65h-16.77c-1.36,0-2.46,1.16-2.56,2.65-.7,10.15-5.35,18.26-11.01,18.26s-10.33-7.8-11.03-17.89c-.1-1.49-1.2-2.65-2.56-2.65h-17.43c-1.36,0-2.45,1.16-2.56,2.65-.7,10.09-5.38,17.89-11.03,17.89s-10.32-8.02-11.02-18.16c-.1-1.48-1.19-2.64-2.53-2.65l-15.88-.16Z"/><rect class="cls-2" x="548.7" y="663.28" width="220.84" height="163.08" rx="3.73" ry="3.73" transform="translate(1318.25 1489.64) rotate(180)"/><rect class="cls-3" x="548.31" y="650.16" width="221.62" height="12.68" rx="4.37" ry="4.37" transform="translate(1318.25 1312.99) rotate(-180)"/><path class="cls-4" d="m306.06,544.11c2.85,0,5.16-1.94,5.16-4.34v-62.93c.01-57.34-17.64-58.76-40.22-58.69h-.21c-22.64-.07-39.35.88-40.22,58.69v62.93c0,2.4,2.31,4.34,5.16,4.34h70.34Z"/><line class="cls-10" x1="270.88" y1="543.87" x2="270.88" y2="418.14"/><line class="cls-8" x1="231.63" y1="455.95" x2="310.14" y2="455.97"/><line class="cls-8" x1="230.29" y1="486.2" x2="310.38" y2="486.2"/><line class="cls-8" x1="231.42" y1="518.85" x2="311.51" y2="518.85"/><path class="cls-4" d="m305.53,404.37c2.85,0,5.16-1.94,5.16-4.34v-62.93c.01-57.34-17.64-58.76-40.22-58.69h-.21c-22.64-.07-39.35.88-40.22,58.69v62.93c0,2.4,2.31,4.34,5.16,4.34h70.34Z"/><line class="cls-10" x1="270.35" y1="404.13" x2="270.35" y2="278.4"/><line class="cls-8" x1="231.1" y1="316.21" x2="309.61" y2="316.23"/><line class="cls-8" x1="229.76" y1="346.46" x2="309.85" y2="346.46"/><line class="cls-8" x1="230.89" y1="379.11" x2="310.98" y2="379.11"/><path class="cls-4" d="m553.84,600.02c-2.96,0-5.36,2.94-5.36,6.58v37.14c0,3.63,2.4,6.58,5.36,6.58h210.53c2.96,0,5.36-2.94,5.36-6.58v-37.14s.72-6.45-4.41-6.45c-3.88,0-17.83.1-24.51.01-1.94-.03-3.52,1.82-3.67,4.2-1.01,15.96-7.64,28.28-15.67,28.28s-14.68-12.35-15.68-28.33c-.15-2.36-1.71-4.2-3.63-4.2h-23.83c-1.93,0-3.49,1.84-3.63,4.2-1,16.07-7.61,28.92-15.65,28.92s-14.68-12.35-15.68-28.33c-.15-2.36-1.71-4.2-3.63-4.2h-24.76c-1.93,0-3.49,1.84-3.63,4.2-1,15.98-7.64,28.33-15.68,28.33s-14.66-12.7-15.65-28.76c-.14-2.34-1.69-4.18-3.6-4.2l-22.56-.25Z"/><path class="cls-4" d="m387.62,274.97c5.95-6.18,20.81-6.18,26.75,0l43.99,45.75,43.99,45.75c5.95,6.18-1.49,13.91-13.38,13.91h-175.95c-11.89,0-19.32-7.73-13.38-13.91l43.99-45.75,43.99-45.75Z"/><rect class="cls-1" x="327.31" y="380.43" width="147.29" height="213.12" rx="3.73" ry="3.73"/><rect class="cls-2" x="249.05" y="619.1" width="302.95" height="207.26" rx="3.73" ry="3.73"/><rect class="cls-3" x="247.88" y="603.87" width="302.82" height="15.25" rx="4.37" ry="4.37"/><path class="cls-4" d="m547.16,604.02c2.57,0,4.65-3.21,4.65-7.16v-40.44s.62-7.02-3.82-7.02c-3.36,0-15.46.11-21.25.01-1.68-.03-3.05,1.99-3.18,4.57-.88,17.38-6.62,30.8-13.59,30.8s-12.72-13.45-13.59-30.85c-.13-2.57-1.48-4.57-3.15-4.57h-20.65c-1.67,0-3.02,2.01-3.15,4.57-.86,17.5-6.59,31.5-13.56,31.5s-12.72-13.45-13.59-30.85c-.13-2.57-1.48-4.57-3.15-4.57h-21.46c-1.67,0-3.02,2.01-3.15,4.57-.87,17.4-6.62,30.85-13.59,30.85s-12.71-13.83-13.57-31.32c-.12-2.55-1.46-4.55-3.12-4.58l-.62-.03h-20.65c-1.67,0-3.02,2.01-3.15,4.57-.86,17.5-6.59,31.5-13.56,31.5s-12.72-13.45-13.59-30.85c-.13-2.57-1.48-4.57-3.15-4.57h-21.46c-1.67,0-3.02,2.01-3.15,4.57-.87,17.4-6.62,30.85-13.59,30.85s-12.71-13.83-13.57-31.32c-.12-2.55-1.46-4.55-3.12-4.58l-19.61-.07c-2.57,0-4.65,2.85-4.65,4.59v40.44c0,6.17,2.08,9.37,4.65,9.37h292.14Z"/><path class="cls-6" d="m488.95,826.4v-101.68c0-48.79-39.92-88.71-88.71-88.71h-.47c-48.79,0-88.71,39.92-88.71,88.71v101.68h177.89Z"/><line class="cls-9" x1="400.04" y1="826.27" x2="399.96" y2="635.85"/><rect class="cls-7" x="383.91" y="730.53" width="9.12" height="38.77" rx="4.12" ry="4.12"/><rect class="cls-7" x="406.97" y="730.53" width="9.12" height="38.77" rx="4.12" ry="4.12"/><path class="cls-4" d="m435.17,514.17c2.85,0,5.16-1.94,5.16-4.34v-62.93c.01-57.34-17.64-58.76-40.22-58.69h-.21c-22.64-.07-39.35.88-40.22,58.69v62.93c0,2.4,2.31,4.34,5.16,4.34h70.34Z"/><line class="cls-10" x1="400" y1="513.94" x2="400" y2="388.21"/><line class="cls-8" x1="360.74" y1="426.01" x2="439.26" y2="426.03"/><line class="cls-8" x1="359.41" y1="456.26" x2="439.5" y2="456.26"/><line class="cls-8" x1="360.54" y1="488.91" x2="440.63" y2="488.91"/><path class="cls-4" d="m720.99,585.13c1.66,0,3-1.13,3-2.53v-36.62c0-33.36-10.26-34.19-23.4-34.15h-.12c-13.17-.04-22.89.51-23.4,34.15v36.62c0,1.4,1.34,2.53,3,2.53h40.93Z"/><line class="cls-10" x1="700.52" y1="585" x2="700.52" y2="511.84"/><line class="cls-8" x1="677.68" y1="533.83" x2="723.37" y2="533.85"/><line class="cls-8" x1="676.9" y1="551.44" x2="723.51" y2="551.44"/><line class="cls-8" x1="677.56" y1="570.44" x2="724.16" y2="570.44"/><path class="cls-4" d="m720.99,488.34c1.66,0,3-1.13,3-2.53v-36.62c0-33.36-10.26-34.19-23.4-34.15h-.12c-13.17-.04-22.89.51-23.4,34.15v36.62c0,1.4,1.34,2.53,3,2.53h40.93Z"/><line class="cls-10" x1="700.52" y1="488.2" x2="700.52" y2="415.04"/><line class="cls-8" x1="677.68" y1="437.03" x2="723.37" y2="437.05"/><line class="cls-8" x1="676.9" y1="454.64" x2="723.51" y2="454.64"/><line class="cls-8" x1="677.56" y1="473.64" x2="724.16" y2="473.64"/><path class="cls-4" d="m120.19,586.89c1.66,0,3-1.13,3-2.53v-36.62c0-33.36-10.26-34.19-23.4-34.15h-.12c-13.17-.04-22.89.51-23.4,34.15v36.62c0,1.4,1.34,2.53,3,2.53h40.93Z"/><line class="cls-10" x1="99.72" y1="586.75" x2="99.72" y2="513.59"/><line class="cls-8" x1="76.88" y1="535.59" x2="122.56" y2="535.6"/><line class="cls-8" x1="76.1" y1="553.19" x2="122.7" y2="553.19"/><line class="cls-8" x1="76.76" y1="572.19" x2="123.36" y2="572.19"/><path class="cls-4" d="m120.45,490.09c1.66,0,3-1.13,3-2.53v-36.62c0-33.36-10.26-34.19-23.4-34.15h-.12c-13.17-.04-22.89.51-23.4,34.15v36.62c0,1.4,1.34,2.53,3,2.53h40.93Z"/><line class="cls-10" x1="99.98" y1="489.95" x2="99.98" y2="416.79"/><line class="cls-8" x1="77.14" y1="438.79" x2="122.83" y2="438.8"/><line class="cls-8" x1="76.36" y1="456.39" x2="122.97" y2="456.39"/><line class="cls-8" x1="77.02" y1="475.39" x2="123.62" y2="475.39"/><path class="cls-4" d="m108.68,758.55c1.88,0,3.4-1.28,3.4-2.86v-41.49c0-37.8-11.63-38.74-26.52-38.7h-.14c-14.92-.05-25.94.58-26.52,38.7v41.49c0,1.58,1.52,2.86,3.4,2.86h46.38Z"/><line class="cls-10" x1="85.49" y1="758.4" x2="85.49" y2="675.5"/><line class="cls-8" x1="59.6" y1="700.42" x2="111.37" y2="700.44"/><line class="cls-8" x1="58.72" y1="720.37" x2="111.53" y2="720.37"/><line class="cls-8" x1="59.47" y1="741.9" x2="112.27" y2="741.9"/><path class="cls-4" d="m215.19,758.55c1.88,0,3.4-1.28,3.4-2.86v-41.49c0-37.8-11.63-38.74-26.52-38.7h-.14c-14.92-.05-25.94.58-26.52,38.7v41.49c0,1.58,1.52,2.86,3.4,2.86h46.38Z"/><line class="cls-10" x1="192" y1="758.4" x2="192" y2="675.5"/><line class="cls-8" x1="166.12" y1="700.42" x2="217.88" y2="700.44"/><line class="cls-8" x1="165.24" y1="720.37" x2="218.04" y2="720.37"/><line class="cls-8" x1="165.98" y1="741.9" x2="218.79" y2="741.9"/><path class="cls-4" d="m631.69,758.24c1.88,0,3.4-1.28,3.4-2.86v-41.49c0-37.8-11.63-38.74-26.52-38.7h-.14c-14.92-.05-25.94.58-26.52,38.7v41.49c0,1.58,1.52,2.86,3.4,2.86h46.38Z"/><line class="cls-10" x1="608.5" y1="758.09" x2="608.5" y2="675.19"/><line class="cls-8" x1="582.61" y1="700.11" x2="634.38" y2="700.13"/><line class="cls-8" x1="581.73" y1="720.06" x2="634.54" y2="720.06"/><line class="cls-8" x1="582.48" y1="741.59" x2="635.28" y2="741.59"/><path class="cls-4" d="m738.2,758.24c1.88,0,3.4-1.28,3.4-2.86v-41.49c0-37.8-11.63-38.74-26.52-38.7h-.14c-14.92-.05-25.94.58-26.52,38.7v41.49c0,1.58,1.52,2.86,3.4,2.86h46.38Z"/><line class="cls-10" x1="715.01" y1="758.09" x2="715.01" y2="675.19"/><line class="cls-8" x1="689.12" y1="700.11" x2="740.89" y2="700.13"/><line class="cls-8" x1="688.24" y1="720.06" x2="741.05" y2="720.06"/><line class="cls-8" x1="688.99" y1="741.59" x2="741.79" y2="741.59"/></svg>