<?xml version="1.0" encoding="UTF-8"?><svg id="Blæksprutte" xmlns="http://www.w3.org/2000/svg" width="250" height="250" xmlns:xlink="http://www.w3.org/1999/xlink" viewBox="0 0 250 250"><defs><style>.cls-1,.cls-2{stroke:#000;}.cls-1,.cls-3,.cls-4,.cls-5,.cls-6,.cls-7,.cls-8,.cls-9,.cls-10,.cls-11,.cls-12,.cls-13,.cls-14,.cls-15,.cls-16,.cls-17,.cls-18,.cls-19{stroke-miterlimit:10;}.cls-2{fill:none;stroke-linecap:round;stroke-linejoin:round;stroke-width:2px;}.cls-3{fill:#fff;stroke:#fff;}.cls-4,.cls-5,.cls-6,.cls-7,.cls-8,.cls-9,.cls-10,.cls-11,.cls-12,.cls-13,.cls-14,.cls-15,.cls-16,.cls-17,.cls-18,.cls-19{stroke:#231f20;}.cls-4,.cls-6,.cls-7,.cls-8,.cls-9,.cls-10,.cls-11,.cls-12,.cls-13,.cls-14,.cls-15,.cls-16,.cls-17,.cls-18,.cls-19{fill:#7a6581;}.cls-5{fill:#625772;}.cls-20{fill:#ff8a66;opacity:.5;stroke-width:0px;}.cls-6{filter:url(#drop-shadow-30);}.cls-7{filter:url(#drop-shadow-22);}.cls-8{filter:url(#drop-shadow-27);}.cls-9{filter:url(#drop-shadow-23);}.cls-10{filter:url(#drop-shadow-25);}.cls-11{filter:url(#drop-shadow-24);}.cls-12{filter:url(#drop-shadow-26);}.cls-13{filter:url(#drop-shadow-29);}.cls-14{filter:url(#drop-shadow-28);}.cls-15{filter:url(#drop-shadow-34);}.cls-16{filter:url(#drop-shadow-33);}.cls-17{filter:url(#drop-shadow-35);}.cls-18{filter:url(#drop-shadow-31);}.cls-19{filter:url(#drop-shadow-32);}.cls-21{filter:url(#drop-shadow-21);}</style><filter id="drop-shadow-21" filterUnits="userSpaceOnUse"><feOffset dx="-1" dy="2"/><feGaussianBlur result="blur" stdDeviation="0"/><feFlood flood-color="#000" flood-opacity=".75"/><feComposite in2="blur" operator="in"/><feComposite in="SourceGraphic"/></filter><filter id="drop-shadow-22" filterUnits="userSpaceOnUse"><feOffset dx="-1" dy="2"/><feGaussianBlur result="blur-2" stdDeviation="0"/><feFlood flood-color="#000" flood-opacity=".75"/><feComposite in2="blur-2" operator="in"/><feComposite in="SourceGraphic"/></filter><filter id="drop-shadow-23" filterUnits="userSpaceOnUse"><feOffset dx="-1" dy="2"/><feGaussianBlur result="blur-3" stdDeviation="0"/><feFlood flood-color="#000" flood-opacity=".75"/><feComposite in2="blur-3" operator="in"/><feComposite in="SourceGraphic"/></filter><filter id="drop-shadow-24" filterUnits="userSpaceOnUse"><feOffset dx="-1" dy="2"/><feGaussianBlur result="blur-4" stdDeviation="0"/><feFlood flood-color="#000" flood-opacity=".75"/><feComposite in2="blur-4" operator="in"/><feComposite in="SourceGraphic"/></filter><filter id="drop-shadow-25" filterUnits="userSpaceOnUse"><feOffset dx="-1" dy="2"/><feGaussianBlur result="blur-5" stdDeviation="0"/><feFlood flood-color="#000" flood-opacity=".75"/><feComposite in2="blur-5" operator="in"/><feComposite in="SourceGraphic"/></filter><filter id="drop-shadow-26" filterUnits="userSpaceOnUse"><feOffset dx="-1" dy="2"/><feGaussianBlur result="blur-6" stdDeviation="0"/><feFlood flood-color="#000" flood-opacity=".75"/><feComposite in2="blur-6" operator="in"/><feComposite in="SourceGraphic"/></filter><filter id="drop-shadow-27" filterUnits="userSpaceOnUse"><feOffset dx="-1" dy="2"/><feGaussianBlur result="blur-7" stdDeviation="0"/><feFlood flood-color="#000" flood-opacity=".75"/><feComposite in2="blur-7" operator="in"/><feComposite in="SourceGraphic"/></filter><filter id="drop-shadow-28" filterUnits="userSpaceOnUse"><feOffset dx="-1" dy="2"/><feGaussianBlur result="blur-8" stdDeviation="0"/><feFlood flood-color="#000" flood-opacity=".75"/><feComposite in2="blur-8" operator="in"/><feComposite in="SourceGraphic"/></filter><filter id="drop-shadow-29" filterUnits="userSpaceOnUse"><feOffset dx="-1" dy="2"/><feGaussianBlur result="blur-9" stdDeviation="0"/><feFlood flood-color="#000" flood-opacity=".75"/><feComposite in2="blur-9" operator="in"/><feComposite in="SourceGraphic"/></filter><filter id="drop-shadow-30" filterUnits="userSpaceOnUse"><feOffset dx="-1" dy="2"/><feGaussianBlur result="blur-10" stdDeviation="0"/><feFlood flood-color="#000" flood-opacity=".75"/><feComposite in2="blur-10" operator="in"/><feComposite in="SourceGraphic"/></filter><filter id="drop-shadow-31" filterUnits="userSpaceOnUse"><feOffset dx="-1" dy="2"/><feGaussianBlur result="blur-11" stdDeviation="0"/><feFlood flood-color="#000" flood-opacity=".75"/><feComposite in2="blur-11" operator="in"/><feComposite in="SourceGraphic"/></filter><filter id="drop-shadow-32" filterUnits="userSpaceOnUse"><feOffset dx="-1" dy="2"/><feGaussianBlur result="blur-12" stdDeviation="0"/><feFlood flood-color="#000" flood-opacity=".75"/><feComposite in2="blur-12" operator="in"/><feComposite in="SourceGraphic"/></filter><filter id="drop-shadow-33" filterUnits="userSpaceOnUse"><feOffset dx="-1" dy="2"/><feGaussianBlur result="blur-13" stdDeviation="0"/><feFlood flood-color="#000" flood-opacity=".75"/><feComposite in2="blur-13" operator="in"/><feComposite in="SourceGraphic"/></filter><filter id="drop-shadow-34" filterUnits="userSpaceOnUse"><feOffset dx="-1" dy="2"/><feGaussianBlur result="blur-14" stdDeviation="0"/><feFlood flood-color="#000" flood-opacity=".75"/><feComposite in2="blur-14" operator="in"/><feComposite in="SourceGraphic"/></filter><filter id="drop-shadow-35" filterUnits="userSpaceOnUse"><feOffset dx="-1" dy="2"/><feGaussianBlur result="blur-15" stdDeviation="0"/><feFlood flood-color="#000" flood-opacity=".75"/><feComposite in2="blur-15" operator="in"/><feComposite in="SourceGraphic"/></filter></defs><ellipse class="cls-4" cx="155.99" cy="42.94" rx="1.83" ry="2.51" transform="translate(9.09 110.74) rotate(-40.16)"/><ellipse class="cls-4" cx="161.23" cy="48.05" rx="1.83" ry="2.51" transform="translate(7.03 115.32) rotate(-40.16)"/><ellipse class="cls-4" cx="166.73" cy="53.68" rx="1.83" ry="2.51" transform="translate(4.69 120.19) rotate(-40.16)"/><ellipse class="cls-4" cx="171.24" cy="59.94" rx="1.83" ry="2.51" transform="translate(-4.57 104.74) rotate(-33.59)"/><ellipse class="cls-4" cx="175.26" cy="66.18" rx="1.83" ry="2.51" transform="translate(-10.1 93.33) rotate(-29.02)"/><ellipse class="cls-4" cx="178.7" cy="73.36" rx="1.83" ry="2.51" transform="translate(-13.15 95.9) rotate(-29.02)"/><ellipse class="cls-4" cx="181.35" cy="80.36" rx="1.83" ry="2.51" transform="translate(-15.11 53.02) rotate(-15.98)"/><ellipse class="cls-4" cx="183.41" cy="87.93" rx="1.83" ry="2.51" transform="translate(-17.12 53.88) rotate(-15.98)"/><ellipse class="cls-4" cx="185.13" cy="95.19" rx="1.83" ry="2.51" transform="translate(-19.05 54.63) rotate(-15.98)"/><ellipse class="cls-4" cx="186.24" cy="102.77" rx="1.83" ry="2.51" transform="translate(-12.25 26.28) rotate(-7.82)"/><ellipse class="cls-4" cx="187.63" cy="110.3" rx="1.83" ry="2.51" transform="translate(-13.26 26.54) rotate(-7.82)"/><ellipse class="cls-5" cx="205.5" cy="133.34" rx="1.83" ry="2.51" transform="translate(-34.11 184.32) rotate(-44.99)"/><ellipse class="cls-4" cx="125.92" cy="75.02" rx="1.82" ry="2.41" transform="translate(-16.3 110.51) rotate(-44.8)"/><ellipse class="cls-4" cx="131.2" cy="79.68" rx="1.82" ry="2.41" transform="translate(-18.04 115.58) rotate(-44.8)"/><ellipse class="cls-4" cx="136.74" cy="84.81" rx="1.82" ry="2.41" transform="translate(-20.05 120.98) rotate(-44.8)"/><ellipse class="cls-4" cx="141.33" cy="90.62" rx="1.82" ry="2.4" transform="translate(-26.01 104.11) rotate(-37.28)"/><ellipse class="cls-4" cx="145.41" cy="96.42" rx="1.82" ry="2.4" transform="translate(-28.99 91.62) rotate(-31.97)"/><ellipse class="cls-4" cx="148.96" cy="103.15" rx="1.82" ry="2.4" transform="translate(-32.02 94.52) rotate(-31.97)"/><ellipse class="cls-4" cx="151.7" cy="109.76" rx="1.82" ry="2.4" transform="translate(-25.16 48.27) rotate(-16.72)"/><ellipse class="cls-4" cx="153.87" cy="116.94" rx="1.82" ry="2.4" transform="translate(-27.13 49.2) rotate(-16.72)"/><ellipse class="cls-4" cx="155.7" cy="123.84" rx="1.82" ry="2.4" transform="translate(-29.04 50.01) rotate(-16.72)"/><ellipse class="cls-5" cx="156.93" cy="131.08" rx="1.82" ry="2.41" transform="translate(-15.42 21.06) rotate(-7.32)"/><ellipse class="cls-4" cx="161.61" cy="78.2" rx="1.87" ry="2.6" transform="translate(-17.91 80.78) rotate(-26.65)"/><ellipse class="cls-4" cx="165.64" cy="84.61" rx="1.87" ry="2.6" transform="translate(-20.35 83.27) rotate(-26.65)"/><ellipse class="cls-4" cx="169.81" cy="91.61" rx="1.87" ry="2.6" transform="translate(-23.05 85.88) rotate(-26.65)"/><ellipse class="cls-4" cx="172.85" cy="99" rx="1.87" ry="2.6" transform="translate(-23.63 66.22) rotate(-20.33)"/><ellipse class="cls-4" cx="175.4" cy="106.25" rx="1.87" ry="2.6" transform="translate(-22.43 52.25) rotate(-15.94)"/><ellipse class="cls-4" cx="177.16" cy="114.3" rx="1.87" ry="2.6" transform="translate(-24.58 53.04) rotate(-15.94)"/><ellipse class="cls-4" cx="178.17" cy="121.98" rx="1.87" ry="2.59" transform="translate(-6.8 10.58) rotate(-3.34)"/><ellipse class="cls-5" cx="178.46" cy="130.08" rx="1.87" ry="2.59" transform="translate(-7.27 10.61) rotate(-3.34)"/><ellipse class="cls-4" cx="135.88" cy="115.8" rx="1.55" ry="2.13" transform="translate(-38.98 79.77) rotate(-28.79)"/><ellipse class="cls-4" cx="139.37" cy="120.92" rx="1.55" ry="2.13" transform="translate(-41.01 82.08) rotate(-28.79)"/><ellipse class="cls-5" cx="143" cy="126.51" rx="1.55" ry="2.13" transform="translate(-43.26 84.52) rotate(-28.79)"/><ellipse class="cls-5" cx="145.71" cy="132.47" rx="1.55" ry="2.13" transform="translate(-39.27 64.93) rotate(-22.22)"/><ellipse class="cls-4" cx="126.74" cy="106.13" rx="1.83" ry="2.51" transform="translate(-23.8 37.84) rotate(-15.54)"/><ellipse class="cls-4" cx="129.37" cy="112.96" rx="1.83" ry="2.51" transform="translate(-25.53 38.79) rotate(-15.54)"/><ellipse class="cls-4" cx="132.02" cy="120.36" rx="1.83" ry="2.51" transform="translate(-27.42 39.77) rotate(-15.54)"/><ellipse class="cls-5" cx="133.52" cy="127.94" rx="1.83" ry="2.51" transform="translate(-18.3 22.37) rotate(-8.96)"/><ellipse class="cls-4" cx="94.01" cy="44.97" rx="2.51" ry="1.83" transform="translate(-.99 87.81) rotate(-49.84)"/><ellipse class="cls-4" cx="88.77" cy="50.08" rx="2.51" ry="1.83" transform="translate(-6.76 85.62) rotate(-49.84)"/><ellipse class="cls-4" cx="83.27" cy="55.71" rx="2.51" ry="1.83" transform="translate(-13.01 83.42) rotate(-49.84)"/><ellipse class="cls-4" cx="78.76" cy="61.97" rx="2.51" ry="1.83" transform="translate(-16.44 93.3) rotate(-56.41)"/><ellipse class="cls-4" cx="74.74" cy="68.21" rx="2.51" ry="1.83" transform="translate(-21.16 100.48) rotate(-60.98)"/><ellipse class="cls-4" cx="71.3" cy="75.39" rx="2.51" ry="1.83" transform="translate(-29.21 101.16) rotate(-60.98)"/><ellipse class="cls-4" cx="68.65" cy="82.39" rx="2.51" ry="1.83" transform="translate(-29.46 125.71) rotate(-74.02)"/><ellipse class="cls-4" cx="66.59" cy="89.97" rx="2.51" ry="1.83" transform="translate(-38.23 129.22) rotate(-74.02)"/><ellipse class="cls-4" cx="64.87" cy="97.22" rx="2.51" ry="1.83" transform="translate(-46.45 132.83) rotate(-74.02)"/><ellipse class="cls-4" cx="63.76" cy="104.8" rx="2.51" ry="1.83" transform="translate(-48.74 153.71) rotate(-82.18)"/><ellipse class="cls-4" cx="62.37" cy="112.33" rx="2.51" ry="1.83" transform="translate(-57.4 158.84) rotate(-82.18)"/><ellipse class="cls-4" cx="124.08" cy="77.05" rx="2.41" ry="1.82" transform="translate(-18.02 110.81) rotate(-45.2)"/><ellipse class="cls-4" cx="118.8" cy="81.71" rx="2.41" ry="1.82" transform="translate(-22.89 108.44) rotate(-45.2)"/><ellipse class="cls-4" cx="113.26" cy="86.85" rx="2.41" ry="1.82" transform="translate(-28.17 106.02) rotate(-45.2)"/><ellipse class="cls-4" cx="108.67" cy="92.65" rx="2.4" ry="1.82" transform="translate(-30.87 123) rotate(-52.72)"/><ellipse class="cls-4" cx="104.59" cy="98.45" rx="2.4" ry="1.82" transform="translate(-34.31 135.04) rotate(-58.03)"/><ellipse class="cls-4" cx="101.04" cy="105.18" rx="2.4" ry="1.82" transform="translate(-41.69 135.2) rotate(-58.03)"/><ellipse class="cls-4" cx="98.3" cy="111.79" rx="2.4" ry="1.82" transform="translate(-37.04 173.78) rotate(-73.28)"/><ellipse class="cls-4" cx="96.13" cy="118.98" rx="2.4" ry="1.82" transform="translate(-45.47 176.82) rotate(-73.28)"/><ellipse class="cls-4" cx="94.3" cy="125.87" rx="2.4" ry="1.82" transform="translate(-53.38 179.99) rotate(-73.28)"/><ellipse class="cls-5" cx="93.07" cy="133.11" rx="2.41" ry="1.82" transform="translate(-50.81 208.46) rotate(-82.68)"/><ellipse class="cls-4" cx="88.39" cy="80.23" rx="2.6" ry="1.87" transform="translate(-22.96 123.25) rotate(-63.35)"/><ellipse class="cls-4" cx="84.36" cy="86.64" rx="2.6" ry="1.87" transform="translate(-30.91 123.19) rotate(-63.35)"/><ellipse class="cls-4" cx="80.19" cy="93.64" rx="2.6" ry="1.87" transform="translate(-39.47 123.32) rotate(-63.35)"/><ellipse class="cls-4" cx="77.15" cy="101.03" rx="2.6" ry="1.87" transform="translate(-44.39 138.27) rotate(-69.67)"/><ellipse class="cls-4" cx="74.6" cy="108.28" rx="2.6" ry="1.87" transform="translate(-50 150.28) rotate(-74.06)"/><ellipse class="cls-4" cx="72.84" cy="116.33" rx="2.6" ry="1.87" transform="translate(-59.02 154.42) rotate(-74.06)"/><ellipse class="cls-5" cx="71.83" cy="124.01" rx="2.59" ry="1.87" transform="translate(-56.15 188.5) rotate(-86.66)"/><ellipse class="cls-5" cx="71.54" cy="132.12" rx="2.59" ry="1.87" transform="translate(-64.52 195.84) rotate(-86.66)"/><ellipse class="cls-4" cx="114.12" cy="117.83" rx="2.13" ry="1.55" transform="translate(-44.11 161.09) rotate(-61.21)"/><ellipse class="cls-4" cx="110.63" cy="122.95" rx="2.13" ry="1.55" transform="translate(-50.41 160.68) rotate(-61.21)"/><ellipse class="cls-5" cx="107" cy="128.55" rx="2.13" ry="1.55" transform="translate(-57.19 160.4) rotate(-61.21)"/><ellipse class="cls-4" cx="123.26" cy="108.16" rx="2.51" ry="1.83" transform="translate(-13.97 197.94) rotate(-74.46)"/><ellipse class="cls-4" cx="120.63" cy="114.99" rx="2.51" ry="1.83" transform="translate(-22.48 200.4) rotate(-74.46)"/><ellipse class="cls-4" cx="117.98" cy="122.39" rx="2.51" ry="1.83" transform="translate(-31.55 203.27) rotate(-74.46)"/><ellipse class="cls-5" cx="116.48" cy="129.97" rx="2.51" ry="1.83" transform="translate(-30.05 224.78) rotate(-81.04)"/><g class="cls-21"><path class="cls-7" d="m213.99,160.89"/><path class="cls-9" d="m168.24,41.49s19.93,15.93,26.28,54.26c6.35,38.33,14.2,44.3,29.04,44.25,0,0,14.93-2.81,12.21-11.96,0,0-2.3-5.91-5.52-.74-3.22,5.17-6.97,3.48-6.97,3.48,0,0-5.72-2.5-1.29-11.25,4.43-8.75,14.91-4.44,14.91-4.44,0,0,14.64,7,5.62,24.69-9.02,17.69-32.57,9.14-32.57,9.14,0,0-18.05-8.65-19.93-27.3,0,0-4.4-16.22-4.15-18.68s-5.73-25.78-7.73-28.13c0,0-6.62-17.87-20.19-28.9-13.57-11.03,1.37-10.29,1.37-10.29l8.92,5.88Z"/><ellipse class="cls-5" cx="234.73" cy="134.19" rx="2.51" ry="1.83" transform="translate(-6.86 255.58) rotate(-56.44)"/><ellipse class="cls-5" cx="229.33" cy="138.17" rx="2.51" ry="1.83" transform="translate(-37.74 119.32) rotate(-27.03)"/><ellipse class="cls-5" cx="222.79" cy="140.05" rx="2.51" ry="1.83" transform="translate(-28.63 62.36) rotate(-14.98)"/><ellipse class="cls-5" cx="216.22" cy="139.9" rx="2.51" ry="1.83" transform="translate(-6.37 10.37) rotate(-2.71)"/><ellipse class="cls-5" cx="210.37" cy="137.66" rx="1.83" ry="2.51" transform="translate(4.54 282.03) rotate(-68.25)"/><path class="cls-11" d="m138.03,73.01s20.04,14.32,26.99,50.89c6.95,36.57,14.84,41.92,29.55,41.13,0,0,14.77-3.46,11.91-12.12,0,0-2.38-5.57-5.49-.43-3.11,5.13-6.86,3.7-6.86,3.7,0,0-5.72-2.12-1.47-10.77,4.25-8.64,14.72-5.02,14.72-5.02,0,0,14.64,6,5.99,23.48s-32.15,10.43-32.15,10.43c0,0-18.05-7.41-20.23-25.27,0,0-4.64-15.39-4.44-17.76s-6.12-24.52-8.14-26.68c0,0-6.87-16.87-20.52-26.8-13.65-9.94,1.19-9.98,1.19-9.98l8.95,5.21Z"/><ellipse class="cls-5" cx="158.44" cy="138.26" rx="1.82" ry="2.41" transform="translate(-16.32 21.31) rotate(-7.32)"/><ellipse class="cls-5" cx="205.56" cy="158.88" rx="2.48" ry="1.77" transform="translate(-42.83 235.04) rotate(-54.75)"/><ellipse class="cls-5" cx="200.27" cy="162.98" rx="2.51" ry="1.74" transform="translate(-53.51 115.36) rotate(-28.51)"/><ellipse class="cls-5" cx="193.82" cy="165.12" rx="2.51" ry="1.75" transform="translate(-41.56 68.03) rotate(-18.01)"/><ellipse class="cls-5" cx="187.29" cy="165.3" rx="2.5" ry="1.75" transform="translate(-19.21 24.73) rotate(-7.19)"/><ellipse class="cls-4" cx="181.46" cy="163.45" rx="1.78" ry="2.46" transform="translate(-24.71 294.35) rotate(-74.42)"/><ellipse class="cls-5" cx="176.55" cy="159.53" rx="1.81" ry="2.42" transform="translate(-59.03 193.03) rotate(-50.19)"/><path class="cls-10" d="m174.16,79.75s16.17,20.87,13.55,60.91c-2.62,40.03,3.82,47.95,18.64,51.54,0,0,15.56.84,14.98-9.01,0,0-.92-6.49-5.34-2.1s-7.77,1.78-7.77,1.78c0,0-5.13-3.92,1.34-11.61s15.92-.8,15.92-.8c0,0,12.97,10.62-.16,26.16-13.13,15.54-34.63,1.18-34.63,1.18,0,0-16-13.11-13.51-32.29,0,0-.6-17.36.22-19.76s.31-27.28-1.14-30.13c0,0-2.43-19.56-13.39-33.97-10.96-14.4,3.77-10,3.77-10l7.53,8.09Z"/><ellipse class="cls-5" cx="178.47" cy="137.79" rx="1.87" ry="2.59" transform="translate(-7.72 10.63) rotate(-3.34)"/><ellipse class="cls-5" cx="177.81" cy="145.67" rx="2.59" ry="1.87" transform="translate(18.3 311.17) rotate(-85.38)"/><ellipse class="cls-5" cx="177.44" cy="153.57" rx="2.59" ry="1.87" transform="translate(10.08 318.07) rotate(-85.38)"/><ellipse class="cls-5" cx="218.86" cy="189.1" rx="2.57" ry="1.89" transform="translate(-70.02 203.53) rotate(-43.69)"/><ellipse class="cls-5" cx="212.55" cy="191.78" rx="2.57" ry="1.89" transform="translate(-37.91 53.12) rotate(-13.09)"/><ellipse class="cls-5" cx="205.58" cy="192.06" rx="2.57" ry="1.89" transform="translate(-2.1 2.27) rotate(-.63)"/><ellipse class="cls-5" cx="199.05" cy="190.29" rx="1.88" ry="2.58" transform="translate(-28.17 345.87) rotate(-78.11)"/><ellipse class="cls-5" cx="193.75" cy="186.62" rx="1.87" ry="2.59" transform="translate(-71.28 232.71) rotate(-53.79)"/><ellipse class="cls-5" cx="189.89" cy="181.08" rx="1.87" ry="2.6" transform="translate(-66.42 124.93) rotate(-31.28)"/><path class="cls-12" d="m146.29,116.64s13.9,16.56,12.77,49.48c-1.13,32.91,4.4,39.19,16.74,41.63,0,0,12.88.16,12.15-7.9,0,0-.92-5.29-4.47-1.54-3.54,3.75-6.38,1.73-6.38,1.73,0,0-4.34-3.04.8-9.57,5.14-6.53,13.14-1.2,13.14-1.2,0,0,11,8.26.54,21.46-10.45,13.19-28.59,2.15-28.59,2.15,0,0-13.56-10.2-12-26.02,0,0-.94-14.21-.33-16.21.61-2-.45-22.38-1.72-24.67,0,0-2.52-15.96-11.95-27.39-9.43-11.44,2.86-8.33,2.86-8.33l6.43,6.38Z"/><ellipse class="cls-5" cx="148" cy="138.33" rx="1.55" ry="2.13" transform="translate(-34.97 51.39) rotate(-17.65)"/><ellipse class="cls-5" cx="149.67" cy="144.87" rx="1.55" ry="2.13" transform="translate(-36.88 52.2) rotate(-17.65)"/><ellipse class="cls-5" cx="150.7" cy="151.13" rx="1.55" ry="2.13" transform="translate(-11.66 12.6) rotate(-4.61)"/><ellipse class="cls-5" cx="151.14" cy="157.77" rx="1.55" ry="2.13" transform="translate(-12.19 12.65) rotate(-4.61)"/><ellipse class="cls-5" cx="151.35" cy="164.09" rx="1.55" ry="2.13" transform="translate(-12.69 12.69) rotate(-4.61)"/><ellipse class="cls-5" cx="151.01" cy="170.57" rx="2.13" ry="1.55" transform="translate(-28.58 310.72) rotate(-86.45)"/><ellipse class="cls-5" cx="150.91" cy="177.06" rx="2.13" ry="1.55" transform="translate(-35.16 316.71) rotate(-86.45)"/><ellipse class="cls-5" cx="186.06" cy="204.78" rx="2.13" ry="1.55" transform="translate(-90.32 191.86) rotate(-45.07)"/><ellipse class="cls-5" cx="180.91" cy="207.19" rx="2.13" ry="1.55" transform="translate(-49.22 56.54) rotate(-15.66)"/><ellipse class="cls-5" cx="175.16" cy="207.66" rx="2.13" ry="1.55" transform="translate(-12.74 11.45) rotate(-3.61)"/><ellipse class="cls-5" cx="169.72" cy="206.43" rx="1.55" ry="2.13" transform="translate(-59.92 343.13) rotate(-81.34)"/><ellipse class="cls-4" cx="165.24" cy="203.6" rx="1.55" ry="2.13" transform="translate(-95.57 230.73) rotate(-56.88)"/><ellipse class="cls-5" cx="161.91" cy="199.19" rx="1.55" ry="2.13" transform="translate(-83.21 122.97) rotate(-33.62)"/><path class="cls-8" d="m138.47,109.92s11.48,22.78,1.28,60.27c-10.2,37.49-5.55,46.19,7.96,52.33,0,0,14.75,3.66,16.08-5.78,0,0,.37-6.33-4.71-2.97s-7.79.26-7.79.26c0,0-4.16-4.66,3.51-10.77,7.67-6.11,15.41,2.18,15.41,2.18,0,0,10.39,12.46-5.18,24.79-15.57,12.32-33.41-5.26-33.41-5.26,0,0-12.81-15.38-6.74-33.12,0,0,2.76-16.58,4-18.71,1.24-2.13,5.53-25.82,4.7-28.79,0,0,1.43-19-6.31-34.69-7.74-15.68,5.54-8.79,5.54-8.79l5.66,9.06Z"/><ellipse class="cls-5" cx="134.57" cy="135.28" rx="1.83" ry="2.51" transform="translate(-9.97 10.71) rotate(-4.4)"/><ellipse class="cls-5" cx="134.71" cy="143.24" rx="1.83" ry="2.51" transform="translate(-10.58 10.75) rotate(-4.4)"/><ellipse class="cls-5" cx="134.2" cy="150.71" rx="2.51" ry="1.83" transform="translate(-34.97 260.73) rotate(-81.35)"/><ellipse class="cls-5" cx="132.92" cy="158.46" rx="2.51" ry="1.83" transform="translate(-43.72 266.05) rotate(-81.35)"/><ellipse class="cls-5" cx="131.45" cy="165.77" rx="2.51" ry="1.83" transform="translate(-52.19 270.81) rotate(-81.35)"/><ellipse class="cls-5" cx="129.31" cy="173.12" rx="2.51" ry="1.83" transform="translate(-73.8 246.85) rotate(-73.19)"/><ellipse class="cls-5" cx="127.44" cy="180.55" rx="2.51" ry="1.83" transform="translate(-82.25 250.34) rotate(-73.19)"/><ellipse class="cls-5" cx="160.3" cy="221.88" rx="2.51" ry="1.83" transform="translate(-92.88 117.83) rotate(-31.81)"/><ellipse class="cls-5" cx="153.73" cy="223.26" rx="2.51" ry="1.83" transform="translate(-9.25 6.66) rotate(-2.41)"/><ellipse class="cls-5" cx="147" cy="222.24" rx="1.83" ry="2.51" transform="translate(-96.71 329.95) rotate(-80.36)"/><ellipse class="cls-5" cx="141.09" cy="219.36" rx="1.83" ry="2.51" transform="translate(-115.08 268.38) rotate(-68.08)"/><ellipse class="cls-5" cx="136.71" cy="214.9" rx="1.83" ry="2.51" transform="translate(-110.51 153.65) rotate(-43.62)"/><ellipse class="cls-5" cx="134.08" cy="208.94" rx="1.83" ry="2.51" transform="translate(-64.34 59.73) rotate(-20.37)"/><path class="cls-14" d="m218.5,156.08"/><path class="cls-13" d="m36.01,162.93"/><path class="cls-6" d="m81.76,43.53s-19.93,15.93-26.28,54.26c-6.35,38.33-14.2,44.3-29.04,44.25,0,0-14.93-2.81-12.21-11.96,0,0,2.3-5.91,5.52-.74s6.97,3.48,6.97,3.48c0,0,5.72-2.5,1.29-11.25-4.43-8.75-14.91-4.44-14.91-4.44,0,0-14.64,7-5.62,24.69,9.02,17.69,32.57,9.14,32.57,9.14,0,0,18.05-8.65,19.93-27.3,0,0,4.4-16.22,4.15-18.68-.24-2.46,5.73-25.78,7.73-28.13,0,0,6.62-17.87,20.19-28.9,13.57-11.03-1.37-10.29-1.37-10.29l-8.92,5.88Z"/><ellipse class="cls-5" cx="15.27" cy="136.22" rx="1.83" ry="2.51" transform="translate(-72.77 31.16) rotate(-33.56)"/><ellipse class="cls-5" cx="20.67" cy="140.2" rx="1.83" ry="2.51" transform="translate(-113.61 94.89) rotate(-62.97)"/><ellipse class="cls-5" cx="27.21" cy="142.08" rx="1.83" ry="2.51" transform="translate(-117.08 131.63) rotate(-75.02)"/><ellipse class="cls-5" cx="33.78" cy="141.93" rx="1.83" ry="2.51" transform="translate(-109.58 168.97) rotate(-87.29)"/><ellipse class="cls-5" cx="39.63" cy="139.7" rx="2.51" ry="1.83" transform="translate(-48.95 24.64) rotate(-21.75)"/><ellipse class="cls-5" cx="44.5" cy="135.37" rx="2.51" ry="1.83" transform="translate(-82.7 71.14) rotate(-45.01)"/><path class="cls-18" d="m111.97,75.05s-20.04,14.32-26.99,50.89c-6.95,36.57-14.84,41.92-29.55,41.13,0,0-14.77-3.46-11.91-12.12,0,0,2.38-5.57,5.49-.43,3.11,5.13,6.86,3.7,6.86,3.7,0,0,5.72-2.12,1.47-10.77-4.25-8.64-14.72-5.02-14.72-5.02,0,0-14.64,6-5.99,23.48,8.65,17.48,32.15,10.43,32.15,10.43,0,0,18.05-7.41,20.23-25.27,0,0,4.64-15.39,4.44-17.76s6.12-24.52,8.14-26.68c0,0,6.87-16.87,20.52-26.8,13.65-9.94-1.19-9.98-1.19-9.98l-8.95,5.21Z"/><ellipse class="cls-5" cx="91.56" cy="140.29" rx="2.41" ry="1.82" transform="translate(-59.25 213.23) rotate(-82.68)"/><ellipse class="cls-5" cx="44.44" cy="160.91" rx="1.77" ry="2.48" transform="translate(-84.72 55.16) rotate(-35.25)"/><ellipse class="cls-5" cx="49.73" cy="165.01" rx="1.74" ry="2.51" transform="translate(-119.01 129.94) rotate(-61.49)"/><ellipse class="cls-5" cx="56.18" cy="167.15" rx="1.75" ry="2.51" transform="translate(-120.15 168.89) rotate(-71.99)"/><ellipse class="cls-5" cx="62.71" cy="167.34" rx="1.75" ry="2.5" transform="translate(-111.16 208.62) rotate(-82.81)"/><ellipse class="cls-4" cx="68.54" cy="165.48" rx="2.46" ry="1.78" transform="translate(-41.92 24.48) rotate(-15.58)"/><ellipse class="cls-5" cx="73.45" cy="161.57" rx="2.42" ry="1.81" transform="translate(-86.41 84.47) rotate(-39.81)"/><path class="cls-19" d="m75.84,81.78s-16.17,20.87-13.55,60.91c2.62,40.03-3.82,47.95-18.64,51.54,0,0-15.56.84-14.98-9.01,0,0,.92-6.49,5.34-2.1,4.42,4.39,7.77,1.78,7.77,1.78,0,0,5.13-3.92-1.34-11.61-6.47-7.7-15.92-.8-15.92-.8,0,0-12.97,10.62.16,26.16,13.13,15.54,34.63,1.18,34.63,1.18,0,0,16-13.11,13.51-32.29,0,0,.6-17.36-.22-19.76-.82-2.41-.31-27.28,1.14-30.13,0,0,2.43-19.56,13.39-33.97,10.96-14.4-3.77-10-3.77-10l-7.53,8.09Z"/><ellipse class="cls-5" cx="71.53" cy="139.82" rx="2.59" ry="1.87" transform="translate(-72.22 203.09) rotate(-86.66)"/><ellipse class="cls-5" cx="72.19" cy="147.7" rx="1.87" ry="2.59" transform="translate(-11.66 6.29) rotate(-4.62)"/><ellipse class="cls-5" cx="72.56" cy="155.6" rx="1.87" ry="2.59" transform="translate(-12.3 6.35) rotate(-4.62)"/><ellipse class="cls-5" cx="31.14" cy="191.13" rx="1.89" ry="2.57" transform="translate(-128.58 81.63) rotate(-46.31)"/><ellipse class="cls-5" cx="37.45" cy="193.81" rx="1.89" ry="2.57" transform="translate(-159.8 186.4) rotate(-76.91)"/><ellipse class="cls-5" cx="44.42" cy="194.09" rx="1.89" ry="2.57" transform="translate(-150.15 236.37) rotate(-89.37)"/><ellipse class="cls-5" cx="50.95" cy="192.32" rx="2.58" ry="1.88" transform="translate(-38.53 14.62) rotate(-11.89)"/><ellipse class="cls-5" cx="56.25" cy="188.65" rx="2.59" ry="1.87" transform="translate(-100.57 69.66) rotate(-36.21)"/><ellipse class="cls-5" cx="60.11" cy="183.11" rx="2.6" ry="1.87" transform="translate(-127.59 139.4) rotate(-58.72)"/><path class="cls-16" d="m103.71,118.67s-13.9,16.56-12.77,49.48c1.13,32.91-4.4,39.19-16.74,41.63,0,0-12.88.16-12.15-7.9,0,0,.92-5.29,4.47-1.54,3.54,3.75,6.38,1.73,6.38,1.73,0,0,4.34-3.04-.8-9.57-5.14-6.53-13.14-1.2-13.14-1.2,0,0-11,8.26-.54,21.46,10.45,13.19,28.59,2.15,28.59,2.15,0,0,13.56-10.2,12-26.02,0,0,.94-14.21.33-16.21-.61-2,.45-22.38,1.72-24.67,0,0,2.52-15.96,11.95-27.39,9.43-11.44-2.86-8.33-2.86-8.33l-6.43,6.38Z"/><ellipse class="cls-5" cx="104.29" cy="134.51" rx="2.13" ry="1.55" transform="translate(-59.66 180.19) rotate(-67.78)"/><ellipse class="cls-5" cx="102" cy="140.36" rx="2.13" ry="1.55" transform="translate(-62.68 195) rotate(-72.35)"/><ellipse class="cls-5" cx="100.33" cy="146.9" rx="2.13" ry="1.55" transform="translate(-70.07 197.97) rotate(-72.35)"/><ellipse class="cls-5" cx="99.3" cy="153.16" rx="2.13" ry="1.55" transform="translate(-61.34 239.84) rotate(-85.39)"/><ellipse class="cls-5" cx="98.86" cy="159.8" rx="2.13" ry="1.55" transform="translate(-68.37 245.5) rotate(-85.39)"/><ellipse class="cls-5" cx="98.65" cy="166.12" rx="2.13" ry="1.55" transform="translate(-74.86 251.1) rotate(-85.39)"/><ellipse class="cls-5" cx="98.99" cy="172.6" rx="1.55" ry="2.13" transform="translate(-10.51 6.47) rotate(-3.55)"/><ellipse class="cls-5" cx="99.09" cy="179.09" rx="1.55" ry="2.13" transform="translate(-10.91 6.48) rotate(-3.55)"/><ellipse class="cls-5" cx="63.94" cy="206.81" rx="1.55" ry="2.13" transform="translate(-127.39 105.57) rotate(-44.93)"/><ellipse class="cls-5" cx="69.09" cy="209.22" rx="1.55" ry="2.13" transform="translate(-151.01 219.26) rotate(-74.34)"/><ellipse class="cls-5" cx="74.84" cy="209.69" rx="1.55" ry="2.13" transform="translate(-139.15 271.16) rotate(-86.39)"/><ellipse class="cls-5" cx="80.28" cy="208.46" rx="2.13" ry="1.55" transform="translate(-30.48 14.47) rotate(-8.66)"/><ellipse class="cls-4" cx="84.76" cy="205.63" rx="2.13" ry="1.55" transform="translate(-98.59 79.73) rotate(-33.12)"/><ellipse class="cls-5" cx="88.09" cy="201.23" rx="2.13" ry="1.55" transform="translate(-128.25 163.16) rotate(-56.38)"/><path class="cls-15" d="m111.53,111.95s-11.48,22.78-1.28,60.27c10.2,37.49,5.55,46.19-7.96,52.33,0,0-14.75,3.66-16.08-5.78,0,0-.37-6.33,4.71-2.97,5.08,3.35,7.79.26,7.79.26,0,0,4.16-4.66-3.51-10.77-7.67-6.11-15.41,2.18-15.41,2.18,0,0-10.39,12.46,5.18,24.79,15.57,12.32,33.41-5.26,33.41-5.26,0,0,12.81-15.38,6.74-33.12,0,0-2.76-16.58-4-18.71-1.24-2.13-5.53-25.82-4.7-28.79,0,0-1.43-19,6.31-34.69,7.74-15.68-5.54-8.79-5.54-8.79l-5.66,9.06Z"/><ellipse class="cls-5" cx="115.43" cy="137.31" rx="2.51" ry="1.83" transform="translate(-30.33 241.88) rotate(-85.6)"/><ellipse class="cls-5" cx="115.29" cy="145.27" rx="2.51" ry="1.83" transform="translate(-38.4 249.09) rotate(-85.6)"/><ellipse class="cls-5" cx="115.8" cy="152.75" rx="1.83" ry="2.51" transform="translate(-21.65 19.14) rotate(-8.65)"/><ellipse class="cls-5" cx="117.08" cy="160.49" rx="1.83" ry="2.51" transform="translate(-22.79 19.42) rotate(-8.65)"/><ellipse class="cls-5" cx="118.55" cy="167.8" rx="1.83" ry="2.51" transform="translate(-23.88 19.73) rotate(-8.65)"/><ellipse class="cls-5" cx="120.69" cy="175.15" rx="1.83" ry="2.51" transform="translate(-45.49 42.38) rotate(-16.81)"/><ellipse class="cls-5" cx="122.56" cy="182.58" rx="1.83" ry="2.51" transform="translate(-47.56 43.24) rotate(-16.81)"/><ellipse class="cls-5" cx="89.7" cy="223.91" rx="1.83" ry="2.51" transform="translate(-147.86 182.11) rotate(-58.19)"/><ellipse class="cls-5" cx="96.27" cy="225.29" rx="1.83" ry="2.51" transform="translate(-132.87 312) rotate(-87.59)"/><ellipse class="cls-5" cx="103" cy="224.27" rx="2.51" ry="1.83" transform="translate(-36.1 20.41) rotate(-9.64)"/><ellipse class="cls-5" cx="108.91" cy="221.39" rx="2.51" ry="1.83" transform="translate(-74.77 56.65) rotate(-21.92)"/><ellipse class="cls-5" cx="113.29" cy="216.93" rx="2.51" ry="1.83" transform="translate(-121.9 149.28) rotate(-46.38)"/><ellipse class="cls-5" cx="115.92" cy="210.97" rx="2.51" ry="1.83" transform="translate(-122.2 246.22) rotate(-69.63)"/><path class="cls-17" d="m31.5,158.11"/></g><path class="cls-4" d="m79.85,120.37c-3.99,5.12-11.78,4.76-17.77,2.98-12.42-3.7-17.04-18.88-14.44-34.56.05-.33.17-.64.24-.97l.27-1.29c.19-5.4,5.89-17.26,5.89-17.26,15.48-30.73,34.75-55.56,70.87-55.82,0,0,2.63-.07,4.72-.07,33.18-.04,53.95,25.41,69.22,56.24,0,0,3.46,9.86,5.77,17.3l.9,3.09c3.32,16.25-4.09,29.87-16.64,33.61,0,0-9.74,4.26-16.48-3.16,0,0-.69-.83-1.32.22-3.13,5.26-8.65,7.34-14.55,8.06,0,0-8.06,2.26-15.67-4.88,0,0-.6-.5-1.08.02-3.79,4.06-9.03,6.13-14.48,6.13,0,0-8.47.8-14.36-6.12,0,0-.54-.38-1.02-.04-4.63,3.36-9.91,5.29-15.46,4.62,0,0-10.63-.75-13.44-8.16,0,0-.38-.91-1.14.07Z"/><path class="cls-2" d="m119.19,95.17c1.01-1.71,3.35-3.58,7.46-3.56,4.11.02,6.41,1.93,7.41,3.65"/><ellipse class="cls-1" cx="103.19" cy="60.43" rx=".59" ry="5.34" transform="translate(28.1 153.49) rotate(-81.45)"/><ellipse class="cls-20" cx="92.08" cy="90.82" rx="3.27" ry="7.99" transform="translate(-20.74 154.05) rotate(-73.88)"/><ellipse class="cls-1" cx="102.55" cy="77.12" rx="9.75" ry="11.05"/><circle class="cls-3" cx="105.8" cy="71.27" r="2.6"/><circle class="cls-3" cx="109.65" cy="76.27" r=".38"/><ellipse class="cls-1" cx="151.71" cy="75.74" rx="9.75" ry="11.05"/><circle class="cls-3" cx="154.96" cy="69.89" r="2.6"/><circle class="cls-3" cx="158.81" cy="74.74" r=".38"/><ellipse class="cls-1" cx="151.02" cy="58.96" rx="5.34" ry=".59" transform="translate(-7.09 23.1) rotate(-8.55)"/><ellipse class="cls-20" cx="162.14" cy="89.35" rx="7.99" ry="3.27" transform="translate(-18.44 48.55) rotate(-16.12)"/></svg>