<?xml version="1.0" encoding="UTF-8"?><svg id="Titel" xmlns="http://www.w3.org/2000/svg" width="1400" height="240" xmlns:xlink="http://www.w3.org/1999/xlink" viewBox="0 0 1400 240"><defs><style>.cls-1{fill:#fff;stroke:#fff;}.cls-1,.cls-2{stroke-width:.5px;}.cls-1,.cls-2,.cls-3{stroke-miterlimit:10;}.cls-2{fill:#c7e2ec;}.cls-2,.cls-3{stroke:#000;}.cls-3{fill:#001cff;}.cls-4{stroke-width:0px;}.cls-5{filter:url(#drop-shadow-21);}</style><filter id="drop-shadow-21" filterUnits="userSpaceOnUse"><feOffset dx="-1" dy="2"/><feGaussianBlur result="blur" stdDeviation="1"/><feFlood flood-color="#000" flood-opacity=".5"/><feComposite in2="blur" operator="in"/><feComposite in="SourceGraphic"/></filter></defs><path class="cls-4" d="m85.84,189.54c-2.02,0-4.53-.15-7.52-.44-3-.29-6.01-.8-9.03-1.51-3.03-.72-5.81-1.72-8.35-3.03-2.54-1.3-4.3-2.96-5.27-4.98-.91-1.82-1.53-3.89-1.86-6.2-.33-2.31-.49-4.48-.49-6.49,0-5.21.46-10.48,1.37-15.82.91-5.34,1.9-10.74,2.98-16.21s2.05-10.99,2.93-16.55,1.32-11.18,1.32-16.85c0-6.64-.73-12.79-2.2-18.46s-3.86-11.36-7.18-17.09c-.46-.72-.85-1.5-1.17-2.34-.33-.85-.49-1.72-.49-2.64,0-1.56.44-2.9,1.32-4,.88-1.11,2.03-2.07,3.47-2.88,1.43-.81,3.06-1.48,4.88-2,1.82-.52,3.63-.93,5.42-1.22,1.79-.29,3.5-.49,5.13-.59,1.63-.1,2.99-.15,4.1-.15,2.73,0,5.4.29,8.01.88,2.6.59,5.27.88,8.01.88,3.06,0,6.04-.33,8.94-.98,2.9-.65,5.88-.98,8.94-.98,3.71,0,7.55.31,11.52.93,3.97.62,7.83,1.56,11.57,2.83,3.74,1.27,7.31,2.9,10.69,4.88,3.38,1.99,6.33,4.36,8.84,7.13,2.51,2.77,4.51,5.92,6.01,9.47,1.5,3.55,2.25,7.54,2.25,11.96,0,6.12-1.25,11.64-3.76,16.55-2.51,4.92-5.84,9.08-10.01,12.5-4.17,3.42-8.94,6.05-14.31,7.91s-10.92,2.78-16.65,2.78c-3.84,0-6.92,1.03-9.23,3.08-2.31,2.05-3.47,5.09-3.47,9.13,0,3.32.7,6.75,2.1,10.3,1.4,3.55,2.93,6.98,4.59,10.3s3.19,6.38,4.59,9.18c1.4,2.8,2.1,5.08,2.1,6.84,0,1.95-.55,3.66-1.66,5.13-1.11,1.46-2.52,2.7-4.25,3.71-1.73,1.01-3.7,1.84-5.91,2.49-2.21.65-4.44,1.17-6.69,1.56s-4.38.65-6.4.78c-2.02.13-3.74.2-5.18.2Zm19.24-89.36c1.5,0,3.32-.2,5.47-.59s4.2-1.01,6.15-1.86c1.95-.85,3.63-1.95,5.03-3.32,1.4-1.37,2.1-3.03,2.1-4.98,0-1.69-.62-3.06-1.86-4.1-1.24-1.04-2.7-1.82-4.39-2.34-1.69-.52-3.45-.86-5.27-1.03-1.82-.16-3.32-.24-4.49-.24-3.19,0-5.89.9-8.11,2.69-2.21,1.79-3.32,4.38-3.32,7.76,0,2.67.83,4.67,2.49,6.01,1.66,1.33,3.73,2,6.2,2Z"/><path class="cls-4" d="m209.38,189.93l-24.71-.1c-3.78,0-7.08-.34-9.91-1.03s-5.19-1.82-7.08-3.42c-1.89-1.59-3.32-3.73-4.3-6.4-.98-2.67-1.46-5.99-1.46-9.96,0-5.4.5-10.9,1.51-16.5,1.01-5.6,2.13-11.28,3.37-17.04,1.24-5.76,2.36-11.6,3.37-17.53,1.01-5.92,1.51-11.91,1.51-17.97s-.67-12.14-2-17.68c-1.33-5.53-3.56-11-6.69-16.41-.52-.85-.96-1.71-1.32-2.59-.36-.88-.54-1.81-.54-2.78,0-1.89.85-3.47,2.54-4.74,1.69-1.27,3.84-2.31,6.45-3.12,2.6-.81,5.5-1.42,8.69-1.81,3.19-.39,6.28-.67,9.28-.83,2.99-.16,5.73-.24,8.2-.24h21.88c2.21,0,4.77.03,7.67.1,2.9.07,5.88.28,8.94.63,3.06.36,6.07.91,9.03,1.66,2.96.75,5.6,1.82,7.91,3.22,2.31,1.4,4.18,3.19,5.62,5.37,1.43,2.18,2.15,4.83,2.15,7.96,0,1.56-.11,3.61-.34,6.15-.23,2.54-.7,5.03-1.42,7.47-.72,2.44-1.74,4.54-3.08,6.3-1.33,1.76-3.11,2.64-5.32,2.64-1.11,0-2.67-.49-4.69-1.46-2.02-.98-4.35-2.07-6.98-3.27-2.64-1.2-5.47-2.29-8.5-3.27s-6.1-1.46-9.23-1.46c-4.43,0-7.55,1.24-9.38,3.71-1.82,2.47-2.73,5.76-2.73,9.86,0,3.06.65,5.62,1.95,7.67,1.3,2.05,3.65,3.08,7.03,3.08,2.15,0,4.31-.37,6.49-1.12,2.18-.75,4.21-1.56,6.1-2.44,1.89-.88,3.6-1.69,5.13-2.44,1.53-.75,2.72-1.12,3.56-1.12,1.69,0,3.08.68,4.15,2.05s1.9,3,2.49,4.88c.59,1.89.99,3.83,1.22,5.81.23,1.99.34,3.6.34,4.83s-.11,2.85-.34,4.83c-.23,1.99-.63,3.91-1.22,5.76s-1.42,3.47-2.49,4.83-2.46,2.05-4.15,2.05c-.91,0-2.12-.37-3.61-1.12-1.5-.75-3.16-1.56-4.98-2.44-1.82-.88-3.74-1.68-5.76-2.39-2.02-.72-4.04-1.07-6.05-1.07-1.76,0-3.16.36-4.2,1.07-1.04.72-1.82,1.66-2.34,2.83-.52,1.17-.85,2.47-.98,3.91-.13,1.43-.2,2.83-.2,4.2,0,5.27,1.46,9.21,4.39,11.82,2.93,2.6,6.97,3.91,12.11,3.91,3.19,0,6.31-.46,9.38-1.37,3.06-.91,5.91-1.94,8.54-3.08,2.64-1.14,4.96-2.16,6.98-3.08,2.02-.91,3.55-1.37,4.59-1.37,2.28,0,4.1.88,5.47,2.64s2.41,3.86,3.12,6.3c.72,2.44,1.19,4.96,1.42,7.57.23,2.6.34,4.72.34,6.35,0,3.65-1.04,6.71-3.12,9.18-2.08,2.47-4.79,4.49-8.11,6.05s-7.08,2.75-11.28,3.56c-4.2.81-8.4,1.4-12.6,1.76-4.2.36-8.22.55-12.06.59-3.84.03-7.1.05-9.77.05Z"/><path class="cls-4" d="m369.92,189.83c-4.82,0-8.84-.63-12.06-1.9s-5.83-2.98-7.81-5.13c-1.99-2.15-3.52-4.65-4.59-7.52-1.07-2.86-1.92-5.89-2.54-9.08-.62-3.19-1.11-6.48-1.46-9.86-.36-3.38-.83-6.64-1.42-9.77s-1.42-6.07-2.49-8.84c-1.07-2.77-2.62-5.13-4.64-7.08-.72-.72-1.55-1.4-2.49-2.05-.94-.65-1.97-.98-3.08-.98-.78,0-1.4.18-1.86.54-.46.36-.8.83-1.03,1.42-.23.59-.39,1.21-.49,1.86-.1.65-.15,1.27-.15,1.86,0,2.34.36,5.16,1.07,8.45.72,3.29,1.61,6.67,2.69,10.16,1.07,3.48,2.23,6.84,3.47,10.06,1.24,3.22,2.34,5.94,3.32,8.15.39.85.72,1.73.98,2.64.26.91.39,1.82.39,2.73,0,2.02-.55,3.76-1.66,5.22-1.11,1.46-2.54,2.72-4.3,3.76-1.76,1.04-3.74,1.89-5.96,2.54-2.21.65-4.44,1.17-6.69,1.56s-4.41.65-6.49.78c-2.08.13-3.84.2-5.27.2-2.02,0-4.53-.13-7.52-.39-3-.26-6.01-.76-9.03-1.51-3.03-.75-5.78-1.77-8.25-3.08-2.47-1.3-4.2-2.96-5.18-4.98-.78-1.63-1.32-3.5-1.61-5.62-.29-2.12-.44-4.05-.44-5.81,0-5.4.54-10.9,1.61-16.5,1.07-5.6,2.25-11.26,3.52-16.99,1.27-5.73,2.44-11.56,3.52-17.48,1.07-5.92,1.61-11.91,1.61-17.97s-.65-11.88-1.95-17.29c-1.3-5.4-3.52-10.74-6.64-16.02-.46-.72-.85-1.48-1.17-2.29-.33-.81-.49-1.68-.49-2.59,0-1.56.46-2.91,1.37-4.05.91-1.14,2.08-2.12,3.52-2.93,1.43-.81,3.06-1.48,4.88-2,1.82-.52,3.65-.93,5.47-1.22,1.82-.29,3.55-.5,5.18-.63,1.63-.13,2.99-.2,4.1-.2,2.86,0,5.7.21,8.5.63,2.8.42,5.57,1.09,8.3,2,3.52-.78,7.08-1.42,10.69-1.9s7.24-.73,10.89-.73c5.21,0,10.5.67,15.87,2,5.37,1.33,10.24,3.42,14.6,6.25,4.36,2.83,7.93,6.45,10.69,10.84,2.77,4.39,4.15,9.62,4.15,15.67,0,3.39-.5,6.61-1.51,9.67-1.01,3.06-2.39,5.92-4.15,8.59-1.76,2.67-3.81,5.16-6.15,7.47-2.34,2.31-4.85,4.38-7.52,6.2,1.69,1.43,3.17,3,4.44,4.69,1.27,1.69,2.42,3.48,3.47,5.37,1.63,3.12,3.12,6.3,4.49,9.52s2.78,6.41,4.25,9.57c1.46,3.16,3.04,6.27,4.74,9.33,1.69,3.06,3.68,5.96,5.96,8.69,1.11,1.3,2.02,2.73,2.73,4.3.72,1.56,1.07,3.22,1.07,4.98,0,2.93-.77,5.45-2.29,7.57-1.53,2.12-3.45,3.86-5.76,5.22-2.31,1.37-4.83,2.36-7.57,2.98-2.73.62-5.34.93-7.81.93Zm-42.48-88.28c1.69,0,3.63-.23,5.81-.68,2.18-.46,4.25-1.16,6.2-2.1,1.95-.94,3.6-2.18,4.93-3.71,1.33-1.53,2-3.37,2-5.52,0-1.82-.68-3.24-2.05-4.25-1.37-1.01-3.01-1.76-4.93-2.25-1.92-.49-3.87-.78-5.86-.88-1.99-.1-3.6-.15-4.83-.15-3.06,0-5.57.94-7.52,2.83-1.95,1.89-2.93,4.39-2.93,7.52,0,2.73.86,4.95,2.59,6.64,1.72,1.69,3.92,2.54,6.59,2.54Z"/><path class="cls-4" d="m442.87,190.42c-2.73,0-5.73-.13-8.98-.39-3.26-.26-6.54-.72-9.86-1.37-3.32-.65-6.53-1.58-9.62-2.78-3.09-1.2-5.84-2.73-8.25-4.59-2.41-1.86-4.35-4.12-5.81-6.79-1.46-2.67-2.2-5.79-2.2-9.38,0-5.4.5-10.86,1.51-16.36,1.01-5.5,2.13-11.04,3.37-16.6,1.24-5.57,2.36-11.18,3.37-16.85,1.01-5.66,1.51-11.43,1.51-17.29s-.65-11.6-1.95-16.65c-1.3-5.04-3.42-10.21-6.35-15.48-.46-.72-.83-1.48-1.12-2.29-.29-.81-.44-1.68-.44-2.59,0-2.34.96-4.23,2.88-5.66,1.92-1.43,4.21-2.54,6.88-3.32,2.67-.78,5.39-1.3,8.15-1.56,2.77-.26,5-.39,6.69-.39,1.24,0,2.73.07,4.49.2,1.76.13,3.6.36,5.52.68,1.92.33,3.82.77,5.71,1.32,1.89.55,3.58,1.29,5.08,2.2,1.5.91,2.7,1.99,3.61,3.22.91,1.24,1.37,2.73,1.37,4.49s-.2,3.45-.59,5.27c-.39,1.82-.75,3.58-1.07,5.27-1.3,6.84-2.47,13.69-3.52,20.56-1.04,6.87-1.56,13.75-1.56,20.65,0,2.15.02,4.62.05,7.42.03,2.8.23,5.65.59,8.54.36,2.9.89,5.75,1.61,8.54.72,2.8,1.76,5.29,3.12,7.47,1.37,2.18,3.09,3.94,5.18,5.27,2.08,1.33,4.69,2,7.81,2,2.08,0,4.44-.5,7.08-1.51,2.64-1.01,5.27-2.12,7.91-3.32,2.64-1.2,5.18-2.31,7.62-3.32,2.44-1.01,4.54-1.51,6.3-1.51,2.15,0,3.97.77,5.47,2.29,1.5,1.53,2.72,3.4,3.66,5.62.94,2.21,1.63,4.49,2.05,6.84.42,2.34.63,4.36.63,6.05,0,2.54-.39,5.11-1.17,7.71-.78,2.6-2.25,4.69-4.39,6.25-1.95,1.43-4.26,2.73-6.93,3.91-2.67,1.17-5.55,2.2-8.64,3.08-3.09.88-6.28,1.64-9.57,2.29-3.29.65-6.54,1.19-9.77,1.61-3.22.42-6.33.73-9.33.93-3,.2-5.7.29-8.11.29Z"/><path class="cls-4" d="m555.27,189.93l-24.71-.1c-3.78,0-7.08-.34-9.91-1.03s-5.19-1.82-7.08-3.42c-1.89-1.59-3.32-3.73-4.3-6.4-.98-2.67-1.46-5.99-1.46-9.96,0-5.4.5-10.9,1.51-16.5,1.01-5.6,2.13-11.28,3.37-17.04,1.24-5.76,2.36-11.6,3.37-17.53,1.01-5.92,1.51-11.91,1.51-17.97s-.67-12.14-2-17.68c-1.33-5.53-3.56-11-6.69-16.41-.52-.85-.96-1.71-1.32-2.59-.36-.88-.54-1.81-.54-2.78,0-1.89.85-3.47,2.54-4.74,1.69-1.27,3.84-2.31,6.45-3.12,2.6-.81,5.5-1.42,8.69-1.81,3.19-.39,6.28-.67,9.28-.83,2.99-.16,5.73-.24,8.2-.24h21.88c2.21,0,4.77.03,7.67.1,2.9.07,5.88.28,8.94.63,3.06.36,6.07.91,9.03,1.66,2.96.75,5.6,1.82,7.91,3.22,2.31,1.4,4.18,3.19,5.62,5.37,1.43,2.18,2.15,4.83,2.15,7.96,0,1.56-.11,3.61-.34,6.15-.23,2.54-.7,5.03-1.42,7.47-.72,2.44-1.74,4.54-3.08,6.3-1.33,1.76-3.11,2.64-5.32,2.64-1.11,0-2.67-.49-4.69-1.46-2.02-.98-4.35-2.07-6.98-3.27-2.64-1.2-5.47-2.29-8.5-3.27s-6.1-1.46-9.23-1.46c-4.43,0-7.55,1.24-9.38,3.71-1.82,2.47-2.73,5.76-2.73,9.86,0,3.06.65,5.62,1.95,7.67,1.3,2.05,3.65,3.08,7.03,3.08,2.15,0,4.31-.37,6.49-1.12,2.18-.75,4.21-1.56,6.1-2.44,1.89-.88,3.6-1.69,5.13-2.44,1.53-.75,2.72-1.12,3.56-1.12,1.69,0,3.08.68,4.15,2.05s1.9,3,2.49,4.88c.59,1.89.99,3.83,1.22,5.81.23,1.99.34,3.6.34,4.83s-.11,2.85-.34,4.83c-.23,1.99-.63,3.91-1.22,5.76s-1.42,3.47-2.49,4.83-2.46,2.05-4.15,2.05c-.91,0-2.12-.37-3.61-1.12-1.5-.75-3.16-1.56-4.98-2.44-1.82-.88-3.74-1.68-5.76-2.39-2.02-.72-4.04-1.07-6.05-1.07-1.76,0-3.16.36-4.2,1.07-1.04.72-1.82,1.66-2.34,2.83-.52,1.17-.85,2.47-.98,3.91-.13,1.43-.2,2.83-.2,4.2,0,5.27,1.46,9.21,4.39,11.82,2.93,2.6,6.97,3.91,12.11,3.91,3.19,0,6.31-.46,9.38-1.37,3.06-.91,5.91-1.94,8.54-3.08,2.64-1.14,4.96-2.16,6.98-3.08,2.02-.91,3.55-1.37,4.59-1.37,2.28,0,4.1.88,5.47,2.64s2.41,3.86,3.12,6.3c.72,2.44,1.19,4.96,1.42,7.57.23,2.6.34,4.72.34,6.35,0,3.65-1.04,6.71-3.12,9.18-2.08,2.47-4.79,4.49-8.11,6.05s-7.08,2.75-11.28,3.56c-4.2.81-8.4,1.4-12.6,1.76-4.2.36-8.22.55-12.06.59-3.84.03-7.1.05-9.77.05Z"/><path class="cls-4" d="m709.08,189.74c-3.06,0-5.97-.41-8.74-1.22-2.77-.81-5.19-2.05-7.28-3.71-2.08-1.66-3.74-3.73-4.98-6.2-1.24-2.47-1.86-5.37-1.86-8.69,0-4.3.13-8.59.39-12.89.26-4.3.39-8.59.39-12.89v-3.66c0-1.66-.05-3.53-.15-5.62-.1-2.08-.29-4.2-.59-6.35s-.72-4.13-1.27-5.96c-.55-1.82-1.29-3.3-2.2-4.44-.91-1.14-2.02-1.71-3.32-1.71-1.43,0-2.62.57-3.56,1.71-.94,1.14-1.66,2.51-2.15,4.1-.49,1.6-.83,3.24-1.03,4.93-.2,1.69-.29,3.06-.29,4.1,0,6.9.57,13.54,1.71,19.92,1.14,6.38,3.17,12.7,6.1,18.95.39.85.72,1.73.98,2.64.26.91.39,1.82.39,2.73,0,2.02-.55,3.76-1.66,5.22-1.11,1.46-2.54,2.72-4.3,3.76-1.76,1.04-3.76,1.89-6.01,2.54-2.25.65-4.49,1.17-6.74,1.56s-4.39.65-6.45.78c-2.05.13-3.79.2-5.22.2-1.95,0-4.44-.15-7.47-.44s-6.05-.8-9.08-1.51c-3.03-.72-5.78-1.72-8.25-3.03-2.47-1.3-4.2-2.96-5.18-4.98-.78-1.69-1.32-3.58-1.61-5.66-.29-2.08-.44-4.04-.44-5.86,0-5.47.54-10.99,1.61-16.55s2.25-11.21,3.52-16.94c1.27-5.73,2.42-11.52,3.47-17.38,1.04-5.86,1.56-11.82,1.56-17.87s-.67-12.03-2-17.33c-1.33-5.31-3.53-10.66-6.59-16.06-.46-.72-.83-1.48-1.12-2.29-.29-.81-.44-1.68-.44-2.59,0-1.56.46-2.91,1.37-4.05.91-1.14,2.1-2.12,3.56-2.93,1.46-.81,3.09-1.48,4.88-2,1.79-.52,3.6-.93,5.42-1.22,1.82-.29,3.56-.49,5.22-.59s3.04-.15,4.15-.15c1.24,0,2.73.07,4.49.2,1.76.13,3.6.36,5.52.68,1.92.33,3.82.77,5.71,1.32,1.89.55,3.58,1.29,5.08,2.2,1.5.91,2.7,1.99,3.61,3.22.91,1.24,1.37,2.73,1.37,4.49,0,1.37-.13,2.72-.39,4.05-.26,1.33-.57,2.69-.93,4.05-.36,1.37-.67,2.72-.93,4.05-.26,1.33-.39,2.69-.39,4.05,0,.33.02.78.05,1.37.03.59.11,1.16.24,1.71.13.55.34,1.03.63,1.42s.7.59,1.22.59c1.37,0,2.69-.83,3.96-2.49s2.57-3.73,3.91-6.2c1.33-2.47,2.75-5.18,4.25-8.11,1.5-2.93,3.12-5.63,4.88-8.11,1.76-2.47,3.71-4.54,5.86-6.2s4.52-2.49,7.13-2.49,4.96.65,7.47,1.95c2.51,1.3,4.79,2.98,6.84,5.03s3.71,4.33,4.98,6.84c1.27,2.51,1.9,5,1.9,7.47,0,1.95-.46,3.66-1.37,5.13-.91,1.46-2.21,2.72-3.91,3.76-4.49,2.73-8.74,5.62-12.74,8.64s-7.89,6.33-11.67,9.91c3.52.2,7.21.88,11.08,2.05,3.87,1.17,7.44,2.83,10.69,4.98,3.25,2.15,5.94,4.79,8.06,7.91,2.12,3.12,3.17,6.74,3.17,10.84,0,3.71.23,7.41.68,11.08.46,3.68,1.17,7.31,2.15,10.89.39,1.5.98,3.45,1.76,5.86.78,2.41,1.58,4.9,2.39,7.47.81,2.57,1.53,5,2.15,7.28.62,2.28.93,4,.93,5.18,0,3.06-.8,5.7-2.39,7.91-1.6,2.21-3.61,4.04-6.05,5.47-2.44,1.43-5.11,2.49-8.01,3.17-2.9.68-5.62,1.03-8.15,1.03Z"/><path class="cls-4" d="m837.31,189.83c-4.82,0-8.84-.63-12.06-1.9s-5.83-2.98-7.81-5.13c-1.99-2.15-3.52-4.65-4.59-7.52-1.07-2.86-1.92-5.89-2.54-9.08-.62-3.19-1.11-6.48-1.46-9.86-.36-3.38-.83-6.64-1.42-9.77s-1.42-6.07-2.49-8.84c-1.07-2.77-2.62-5.13-4.64-7.08-.72-.72-1.55-1.4-2.49-2.05-.94-.65-1.97-.98-3.08-.98-.78,0-1.4.18-1.86.54-.46.36-.8.83-1.03,1.42-.23.59-.39,1.21-.49,1.86-.1.65-.15,1.27-.15,1.86,0,2.34.36,5.16,1.07,8.45.72,3.29,1.61,6.67,2.69,10.16,1.07,3.48,2.23,6.84,3.47,10.06,1.24,3.22,2.34,5.94,3.32,8.15.39.85.72,1.73.98,2.64.26.91.39,1.82.39,2.73,0,2.02-.55,3.76-1.66,5.22-1.11,1.46-2.54,2.72-4.3,3.76-1.76,1.04-3.74,1.89-5.96,2.54-2.21.65-4.44,1.17-6.69,1.56s-4.41.65-6.49.78c-2.08.13-3.84.2-5.27.2-2.02,0-4.53-.13-7.52-.39-3-.26-6.01-.76-9.03-1.51-3.03-.75-5.78-1.77-8.25-3.08-2.47-1.3-4.2-2.96-5.18-4.98-.78-1.63-1.32-3.5-1.61-5.62-.29-2.12-.44-4.05-.44-5.81,0-5.4.54-10.9,1.61-16.5,1.07-5.6,2.25-11.26,3.52-16.99,1.27-5.73,2.44-11.56,3.52-17.48,1.07-5.92,1.61-11.91,1.61-17.97s-.65-11.88-1.95-17.29c-1.3-5.4-3.52-10.74-6.64-16.02-.46-.72-.85-1.48-1.17-2.29-.33-.81-.49-1.68-.49-2.59,0-1.56.46-2.91,1.37-4.05.91-1.14,2.08-2.12,3.52-2.93,1.43-.81,3.06-1.48,4.88-2,1.82-.52,3.65-.93,5.47-1.22,1.82-.29,3.55-.5,5.18-.63,1.63-.13,2.99-.2,4.1-.2,2.86,0,5.7.21,8.5.63,2.8.42,5.57,1.09,8.3,2,3.52-.78,7.08-1.42,10.69-1.9s7.24-.73,10.89-.73c5.21,0,10.5.67,15.87,2,5.37,1.33,10.24,3.42,14.6,6.25,4.36,2.83,7.93,6.45,10.69,10.84,2.77,4.39,4.15,9.62,4.15,15.67,0,3.39-.5,6.61-1.51,9.67-1.01,3.06-2.39,5.92-4.15,8.59-1.76,2.67-3.81,5.16-6.15,7.47-2.34,2.31-4.85,4.38-7.52,6.2,1.69,1.43,3.17,3,4.44,4.69,1.27,1.69,2.42,3.48,3.47,5.37,1.63,3.12,3.12,6.3,4.49,9.52s2.78,6.41,4.25,9.57c1.46,3.16,3.04,6.27,4.74,9.33,1.69,3.06,3.68,5.96,5.96,8.69,1.11,1.3,2.02,2.73,2.73,4.3.72,1.56,1.07,3.22,1.07,4.98,0,2.93-.77,5.45-2.29,7.57-1.53,2.12-3.45,3.86-5.76,5.22-2.31,1.37-4.83,2.36-7.57,2.98-2.73.62-5.34.93-7.81.93Zm-42.48-88.28c1.69,0,3.63-.23,5.81-.68,2.18-.46,4.25-1.16,6.2-2.1,1.95-.94,3.6-2.18,4.93-3.71,1.33-1.53,2-3.37,2-5.52,0-1.82-.68-3.24-2.05-4.25-1.37-1.01-3.01-1.76-4.93-2.25-1.92-.49-3.87-.78-5.86-.88-1.99-.1-3.6-.15-4.83-.15-3.06,0-5.57.94-7.52,2.83-1.95,1.89-2.93,4.39-2.93,7.52,0,2.73.86,4.95,2.59,6.64,1.72,1.69,3.92,2.54,6.59,2.54Z"/><path class="cls-4" d="m915.82,189.83c-6.45,0-12.34-.91-17.68-2.73-5.34-1.82-10.12-4.36-14.36-7.62-4.23-3.25-7.94-7.08-11.13-11.47-3.19-4.39-5.84-9.18-7.96-14.36-2.12-5.18-3.7-10.61-4.74-16.31-1.04-5.7-1.56-11.44-1.56-17.24s.52-11.44,1.56-17.14c1.04-5.7,2.6-11.15,4.69-16.36,2.08-5.21,4.7-10.06,7.86-14.55,3.16-4.49,6.85-8.38,11.08-11.67,4.23-3.29,9-5.86,14.31-7.71,5.31-1.86,11.18-2.78,17.63-2.78s12.48.93,17.92,2.78c5.44,1.86,10.32,4.43,14.65,7.71,4.33,3.29,8.12,7.18,11.38,11.67,3.25,4.49,5.97,9.36,8.15,14.6,2.18,5.24,3.81,10.74,4.88,16.5s1.61,11.57,1.61,17.43-.54,11.64-1.61,17.33c-1.07,5.7-2.7,11.12-4.88,16.26-2.18,5.14-4.88,9.9-8.11,14.26-3.22,4.36-7,8.12-11.33,11.28-4.33,3.16-9.2,5.63-14.6,7.42-5.4,1.79-11.33,2.69-17.77,2.69Zm2.15-47.46c1.82,0,3.4-.63,4.74-1.9,1.33-1.27,2.49-2.91,3.47-4.93.98-2.02,1.77-4.28,2.39-6.79.62-2.51,1.11-4.98,1.46-7.42.36-2.44.6-4.74.73-6.88.13-2.15.2-3.87.2-5.18,0-1.5-.07-3.35-.2-5.57-.13-2.21-.39-4.56-.78-7.03-.39-2.47-.93-4.92-1.61-7.32-.68-2.41-1.58-4.59-2.69-6.54-1.11-1.95-2.43-3.53-3.96-4.74-1.53-1.2-3.37-1.81-5.52-1.81-1.89,0-3.55.57-4.98,1.71-1.43,1.14-2.64,2.6-3.61,4.39-.98,1.79-1.77,3.83-2.39,6.1-.62,2.28-1.11,4.54-1.46,6.79-.36,2.25-.6,4.39-.73,6.45-.13,2.05-.2,3.76-.2,5.13,0,1.5.08,3.42.24,5.76.16,2.34.46,4.83.88,7.47.42,2.64.99,5.29,1.71,7.96.72,2.67,1.63,5.06,2.73,7.18,1.11,2.12,2.44,3.84,4,5.18,1.56,1.33,3.42,2,5.57,2Z"/><path class="cls-4" d="m1075.59,189.83c-2.54,0-5.53-.21-8.98-.63-3.45-.42-6.75-1.24-9.91-2.44-3.16-1.2-5.84-2.86-8.06-4.98-2.21-2.12-3.32-4.87-3.32-8.25,0-.59.03-1.16.1-1.71.06-.55.16-1.12.29-1.71.91-4.23,1.71-8.4,2.39-12.5s1.03-8.33,1.03-12.7c0-7.29-1.03-14.18-3.08-20.65-2.05-6.48-5.36-12.58-9.91-18.31-.33-.46-.9-1.17-1.71-2.15-.81-.98-1.68-1.97-2.59-2.98-.91-1.01-1.84-1.9-2.78-2.69-.94-.78-1.74-1.17-2.39-1.17-.39,0-.72.15-.98.44-.26.29-.44.63-.54,1.03s-.16.8-.2,1.22c-.03.42-.05.8-.05,1.12,0,3.12.2,6.23.59,9.33.39,3.09.75,6.2,1.07,9.33.91,8.79,2.18,17.38,3.81,25.78,1.63,8.4,4.17,16.7,7.62,24.9.33.85.62,1.69.88,2.54.26.85.39,1.73.39,2.64,0,2.02-.54,3.78-1.61,5.27-1.07,1.5-2.46,2.77-4.15,3.81-1.69,1.04-3.63,1.9-5.81,2.59-2.18.68-4.38,1.22-6.59,1.61-2.21.39-4.35.65-6.4.78-2.05.13-3.79.2-5.22.2-1.95,0-4.39-.13-7.32-.39-2.93-.26-5.84-.76-8.74-1.51-2.9-.75-5.53-1.77-7.91-3.08-2.38-1.3-4.02-2.96-4.93-4.98-.72-1.5-1.19-3.21-1.42-5.13-.23-1.92-.34-3.73-.34-5.42,0-5.6.59-11.29,1.76-17.09,1.17-5.79,2.47-11.69,3.91-17.68,1.43-5.99,2.73-12.06,3.91-18.21s1.76-12.39,1.76-18.7c0-5.79-.6-11.21-1.81-16.26-1.21-5.04-3.17-10.11-5.91-15.19-.39-.72-.73-1.46-1.03-2.25s-.44-1.63-.44-2.54c0-1.63.49-3.03,1.46-4.2s2.26-2.18,3.86-3.03c1.59-.85,3.37-1.53,5.32-2.05,1.95-.52,3.91-.94,5.86-1.27,1.95-.33,3.81-.54,5.57-.63s3.22-.15,4.39-.15c1.3,0,3.11.08,5.42.24,2.31.16,4.64.5,6.98,1.03,2.34.52,4.43,1.29,6.25,2.29,1.82,1.01,2.86,2.36,3.12,4.05.33,2.34.91,4.41,1.76,6.2.85,1.79,2.02,3.63,3.52,5.52.65.85,1.74,2.13,3.27,3.86,1.53,1.73,3.19,3.43,4.98,5.13,1.79,1.69,3.55,3.17,5.27,4.44,1.72,1.27,3.11,1.9,4.15,1.9.52,0,.88-.2,1.07-.59s.29-.81.29-1.27c0-1.76-.29-3.56-.88-5.42s-1.25-3.69-2-5.52c-.75-1.82-1.42-3.6-2-5.32-.59-1.72-.88-3.37-.88-4.93,0-2.41.93-4.35,2.78-5.81s4.08-2.6,6.69-3.42c2.6-.81,5.26-1.37,7.96-1.66,2.7-.29,4.93-.44,6.69-.44s4.02.15,6.79.44c2.77.29,5.48.85,8.15,1.66,2.67.81,4.96,1.97,6.88,3.47,1.92,1.5,2.88,3.45,2.88,5.86,0,.78-.11,1.53-.34,2.25-.23.72-.5,1.43-.83,2.15-2.08,4.43-3.61,8.77-4.59,13.04-.98,4.26-1.46,8.84-1.46,13.72,0,3.97.26,7.93.78,11.87.52,3.94,1.19,7.85,2,11.72.81,3.87,1.76,7.73,2.83,11.57,1.07,3.84,2.16,7.65,3.27,11.43.78,2.54,1.56,5.14,2.34,7.81.78,2.67,1.48,5.34,2.1,8.01.62,2.67,1.14,5.37,1.56,8.11.42,2.73.63,5.44.63,8.11,0,1.37-.08,2.77-.24,4.2-.16,1.43-.5,2.8-1.03,4.1-.78,2.08-2.33,3.79-4.64,5.13-2.31,1.33-4.88,2.38-7.71,3.12-2.83.75-5.66,1.27-8.5,1.56s-5.22.44-7.18.44Z"/><path class="cls-4" d="m1160.84,189.93l-24.71-.1c-3.78,0-7.08-.34-9.91-1.03s-5.19-1.82-7.08-3.42c-1.89-1.59-3.32-3.73-4.3-6.4-.98-2.67-1.46-5.99-1.46-9.96,0-5.4.5-10.9,1.51-16.5,1.01-5.6,2.13-11.28,3.37-17.04,1.24-5.76,2.36-11.6,3.37-17.53,1.01-5.92,1.51-11.91,1.51-17.97s-.67-12.14-2-17.68c-1.33-5.53-3.56-11-6.69-16.41-.52-.85-.96-1.71-1.32-2.59-.36-.88-.54-1.81-.54-2.78,0-1.89.85-3.47,2.54-4.74,1.69-1.27,3.84-2.31,6.45-3.12,2.6-.81,5.5-1.42,8.69-1.81,3.19-.39,6.28-.67,9.28-.83,2.99-.16,5.73-.24,8.2-.24h21.88c2.21,0,4.77.03,7.67.1,2.9.07,5.88.28,8.94.63,3.06.36,6.07.91,9.03,1.66,2.96.75,5.6,1.82,7.91,3.22,2.31,1.4,4.18,3.19,5.62,5.37,1.43,2.18,2.15,4.83,2.15,7.96,0,1.56-.11,3.61-.34,6.15-.23,2.54-.7,5.03-1.42,7.47-.72,2.44-1.74,4.54-3.08,6.3-1.33,1.76-3.11,2.64-5.32,2.64-1.11,0-2.67-.49-4.69-1.46-2.02-.98-4.35-2.07-6.98-3.27-2.64-1.2-5.47-2.29-8.5-3.27s-6.1-1.46-9.23-1.46c-4.43,0-7.55,1.24-9.38,3.71-1.82,2.47-2.73,5.76-2.73,9.86,0,3.06.65,5.62,1.95,7.67,1.3,2.05,3.65,3.08,7.03,3.08,2.15,0,4.31-.37,6.49-1.12,2.18-.75,4.21-1.56,6.1-2.44,1.89-.88,3.6-1.69,5.13-2.44,1.53-.75,2.72-1.12,3.56-1.12,1.69,0,3.08.68,4.15,2.05s1.9,3,2.49,4.88c.59,1.89.99,3.83,1.22,5.81.23,1.99.34,3.6.34,4.83s-.11,2.85-.34,4.83c-.23,1.99-.63,3.91-1.22,5.76s-1.42,3.47-2.49,4.83-2.46,2.05-4.15,2.05c-.91,0-2.12-.37-3.61-1.12-1.5-.75-3.16-1.56-4.98-2.44-1.82-.88-3.74-1.68-5.76-2.39-2.02-.72-4.04-1.07-6.05-1.07-1.76,0-3.16.36-4.2,1.07-1.04.72-1.82,1.66-2.34,2.83-.52,1.17-.85,2.47-.98,3.91-.13,1.43-.2,2.83-.2,4.2,0,5.27,1.46,9.21,4.39,11.82,2.93,2.6,6.97,3.91,12.11,3.91,3.19,0,6.31-.46,9.38-1.37,3.06-.91,5.91-1.94,8.54-3.08,2.64-1.14,4.96-2.16,6.98-3.08,2.02-.91,3.55-1.37,4.59-1.37,2.28,0,4.1.88,5.47,2.64s2.41,3.86,3.12,6.3c.72,2.44,1.19,4.96,1.42,7.57.23,2.6.34,4.72.34,6.35,0,3.65-1.04,6.71-3.12,9.18-2.08,2.47-4.79,4.49-8.11,6.05s-7.08,2.75-11.28,3.56c-4.2.81-8.4,1.4-12.6,1.76-4.2.36-8.22.55-12.06.59-3.84.03-7.1.05-9.77.05Z"/><path class="cls-4" d="m1321,189.83c-2.54,0-5.53-.21-8.98-.63-3.45-.42-6.75-1.24-9.91-2.44-3.16-1.2-5.84-2.86-8.06-4.98-2.21-2.12-3.32-4.87-3.32-8.25,0-.59.03-1.16.1-1.71.06-.55.16-1.12.29-1.71.91-4.23,1.71-8.4,2.39-12.5s1.03-8.33,1.03-12.7c0-7.29-1.03-14.18-3.08-20.65-2.05-6.48-5.36-12.58-9.91-18.31-.33-.46-.9-1.17-1.71-2.15-.81-.98-1.68-1.97-2.59-2.98-.91-1.01-1.84-1.9-2.78-2.69-.94-.78-1.74-1.17-2.39-1.17-.39,0-.72.15-.98.44-.26.29-.44.63-.54,1.03s-.16.8-.2,1.22c-.03.42-.05.8-.05,1.12,0,3.12.2,6.23.59,9.33.39,3.09.75,6.2,1.07,9.33.91,8.79,2.18,17.38,3.81,25.78,1.63,8.4,4.17,16.7,7.62,24.9.33.85.62,1.69.88,2.54.26.85.39,1.73.39,2.64,0,2.02-.54,3.78-1.61,5.27-1.07,1.5-2.46,2.77-4.15,3.81-1.69,1.04-3.63,1.9-5.81,2.59-2.18.68-4.38,1.22-6.59,1.61-2.21.39-4.35.65-6.4.78-2.05.13-3.79.2-5.22.2-1.95,0-4.39-.13-7.32-.39-2.93-.26-5.84-.76-8.74-1.51-2.9-.75-5.53-1.77-7.91-3.08-2.38-1.3-4.02-2.96-4.93-4.98-.72-1.5-1.19-3.21-1.42-5.13-.23-1.92-.34-3.73-.34-5.42,0-5.6.59-11.29,1.76-17.09,1.17-5.79,2.47-11.69,3.91-17.68,1.43-5.99,2.73-12.06,3.91-18.21s1.76-12.39,1.76-18.7c0-5.79-.6-11.21-1.81-16.26-1.21-5.04-3.17-10.11-5.91-15.19-.39-.72-.73-1.46-1.03-2.25s-.44-1.63-.44-2.54c0-1.63.49-3.03,1.46-4.2s2.26-2.18,3.86-3.03c1.59-.85,3.37-1.53,5.32-2.05,1.95-.52,3.91-.94,5.86-1.27,1.95-.33,3.81-.54,5.57-.63s3.22-.15,4.39-.15c1.3,0,3.11.08,5.42.24,2.31.16,4.64.5,6.98,1.03,2.34.52,4.43,1.29,6.25,2.29,1.82,1.01,2.86,2.36,3.12,4.05.33,2.34.91,4.41,1.76,6.2.85,1.79,2.02,3.63,3.52,5.52.65.85,1.74,2.13,3.27,3.86,1.53,1.73,3.19,3.43,4.98,5.13,1.79,1.69,3.55,3.17,5.27,4.44,1.72,1.27,3.11,1.9,4.15,1.9.52,0,.88-.2,1.07-.59s.29-.81.29-1.27c0-1.76-.29-3.56-.88-5.42s-1.25-3.69-2-5.52c-.75-1.82-1.42-3.6-2-5.32-.59-1.72-.88-3.37-.88-4.93,0-2.41.93-4.35,2.78-5.81s4.08-2.6,6.69-3.42c2.6-.81,5.26-1.37,7.96-1.66,2.7-.29,4.93-.44,6.69-.44s4.02.15,6.79.44c2.77.29,5.48.85,8.15,1.66,2.67.81,4.96,1.97,6.88,3.47,1.92,1.5,2.88,3.45,2.88,5.86,0,.78-.11,1.53-.34,2.25-.23.72-.5,1.43-.83,2.15-2.08,4.43-3.61,8.77-4.59,13.04-.98,4.26-1.46,8.84-1.46,13.72,0,3.97.26,7.93.78,11.87.52,3.94,1.19,7.85,2,11.72.81,3.87,1.76,7.73,2.83,11.57,1.07,3.84,2.16,7.65,3.27,11.43.78,2.54,1.56,5.14,2.34,7.81.78,2.67,1.48,5.34,2.1,8.01.62,2.67,1.14,5.37,1.56,8.11.42,2.73.63,5.44.63,8.11,0,1.37-.08,2.77-.24,4.2-.16,1.43-.5,2.8-1.03,4.1-.78,2.08-2.33,3.79-4.64,5.13-2.31,1.33-4.88,2.38-7.71,3.12-2.83.75-5.66,1.27-8.5,1.56s-5.22.44-7.18.44Z"/><g class="cls-5"><path class="cls-3" d="m912.08,51.59s-6.49-14.25-12.71-19.04c-2.25-1.73-4.46-2.22-6.32-.37s-1.41,4.03.22,6.28c4.61,6.35,18.81,13.13,18.81,13.13Z"/><path class="cls-3" d="m912.38,51.59s-.29-19.4-4.98-27.92c-1.69-3.08-3.96-4.74-6.99-3.56s-3.6,3.87-2.87,7.24c2.08,9.5,14.84,24.24,14.84,24.24Z"/><path class="cls-3" d="m913.63,51.59s6.49-14.25,12.71-19.04c2.25-1.73,4.46-2.22,6.32-.37,1.84,1.83,1.41,4.03-.22,6.28-4.61,6.35-18.81,13.13-18.81,13.13Z"/><path class="cls-3" d="m913.27,51.59s.29-19.4,4.98-27.92c1.69-3.08,3.96-4.74,6.99-3.56,3,1.16,3.6,3.87,2.87,7.24-2.08,9.5-14.84,24.24-14.84,24.24Z"/><path class="cls-3" d="m912.76,51.59s-7.2-19.81-5.73-30.28c.53-3.78,2.19-6.34,5.73-6.32,3.49.02,5.15,2.54,5.71,6.25,1.56,10.45-5.71,30.35-5.71,30.35Z"/><path class="cls-3" d="m912.95,52.07s-6.03-4.16-9.63-4.26c-1.3-.04-2.28.45-2.55,1.86s.44,2.21,1.63,2.68c3.36,1.31,10.55-.27,10.55-.27Z"/><path class="cls-3" d="m912.56,52.07s6.03-4.16,9.63-4.26c1.3-.04,2.28.45,2.55,1.86s-.44,2.21-1.63,2.68c-3.36,1.31-10.55-.27-10.55-.27Z"/><path class="cls-3" d="m872.59,66.29s-6.97-7.17-11.74-8.71c-1.72-.55-3.16-.38-3.88,1.14s.02,2.73,1.49,3.73c4.14,2.83,14.13,3.84,14.13,3.84Z"/><path class="cls-3" d="m872.77,66.23s-4.35-11.6-9-15.71c-1.68-1.48-3.4-1.99-4.97-.63s-1.33,3.1-.16,4.97c3.29,5.26,14.14,11.38,14.14,11.38Z"/><path class="cls-3" d="m873.52,65.96s.83-9.96,3.55-14.18c.98-1.52,2.2-2.3,3.72-1.58,1.5.7,1.72,2.12,1.22,3.83-1.4,4.81-8.49,11.94-8.49,11.94Z"/><path class="cls-3" d="m873.31,66.04s-4-11.72-3.02-17.86c.36-2.21,1.36-3.7,3.44-3.64s3,1.55,3.28,3.74c.8,6.16-3.7,17.76-3.7,17.76Z"/><path class="cls-3" d="m873,66.15s-8.59-10.36-9.96-16.97c-.49-2.39-.05-4.28,2.08-5.03,2.1-.74,3.65.42,4.78,2.53,3.19,5.95,3.1,19.47,3.1,19.47Z"/><path class="cls-3" d="m873.22,66.39s-4.52-1.2-6.71-.49c-.79.26-1.27.76-1.13,1.67s.74,1.23,1.56,1.26c2.3.06,6.28-2.43,6.28-2.43Z"/><path class="cls-3" d="m872.99,66.47s2.73-3.8,4.87-4.64c.77-.3,1.47-.22,1.93.57s.21,1.43-.41,1.96c-1.74,1.51-6.4,2.11-6.4,2.11Z"/><path class="cls-3" d="m953.98,66.21s6.97-7.17,11.74-8.71c1.72-.55,3.16-.38,3.88,1.14s-.02,2.73-1.49,3.73c-4.14,2.83-14.13,3.84-14.13,3.84Z"/><path class="cls-3" d="m953.8,66.15s4.35-11.6,9-15.71c1.68-1.48,3.4-1.99,4.97-.63s1.33,3.1.16,4.97c-3.29,5.26-14.14,11.38-14.14,11.38Z"/><path class="cls-3" d="m953.05,65.88s-.83-9.96-3.55-14.18c-.98-1.52-2.2-2.3-3.72-1.58-1.5.7-1.72,2.12-1.22,3.83,1.4,4.81,8.49,11.94,8.49,11.94Z"/><path class="cls-3" d="m953.27,65.95s4-11.72,3.02-17.86c-.36-2.21-1.36-3.7-3.44-3.64-2.05.05-3,1.55-3.28,3.74-.8,6.16,3.7,17.76,3.7,17.76Z"/><path class="cls-3" d="m953.57,66.06s8.59-10.36,9.96-16.97c.49-2.39.05-4.28-2.08-5.03-2.1-.74-3.65.42-4.78,2.53-3.19,5.95-3.1,19.47-3.1,19.47Z"/><path class="cls-3" d="m953.36,66.31s4.52-1.2,6.71-.49c.79.26,1.27.76,1.13,1.67s-.74,1.23-1.56,1.26c-2.3.06-6.28-2.43-6.28-2.43Z"/><path class="cls-3" d="m953.59,66.39s-2.73-3.8-4.87-4.64c-.77-.3-1.47-.22-1.93.57s-.21,1.43.41,1.96c1.74,1.51,6.4,2.11,6.4,2.11Z"/><circle class="cls-2" cx="912.76" cy="8.73" r="6.27"/><circle class="cls-1" cx="915.33" cy="5.55" r="1.17"/><circle class="cls-2" cx="862.86" cy="38.1" r="6.27"/><circle class="cls-1" cx="864.84" cy="34.52" r="1.17"/><circle class="cls-2" cx="964.66" cy="38.1" r="6.27"/><circle class="cls-1" cx="968.16" cy="35.98" r="1.17"/><circle class="cls-2" cx="887.33" cy="45.24" r="9.66"/><circle class="cls-1" cx="890.38" cy="39.72" r="1.81"/><circle class="cls-2" cx="939.14" cy="44.53" r="9.66"/><circle class="cls-1" cx="944.76" cy="41.67" r="1.81"/><circle class="cls-2" cx="902.52" cy="57.41" r="4.55"/><circle class="cls-1" cx="903.97" cy="54.81" r=".85"/><circle class="cls-2" cx="893.42" cy="59.47" r="4.55"/><circle class="cls-1" cx="894.71" cy="56.8" r=".85"/><circle class="cls-2" cx="884.88" cy="63.1" r="4.55"/><circle class="cls-1" cx="886.17" cy="60.42" r=".85"/><circle class="cls-2" cx="876.39" cy="66.78" r="4.55"/><circle class="cls-1" cx="877.67" cy="64.11" r=".85"/><circle class="cls-2" cx="867.94" cy="70.65" r="4.55"/><circle class="cls-1" cx="869.23" cy="67.97" r=".85"/><circle class="cls-2" cx="859.72" cy="75.07" r="4.55"/><circle class="cls-1" cx="861.01" cy="72.4" r=".85"/><circle class="cls-2" cx="852.02" cy="80.12" r="4.55"/><circle class="cls-1" cx="853.31" cy="77.44" r=".85"/><circle class="cls-2" cx="923.5" cy="56.29" r="4.55"/><circle class="cls-1" cx="925.48" cy="54.55" r=".85"/><circle class="cls-2" cx="932.6" cy="58.36" r="4.55"/><circle class="cls-1" cx="934.78" cy="56.29" r=".85"/><circle class="cls-2" cx="941.14" cy="61.99" r="4.55"/><circle class="cls-1" cx="943.52" cy="60.52" r=".85"/><circle class="cls-2" cx="949.64" cy="65.67" r="4.55"/><circle class="cls-1" cx="952.19" cy="64.34" r=".85"/><circle class="cls-2" cx="958.08" cy="69.54" r="4.55"/><circle class="cls-1" cx="960.17" cy="68.19" r=".85"/><circle class="cls-2" cx="966.31" cy="73.96" r="4.55"/><circle class="cls-1" cx="968.56" cy="72.63" r=".85"/><circle class="cls-2" cx="974.01" cy="79.01" r="4.55"/><circle class="cls-1" cx="976.62" cy="77.66" r=".85"/><circle class="cls-2" cx="912.96" cy="54.25" r="6.27"/><circle class="cls-1" cx="915.53" cy="51.07" r="1.17"/></g></svg>