<?xml version="1.0" encoding="UTF-8"?><svg xmlns="http://www.w3.org/2000/svg" width="530" height="760" xmlns:xlink="http://www.w3.org/1999/xlink" viewBox="0 0 530 760"><defs><style>.cls-1{fill:#f60;filter:url(#drop-shadow-8);}.cls-1,.cls-2,.cls-3,.cls-4,.cls-5,.cls-6,.cls-7,.cls-8,.cls-9,.cls-10,.cls-11{stroke-miterlimit:10;}.cls-1,.cls-2,.cls-5,.cls-6,.cls-8,.cls-10{stroke:#000;}.cls-12,.cls-3,.cls-4,.cls-10,.cls-11{fill:none;}.cls-12,.cls-13,.cls-14,.cls-15,.cls-16,.cls-17,.cls-18{stroke-width:0px;}.cls-3{stroke:#c16000;}.cls-3,.cls-4{stroke-linecap:round;}.cls-4,.cls-9{stroke:#572a00;}.cls-19{clip-path:url(#clippath-1);}.cls-20{clip-path:url(#clippath-2);}.cls-13{fill:#6d737e;opacity:.1;}.cls-5,.cls-15{fill:#ff8a00;}.cls-6{fill:#ff8802;}.cls-7{fill:#fff;stroke:#fff;}.cls-8,.cls-16{fill:#643701;}.cls-9{fill:#572a00;}.cls-11{stroke:#ff7400;}.cls-15{opacity:.3;}.cls-17{fill:#ff924b;}.cls-18{fill:#fff8f8;}</style><clipPath id="clippath"><path class="cls-10" d="m348.29-159.92c58.66-24.48,72.95-92.95,72.95-92.95,28.95-119.54-22.64-189.1-35.43-204.06-1.67-1.95-4.1-3.06-6.66-3.06h-61.14c-2.01,0-3.92.86-5.26,2.36-11.92,13.37-66.95,83.24-37.52,204.77,0,0,14.22,63.29-75.32,38.61-.12-.03-.24-.07-.36-.12l-24.32-8.82c-.22-.08-.44-.18-.64-.29-3.56-1.97-37.06-20.08-7.91,13.42,30.99,35.63,40.64,40.56,72.3,50.14,32.23,9.75,63.04,9.73,109.32,0"/></clipPath><clipPath id="clippath-1"><ellipse class="cls-12" cx="362.87" cy="233.06" rx="110.26" ry="87.87"/></clipPath><clipPath id="clippath-2"><path class="cls-10" d="m362,710.83c58.66-24.48,72.95-92.95,72.95-92.95,28.95-119.54-22.64-189.1-35.43-204.06-1.67-1.95-4.1-3.06-6.66-3.06h-61.14c-2.01,0-3.92.86-5.26,2.36-11.92,13.37-66.95,83.24-37.52,204.77,0,0,14.22,63.29-75.32,38.61-.12-.03-.24-.07-.36-.12l-24.32-8.82c-.22-.08-.44-.18-.64-.29-3.56-1.97-37.06-20.08-7.91,13.42,30.99,35.63,40.64,40.56,72.3,50.14,32.23,9.75,63.04,9.73,109.32,0"/></clipPath><filter id="drop-shadow-8" filterUnits="userSpaceOnUse"><feOffset dx="-1" dy="1"/><feGaussianBlur result="blur" stdDeviation="3"/><feFlood flood-color="#000" flood-opacity=".75"/><feComposite in2="blur" operator="in"/><feComposite in="SourceGraphic"/></filter></defs><g id="Start_skærm"><path class="cls-10" d="m348.29-159.92c58.66-24.48,72.95-92.95,72.95-92.95,28.95-119.54-22.64-189.1-35.43-204.06-1.67-1.95-4.1-3.06-6.66-3.06h-61.14c-2.01,0-3.92.86-5.26,2.36-11.92,13.37-66.95,83.24-37.52,204.77,0,0,14.22,63.29-75.32,38.61-.12-.03-.24-.07-.36-.12l-24.32-8.82c-.22-.08-.44-.18-.64-.29-3.56-1.97-37.06-20.08-7.91,13.42,30.99,35.63,40.64,40.56,72.3,50.14,32.23,9.75,63.04,9.73,109.32,0"/></g><g id="Coralina"><path class="cls-5" d="m172.87,645.98s-75.42-14.71-91.46-38.52c-16.04-23.81-12.02-42.35-12.02-42.35-14.96-17.15,31.5,6.75,52.13,23.22,1.61,1.28,2.54,1.84,2.94,1.58s.24-1.34-.33-3.31c-13.45-46.62-14.12-59.51-11.98-61.83,1.66-1.8,5.02,2.8,5.38,2.9.02,0,.04,0,.07.01.93.03,19.43.83,38.49,21.3,19.55,21.01,16.79,97,16.79,97"/><path class="cls-3" d="m168.81,642.98s-71.9-76.64-101.02-82.18"/><path class="cls-3" d="m71.51,567.72s-11.79,44.62,100.41,77.23"/><path class="cls-3" d="m67.79,560.8s21.54,45.78,103.4,83.22"/><path class="cls-3" d="m169.76,643.4s-58.5-87.31-56.68-116.9"/><path class="cls-3" d="m118.87,530.92s48.45-3.69,52.32,113.1"/><path class="cls-3" d="m113.08,526.5s41.03,28.95,57.09,117.52"/><path class="cls-17" d="m126.44,290.7s45.01.41,58.62-45.86c13.61-46.28,10.66-46.63,39.6-102.8,28.34-55,133.43-51.29,133.43-51.29,0,0,103.22-8.37,140.42,83.74,37.21,92.11-23.8,173.77-57.15,202.55-33.35,28.78-50.06,35.95-50.06,35.95h0l-119.79,67.15s-94.21,49.8-147.41,21.16c-1.65-.89-1.58-3.29.14-4.05,10.33-4.62,37.35-18.12,46.77-36.76.69-1.37-.5-2.95-2.01-2.65-17.19,3.35-94.14,15.94-149.56-13.98-1.92-1.03-1.41-3.91.74-4.24,17.38-2.66,62.97-14.42,74.92-65.12.35-1.5-1.36-2.62-2.58-1.68-11.39,8.77-48.53,30.84-89.8-14.73-1.12-1.23.04-3.17,1.65-2.75,9.81,2.56,30.16,4.92,42.52-14.4,0,0,26.96-52.69,79.55-50.22Z"/><path class="cls-10" d="m126.44,290.7s45.01.41,58.62-45.86c13.61-46.28,10.66-46.63,39.6-102.8,28.34-55,133.43-51.29,133.43-51.29,0,0,103.22-8.37,140.42,83.74,37.21,92.11-23.8,173.77-57.15,202.55-33.35,28.78-50.06,35.95-50.06,35.95h0l-119.79,67.15s-94.21,49.8-147.41,21.16c-1.65-.89-1.58-3.29.14-4.05,10.33-4.62,37.35-18.12,46.77-36.76.69-1.37-.5-2.95-2.01-2.65-17.19,3.35-94.14,15.94-149.56-13.98-1.92-1.03-1.41-3.91.74-4.24,17.38-2.66,62.97-14.42,74.92-65.12.35-1.5-1.36-2.62-2.58-1.68-11.39,8.77-48.53,30.84-89.8-14.73-1.12-1.23.04-3.17,1.65-2.75,9.81,2.56,30.16,4.92,42.52-14.4,0,0,26.96-52.69,79.55-50.22Z"/><path class="cls-11" d="m272.08,318.25s-23.78,30.35-44.29,47.3c-20.5,16.95-44.02,29.53-63.15,32.53"/><path class="cls-11" d="m216.58,479.52s29.07-8.49,48.36-22.53c0,0,9.4-9.27,13.4-12.03,0,0,13.12-10.9,16.68-9"/><path class="cls-11" d="m472.28,280.11s7.39,12.97-9.27,31.78c0,0-19.16,18.4-18.96,20.08,0,0-7.43,5.06-8.34,26.19"/><path class="cls-8" d="m277.18,451.43s-12.13,30.46-10.22,38.69c0,0,8.27,15.59,4.3,13.69-2.15-1.03-4.6-5.82-5.77-7.08-1.99-2.12-.98,4.73-.97,4.88.06,3.84-.04,7.67-.36,10.37-.38,3.22-3.05,5.49-2.6-9.61,0,0,.14-3.62-.99.1-1.18,3.9.3,12.58-.2,13.25-3.16,4.2-3.7-12.25-3.31-14.1.69-3.27-.56-1.35-.93-.51-.92,2.05-.67,11.71-1.3,12.43-3.04,3.53-1.88-14.25-1.88-14.25-.45-1.35-1.34-.23-1.34-.23l-1.49,6.72c-4.11,7.36-1.22-9.32-1.22-9.32.09-1.24,2.88-8.73,3.56-9.73,1.74-2.58,3-3.43,4.26-4.24,2.12-1.37,2.2-5.48,2.24-5.86,0-.02.31-8.24.31-8.25.19-4,1.52-8.13,3.21-19.99,2.92-20.54,7.44-30.56,7.44-30.56l4.83-14c15.3-44.07,18.59-44.61,24.14-55.13,4.84-9.17,11.88-9.35,11.88-9.35,0,0,34.6.19,40.44-2.41,4.7-2.09,1.84-9.62.54-12.49-.24-.52.15-1.11.73-1.11h19.92c.58,0-3.44,11.51,1.26,13.6,5.84,2.6,37.59,4.36,37.59,4.36,0,0,4.48.39,11.29,10.52,6.65,9.87,8.93,11.96,24.23,56.03,0,0,.11,6.29,17.79-5.83,7-4.8,32.4-19.39,33.75-23.03l3.02-5.05c.6-1.01,1.03-2.1,1.26-3.25.88-4.27,3.29-14.87,4.83-11.68,1.04,2.15-.03,7.42.1,9.13.23,2.9,3.71-3.09,3.8-3.21,2.35-3.04,4.81-5.98,6.74-7.89,2.31-2.28,5.81-2.39-3.96,9.13,0,0-2.37,2.75.84.54,3.36-2.31,7.6-10.02,8.42-10.23,5.09-1.31-4.74,11.88-6.2,13.08-2.58,2.13-.4,1.4.41.98,2-1.03,7.82-8.74,8.77-8.91,4.58-.87-7.41,12.31-7.41,12.31-.48,1.34.91,1.01.91,1.01l5.36-4.33c7.81-3.19-4.85,8.05-4.85,8.05,0,0-7.08,6.41-13.32,4.96-.13-.03-.26,0-.39.03-8.59,1.61-6.61,22.21-47.03,40.33-30.16,13.52-49.28-36.97-54.72-53.83-.27-.82-1.47-.67-1.53.19-.9,12.04-8.93,15.97-10.82,16.73-.25.1-.43.32-.48.58-2.64,13.92,2.42,23.06,3.76,25.17.13.2-.02.47-.26.47h-66.27c-.24,0-.39-.27-.26-.47,1.34-2.11,6.4-11.25,3.76-25.17-.05-.26-.23-.48-.48-.58-1.88-.76-9.91-4.69-10.82-16.73-.06-.86-1.27-1.01-1.53-.19-5.44,16.86-9.38,26.62-33.02,57.27l-9.75,23.98Z"/><ellipse class="cls-16" cx="362.78" cy="236.25" rx="110.26" ry="87.87"/><ellipse class="cls-10" cx="362.78" cy="236.25" rx="110.26" ry="87.87"/><ellipse class="cls-9" cx="366.78" cy="262.96" rx="3.19" ry=".88" transform="translate(-69.62 147.94) rotate(-20.87)"/><ellipse class="cls-9" cx="358.78" cy="262.96" rx=".88" ry="3.19" transform="translate(-14.76 504.51) rotate(-69.13)"/><g class="cls-19"><path class="cls-17" d="m292.05,201.94c7.15,1.95,22.44-7.98,30.55-16.81,15.95-17.36,30.08-9.05,30.08-9.05,9.21,9.87,42.93-16.41,42.93-16.41,0,0,6.42,6.94,7.05,18.87,0,0,1.49,15.69,19.73,12.71,0,0,8.52-1.64,15.71,4.57,11.74,7.69,35.23,23.06,35.23,23.06,0,0,76.14-84.89-102.24-99.97-179.91-15.21-119.32,107.77-119.32,107.77,0,0,25.03-28.9,40.28-24.74Z"/><path class="cls-10" d="m292.05,201.94c7.15,1.95,22.44-7.98,30.55-16.81,15.95-17.36,30.08-9.05,30.08-9.05,9.21,9.87,42.93-16.41,42.93-16.41,0,0,6.42,6.94,7.05,18.87,0,0,1.49,15.69,19.73,12.71,0,0,8.52-1.64,15.71,4.57,11.74,7.69,35.23,23.06,35.23,23.06,0,0,76.14-84.89-102.24-99.97-179.91-15.21-119.32,107.77-119.32,107.77,0,0,25.03-28.9,40.28-24.74Z"/></g><path class="cls-12" d="m428.67,206.69c0,.92,7.42,1.66,16.58,1.66"/><ellipse class="cls-15" cx="441.49" cy="257.21" rx="18.33" ry="7.5" transform="translate(-34.58 71.65) rotate(-8.93)"/><ellipse class="cls-15" cx="283.98" cy="257.21" rx="7.5" ry="18.33" transform="translate(-14.2 497.81) rotate(-81.07)"/><path class="cls-18" d="m395,293.23c-4.32-7.39-14.37-15.46-32.04-15.41-17.67.05-27.62,8.21-31.95,15.6-6.42,10.94,15.23,10.2,32.9,10.15,17.67-.05,36.36-1.32,31.09-10.33Z"/><path class="cls-10" d="m395,293.23c-4.32-7.39-14.37-15.46-32.04-15.41-17.67.05-27.62,8.21-31.95,15.6-6.42,10.94,15.23,10.2,32.9,10.15,17.67-.05,36.36-1.32,31.09-10.33Z"/><ellipse class="cls-2" cx="440.22" cy="208.36" rx="1.66" ry="8.29" transform="translate(163.12 608.89) rotate(-80.65)"/><ellipse class="cls-2" cx="437.73" cy="230.75" rx="12.43" ry="14.09"/><circle class="cls-7" cx="433.59" cy="223.28" r="3.32"/><path class="cls-14" d="m447.22,221.85c2.45,1.01,6.64,2.83,8.75.4-1.46,3.25-6.63,2.77-9.62,2.47-2.29-.43-1.27-3.78.87-2.87h0Z"/><path class="cls-14" d="m446.34,220.56c3.04.68,6.69-.69,7.71-3.86-.08,2.79-2.36,5.31-4.96,6.18-.93.34-1.81.57-2.88.68-2.31.15-2.17-3.34.13-3h0Z"/><path class="cls-14" d="m444.83,219.55c-.1-.09-.27-.19-.39-.18-.03.07.26.11.38.13,1.54.14,3.39-.31,4.34-1.64.38-.56.56-1.28.57-2.04.23.71.33,1.53.11,2.35-.63,2.11-2.75,3.43-4.8,3.95-.51.12-1.16.19-1.69-.02-1-.32-1.35-1.61-.65-2.39.54-.62,1.49-.69,2.12-.14h0Z"/><circle class="cls-7" cx="428.68" cy="229.66" r=".49"/><path class="cls-4" d="m362.36,367.26c0-7.04,3.62-12.74,8.09-12.74"/><path class="cls-4" d="m362.19,367.26c0-7.04-3.17-12.74-7.08-12.74"/><ellipse class="cls-2" cx="285.24" cy="208.36" rx="8.29" ry="1.66" transform="translate(-30.06 49.1) rotate(-9.35)"/><ellipse class="cls-2" cx="287.73" cy="230.75" rx="12.43" ry="14.09"/><path class="cls-14" d="m279.53,225.14c-2.99.3-8.16.78-9.62-2.47.49.69,1.26,1.01,2.01,1.12,2.3.27,4.69-.6,6.74-1.52.75-.37,1.66-.05,2.03.7.46.91-.16,2.05-1.16,2.17h0Z"/><path class="cls-14" d="m279.64,223.98c-3.72-.3-7.65-2.88-7.81-6.86.48,1.59,1.86,2.81,3.26,3.5,1.32.58,3.07.61,4.45.36.82-.16,1.62.37,1.79,1.2.22,1-.68,1.95-1.69,1.8h0Z"/><path class="cls-14" d="m283.03,222.23c-.61.48-1.5.49-2.2.3-2.78-.6-5.83-3.25-4.68-6.3-.02,1.48.77,2.72,2.1,3.25.87.36,2.38.7,3.19.31-.13,0-.29.09-.39.18,1.51-1.27,3.44.94,1.97,2.26h0Z"/><circle class="cls-7" cx="283.59" cy="223.28" r="3.32"/><circle class="cls-7" cx="278.68" cy="229.47" r=".49"/><path class="cls-11" d="m292.75,114.7s-51.94,13.4-63.7,75.73"/><path class="cls-11" d="m400.19,130.66s5.77,23.43,39.36,23.03c33.59-.4,38.09,54.12,38.09,54.12"/><path class="cls-11" d="m495.7,230.75s13.53,34.03-8.35,66.11"/><path class="cls-11" d="m167.48,313.92s-29.8-17.5-73.54,12.85c0,0-16.4,17.77-44.29,31.17"/><path class="cls-11" d="m142.89,361.71s18.83-2.79,39.2-28.41c20.37-25.62,42.44-27.59,42.44-27.59"/><path class="cls-11" d="m191.7,407.46s-2.15,15.44-38.89,18.52c0,0-39.45,1-40.65,2.47,0,0-13.5-1.25-32.9,14.77"/><path class="cls-11" d="m241.84,441.35s-22.14,21.05-31.99,23.78c-9.84,2.73-17.22,2.46-42.37,28.98"/><path class="cls-5" d="m384.04,383.94s5.78-12.71,11.34-16.98c2-1.54,3.98-1.98,5.64-.33s1.26,3.59-.2,5.6c-4.11,5.67-16.78,11.71-16.78,11.71Z"/><path class="cls-5" d="m383.37,383.58s.25-17.3,4.44-24.9c1.51-2.74,3.53-4.22,6.24-3.17s3.21,3.45,2.56,6.46c-1.85,8.47-13.23,21.62-13.23,21.62Z"/><path class="cls-5" d="m381.9,383.94s-5.78-12.71-11.34-16.98c-2-1.54-3.98-1.98-5.64-.33-1.64,1.63-1.26,3.59.2,5.6,4.11,5.67,16.78,11.71,16.78,11.71Z"/><path class="cls-5" d="m382.58,383.58s-.25-17.3-4.44-24.9c-1.51-2.74-3.53-4.22-6.24-3.17s-3.21,3.45-2.56,6.46c1.85,8.47,13.23,21.62,13.23,21.62Z"/><path class="cls-5" d="m383.03,383.58s6.42-17.67,5.11-27c-.47-3.37-1.96-5.65-5.11-5.63-3.11.02-4.6,2.27-5.09,5.57-1.39,9.32,5.09,27.06,5.09,27.06Z"/><path class="cls-5" d="m384.11,384.75s5.38-3.71,8.59-3.8c1.16-.03,2.04.4,2.28,1.66s-.39,1.97-1.46,2.39c-2.99,1.16-9.41-.24-9.41-.24Z"/><path class="cls-5" d="m383.2,384.75s-5.38-3.71-8.59-3.8c-1.16-.03-2.04.4-2.28,1.66-.24,1.24.39,1.97,1.46,2.39,2.99,1.16,9.41-.24,9.41-.24Z"/><path class="cls-5" d="m342.81,383.94s5.78-12.71,11.34-16.98c2-1.54,3.98-1.98,5.64-.33,1.64,1.63,1.26,3.59-.2,5.6-4.11,5.67-16.78,11.71-16.78,11.71Z"/><path class="cls-5" d="m342.13,383.58s.25-17.3,4.44-24.9c1.51-2.74,3.53-4.22,6.24-3.17s3.21,3.45,2.56,6.46c-1.85,8.47-13.23,21.62-13.23,21.62Z"/><path class="cls-5" d="m340.67,383.94s-5.78-12.71-11.34-16.98c-2-1.54-3.98-1.98-5.64-.33-1.64,1.63-1.26,3.59.2,5.6,4.11,5.67,16.78,11.71,16.78,11.71Z"/><path class="cls-5" d="m341.34,383.58s-.25-17.3-4.44-24.9c-1.51-2.74-3.53-4.22-6.24-3.17-2.67,1.04-3.21,3.45-2.56,6.46,1.85,8.47,13.23,21.62,13.23,21.62Z"/><path class="cls-5" d="m341.8,383.58s6.42-17.67,5.11-27c-.47-3.37-1.96-5.65-5.11-5.63-3.11.02-4.6,2.27-5.09,5.57-1.39,9.32,5.09,27.06,5.09,27.06Z"/><path class="cls-5" d="m342.88,384.75s5.38-3.71,8.59-3.8c1.16-.03,2.04.4,2.28,1.66s-.39,1.97-1.46,2.39c-2.99,1.16-9.41-.24-9.41-.24Z"/><path class="cls-5" d="m341.97,384.75s-5.38-3.71-8.59-3.8c-1.16-.03-2.04.4-2.28,1.66s.39,1.97,1.46,2.39c2.99,1.16,9.41-.24,9.41-.24Z"/><path class="cls-4" d="m390.89,387.95c-2.32,1.42-12.77,2.2-18.95-1.7"/><path class="cls-4" d="m334.24,387.95c2.32,1.42,12.77,2.2,18.95-1.7"/><path class="cls-4" d="m413.48,347.64c-3.55-3.62-10.03-2.03-21.05-2.97"/><path class="cls-4" d="m306.8,346.15c3.55-3.62,10.03-2.03,21.05-2.97"/><path class="cls-4" d="m275.35,412.55c-1.35.92-5.25,6.85-5.19,15.49"/><g class="cls-20"><path class="cls-6" d="m299.02,746.9h-28.27l.14,13.25c0,7.73,6.27,14,14,14s14-6.27,14-14l.14-13.25Z"/><path class="cls-6" d="m242.34,746.9h-28.27l.14,13.25c0,7.73,6.27,14,14,14s14-6.27,14-14l.14-13.25Z"/><path class="cls-6" d="m214.07,746.9h-28.27l.14,13.25c0,7.73,6.27,14,14,14s14-6.27,14-14l.14-13.25Z"/><path class="cls-6" d="m270.49,746.9h-28.27l.14,13.25c0,7.73,6.27,14,14,14s14-6.27,14-14l.14-13.25Z"/><path class="cls-6" d="m355.56,746.9h-28.27l.14,13.25c0,7.73,6.27,14,14,14s14-6.27,14-14l.14-13.25Z"/><path class="cls-6" d="m327.29,746.9h-28.27l.14,13.25c0,7.73,6.27,14,14,14s14-6.27,14-14l.14-13.25Z"/><path class="cls-6" d="m383.71,746.9h-28.27l.14,13.25c0,7.73,6.27,14,14,14s14-6.27,14-14l.14-13.25Z"/><path class="cls-6" d="m410.61,746.9h-28.27l.14,13.25c0,7.73,6.27,14,14,14s14-6.27,14-14l.14-13.25Z"/><path class="cls-6" d="m438.01,746.9h-28.27l.14,13.25c0,7.73,6.27,14,14,14s14-6.27,14-14l.14-13.25Z"/><path class="cls-6" d="m466.53,746.9h-28.27l.14,13.25c0,7.73,6.27,14,14,14s14-6.27,14-14l.14-13.25Z"/><path class="cls-6" d="m283.63,731.23h-28.27l.14,13.25c0,7.73,6.27,14,14,14s14-6.27,14-14l.14-13.25Z"/><path class="cls-6" d="m226.95,731.23h-28.27l.14,13.25c0,7.73,6.27,14,14,14s14-6.27,14-14l.14-13.25Z"/><path class="cls-6" d="m198.68,731.23h-28.27l.14,13.25c0,7.73,6.27,14,14,14s14-6.27,14-14l.14-13.25Z"/><path class="cls-6" d="m255.1,731.23h-28.27l.14,13.25c0,7.73,6.27,14,14,14s14-6.27,14-14l.14-13.25Z"/><path class="cls-6" d="m340.18,731.23h-28.27l.14,13.25c0,7.73,6.27,14,14,14s14-6.27,14-14l.14-13.25Z"/><path class="cls-6" d="m311.9,731.23h-28.27l.14,13.25c0,7.73,6.27,14,14,14s14-6.27,14-14l.14-13.25Z"/><path class="cls-6" d="m368.32,731.23h-28.27l.14,13.25c0,7.73,6.27,14,14,14s14-6.27,14-14l.14-13.25Z"/><path class="cls-6" d="m395.23,731.23h-28.27l.14,13.25c0,7.73,6.27,14,14,14s14-6.27,14-14l.14-13.25Z"/><path class="cls-6" d="m422.63,731.23h-28.27l.14,13.25c0,7.73,6.27,14,14,14s14-6.27,14-14l.14-13.25Z"/><path class="cls-6" d="m451.03,731.23h-28.27l.14,13.25c0,7.73,6.27,14,14,14s14-6.27,14-14l.14-13.25Z"/><path class="cls-6" d="m296.64,718.43h28.27l-.14,13.25c0,7.73-6.27,14-14,14s-14-6.27-14-14l-.14-13.25Z"/><path class="cls-6" d="m353.32,718.43h28.27l-.14,13.25c0,7.73-6.27,14-14,14s-14-6.27-14-14l-.14-13.25Z"/><path class="cls-6" d="m381.59,718.43h28.27l-.14,13.25c0,7.73-6.27,14-14,14s-14-6.27-14-14l-.14-13.25Z"/><path class="cls-6" d="m409.99,718.43h28.27l-.14,13.25c0,7.73-6.27,14-14,14s-14-6.27-14-14l-.14-13.25Z"/><path class="cls-6" d="m325.17,718.43h28.27l-.14,13.25c0,7.73-6.27,14-14,14s-14-6.27-14-14l-.14-13.25Z"/><path class="cls-6" d="m240.1,718.43h28.27l-.14,13.25c0,7.73-6.27,14-14,14s-14-6.27-14-14l-.14-13.25Z"/><path class="cls-6" d="m268.37,718.43h28.27l-.14,13.25c0,7.73-6.27,14-14,14s-14-6.27-14-14l-.14-13.25Z"/><path class="cls-6" d="m211.95,718.43h28.27l-.14,13.25c0,7.73-6.27,14-14,14s-14-6.27-14-14l-.14-13.25Z"/><path class="cls-6" d="m185.04,718.43h28.27l-.14,13.25c0,7.73-6.27,14-14,14s-14-6.27-14-14l-.14-13.25Z"/><path class="cls-6" d="m438.26,718.43h28.27l-.14,13.25c0,7.73-6.27,14-14,14s-14-6.27-14-14l-.14-13.25Z"/><path class="cls-6" d="m310.49,700.69l-28.27-.27v13.25c-.06,7.73,6.15,14.06,13.88,14.13,7.73.07,14.06-6.13,14.13-13.87l.26-13.25Z"/><path class="cls-6" d="m253.81,700.69l-28.27-.27v13.25c-.06,7.73,6.15,14.06,13.88,14.13,7.73.07,14.06-6.13,14.13-13.87l.26-13.25Z"/><path class="cls-6" d="m225.54,700.69l-28.27-.27v13.25c-.06,7.73,6.15,14.06,13.88,14.13s14.06-6.13,14.13-13.87l.26-13.25Z"/><path class="cls-6" d="m197.14,700.69l-28.27-.27v13.25c-.06,7.73,6.15,14.06,13.88,14.13,7.73.07,14.06-6.13,14.13-13.87l.26-13.25Z"/><path class="cls-6" d="m281.96,700.69l-28.27-.27v13.25c-.06,7.73,6.15,14.06,13.88,14.13s14.06-6.13,14.13-13.87l.26-13.25Z"/><path class="cls-6" d="m367.03,700.69l-28.27-.27v13.25c-.06,7.73,6.15,14.06,13.88,14.13s14.06-6.13,14.13-13.87l.26-13.25Z"/><path class="cls-6" d="m338.76,700.69l-28.27-.27v13.25c-.06,7.73,6.15,14.06,13.88,14.13,7.73.07,14.06-6.13,14.13-13.87l.26-13.25Z"/><path class="cls-6" d="m395.18,700.69l-28.27-.27v13.25c-.06,7.73,6.15,14.06,13.88,14.13s14.06-6.13,14.13-13.87l.26-13.25Z"/><path class="cls-6" d="m422.08,700.69l-28.27-.27v13.25c-.06,7.73,6.15,14.06,13.88,14.13s14.06-6.13,14.13-13.87l.26-13.25Z"/><path class="cls-6" d="m297.15,685.8h-28.27l.14,13.25c0,7.73,6.27,14,14,14s14-6.27,14-14l.14-13.25Z"/><path class="cls-6" d="m240.47,685.8h-28.27l.14,13.25c0,7.73,6.27,14,14,14s14-6.27,14-14l.14-13.25Z"/><path class="cls-6" d="m212.2,685.8h-28.27l.14,13.25c0,7.73,6.27,14,14,14s14-6.27,14-14l.14-13.25Z"/><path class="cls-6" d="m450.47,700.69l-28.27-.27v13.25c-.06,7.73,6.15,14.06,13.88,14.13s14.06-6.13,14.13-13.87l.26-13.25Z"/><path class="cls-6" d="m268.62,685.8h-28.27l.14,13.25c0,7.73,6.27,14,14,14s14-6.27,14-14l.14-13.25Z"/><path class="cls-6" d="m353.69,685.8h-28.27l.14,13.25c0,7.73,6.27,14,14,14s14-6.27,14-14l.14-13.25Z"/><path class="cls-6" d="m325.42,685.8h-28.27l.14,13.25c0,7.73,6.27,14,14,14s14-6.27,14-14l.14-13.25Z"/><path class="cls-6" d="m381.84,685.8h-28.27l.14,13.25c0,7.73,6.27,14,14,14s14-6.27,14-14l.14-13.25Z"/><path class="cls-6" d="m408.75,685.8h-28.27l.14,13.25c0,7.73,6.27,14,14,14s14-6.27,14-14l.14-13.25Z"/><path class="cls-6" d="m436.15,685.8h-28.27l.14,13.25c0,7.73,6.27,14,14,14s14-6.27,14-14l.14-13.25Z"/><path class="cls-6" d="m464.67,685.8h-28.27l.14,13.25c0,7.73,6.27,14,14,14s14-6.27,14-14l.14-13.25Z"/><path class="cls-6" d="m283.03,669.44h-28.27l.14,13.25c0,7.73,6.27,14,14,14s14-6.27,14-14l.14-13.25Z"/><path class="cls-6" d="m226.35,669.44h-28.27l.14,13.25c0,7.73,6.27,14,14,14s14-6.27,14-14l.14-13.25Z"/><path class="cls-6" d="m198.08,669.44h-28.27l.14,13.25c0,7.73,6.27,14,14,14s14-6.27,14-14l.14-13.25Z"/><path class="cls-6" d="m254.5,669.44h-28.27l.14,13.25c0,7.73,6.27,14,14,14s14-6.27,14-14l.14-13.25Z"/><path class="cls-6" d="m339.57,669.44h-28.27l.14,13.25c0,7.73,6.27,14,14,14s14-6.27,14-14l.14-13.25Z"/><path class="cls-6" d="m311.3,669.44h-28.27l.14,13.25c0,7.73,6.27,14,14,14s14-6.27,14-14l.14-13.25Z"/><path class="cls-6" d="m367.72,669.44h-28.27l.14,13.25c0,7.73,6.27,14,14,14s14-6.27,14-14l.14-13.25Z"/><path class="cls-6" d="m394.63,669.44h-28.27l.14,13.25c0,7.73,6.27,14,14,14s14-6.27,14-14l.14-13.25Z"/><path class="cls-6" d="m422.02,669.44h-28.27l.14,13.25c0,7.73,6.27,14,14,14s14-6.27,14-14l.14-13.25Z"/><path class="cls-6" d="m450.43,669.44h-28.27l.14,13.25c0,7.73,6.27,14,14,14s14-6.27,14-14l.14-13.25Z"/><path class="cls-6" d="m294.78,653.17h28.27l-.14,13.25c0,7.73-6.27,14-14,14s-14-6.27-14-14l-.14-13.25Z"/><path class="cls-6" d="m351.46,653.17h28.27l-.14,13.25c0,7.73-6.27,14-14,14s-14-6.27-14-14l-.14-13.25Z"/><path class="cls-6" d="m379.73,653.17h28.27l-.14,13.25c0,7.73-6.27,14-14,14s-14-6.27-14-14l-.14-13.25Z"/><path class="cls-6" d="m408.13,653.17h28.27l-.14,13.25c0,7.73-6.27,14-14,14s-14-6.27-14-14l-.14-13.25Z"/><path class="cls-6" d="m323.31,653.17h28.27l-.14,13.25c0,7.73-6.27,14-14,14s-14-6.27-14-14l-.14-13.25Z"/><path class="cls-6" d="m238.24,653.17h28.27l-.14,13.25c0,7.73-6.27,14-14,14s-14-6.27-14-14l-.14-13.25Z"/><path class="cls-6" d="m266.51,653.17h28.27l-.14,13.25c0,7.73-6.27,14-14,14s-14-6.27-14-14l-.14-13.25Z"/><path class="cls-6" d="m210.09,653.17h28.27l-.14,13.25c0,7.73-6.27,14-14,14s-14-6.27-14-14l-.14-13.25Z"/><path class="cls-6" d="m183.18,653.17h28.27l-.14,13.25c0,7.73-6.27,14-14,14s-14-6.27-14-14l-.14-13.25Z"/><path class="cls-6" d="m436.4,653.17h28.27l-.14,13.25c0,7.73-6.27,14-14,14s-14-6.27-14-14l-.14-13.25Z"/><path class="cls-6" d="m308.43,636.81h28.27l-.14,13.25c0,7.73-6.27,14-14,14s-14-6.27-14-14l-.14-13.25Z"/><path class="cls-6" d="m365.11,636.81h28.27l-.14,13.25c0,7.73-6.27,14-14,14s-14-6.27-14-14l-.14-13.25Z"/><path class="cls-6" d="m393.38,636.81h28.27l-.14,13.25c0,7.73-6.27,14-14,14s-14-6.27-14-14l-.14-13.25Z"/><path class="cls-6" d="m421.78,636.81h28.27l-.14,13.25c0,7.73-6.27,14-14,14s-14-6.27-14-14l-.14-13.25Z"/><path class="cls-6" d="m336.96,636.81h28.27l-.14,13.25c0,7.73-6.27,14-14,14s-14-6.27-14-14l-.14-13.25Z"/><path class="cls-6" d="m251.89,636.81h28.27l-.14,13.25c0,7.73-6.27,14-14,14s-14-6.27-14-14l-.14-13.25Z"/><path class="cls-6" d="m280.16,636.81h28.27l-.14,13.25c0,7.73-6.27,14-14,14s-14-6.27-14-14l-.14-13.25Z"/><path class="cls-6" d="m223.74,636.81h28.27l-.14,13.25c0,7.73-6.27,14-14,14s-14-6.27-14-14l-.14-13.25Z"/><path class="cls-6" d="m196.83,636.81h28.27l-.14,13.25c0,7.73-6.27,14-14,14s-14-6.27-14-14l-.14-13.25Z"/><path class="cls-6" d="m465.08,622.23l-28.26-.86-.27,13.25c-.24,7.73,5.84,14.18,13.56,14.42s14.18-5.84,14.42-13.56l.54-13.24Z"/><path class="cls-6" d="m169.44,636.81h28.27l-.14,13.25c0,7.73-6.27,14-14,14s-14-6.27-14-14l-.14-13.25Z"/><path class="cls-6" d="m293.81,621.37h28.27l-.14,13.25c0,7.73-6.27,14-14,14s-14-6.27-14-14l-.14-13.25Z"/><path class="cls-6" d="m378.76,621.37h28.27l-.14,13.25c0,7.73-6.27,14-14,14s-14-6.27-14-14l-.14-13.25Z"/><path class="cls-6" d="m407.16,621.37h28.27l-.14,13.25c0,7.73-6.27,14-14,14s-14-6.27-14-14l-.14-13.25Z"/><path class="cls-6" d="m322.34,621.37h28.27l-.14,13.25c0,7.73-6.27,14-14,14s-14-6.27-14-14l-.14-13.25Z"/><path class="cls-6" d="m237.26,621.37h28.27l-.14,13.25c0,7.73-6.27,14-14,14s-14-6.27-14-14l-.14-13.25Z"/><path class="cls-6" d="m265.54,621.37h28.27l-.14,13.25c0,7.73-6.27,14-14,14s-14-6.27-14-14l-.14-13.25Z"/><path class="cls-6" d="m209.12,621.37h28.27l-.14,13.25c0,7.73-6.27,14-14,14s-14-6.27-14-14l-.14-13.25Z"/><path class="cls-6" d="m182.21,621.37h28.27l-.14,13.25c0,7.73-6.27,14-14,14s-14-6.27-14-14l-.14-13.25Z"/><path class="cls-6" d="m350.49,621.37h28.27l-.14,13.25c0,7.73-6.27,14-14,14s-14-6.27-14-14l-.14-13.25Z"/><path class="cls-6" d="m307.46,605.01h28.27l-.14,13.25c0,7.73-6.27,14-14,14s-14-6.27-14-14l-.14-13.25Z"/><path class="cls-6" d="m364.13,605.01h28.27l-.14,13.25c0,7.73-6.27,14-14,14s-14-6.27-14-14l-.14-13.25Z"/><path class="cls-6" d="m392.41,605.01h28.27l-.14,13.25c0,7.73-6.27,14-14,14s-14-6.27-14-14l-.14-13.25Z"/><path class="cls-6" d="m420.81,605.01h28.27l-.14,13.25c0,7.73-6.27,14-14,14s-14-6.27-14-14l-.14-13.25Z"/><path class="cls-6" d="m335.99,605.01h28.27l-.14,13.25c0,7.73-6.27,14-14,14s-14-6.27-14-14l-.14-13.25Z"/><path class="cls-6" d="m250.91,605.01h28.27l-.14,13.25c0,7.73-6.27,14-14,14s-14-6.27-14-14l-.14-13.25Z"/><path class="cls-6" d="m279.18,605.01h28.27l-.14,13.25c0,7.73-6.27,14-14,14s-14-6.27-14-14l-.14-13.25Z"/><path class="cls-6" d="m222.77,605.01h28.27l-.14,13.25c0,7.73-6.27,14-14,14s-14-6.27-14-14l-.14-13.25Z"/><path class="cls-6" d="m195.86,605.01h28.27l-.14,13.25c0,7.73-6.27,14-14,14s-14-6.27-14-14l-.14-13.25Z"/><path class="cls-6" d="m168.46,605.01h28.27l-.14,13.25c0,7.73-6.27,14-14,14s-14-6.27-14-14l-.14-13.25Z"/><path class="cls-6" d="m295.98,588.98h-28.27l.14,13.25c0,7.73,6.27,14,14,14s14-6.27,14-14l.14-13.25Z"/><path class="cls-6" d="m239.3,588.98h-28.27l.14,13.25c0,7.73,6.27,14,14,14s14-6.27,14-14l.14-13.25Z"/><path class="cls-6" d="m211.03,588.98h-28.27l.14,13.25c0,7.73,6.27,14,14,14s14-6.27,14-14l.14-13.25Z"/><path class="cls-6" d="m267.45,588.98h-28.27l.14,13.25c0,7.73,6.27,14,14,14s14-6.27,14-14l.14-13.25Z"/><path class="cls-6" d="m352.52,588.98h-28.27l.14,13.25c0,7.73,6.27,14,14,14s14-6.27,14-14l.14-13.25Z"/><path class="cls-6" d="m324.25,588.98h-28.27l.14,13.25c0,7.73,6.27,14,14,14s14-6.27,14-14l.14-13.25Z"/><path class="cls-6" d="m380.67,588.98h-28.27l.14,13.25c0,7.73,6.27,14,14,14s14-6.27,14-14l.14-13.25Z"/><path class="cls-6" d="m407.58,588.98h-28.27l.14,13.25c0,7.73,6.27,14,14,14s14-6.27,14-14l.14-13.25Z"/><path class="cls-6" d="m434.97,588.98h-28.27l.14,13.25c0,7.73,6.27,14,14,14s14-6.27,14-14l.14-13.25Z"/><path class="cls-6" d="m463.5,588.98h-28.27l.14,13.25c0,7.73,6.27,14,14,14s14-6.27,14-14l.14-13.25Z"/><path class="cls-6" d="m280.6,573.31h-28.27l.14,13.25c0,7.73,6.27,14,14,14s14-6.27,14-14l.14-13.25Z"/><path class="cls-6" d="m223.92,573.31h-28.27l.14,13.25c0,7.73,6.27,14,14,14s14-6.27,14-14l.14-13.25Z"/><path class="cls-6" d="m195.65,573.31h-28.27l.14,13.25c0,7.73,6.27,14,14,14s14-6.27,14-14l.14-13.25Z"/><path class="cls-6" d="m252.07,573.31h-28.27l.14,13.25c0,7.73,6.27,14,14,14s14-6.27,14-14l.14-13.25Z"/><path class="cls-6" d="m337.14,573.31h-28.27l.14,13.25c0,7.73,6.27,14,14,14s14-6.27,14-14l.14-13.25Z"/><path class="cls-6" d="m308.87,573.31h-28.27l.14,13.25c0,7.73,6.27,14,14,14s14-6.27,14-14l.14-13.25Z"/><path class="cls-6" d="m365.29,573.31h-28.27l.14,13.25c0,7.73,6.27,14,14,14s14-6.27,14-14l.14-13.25Z"/><path class="cls-6" d="m392.2,573.31h-28.27l.14,13.25c0,7.73,6.27,14,14,14s14-6.27,14-14l.14-13.25Z"/><path class="cls-6" d="m419.59,573.31h-28.27l.14,13.25c0,7.73,6.27,14,14,14s14-6.27,14-14l.14-13.25Z"/><path class="cls-6" d="m448,573.31h-28.27l.14,13.25c0,7.73,6.27,14,14,14s14-6.27,14-14l.14-13.25Z"/><path class="cls-6" d="m293.61,560.51h28.27l-.14,13.25c0,7.73-6.27,14-14,14s-14-6.27-14-14l-.14-13.25Z"/><path class="cls-6" d="m350.29,560.51h28.27l-.14,13.25c0,7.73-6.27,14-14,14s-14-6.27-14-14l-.14-13.25Z"/><path class="cls-6" d="m378.56,560.51h28.27l-.14,13.25c0,7.73-6.27,14-14,14s-14-6.27-14-14l-.14-13.25Z"/><path class="cls-6" d="m406.96,560.51h28.27l-.14,13.25c0,7.73-6.27,14-14,14s-14-6.27-14-14l-.14-13.25Z"/><path class="cls-6" d="m322.14,560.51h28.27l-.14,13.25c0,7.73-6.27,14-14,14s-14-6.27-14-14l-.14-13.25Z"/><path class="cls-6" d="m237.07,560.51h28.27l-.14,13.25c0,7.73-6.27,14-14,14s-14-6.27-14-14l-.14-13.25Z"/><path class="cls-6" d="m265.34,560.51h28.27l-.14,13.25c0,7.73-6.27,14-14,14s-14-6.27-14-14l-.14-13.25Z"/><path class="cls-6" d="m208.92,560.51h28.27l-.14,13.25c0,7.73-6.27,14-14,14s-14-6.27-14-14l-.14-13.25Z"/><path class="cls-6" d="m182.01,560.51h28.27l-.14,13.25c0,7.73-6.27,14-14,14s-14-6.27-14-14l-.14-13.25Z"/><path class="cls-6" d="m435.23,560.51h28.27l-.14,13.25c0,7.73-6.27,14-14,14s-14-6.27-14-14l-.14-13.25Z"/><path class="cls-6" d="m305.13,542.86l-28.27-.27v13.25c-.06,7.73,6.15,14.06,13.88,14.13,7.73.07,14.06-6.13,14.13-13.87l.26-13.25Z"/><path class="cls-6" d="m248.45,542.86l-28.27-.27v13.25c-.06,7.73,6.15,14.06,13.88,14.13,7.73.07,14.06-6.13,14.13-13.87l.26-13.25Z"/><path class="cls-6" d="m220.18,542.86l-28.27-.27v13.25c-.06,7.73,6.15,14.06,13.88,14.13s14.06-6.13,14.13-13.87l.26-13.25Z"/><path class="cls-6" d="m191.78,542.86l-28.27-.27v13.25c-.06,7.73,6.15,14.06,13.88,14.13,7.73.07,14.06-6.13,14.13-13.87l.26-13.25Z"/><path class="cls-6" d="m276.6,542.86l-28.27-.27v13.25c-.06,7.73,6.15,14.06,13.88,14.13s14.06-6.13,14.13-13.87l.26-13.25Z"/><path class="cls-6" d="m361.67,542.86l-28.27-.27v13.25c-.06,7.73,6.15,14.06,13.88,14.13s14.06-6.13,14.13-13.87l.26-13.25Z"/><path class="cls-6" d="m333.4,542.86l-28.27-.27v13.25c-.06,7.73,6.15,14.06,13.88,14.13,7.73.07,14.06-6.13,14.13-13.87l.26-13.25Z"/><path class="cls-6" d="m389.81,542.86l-28.27-.27v13.25c-.06,7.73,6.15,14.06,13.88,14.13s14.06-6.13,14.13-13.87l.26-13.25Z"/><path class="cls-6" d="m416.72,542.86l-28.27-.27v13.25c-.06,7.73,6.15,14.06,13.88,14.13s14.06-6.13,14.13-13.87l.26-13.25Z"/><path class="cls-6" d="m291.79,527.97h-28.27l.14,13.25c0,7.73,6.27,14,14,14s14-6.27,14-14l.14-13.25Z"/><path class="cls-6" d="m235.11,527.97h-28.27l.14,13.25c0,7.73,6.27,14,14,14s14-6.27,14-14l.14-13.25Z"/><path class="cls-6" d="m206.84,527.97h-28.27l.14,13.25c0,7.73,6.27,14,14,14s14-6.27,14-14l.14-13.25Z"/><path class="cls-6" d="m445.11,542.86l-28.27-.27v13.25c-.06,7.73,6.15,14.06,13.88,14.13s14.06-6.13,14.13-13.87l.26-13.25Z"/><path class="cls-6" d="m263.26,527.97h-28.27l.14,13.25c0,7.73,6.27,14,14,14s14-6.27,14-14l.14-13.25Z"/><path class="cls-6" d="m348.33,527.97h-28.27l.14,13.25c0,7.73,6.27,14,14,14s14-6.27,14-14l.14-13.25Z"/><path class="cls-6" d="m320.06,527.97h-28.27l.14,13.25c0,7.73,6.27,14,14,14s14-6.27,14-14l.14-13.25Z"/><path class="cls-6" d="m376.48,527.97h-28.27l.14,13.25c0,7.73,6.27,14,14,14s14-6.27,14-14l.14-13.25Z"/><path class="cls-6" d="m403.39,527.97h-28.27l.14,13.25c0,7.73,6.27,14,14,14s14-6.27,14-14l.14-13.25Z"/><path class="cls-6" d="m430.78,527.97h-28.27l.14,13.25c0,7.73,6.27,14,14,14s14-6.27,14-14l.14-13.25Z"/><path class="cls-6" d="m459.31,527.97h-28.27l.14,13.25c0,7.73,6.27,14,14,14s14-6.27,14-14l.14-13.25Z"/><path class="cls-6" d="m277.66,511.61h-28.27l.14,13.25c0,7.73,6.27,14,14,14s14-6.27,14-14l.14-13.25Z"/><path class="cls-6" d="m220.98,511.61h-28.27l.14,13.25c0,7.73,6.27,14,14,14s14-6.27,14-14l.14-13.25Z"/><path class="cls-6" d="m192.71,511.61h-28.27l.14,13.25c0,7.73,6.27,14,14,14s14-6.27,14-14l.14-13.25Z"/><path class="cls-6" d="m249.13,511.61h-28.27l.14,13.25c0,7.73,6.27,14,14,14s14-6.27,14-14l.14-13.25Z"/><path class="cls-6" d="m334.21,511.61h-28.27l.14,13.25c0,7.73,6.27,14,14,14s14-6.27,14-14l.14-13.25Z"/><path class="cls-6" d="m305.93,511.61h-28.27l.14,13.25c0,7.73,6.27,14,14,14s14-6.27,14-14l.14-13.25Z"/><path class="cls-6" d="m362.35,511.61h-28.27l.14,13.25c0,7.73,6.27,14,14,14s14-6.27,14-14l.14-13.25Z"/><path class="cls-6" d="m389.26,511.61h-28.27l.14,13.25c0,7.73,6.27,14,14,14s14-6.27,14-14l.14-13.25Z"/><path class="cls-6" d="m416.66,511.61h-28.27l.14,13.25c0,7.73,6.27,14,14,14s14-6.27,14-14l.14-13.25Z"/><path class="cls-6" d="m445.06,511.61h-28.27l.14,13.25c0,7.73,6.27,14,14,14s14-6.27,14-14l.14-13.25Z"/><path class="cls-6" d="m289.42,495.34h28.27l-.14,13.25c0,7.73-6.27,14-14,14s-14-6.27-14-14l-.14-13.25Z"/><path class="cls-6" d="m346.09,495.34h28.27l-.14,13.25c0,7.73-6.27,14-14,14s-14-6.27-14-14l-.14-13.25Z"/><path class="cls-6" d="m374.37,495.34h28.27l-.14,13.25c0,7.73-6.27,14-14,14s-14-6.27-14-14l-.14-13.25Z"/><path class="cls-6" d="m402.77,495.34h28.27l-.14,13.25c0,7.73-6.27,14-14,14s-14-6.27-14-14l-.14-13.25Z"/><path class="cls-6" d="m317.95,495.34h28.27l-.14,13.25c0,7.73-6.27,14-14,14s-14-6.27-14-14l-.14-13.25Z"/><path class="cls-6" d="m232.87,495.34h28.27l-.14,13.25c0,7.73-6.27,14-14,14s-14-6.27-14-14l-.14-13.25Z"/><path class="cls-6" d="m261.14,495.34h28.27l-.14,13.25c0,7.73-6.27,14-14,14s-14-6.27-14-14l-.14-13.25Z"/><path class="cls-6" d="m204.73,495.34h28.27l-.14,13.25c0,7.73-6.27,14-14,14s-14-6.27-14-14l-.14-13.25Z"/><path class="cls-6" d="m177.82,495.34h28.27l-.14,13.25c0,7.73-6.27,14-14,14s-14-6.27-14-14l-.14-13.25Z"/><path class="cls-6" d="m431.04,495.34h28.27l-.14,13.25c0,7.73-6.27,14-14,14s-14-6.27-14-14l-.14-13.25Z"/><path class="cls-6" d="m303.06,478.98h28.27l-.14,13.25c0,7.73-6.27,14-14,14s-14-6.27-14-14l-.14-13.25Z"/><path class="cls-6" d="m359.74,478.98h28.27l-.14,13.25c0,7.73-6.27,14-14,14s-14-6.27-14-14l-.14-13.25Z"/><path class="cls-6" d="m388.01,478.98h28.27l-.14,13.25c0,7.73-6.27,14-14,14s-14-6.27-14-14l-.14-13.25Z"/><path class="cls-6" d="m416.42,478.98h28.27l-.14,13.25c0,7.73-6.27,14-14,14s-14-6.27-14-14l-.14-13.25Z"/><path class="cls-6" d="m331.6,478.98h28.27l-.14,13.25c0,7.73-6.27,14-14,14s-14-6.27-14-14l-.14-13.25Z"/><path class="cls-6" d="m246.52,478.98h28.27l-.14,13.25c0,7.73-6.27,14-14,14s-14-6.27-14-14l-.14-13.25Z"/><path class="cls-6" d="m274.79,478.98h28.27l-.14,13.25c0,7.73-6.27,14-14,14s-14-6.27-14-14l-.14-13.25Z"/><path class="cls-6" d="m218.37,478.98h28.27l-.14,13.25c0,7.73-6.27,14-14,14s-14-6.27-14-14l-.14-13.25Z"/><path class="cls-6" d="m191.47,478.98h28.27l-.14,13.25c0,7.73-6.27,14-14,14s-14-6.27-14-14l-.14-13.25Z"/><path class="cls-6" d="m459.71,464.4l-28.26-.86-.27,13.25c-.24,7.73,5.84,14.18,13.56,14.42s14.18-5.84,14.42-13.56l.54-13.24Z"/><path class="cls-6" d="m164.07,478.98h28.27l-.14,13.25c0,7.73-6.27,14-14,14s-14-6.27-14-14l-.14-13.25Z"/><path class="cls-6" d="m288.44,463.53h28.27l-.14,13.25c0,7.73-6.27,14-14,14s-14-6.27-14-14l-.14-13.25Z"/><path class="cls-6" d="m373.39,463.53h28.27l-.14,13.25c0,7.73-6.27,14-14,14s-14-6.27-14-14l-.14-13.25Z"/><path class="cls-6" d="m401.79,463.53h28.27l-.14,13.25c0,7.73-6.27,14-14,14s-14-6.27-14-14l-.14-13.25Z"/><path class="cls-6" d="m316.97,463.53h28.27l-.14,13.25c0,7.73-6.27,14-14,14s-14-6.27-14-14l-.14-13.25Z"/><path class="cls-6" d="m231.9,463.53h28.27l-.14,13.25c0,7.73-6.27,14-14,14s-14-6.27-14-14l-.14-13.25Z"/><path class="cls-6" d="m260.17,463.53h28.27l-.14,13.25c0,7.73-6.27,14-14,14s-14-6.27-14-14l-.14-13.25Z"/><path class="cls-6" d="m203.75,463.53h28.27l-.14,13.25c0,7.73-6.27,14-14,14s-14-6.27-14-14l-.14-13.25Z"/><path class="cls-6" d="m176.84,463.53h28.27l-.14,13.25c0,7.73-6.27,14-14,14s-14-6.27-14-14l-.14-13.25Z"/><path class="cls-6" d="m345.12,463.53h28.27l-.14,13.25c0,7.73-6.27,14-14,14s-14-6.27-14-14l-.14-13.25Z"/><path class="cls-6" d="m302.09,447.18h28.27l-.14,13.25c0,7.73-6.27,14-14,14s-14-6.27-14-14l-.14-13.25Z"/><path class="cls-6" d="m358.77,447.18h28.27l-.14,13.25c0,7.73-6.27,14-14,14s-14-6.27-14-14l-.14-13.25Z"/><path class="cls-6" d="m387.04,447.18h28.27l-.14,13.25c0,7.73-6.27,14-14,14s-14-6.27-14-14l-.14-13.25Z"/><path class="cls-6" d="m415.44,447.18h28.27l-.14,13.25c0,7.73-6.27,14-14,14s-14-6.27-14-14l-.14-13.25Z"/><path class="cls-6" d="m330.62,447.18h28.27l-.14,13.25c0,7.73-6.27,14-14,14s-14-6.27-14-14l-.14-13.25Z"/><path class="cls-6" d="m245.55,447.18h28.27l-.14,13.25c0,7.73-6.27,14-14,14s-14-6.27-14-14l-.14-13.25Z"/><path class="cls-6" d="m273.82,447.18h28.27l-.14,13.25c0,7.73-6.27,14-14,14s-14-6.27-14-14l-.14-13.25Z"/><path class="cls-6" d="m217.4,447.18h28.27l-.14,13.25c0,7.73-6.27,14-14,14s-14-6.27-14-14l-.14-13.25Z"/><path class="cls-6" d="m190.49,447.18h28.27l-.14,13.25c0,7.73-6.27,14-14,14s-14-6.27-14-14l-.14-13.25Z"/><path class="cls-6" d="m290.62,431.15h-28.27l.14,13.25c0,7.73,6.27,14,14,14s14-6.27,14-14l.14-13.25Z"/><path class="cls-6" d="m233.94,431.15h-28.27l.14,13.25c0,7.73,6.27,14,14,14s14-6.27,14-14l.14-13.25Z"/><path class="cls-6" d="m205.67,431.15h-28.27l.14,13.25c0,7.73,6.27,14,14,14s14-6.27,14-14l.14-13.25Z"/><path class="cls-6" d="m262.09,431.15h-28.27l.14,13.25c0,7.73,6.27,14,14,14s14-6.27,14-14l.14-13.25Z"/><path class="cls-6" d="m347.16,431.15h-28.27l.14,13.25c0,7.73,6.27,14,14,14s14-6.27,14-14l.14-13.25Z"/><path class="cls-6" d="m318.89,431.15h-28.27l.14,13.25c0,7.73,6.27,14,14,14s14-6.27,14-14l.14-13.25Z"/><path class="cls-6" d="m375.31,431.15h-28.27l.14,13.25c0,7.73,6.27,14,14,14s14-6.27,14-14l.14-13.25Z"/><path class="cls-6" d="m402.22,431.15h-28.27l.14,13.25c0,7.73,6.27,14,14,14s14-6.27,14-14l.14-13.25Z"/><path class="cls-6" d="m429.61,431.15h-28.27l.14,13.25c0,7.73,6.27,14,14,14s14-6.27,14-14l.14-13.25Z"/><path class="cls-6" d="m458.14,431.15h-28.27l.14,13.25c0,7.73,6.27,14,14,14s14-6.27,14-14l.14-13.25Z"/><path class="cls-6" d="m275.23,415.48h-28.27l.14,13.25c0,7.73,6.27,14,14,14s14-6.27,14-14l.14-13.25Z"/><path class="cls-6" d="m218.56,415.48h-28.27l.14,13.25c0,7.73,6.27,14,14,14s14-6.27,14-14l.14-13.25Z"/><path class="cls-6" d="m246.7,415.48h-28.27l.14,13.25c0,7.73,6.27,14,14,14s14-6.27,14-14l.14-13.25Z"/><path class="cls-6" d="m331.78,415.48h-28.27l.14,13.25c0,7.73,6.27,14,14,14s14-6.27,14-14l.14-13.25Z"/><path class="cls-6" d="m303.51,415.48h-28.27l.14,13.25c0,7.73,6.27,14,14,14s14-6.27,14-14l.14-13.25Z"/><path class="cls-6" d="m359.92,415.48h-28.27l.14,13.25c0,7.73,6.27,14,14,14s14-6.27,14-14l.14-13.25Z"/><path class="cls-6" d="m386.83,415.48h-28.27l.14,13.25c0,7.73,6.27,14,14,14s14-6.27,14-14l.14-13.25Z"/><path class="cls-6" d="m414.23,415.48h-28.27l.14,13.25c0,7.73,6.27,14,14,14s14-6.27,14-14l.14-13.25Z"/><path class="cls-6" d="m442.63,415.48h-28.27l.14,13.25c0,7.73,6.27,14,14,14s14-6.27,14-14l.14-13.25Z"/><path class="cls-6" d="m288.24,402.68h28.27l-.14,13.25c0,7.73-6.27,14-14,14s-14-6.27-14-14l-.14-13.25Z"/><path class="cls-6" d="m344.92,402.68h28.27l-.14,13.25c0,7.73-6.27,14-14,14s-14-6.27-14-14l-.14-13.25Z"/><path class="cls-6" d="m373.19,402.68h28.27l-.14,13.25c0,7.73-6.27,14-14,14s-14-6.27-14-14l-.14-13.25Z"/><path class="cls-6" d="m401.59,402.68h28.27l-.14,13.25c0,7.73-6.27,14-14,14s-14-6.27-14-14l-.14-13.25Z"/><path class="cls-6" d="m316.77,402.68h28.27l-.14,13.25c0,7.73-6.27,14-14,14s-14-6.27-14-14l-.14-13.25Z"/><path class="cls-6" d="m231.7,402.68h28.27l-.14,13.25c0,7.73-6.27,14-14,14s-14-6.27-14-14l-.14-13.25Z"/><path class="cls-6" d="m259.97,402.68h28.27l-.14,13.25c0,7.73-6.27,14-14,14s-14-6.27-14-14l-.14-13.25Z"/><path class="cls-6" d="m203.55,402.68h28.27l-.14,13.25c0,7.73-6.27,14-14,14s-14-6.27-14-14l-.14-13.25Z"/><path class="cls-6" d="m176.65,402.68h28.27l-.14,13.25c0,7.73-6.27,14-14,14s-14-6.27-14-14l-.14-13.25Z"/><path class="cls-6" d="m429.87,402.68h28.27l-.14,13.25c0,7.73-6.27,14-14,14s-14-6.27-14-14l-.14-13.25Z"/></g><path class="cls-10" d="m362,710.83c58.66-24.48,72.95-92.95,72.95-92.95,28.95-119.54-22.64-189.1-35.43-204.06-1.67-1.95-4.1-3.06-6.66-3.06h-61.14c-2.01,0-3.92.86-5.26,2.36-11.92,13.37-66.95,83.24-37.52,204.77,0,0,14.22,63.29-75.32,38.61-.12-.03-.24-.07-.36-.12l-24.32-8.82c-.22-.08-.44-.18-.64-.29-3.56-1.97-37.06-20.08-7.91,13.42,30.99,35.63,40.64,40.56,72.3,50.14,32.23,9.75,63.04,9.73,109.32,0"/><path class="cls-11" d="m357.49,131.45s-9.02,26.25-44.56,33.08c-35.54,6.83-79.56,35.27-95.69,71.9"/><path class="cls-1" d="m275.67,181.07s-4.5-3.41-4.54-9.61c-.04-6.2,6.49-3.57,6.49-3.57,0,0,6.24,3.56,9.7,1.48,3.51-2.1,6.56-2.09,6.56-2.09l10.91-1.5s5.95-3.81,4.34-3.97c-1.61-.16-5.71,1.33-5.71,1.33,0,0-3.96,1.58-4.89-2.24s.11-3.02.92-5.29,5.64-.81,5.64-.81l9.6-1.14s12.87-6.12,6.92-6.61-7.19.13-7.19.13c0,0-4.26-.73-11.89,3.54-7.63,4.27-10.31,7.9-10.31,7.9,0,0-3.09,4.67-12.1,6.86-9.01,2.19-11.04-.44-14.73-1.42-3.69-.98-10.02-7.03-10.02-7.03,0,0-4.07-8.85-.88-10.12s8.17,7.69,18.22,9.31c10.04,1.62,5.84-1.81,5.84-1.81-10.08-7.82-5.87-11.09-5.87-11.09,0,0,1.82-2.06,11.11,2.43,9.29,4.49,7.91-1.09,7.91-1.09,0,0-3.32-12.81.88-13.98s5.69,10.21,5.69,10.21c2.87.85,2.94-1.86,6.16-3.94,3.22-2.08-.08-2.09-.08-2.09-17.93-9.44-18.5-17.19-18.5-17.19,0,0,.45-2.84-2.92-1.35s-13.23,1.96-13.23,1.96c-14.16-1.76-11.54-10.7-14.96-24.7-3.42-14,3.05-14.37,3.05-14.37,0,0,9.75.55,7,10.29-2.75,9.74,4.31,15.03,4.31,15.03,0,0,11.28,2.02,12.3-1.17,1.02-3.19.13-11.11.13-11.11,0,0,7.67-18.67,9.05-.59,1.38,18.08,6.74,18.82,9.08,22.71,2.34,3.9,2.21.11,2.21.11,0,0-2.07-13.42,6.75-12.07,8.82,1.36,1.18,13.47,3.85,20.04,2.67,6.57,8.93,4.92,14.67,9.92,5.74,5,2.95-1.76,2.95-1.76-2.28-20.41-16.34-27.88-21.35-31.44-5.01-3.56-25.77-19.06-25.77-19.06,0,0-9.58-8.87-5.48-11.22,4.1-2.36,14.41,8.14,14.41,8.14,0,0,16.52,11.66,11.37,4.21s-5.6-17.21-5.6-17.21c0,0,.62-13.56,6.52-14.67,5.9-1.12,3.11,19.53,4.27,23.73,1.17,4.2,6.64,14.22,12.57,20.21,5.92,5.98,4.01-1.05,4.01-1.05-6.35-8.55-7.9-33.22-7.9-33.22,0,0,3.48-19.71,14.85-22.4,11.37-2.69-2.81,15.95-2.81,15.95,0,0-1.88,20.87,6.39,15.85,8.27-5.02,9.5-13.73,18.77-22.14,9.27-8.41,7.45,5.15,7.45,5.15,0,0-7.79,20.78-15.48,22.06-7.69,1.27-7.88,34.6-6.79,39.1,1.09,4.51,2.64.47,2.64.47-.95-2.82-1.04-11.91-1.04-11.91,2.06-10.78,9.33-14.62,9.33-14.62,0,0,10.18-2.59,3.96,8.66-6.22,11.25-3.1,11.47-4.55,16.6-1.45,5.13,1.74,2.75,1.74,2.75,0,0,2.9-11.46,10.41-13.61,7.51-2.16,3.61,11.59,3.61,11.59,0,0-3.15,6.28-8.4,9.14-5.25,2.86-1.9,4.57-1.9,4.57,18.12-4.38,17.04-1.89,23.01,1.19,5.97,3.08,4.52-.89,4.52-.89l-13.39-11.33s-5.85-5.09-2.08-7.82c3.76-2.73,9.13,1.5,12.79,4.48,3.66,2.98,4.79.98,4.79.98,4.53-4.2-4.6-11.5-4.6-11.5,0,0-5.04-3.86-8.69-2.14-3.65,1.72-23.25-13.07-17.81-22.95,5.44-9.88,9.5-.03,9.5-.03,0,0,2.67,13.37,8.38,11.17,5.71-2.2,9.55,2.87,13.25,6.25,3.7,3.38,2.66-.43,2.66-.43,3.06-5.07-5.06-17.86-5.06-17.86-21.77-20.2-16.03-41.61-16.03-41.61,0,0,1.85-5.16,6.5-5.77,4.65-.61,3.88-2.54,3.88-2.54,4.83-19.13,3.12-12.37,6.99-15.01,3.87-2.64,3.53,19.8,2.86,23.56-.67,3.76-5.26,5.06-5.95,6.32s.08,5.49.37,11.17c.3,5.68,3.65,2.88,3.65,2.88,0,0,1.69-7.05,8.11-11.36,6.43-4.31,7.37,4.26,7.8,8.02.43,3.76-9.04,13.29-9.04,13.29,0,0,1.63,18.66,4.24,16.43,2.61-2.23,3.88-5.94,3.88-5.94,0,0-.04-9.6,7.57-12.96s1.97,13.43,1.97,13.43c-15.02,17.01-11.12,19.27-11.12,19.27,0,0,5.08,2.06,12.77-4.92,7.69-6.97,7.43-24.85,7.43-24.85,0,0,1.03-13.39,5.82-18.11s8.13,16.39,6.59,19.33c-1.54,2.94.75,4.14.68,3.32-.07-.82,4.67-6.17,4.67-6.17,0,0,4.9-.43,3.92,4.05-.98,4.47-8.41,7.32-15.41,18.35-6.99,11.03,7.14,2.39,7.14,2.39,0,0,20.67-23.2,22.8-11.32,2.13,11.88-8.39,13.9-11.44,16.63s-29.96,5.63-29.96,5.63c0,0-12.49,4.66-11.15,10.57,1.34,5.92,7.47.72,7.47.72,0,0,13.17-15.69,15.3-5.18,2.13,10.51-17.26,14.13-17.26,14.13,0,0-6.69,1.96-5.21,9.51,1.48,7.55,16.93,18,12.79,8.21-4.15-9.79.05-15.09.05-15.09,15.46-11.5,9.38.55,9.38.55,0,0-4.97-.39-3.47,7.43,1.51,7.82,5.95.85,5.95.85,0,0,9.23-24.95,16.09-18.69,6.86,6.26-1.75,5.09-2.79,12.04-1.04,6.95,4.11-.08,4.11-.08,0,0,18.52-23.56,22.31-11.27,3.79,12.29-16.58,14.07-16.58,14.07,0,0-5.53,2.68-2.98,3.55,2.55.88,14.88,10.22,8.65,17.35-6.24,7.13-11.83-.34-11.83-.34,0,0-9.36-12.9-12.51-8.23-3.16,4.66-6.63,5.79-6.63,5.79,0,0-4.9.43-9.8.86-4.9.43-5.31,5.13-4.2,5.26s11,1.72,11,1.72c0,0-2.37-.13,11.86.99,14.85,1.18,12.24,9.63,22.02-.83,9.79-10.46,12.96-5.52,12.96-5.52,5.76,9.37-7.69,12.47-7.69,12.47,0,0-8.5-.42-5.36,5.56s-1.3,9.93-1.3,9.93c0,0-7.41,1.99-8.44-4.62,0,0-2.64-4.27-4.13-1.73-1.48,2.54-3.18-1.4-3.18-1.4-5.04-9.99-14.73-7.2-24.15-9.4-9.43-2.2-15.85-5.41-24.27-15.72s-29.33-2.26-29.76,1.07-9.43,6.17-21.34,7.09-25.71,19.32-25.71,19.32c-2.69,3.25-3.94,1.27-4.16.13-.24-1.24-2.33-.48-2.64-.36,0,0-26.86,15.99-31,11.51Z"/><path class="cls-4" d="m454.2,421.98s-8.82,4.06-20.73-5.73"/><ellipse class="cls-13" cx="300.17" cy="706.46" rx="167.39" ry="26.18"/></g></svg>