<?xml version="1.0" encoding="UTF-8"?><svg id="Blæk_skærm" xmlns="http://www.w3.org/2000/svg" width="1920" height="1080" viewBox="0 0 1920 1080"><defs><style>.cls-1{fill:#231f20;stroke:#231f20;stroke-miterlimit:10;}</style></defs><path class="cls-1" d="m1006.93,898.55s42.83,77.91,48.21,242.35c5.38,164.44,101.2,190.13,101.2,190.13,0,0,136.11,20.46,137.63-152.35,0,0-23.79-91.97-111.68-195.46,0,0-41.19-51.33-21.39-132.99,0,0,24.28-11.4,56.08,64.85,0,0,40.08,58.69,89.29,19.06,49.21-39.62,28.26-87.91,28.26-87.91,0,0-18.74-63-76.12-94.2-57.38-31.19-69.68-112.04,60.16-62.43,0,0,206.88,162.75,238.52,152.46,0,0,159.36,78.49,153.61-70.95-5.75-149.45-165.13-152.71-165.13-152.71,0,0-152.48-11.63-186.6-22.4-34.12-10.77-61.33-29.91-66.85-30.74-5.52-.83,48.66-35.95,162.79-31.96,0,0,180.99-2.89,233.33-38.28,0,0,84.06-21.22,45.56-115.41-38.51-94.19-96.09-61.46-96.09-61.46,0,0-67.69,12.4-132.17,53.49-64.48,41.09-157.19,57.25-242.34,10.6-85.15-46.65,50.35-159.83,50.35-159.83,0,0,219.75-123.08,113.92-219.86,0,0-48.91-75.06-152.59,39.13,0,0-40.39,56-48.31,96.18-7.92,40.19-118.96,153.28-118.96,153.28,0,0-63.01,56.36-51.68-19.05,0,0-5.23-40.28,62.93-80.82,68.16-40.54-12.75-127.93-12.75-127.93,0,0-66.47-83.34-119.72-66.89-53.25,16.45-54.47,74.57-54.47,74.57,0,0-4.05,61.96,17.17,98.5,21.22,36.55-16.58,72.74-16.58,72.74,0,0-42.51,57.56-94.26-23.57,0,0-43.74-134.47-58.45-136.68-14.71-2.21-8.91-40.84-85.06-22.19,0,0-33.57,23.17,30.04,100.44,63.62,77.27,111.06,137.06,89.25,169.52-21.81,32.46-126.38,52.48-188.99-19-62.61-71.48-171.7-251.15-183.31-257.01S355.34-72.07,224.18-12.79c0,0-105.4,25.54-4.08,127.28,101.32,101.75,196.13,121.64,196.13,121.64,0,0,213.43,94.14,204.3,192.45,0,0-240.57-51.2-268.53-40.36-27.96,10.84-178.13-28.65-156.66,128.8,21.48,157.45,166.63,55.14,166.63,55.14,0,0,166.76-70.86,218.07-36.82,51.31,34.04,45.78,70.83,45.78,70.83,0,0,6.7,55.55-107.99,55.24-114.68-.31-108.65,109.69-108.65,109.69,0,0-3.52,85.99,122.31,37.19,125.83-48.8,121.23-68.3,159.12-70.13,37.89-1.83,29.87,51.51,29.87,51.51,0,0-6.55,68.61-75.17,99.67-68.62,31.07-182.49,100.47-149.5,193.82,32.99,93.36,85.14,84.27,85.14,84.27,0,0,63.36,3.88,131.28-147.66,67.92-151.54,121.9-160.36,121.9-160.36,0,0,50.59-11.21,48.91,75.06,0,0-13.81,54.35-30.18,63.17-16.37,8.82-35.34,84.97-19.16,102.45,16.18,17.48,92.85,145.61,143.92,31.03,0,0,19.97-32.73,3.26-159.38,0,0,6.83-70.45,26.05-73.2Z"/><path class="cls-1" d="m1412.99,885.63s41.88-42.39,97.78,24.81c55.9,67.2,25.97,116.77,25.97,116.77,0,0-39.58,65.01-119.41-25.73,0,0-46.93-98.43-4.34-115.84Z"/><path class="cls-1" d="m1693.62,937.88s-56.79-8.65-48.56,57.96c0,0,29.96,87.53,57.88,16.47,27.92-71.07-9.32-74.43-9.32-74.43Z"/><path class="cls-1" d="m1825.18,574.56s-54.89,35.2-16.34,90.52c38.55,55.32,83.86-.86,83.86-.86,0,0,26.06-33.44-.49-65.43-26.55-31.99-67.04-24.23-67.04-24.23Z"/><path class="cls-1" d="m1658.2,153.31s-5.78,11.91-25.29,26.71c-19.51,14.8-14.39,28.65-14.39,28.65,0,0,9.23,18.29,30.35,3.61,0,0,9.13-10.8,14.13-30.39,0,0,2.69-9.42,14.31-14.04,0,0,3.47,1.97-3.05,12.39,0,0-3.68,9.92,5.37,12.49,9.05,2.57,13.11-4.13,13.11-4.13,0,0,6.04-7.7,4.89-17.35-1.15-9.65,7.61-18.1,12.76,1.94,0,0-1.97,39.14,2.01,42.09,0,0,4.18,26.11,21.84,12.55,17.66-13.56,4.34-33.2,4.34-33.2,0,0-11.71-19.52-13.34-24.59s-1.64-10.02-2.02-10.77,8.55,2.82,17.89,17.02c0,0,15.93,21.74,24.73,25.05,0,0,9.81,8.39,17.94-4.4,8.13-12.78-.8-16.96-.8-16.96,0,0-7.33-7.16-17.87-11.45-10.54-4.3-20.48-14.17-22.14-28.53s23.75-7.64,23.75-7.64c0,0,33.86,16.1,36.51-5.08,0,0,4.91-12.4-17.88-15.17,0,0-10.28-.09-15.84,2.41-5.56,2.5-28.86-1.26-28.86-1.26,0,0-12.27-2.8-2.13-7.92,0,0,4.44-4.1,15.23.69s14.44-12.56,14.44-12.56c0,0,4.4-15.25-2.18-20.3-6.58-5.05-13.75-.2-13.75-.2,0,0-7.87,4.84-10.49,10.56s-10.26,4.25-10.26,4.25c0,0-10.65-.21-5.25-13.48,0,0,12.57-16.88,11.57-18.86-1-1.98,4.19-4.6-4.62-12.24,0,0-5.7-2.08-9.62,12.29s-7.09,25.28-12.91,25.43c-5.82.14-17.25-10.84-13.95-24.59,3.29-13.76,15.73-42.47,15.45-44.38s7.85-21.33-10.64-32.16c0,0-12.17-10.61-15.81,10.46-3.64,21.06,2.1,34.29,2.1,34.29,0,0,6.93,34.03-5.8,41.38,0,0-14.48-33.63-18.2-36.09-3.72-2.46-11.85-24.1-29.13-7.95-17.28,16.16,7.64,24.99,7.64,24.99,0,0,22.96,14.16,23.24,23.32.28,9.16-4.66,11.66-4.66,11.66,0,0-6.17,5.59-16-8.36-9.83-13.96-22.67-3.76-22.67-3.76,0,0-10.75,6.97,6.01,18.06s18.73,8.85,22.21,13.3c3.48,4.45-3.69,8.06-3.69,8.06,0,0-8.9,5.11-18.58-.55-9.68-5.66-27.91-13.52-36.41-1.48-8.5,12.04-2.91,17.59-2.91,17.59,0,0,4.98,8.03,29.23,3.24,24.25-4.79,29.97,1.01,29.97,1.01,0,0,5.71,5.18-4.91,12.4,0,0-7.79,3-10.27,1.77-2.48-1.23-13.36,3.02-14.09,6.49-.73,3.47-9.7,23.81,8.61,20.15,0,0,5.69-.39,19.64-13.32,0,0,9.14-5.23,11.13-3.13Z"/><path class="cls-1" d="m845.5,20.06s-3.22,6.63-14.08,14.87c-10.86,8.24-8.01,15.95-8.01,15.95,0,0,5.14,10.18,16.89,2.01,0,0,5.08-6.01,7.87-16.91,0,0,1.5-5.24,7.97-7.82,0,0,1.93,1.1-1.7,6.9,0,0-2.05,5.52,2.99,6.95,5.04,1.43,7.3-2.3,7.3-2.3,0,0,3.36-4.28,2.72-9.66-.64-5.37,4.24-10.08,7.1,1.08,0,0-1.1,21.78,1.12,23.43,0,0,2.33,14.53,12.15,6.99,9.83-7.55,2.42-18.48,2.42-18.48,0,0-6.52-10.87-7.42-13.69s-.92-5.58-1.12-5.99,4.76,1.57,9.96,9.48c0,0,8.86,12.1,13.76,13.94,0,0,5.46,4.67,9.98-2.45,4.52-7.11-.45-9.44-.45-9.44,0,0-4.08-3.98-9.95-6.37s-11.4-7.89-12.32-15.88c-.92-7.99,13.22-4.25,13.22-4.25,0,0,18.85,8.96,20.32-2.83,0,0,2.73-6.9-9.95-8.44,0,0-5.72-.05-8.82,1.34-3.1,1.39-16.06-.7-16.06-.7,0,0-6.83-1.56-1.19-4.41,0,0,2.47-2.28,8.48.38,6,2.67,8.04-6.99,8.04-6.99,0,0,2.45-8.49-1.21-11.3-3.66-2.81-7.65-.11-7.65-.11,0,0-4.38,2.69-5.84,5.88s-5.71,2.36-5.71,2.36c0,0-5.93-.12-2.92-7.5,0,0,7-9.4,6.44-10.5s2.33-2.56-2.57-6.81c0,0-3.17-1.16-5.35,6.84-2.18,8-3.95,14.07-7.19,14.15-3.24.08-9.6-6.03-7.77-13.69,1.83-7.66,8.76-23.64,8.6-24.7-.16-1.07,4.37-11.87-5.92-17.9,0,0-6.77-5.9-8.8,5.82-2.03,11.72,1.17,19.09,1.17,19.09,0,0,3.86,18.94-3.23,23.03,0,0-8.06-18.72-10.13-20.09-2.07-1.37-6.59-13.42-16.21-4.42s4.25,13.91,4.25,13.91c0,0,12.78,7.88,12.93,12.98.16,5.1-2.6,6.49-2.6,6.49,0,0-3.43,3.11-8.91-4.65-5.47-7.77-12.62-2.09-12.62-2.09,0,0-5.98,3.88,3.34,10.05,9.33,6.17,10.42,4.93,12.36,7.4,1.94,2.47-2.05,4.49-2.05,4.49,0,0-4.95,2.84-10.34-.31-5.39-3.15-15.53-7.53-20.26-.82-4.73,6.7-1.62,9.79-1.62,9.79,0,0,2.77,4.47,16.27,1.8s16.68.56,16.68.56c0,0,3.18,2.88-2.73,6.9,0,0-4.34,1.67-5.72.98s-7.44,1.68-7.84,3.61c-.41,1.93-5.4,13.25,4.79,11.22,0,0,3.17-.22,10.93-7.41,0,0,5.09-2.91,6.2-1.74Z"/><path class="cls-1" d="m279.18,837.44s19.41-14.59,63.66-22.38c44.25-7.79,47.5-34.69,47.5-34.69,0,0,.28-37.59-46.5-31.34,0,0-23.95,9.98-48.54,37.73,0,0-12.29,13.11-35.13,10.91,0,0-4.02-6.13,15.37-17.66,0,0,14.32-13.1,1.71-24.88-12.61-11.78-24.86-4.25-24.86-4.25,0,0-16.31,7.5-22.53,24.21-6.22,16.72-27.6,23.16-19.2-13.86,0,0,36.03-62.21,32.02-70.37,0,0,15.08-46.11-25.11-38.79-40.18,7.32-34.92,50.53-34.92,50.53,0,0,2.73,41.67,1.14,51.31-1.6,9.64-5.72,17.74-5.73,19.26s-11.59-11.77-14.92-42.78c0,0-7.76-48.82-19.35-61.61,0,0-8.98-21.91-32.96-7.87-23.98,14.04-12.91,28.35-12.91,28.35,0,0,5.96,17.82,19.56,33.67,13.6,15.85,21.54,40.29,12.21,65.11-9.33,24.82-45.15-7.45-45.15-7.45,0,0-41.75-54.67-63.84-22.32,0,0-18.41,16.12,16.46,39.75,0,0,16.7,8.76,27.87,9.35s46.03,26.25,46.03,26.25c0,0,17.67,14.86-3.16,14.71,0,0-10.69,2.97-24.28-13.9-13.59-16.87-34.1,8.38-34.1,8.38,0,0-19.97,21.18-13.47,34.95,6.5,13.76,22.26,11.85,22.26,11.85,0,0,16.91-1.29,25.97-8.44,9.06-7.15,20.31,1.68,20.31,1.68,0,0,17.2,9.27-2.74,26.39,0,0-34.67,17.01-34.7,21.07-.03,4.06-10.7,3.98-2.72,23.85,0,0,7.56,8.18,26-12,18.44-20.18,32.78-35.31,42.39-30.67,9.62,4.64,19.06,32.15,2.15,51.83-16.91,19.68-61.28,56.11-62.42,59.47-1.14,3.36-30.69,28.22-9.61,61.39,0,0,10.97,27.51,34.57-3.8,23.6-31.32,25.32-57.72,25.32-57.72,0,0,17.22-61.34,44.16-62.66,0,0-4.57,67.02-.56,74.16,4.01,7.14-.88,49.27,40.86,37.39,41.74-11.88,8.48-47.18,8.48-47.18,0,0-25.59-42.35-18.36-57.54s17.38-15.11,17.38-15.11c0,0,14.76-3.95,19.1,27.07,4.34,31.02,33.85,25.15,33.85,25.15,0,0,23.38-2.36,5.34-34.5-18.05-32.14-23.14-30.14-25.1-40.32-1.96-10.17,12.78-10.06,12.78-10.06,0,0,18.8-.87,29.85,16.48,11.04,17.35,34.2,45.47,58.17,32.95,23.97-12.52,19.5-26.27,19.5-26.27,0,0-1.39-17.28-44.99-29.8-43.59-12.52-48.06-26.78-48.06-26.78,0,0-4.98-13.24,18.41-16.12,0,0,15.23,1.64,18.24,5.72,3.02,4.09,24.34,6.28,28.44,1.23,4.1-5.05,35.79-30.72,2.84-40.11,0,0-9.62-4.14-43.22,5.26,0,0-19.31.87-20.8-4.22Z"/><path class="cls-1" d="m71.14,212.48s16.32-48.32,84.5-19.17c68.19,29.15,63.75,78.25,63.75,78.25,0,0-6.06,64.53-101.49,26.86,0,0-73-56.25-46.77-85.94Z"/><path class="cls-1" d="m1796.71,927.14s-3.22,6.63-14.08,14.87c-10.86,8.24-8.01,15.95-8.01,15.95,0,0,5.14,10.18,16.89,2.01,0,0,5.08-6.01,7.87-16.91,0,0,1.5-5.24,7.97-7.82,0,0,1.93,1.1-1.7,6.9,0,0-2.05,5.52,2.99,6.95,5.04,1.43,7.3-2.3,7.3-2.3,0,0,3.36-4.28,2.72-9.66-.64-5.37,4.24-10.08,7.1,1.08,0,0-1.1,21.78,1.12,23.43,0,0,2.33,14.53,12.15,6.99,9.83-7.55,2.42-18.48,2.42-18.48,0,0-6.52-10.87-7.42-13.69s-.92-5.58-1.12-5.99,4.76,1.57,9.96,9.48c0,0,8.86,12.1,13.76,13.94,0,0,5.46,4.67,9.98-2.45s-.45-9.44-.45-9.44c0,0-4.08-3.98-9.95-6.37-5.87-2.39-11.4-7.89-12.32-15.88-.92-7.99,13.22-4.25,13.22-4.25,0,0,18.85,8.96,20.32-2.83,0,0,2.73-6.9-9.95-8.44,0,0-5.72-.05-8.82,1.34-3.1,1.39-16.06-.7-16.06-.7,0,0-6.83-1.56-1.19-4.41,0,0,2.47-2.28,8.48.38,6,2.67,8.04-6.99,8.04-6.99,0,0,2.45-8.49-1.21-11.3-3.66-2.81-7.65-.11-7.65-.11,0,0-4.38,2.69-5.84,5.88-1.45,3.18-5.71,2.36-5.71,2.36,0,0-5.93-.12-2.92-7.5,0,0,7-9.4,6.44-10.5s2.33-2.56-2.57-6.81c0,0-3.17-1.16-5.35,6.84-2.18,8-3.95,14.07-7.19,14.15-3.24.08-9.6-6.03-7.77-13.69s8.76-23.64,8.6-24.7,4.37-11.87-5.92-17.9c0,0-6.77-5.9-8.8,5.82-2.03,11.72,1.17,19.09,1.17,19.09,0,0,3.86,18.94-3.23,23.03,0,0-8.06-18.72-10.13-20.09-2.07-1.37-6.59-13.42-16.21-4.42s4.25,13.91,4.25,13.91c0,0,12.78,7.88,12.93,12.98.16,5.1-2.6,6.49-2.6,6.49,0,0-3.43,3.11-8.91-4.65-5.47-7.77-12.62-2.09-12.62-2.09,0,0-5.98,3.88,3.34,10.05,9.33,6.17,10.42,4.93,12.36,7.4,1.94,2.47-2.05,4.49-2.05,4.49,0,0-4.95,2.84-10.34-.31-5.39-3.15-15.53-7.53-20.26-.82-4.73,6.7-1.62,9.79-1.62,9.79,0,0,2.77,4.47,16.27,1.8s16.68.56,16.68.56c0,0,3.18,2.88-2.73,6.9,0,0-4.34,1.67-5.72.98s-7.44,1.68-7.84,3.61c-.41,1.93-5.4,13.25,4.79,11.22,0,0,3.17-.22,10.93-7.41,0,0,5.09-2.91,6.2-1.74Z"/></svg>