<?xml version="1.0" encoding="UTF-8"?><svg id="knapper" xmlns="http://www.w3.org/2000/svg" width="400" height="100" viewBox="0 0 400 100"><defs><style>.cls-1{fill:rgba(255,206,113,.95);stroke:#231f20;stroke-miterlimit:10;stroke-width:5px;}.cls-2{stroke-width:0px;}</style></defs><rect class="cls-1" x="3.22" y="2.68" width="393.55" height="94.63" rx="12" ry="12"/><path class="cls-2" d="m148.58,64.03c-.55,0-1.24-.05-2.09-.16-.85-.11-1.75-.27-2.7-.5-.95-.22-1.9-.5-2.86-.84s-1.81-.74-2.58-1.21c-.76-.47-1.38-1-1.86-1.59-.48-.6-.72-1.25-.72-1.97,0-.59.15-1.21.45-1.85.3-.65.7-1.24,1.19-1.78.49-.54,1.04-.98,1.64-1.34.6-.35,1.21-.53,1.83-.53.26,0,.54.08.83.25.29.17.62.37.97.62.35.24.73.51,1.14.81.41.29.86.56,1.35.81.49.25,1.02.45,1.61.61.58.17,1.21.25,1.89.25.11,0,.24,0,.38-.02.14-.01.27-.04.39-.09s.23-.11.31-.21c.09-.09.13-.21.13-.36,0-.2-.06-.4-.18-.59s-.27-.38-.45-.57c-.18-.19-.37-.36-.56-.51-.19-.15-.36-.28-.51-.38-.7-.5-1.52-.95-2.45-1.34s-1.88-.78-2.86-1.17-1.94-.81-2.88-1.25c-.94-.44-1.78-.96-2.52-1.57-.74-.61-1.34-1.33-1.79-2.16-.45-.83-.68-1.81-.68-2.96s.17-2.16.52-3.12.82-1.82,1.41-2.6c.6-.78,1.3-1.47,2.1-2.07.8-.6,1.67-1.11,2.61-1.51.93-.4,1.91-.71,2.93-.92s2.03-.31,3.04-.31c.57,0,1.29.06,2.13.18.85.12,1.74.31,2.68.55.94.25,1.88.55,2.8.93.93.37,1.76.8,2.51,1.29.75.49,1.35,1.04,1.81,1.66s.69,1.3.69,2.05c0,.52-.13,1.08-.39,1.68s-.6,1.17-1.01,1.7c-.42.53-.89.97-1.43,1.33s-1.08.53-1.63.53c-.25,0-.56-.17-.96-.52s-.88-.72-1.47-1.13c-.58-.41-1.27-.79-2.07-1.13s-1.72-.52-2.77-.52c-.12,0-.25,0-.41.02-.16.01-.31.05-.45.11s-.27.13-.37.23c-.1.09-.15.23-.15.4,0,.23.06.44.19.62.13.19.27.36.43.52.59.65,1.32,1.2,2.2,1.67s1.8.91,2.78,1.33c.98.42,1.95.85,2.93,1.3s1.86,1,2.64,1.63c.78.63,1.42,1.39,1.91,2.29.49.89.73,1.98.73,3.25,0,1.05-.18,2.03-.53,2.93-.35.91-.83,1.74-1.43,2.49-.6.75-1.31,1.42-2.12,2-.81.58-1.67,1.08-2.59,1.49-.91.41-1.86.72-2.83.93-.98.21-1.93.31-2.87.31Z"/><path class="cls-2" d="m175.51,63.4c-.79,0-1.57-.1-2.33-.3s-1.44-.51-2.03-.93c-.59-.42-1.06-.94-1.42-1.58s-.54-1.41-.54-2.3c0-1.16.12-2.34.35-3.51.23-1.18.48-2.37.75-3.57s.52-2.41.75-3.63c.23-1.22.34-2.46.34-3.73,0-.37-.03-.74-.1-1.11-.07-.37-.18-.69-.33-.98-.16-.29-.38-.52-.67-.7s-.66-.27-1.12-.27c-.53,0-1.05.09-1.55.28-.5.19-.98.39-1.42.6-.45.22-.85.42-1.21.6-.36.19-.66.28-.91.28-.45,0-.81-.18-1.09-.53-.28-.35-.5-.77-.67-1.25s-.28-.98-.33-1.5-.09-.93-.09-1.25c0-.39.02-.78.06-1.16.09-.63.41-1.17.96-1.63.55-.45,1.24-.84,2.05-1.15.81-.32,1.71-.57,2.68-.76.98-.19,1.94-.34,2.89-.45.95-.11,1.83-.18,2.65-.22.82-.04,1.47-.05,1.94-.05s1.15.02,1.97.05c.83.04,1.72.11,2.7.22.97.11,1.96.26,2.97.45,1.01.19,1.94.45,2.78.76.84.32,1.54.7,2.11,1.15.57.45.9,1,.98,1.63.04.39.06.78.06,1.16,0,.33-.03.75-.09,1.26-.06.51-.17,1.01-.32,1.5-.16.49-.38.91-.66,1.25-.28.34-.65.52-1.11.52-.24,0-.54-.09-.89-.27-.35-.18-.74-.38-1.16-.59-.42-.21-.87-.41-1.35-.59-.47-.18-.95-.27-1.42-.27-.42,0-.75.09-1.01.26-.26.17-.46.4-.59.68-.14.28-.23.59-.27.94s-.06.68-.06,1.01c0,.93.06,1.88.17,2.82.12.95.26,1.89.44,2.83.18.94.38,1.88.6,2.81.22.93.45,1.85.68,2.76.13.5.27,1.04.43,1.62s.24,1.12.24,1.64c0,.92-.21,1.71-.63,2.36s-.95,1.19-1.61,1.61c-.65.42-1.39.73-2.2.93-.81.2-1.61.3-2.4.3Z"/><path class="cls-2" d="m191.53,63.42c-.78,0-1.56-.1-2.36-.29-.8-.19-1.51-.5-2.15-.92-.63-.42-1.15-.95-1.55-1.6-.4-.65-.6-1.42-.6-2.31,0-1.37.2-2.67.6-3.92.4-1.25.89-2.48,1.46-3.69.57-1.21,1.16-2.41,1.79-3.6.62-1.19,1.16-2.41,1.61-3.67.45-1.24.75-2.49.92-3.76.17-1.27.27-2.56.31-3.87.01-.46.15-.86.4-1.2.25-.34.58-.62.97-.86.39-.24.84-.43,1.34-.59.5-.16,1-.28,1.5-.37.5-.09.98-.14,1.44-.17.46-.03.85-.04,1.19-.04.36,0,.77.01,1.24.04.47.03.96.09,1.47.18.51.09,1.01.22,1.5.38.49.16.93.36,1.31.61.39.25.7.56.94.92s.36.78.36,1.27c0,.91.04,1.8.12,2.68.08.88.23,1.76.44,2.62.24,1.02.56,2.01.95,2.96.39.96.8,1.89,1.24,2.81.44.92.88,1.83,1.34,2.73.45.9.86,1.8,1.22,2.71.36.91.65,1.83.88,2.77.23.94.34,1.91.34,2.9,0,.91-.19,1.69-.57,2.35s-.88,1.21-1.5,1.64c-.62.43-1.32.75-2.1.95s-1.58.3-2.38.3c-.58,0-1.15-.05-1.71-.16-.57-.11-1.1-.3-1.61-.57-.5-.26-.86-.57-1.07-.94-.21-.37-.34-.76-.39-1.19s-.06-.86-.02-1.32.06-.89.06-1.3c0-.42-.04-.8-.14-1.16-.1-.36-.32-.66-.65-.91-.47-.32-.98-.47-1.51-.47-.65,0-1.15.19-1.5.57-.35.38-.53.89-.53,1.52v3.41c0,.5-.17.92-.51,1.24s-.74.58-1.22.78-.97.33-1.5.41c-.53.08-.98.12-1.37.12Zm6.55-12.74c.55,0,.95-.19,1.22-.57s.4-.82.4-1.33c0-.16-.01-.4-.03-.73-.02-.33-.05-.71-.1-1.13s-.1-.86-.18-1.3c-.08-.45-.18-.85-.3-1.22s-.27-.67-.43-.91c-.17-.24-.36-.36-.59-.36-.22,0-.4.13-.56.38-.16.25-.29.58-.4.97-.11.4-.2.83-.27,1.3-.07.47-.13.93-.17,1.37s-.07.83-.09,1.19c-.01.35-.02.6-.02.74,0,.46.14.84.42,1.14s.65.45,1.11.45Z"/><path class="cls-2" d="m234.56,63.47c-1.06,0-1.95-.14-2.66-.42-.71-.28-1.29-.66-1.72-1.13-.44-.47-.78-1.03-1.01-1.66-.24-.63-.42-1.3-.56-2s-.24-1.43-.32-2.18-.18-1.47-.31-2.16c-.13-.69-.31-1.34-.55-1.95-.24-.61-.58-1.13-1.02-1.56-.16-.16-.34-.31-.55-.45-.21-.14-.44-.21-.68-.21-.17,0-.31.04-.41.12s-.18.18-.23.31c-.05.13-.09.27-.11.41-.02.14-.03.28-.03.41,0,.52.08,1.14.24,1.87s.36,1.47.59,2.24c.24.77.49,1.51.77,2.22.27.71.52,1.31.73,1.8.09.19.16.38.21.58s.09.4.09.6c0,.45-.12.83-.37,1.15-.24.32-.56.6-.95.83s-.83.42-1.32.56c-.49.14-.98.26-1.48.34s-.97.14-1.43.17c-.46.03-.85.04-1.16.04-.45,0-1-.03-1.66-.09-.66-.06-1.33-.17-1.99-.33-.67-.17-1.28-.39-1.82-.68-.55-.29-.93-.65-1.14-1.1-.17-.36-.29-.77-.36-1.24-.07-.47-.1-.89-.1-1.28,0-1.19.12-2.41.36-3.64.24-1.24.5-2.49.78-3.75s.54-2.55.78-3.86c.24-1.31.36-2.63.36-3.97s-.14-2.62-.43-3.82c-.29-1.19-.78-2.37-1.47-3.54-.1-.16-.19-.33-.26-.51-.07-.18-.11-.37-.11-.57,0-.34.1-.64.3-.89.2-.25.46-.47.78-.65.32-.18.68-.33,1.08-.44s.8-.21,1.21-.27.78-.11,1.14-.14c.36-.03.66-.04.91-.04.63,0,1.26.05,1.88.14.62.09,1.23.24,1.83.44.78-.17,1.56-.31,2.36-.42.8-.11,1.6-.16,2.4-.16,1.15,0,2.32.15,3.5.44,1.19.29,2.26.75,3.22,1.38.96.62,1.75,1.42,2.36,2.39.61.97.92,2.12.92,3.46,0,.75-.11,1.46-.33,2.13s-.53,1.31-.92,1.9c-.39.59-.84,1.14-1.36,1.65-.52.51-1.07.97-1.66,1.37.37.32.7.66.98,1.04s.54.77.76,1.19c.36.69.69,1.39.99,2.1.3.71.61,1.42.94,2.11s.67,1.38,1.05,2.06c.37.68.81,1.32,1.32,1.92.24.29.45.6.6.95.16.34.24.71.24,1.1,0,.65-.17,1.2-.51,1.67-.34.47-.76.85-1.27,1.15s-1.07.52-1.67.66c-.6.14-1.18.21-1.72.21Zm-9.38-19.49c.37,0,.8-.05,1.28-.15s.94-.25,1.37-.46c.43-.21.79-.48,1.09-.82.29-.34.44-.74.44-1.22,0-.4-.15-.71-.45-.94s-.67-.39-1.09-.5c-.42-.11-.86-.17-1.29-.19s-.79-.03-1.07-.03c-.68,0-1.23.21-1.66.62-.43.42-.65.97-.65,1.66,0,.6.19,1.09.57,1.47.38.37.87.56,1.46.56Z"/><path class="cls-2" d="m252.45,63.4c-.79,0-1.57-.1-2.33-.3s-1.44-.51-2.03-.93c-.59-.42-1.06-.94-1.42-1.58s-.54-1.41-.54-2.3c0-1.16.12-2.34.35-3.51.23-1.18.48-2.37.75-3.57s.52-2.41.75-3.63c.23-1.22.34-2.46.34-3.73,0-.37-.03-.74-.1-1.11-.07-.37-.18-.69-.33-.98-.16-.29-.38-.52-.67-.7s-.66-.27-1.12-.27c-.53,0-1.05.09-1.55.28-.5.19-.98.39-1.42.6-.45.22-.85.42-1.21.6-.36.19-.66.28-.91.28-.45,0-.81-.18-1.09-.53-.28-.35-.5-.77-.67-1.25s-.28-.98-.33-1.5-.09-.93-.09-1.25c0-.39.02-.78.06-1.16.09-.63.41-1.17.96-1.63.55-.45,1.24-.84,2.05-1.15.81-.32,1.71-.57,2.68-.76.98-.19,1.94-.34,2.89-.45.95-.11,1.83-.18,2.65-.22.82-.04,1.47-.05,1.94-.05s1.15.02,1.97.05c.83.04,1.72.11,2.7.22.97.11,1.96.26,2.97.45,1.01.19,1.94.45,2.78.76.84.32,1.54.7,2.11,1.15.57.45.9,1,.98,1.63.04.39.06.78.06,1.16,0,.33-.03.75-.09,1.26-.06.51-.17,1.01-.32,1.5-.16.49-.38.91-.66,1.25-.28.34-.65.52-1.11.52-.24,0-.54-.09-.89-.27-.35-.18-.74-.38-1.16-.59-.42-.21-.87-.41-1.35-.59-.47-.18-.95-.27-1.42-.27-.42,0-.75.09-1.01.26-.26.17-.46.4-.59.68-.14.28-.23.59-.27.94s-.06.68-.06,1.01c0,.93.06,1.88.17,2.82.12.95.26,1.89.44,2.83.18.94.38,1.88.6,2.81.22.93.45,1.85.68,2.76.13.5.27,1.04.43,1.62s.24,1.12.24,1.64c0,.92-.21,1.71-.63,2.36s-.95,1.19-1.61,1.61c-.65.42-1.39.73-2.2.93-.81.2-1.61.3-2.4.3Z"/></svg>