<?xml version="1.0" encoding="UTF-8"?><svg id="Perlekrone" xmlns="http://www.w3.org/2000/svg" width="220" height="140" xmlns:xlink="http://www.w3.org/1999/xlink" viewBox="0 0 220 140"><defs><style>.cls-1{fill:#fff;stroke:#fff;}.cls-1,.cls-2{stroke-width:.5px;}.cls-1,.cls-2,.cls-3{stroke-miterlimit:10;}.cls-2{fill:#c7e2ec;}.cls-2,.cls-3{stroke:#000;}.cls-3{fill:#001cff;}.cls-4{filter:url(#drop-shadow-21);}</style><filter id="drop-shadow-21" filterUnits="userSpaceOnUse"><feOffset dx="-2" dy="2"/><feGaussianBlur result="blur" stdDeviation="0"/><feFlood flood-color="#000" flood-opacity=".5"/><feComposite in2="blur" operator="in"/><feComposite in="SourceGraphic"/></filter></defs><g class="cls-4"><path class="cls-3" d="m108.46,83.15s-10.63-23.36-20.84-31.21c-3.68-2.83-7.31-3.64-10.37-.61-3.02,3-2.31,6.6.37,10.3,7.56,10.42,30.84,21.51,30.84,21.51Z"/><path class="cls-3" d="m108.97,83.15s-.47-31.8-8.16-45.77c-2.78-5.04-6.49-7.76-11.46-5.83s-5.91,6.35-4.7,11.87c3.4,15.57,24.32,39.73,24.32,39.73Z"/><path class="cls-3" d="m111.01,83.15s10.63-23.36,20.84-31.21c3.68-2.83,7.31-3.64,10.37-.61,3.02,3,2.31,6.6-.37,10.3-7.56,10.42-30.84,21.51-30.84,21.51Z"/><path class="cls-3" d="m110.42,83.15s.47-31.8,8.16-45.77c2.78-5.04,6.49-7.76,11.46-5.83s5.91,6.35,4.7,11.87c-3.4,15.57-24.32,39.73-24.32,39.73Z"/><path class="cls-3" d="m109.58,83.15s-11.8-32.47-9.39-49.63c.87-6.19,3.59-10.39,9.39-10.35,5.72.04,8.45,4.17,9.36,10.24,2.56,17.13-9.36,49.74-9.36,49.74Z"/><path class="cls-3" d="m109.9,83.93s-9.89-6.82-15.79-6.99c-2.13-.06-3.74.74-4.18,3.05s.73,3.63,2.68,4.39c5.5,2.14,17.3-.44,17.3-.44Z"/><path class="cls-3" d="m109.26,83.93s9.89-6.82,15.79-6.99c2.13-.06,3.74.74,4.18,3.05.44,2.27-.73,3.63-2.68,4.39-5.5,2.14-17.3-.44-17.3-.44Z"/><path class="cls-3" d="m43.74,107.25s-11.42-11.76-19.24-14.28c-2.82-.91-5.18-.62-6.36,1.87-1.17,2.45.03,4.47,2.44,6.11,6.78,4.64,23.17,6.3,23.17,6.3Z"/><path class="cls-3" d="m44.04,107.14s-7.12-19.01-14.75-25.76c-2.75-2.43-5.57-3.27-8.15-1.04-2.54,2.2-2.18,5.09-.27,8.15,5.4,8.63,23.17,18.65,23.17,18.65Z"/><path class="cls-3" d="m45.27,106.7s1.36-16.33,5.81-23.25c1.61-2.49,3.61-3.76,6.1-2.59,2.46,1.15,2.81,3.47,2,6.27-2.3,7.89-13.91,19.57-13.91,19.57Z"/><path class="cls-3" d="m44.92,106.83s-6.56-19.21-4.94-29.27c.58-3.63,2.23-6.06,5.64-5.97,3.36.09,4.92,2.55,5.38,6.13,1.3,10.1-6.07,29.12-6.07,29.12Z"/><path class="cls-3" d="m44.41,107.01s-14.08-16.98-16.32-27.82c-.81-3.91-.08-7.02,3.42-8.24,3.45-1.21,5.98.69,7.83,4.14,5.22,9.75,5.08,31.92,5.08,31.92Z"/><path class="cls-3" d="m44.77,107.41s-7.41-1.97-11-.8c-1.29.42-2.09,1.25-1.86,2.73s1.22,2.02,2.55,2.06c3.77.1,10.3-3.99,10.3-3.99Z"/><path class="cls-3" d="m44.39,107.54s4.48-6.23,7.99-7.6c1.27-.5,2.41-.36,3.17.93s.34,2.34-.67,3.21c-2.85,2.47-10.49,3.46-10.49,3.46Z"/><path class="cls-3" d="m177.16,107.11s11.42-11.76,19.24-14.28c2.82-.91,5.18-.62,6.36,1.87,1.17,2.45-.03,4.47-2.44,6.11-6.78,4.64-23.17,6.3-23.17,6.3Z"/><path class="cls-3" d="m176.86,107s7.12-19.01,14.75-25.76c2.75-2.43,5.57-3.27,8.15-1.04,2.54,2.2,2.18,5.09.27,8.15-5.4,8.63-23.17,18.65-23.17,18.65Z"/><path class="cls-3" d="m175.63,106.57s-1.36-16.33-5.81-23.25c-1.61-2.49-3.61-3.76-6.1-2.59-2.46,1.15-2.81,3.47-2,6.27,2.3,7.89,13.91,19.57,13.91,19.57Z"/><path class="cls-3" d="m175.98,106.69s6.56-19.21,4.94-29.27c-.58-3.63-2.23-6.06-5.64-5.97-3.36.09-4.92,2.55-5.38,6.13-1.3,10.1,6.07,29.12,6.07,29.12Z"/><path class="cls-3" d="m176.49,106.87s14.08-16.98,16.32-27.82c.81-3.91.08-7.02-3.42-8.24s-5.98.69-7.83,4.14c-5.22,9.75-5.08,31.92-5.08,31.92Z"/><path class="cls-3" d="m176.13,107.27s7.41-1.97,11-.8c1.29.42,2.09,1.25,1.86,2.73s-1.22,2.02-2.55,2.06c-3.77.1-10.3-3.99-10.3-3.99Z"/><path class="cls-3" d="m176.51,107.41s-4.48-6.23-7.99-7.6c-1.27-.5-2.41-.36-3.17.93-.75,1.27-.34,2.34.67,3.21,2.85,2.47,10.49,3.46,10.49,3.46Z"/><circle class="cls-2" cx="109.58" cy="12.9" r="10.27"/><circle class="cls-1" cx="113.8" cy="7.68" r="1.92"/><circle class="cls-2" cx="27.79" cy="61.04" r="10.27"/><circle class="cls-1" cx="31.03" cy="55.17" r="1.92"/><circle class="cls-2" cx="194.66" cy="61.04" r="10.27"/><circle class="cls-1" cx="200.39" cy="57.56" r="1.92"/><circle class="cls-2" cx="67.9" cy="72.73" r="15.83"/><circle class="cls-1" cx="72.9" cy="63.69" r="2.97"/><circle class="cls-2" cx="152.83" cy="71.58" r="15.83"/><circle class="cls-1" cx="162.04" cy="66.88" r="2.97"/><circle class="cls-2" cx="92.8" cy="92.68" r="7.46"/><circle class="cls-1" cx="95.17" cy="88.43" r="1.4"/><circle class="cls-2" cx="77.89" cy="96.07" r="7.46"/><circle class="cls-1" cx="79.99" cy="91.68" r="1.4"/><circle class="cls-2" cx="63.89" cy="102.01" r="7.46"/><circle class="cls-1" cx="66" cy="97.62" r="1.4"/><circle class="cls-2" cx="49.97" cy="108.05" r="7.46"/><circle class="cls-1" cx="52.07" cy="103.66" r="1.4"/><circle class="cls-2" cx="36.13" cy="114.39" r="7.46"/><circle class="cls-1" cx="38.23" cy="110" r="1.4"/><circle class="cls-2" cx="22.64" cy="121.64" r="7.46"/><circle class="cls-1" cx="24.75" cy="117.25" r="1.4"/><circle class="cls-2" cx="10.02" cy="129.92" r="7.46"/><circle class="cls-1" cx="12.13" cy="125.53" r="1.4"/><circle class="cls-2" cx="127.2" cy="90.86" r="7.46"/><circle class="cls-1" cx="130.44" cy="88" r="1.4"/><circle class="cls-2" cx="142.11" cy="94.24" r="7.46"/><circle class="cls-1" cx="145.68" cy="90.86" r="1.4"/><circle class="cls-2" cx="156.11" cy="100.19" r="7.46"/><circle class="cls-1" cx="160" cy="97.78" r="1.4"/><circle class="cls-2" cx="170.03" cy="106.22" r="7.46"/><circle class="cls-1" cx="174.22" cy="104.04" r="1.4"/><circle class="cls-2" cx="183.87" cy="112.56" r="7.46"/><circle class="cls-1" cx="187.3" cy="110.36" r="1.4"/><circle class="cls-2" cx="197.36" cy="119.81" r="7.46"/><circle class="cls-1" cx="201.05" cy="117.64" r="1.4"/><circle class="cls-2" cx="209.98" cy="128.09" r="7.46"/><circle class="cls-1" cx="214.26" cy="125.88" r="1.4"/><circle class="cls-2" cx="109.91" cy="87.5" r="10.27"/><circle class="cls-1" cx="114.12" cy="82.29" r="1.92"/></g></svg>